G04 #@! TF.GenerationSoftware,KiCad,Pcbnew,8.0.2-8.0.2-0~ubuntu22.04.1*
G04 #@! TF.CreationDate,2024-05-24T15:40:40+07:00*
G04 #@! TF.ProjectId,PCB_design,5043425f-6465-4736-9967-6e2e6b696361,rev?*
G04 #@! TF.SameCoordinates,Original*
G04 #@! TF.FileFunction,Legend,Bot*
G04 #@! TF.FilePolarity,Positive*
%FSLAX46Y46*%
G04 Gerber Fmt 4.6, Leading zero omitted, Abs format (unit mm)*
G04 Created by KiCad (PCBNEW 8.0.2-8.0.2-0~ubuntu22.04.1) date 2024-05-24 15:40:40*
%MOMM*%
%LPD*%
G01*
G04 APERTURE LIST*
G04 Aperture macros list*
%AMRoundRect*
0 Rectangle with rounded corners*
0 $1 Rounding radius*
0 $2 $3 $4 $5 $6 $7 $8 $9 X,Y pos of 4 corners*
0 Add a 4 corners polygon primitive as box body*
4,1,4,$2,$3,$4,$5,$6,$7,$8,$9,$2,$3,0*
0 Add four circle primitives for the rounded corners*
1,1,$1+$1,$2,$3*
1,1,$1+$1,$4,$5*
1,1,$1+$1,$6,$7*
1,1,$1+$1,$8,$9*
0 Add four rect primitives between the rounded corners*
20,1,$1+$1,$2,$3,$4,$5,0*
20,1,$1+$1,$4,$5,$6,$7,0*
20,1,$1+$1,$6,$7,$8,$9,0*
20,1,$1+$1,$8,$9,$2,$3,0*%
G04 Aperture macros list end*
%ADD10C,0.700000*%
%ADD11RoundRect,1.500000X2.000000X-1.000000X2.000000X1.000000X-2.000000X1.000000X-2.000000X-1.000000X0*%
%ADD12C,4.400000*%
%ADD13C,1.600000*%
%ADD14R,1.600000X1.600000*%
%ADD15C,1.500000*%
%ADD16R,1.000000X2.400000*%
%ADD17C,1.524000*%
%ADD18C,2.000000*%
%ADD19O,1.700000X1.700000*%
%ADD20R,1.700000X1.700000*%
%ADD21C,2.600000*%
%ADD22C,1.800000*%
G04 APERTURE END LIST*
%LPC*%
D10*
X160220000Y-36410000D03*
X160220000Y-37610000D03*
D11*
X157970000Y-37610000D03*
D10*
X160220000Y-38810000D03*
X151210000Y-43730000D03*
X150726726Y-44896726D03*
X150726726Y-42563274D03*
X149560000Y-45380000D03*
D12*
X149560000Y-43730000D03*
D10*
X149560000Y-42080000D03*
X148393274Y-44896726D03*
X148393274Y-42563274D03*
X147910000Y-43730000D03*
D13*
X106000000Y-53652651D03*
D14*
X106000000Y-57152651D03*
D15*
X136690000Y-71590000D03*
X136690000Y-79190000D03*
D16*
X151930000Y-72090000D03*
X149390000Y-79190000D03*
D17*
X143630000Y-37610000D03*
X143630000Y-47610000D03*
D18*
X143620000Y-51710000D03*
X148620000Y-51710000D03*
D19*
X109750000Y-98870000D03*
X112290000Y-98870000D03*
X109750000Y-96330000D03*
X112290000Y-96330000D03*
X109750000Y-93790000D03*
X112290000Y-93790000D03*
X109750000Y-91250000D03*
D20*
X112290000Y-91250000D03*
D15*
X136590000Y-83190000D03*
X136590000Y-90790000D03*
D16*
X151830000Y-83690000D03*
X149290000Y-90790000D03*
D21*
X125920000Y-39090000D03*
X125920000Y-42590000D03*
D10*
X160220000Y-43010000D03*
X160220000Y-44210000D03*
D11*
X157970000Y-44210000D03*
D10*
X160220000Y-45410000D03*
X105825000Y-38285000D03*
X105341726Y-39451726D03*
X105341726Y-37118274D03*
X104175000Y-39935000D03*
D12*
X104175000Y-38285000D03*
D10*
X104175000Y-36635000D03*
X103008274Y-39451726D03*
X103008274Y-37118274D03*
X102525000Y-38285000D03*
X159990000Y-82490000D03*
X159990000Y-83690000D03*
D11*
X157740000Y-83690000D03*
D10*
X159990000Y-84890000D03*
D13*
X123500000Y-94952651D03*
D14*
X123500000Y-98452651D03*
D15*
X136690000Y-60790000D03*
X136690000Y-68390000D03*
D16*
X151930000Y-61290000D03*
X149390000Y-68390000D03*
D10*
X160090000Y-60090000D03*
X160090000Y-61290000D03*
D11*
X157840000Y-61290000D03*
D10*
X160090000Y-62490000D03*
X160050000Y-102120000D03*
X159566726Y-103286726D03*
X159566726Y-100953274D03*
X158400000Y-103770000D03*
D12*
X158400000Y-102120000D03*
D10*
X158400000Y-100470000D03*
X157233274Y-103286726D03*
X157233274Y-100953274D03*
X156750000Y-102120000D03*
X106170000Y-101800000D03*
X105686726Y-102966726D03*
X105686726Y-100633274D03*
X104520000Y-103450000D03*
D12*
X104520000Y-101800000D03*
D10*
X104520000Y-100150000D03*
X103353274Y-102966726D03*
X103353274Y-100633274D03*
X102870000Y-101800000D03*
D15*
X136590000Y-94790000D03*
X136590000Y-102390000D03*
D16*
X151830000Y-95290000D03*
X149290000Y-102390000D03*
D10*
X160160000Y-51630000D03*
X160160000Y-52830000D03*
D11*
X157910000Y-52830000D03*
D10*
X160160000Y-54030000D03*
X159990000Y-94090000D03*
X159990000Y-95290000D03*
D11*
X157740000Y-95290000D03*
D10*
X159990000Y-96490000D03*
D22*
X121100000Y-60550000D03*
X121100000Y-63050000D03*
X129600000Y-60550000D03*
X129600000Y-70550000D03*
X121100000Y-70550000D03*
X121100000Y-68050000D03*
D10*
X160090000Y-70890000D03*
X160090000Y-72090000D03*
D11*
X157840000Y-72090000D03*
D10*
X160090000Y-73290000D03*
D13*
X113250000Y-80550000D03*
D14*
X109750000Y-80550000D03*
%LPD*%
M02*
