G04 #@! TF.GenerationSoftware,KiCad,Pcbnew,8.0.2-8.0.2-0~ubuntu22.04.1*
G04 #@! TF.CreationDate,2024-05-24T15:40:40+07:00*
G04 #@! TF.ProjectId,PCB_design,5043425f-6465-4736-9967-6e2e6b696361,rev?*
G04 #@! TF.SameCoordinates,Original*
G04 #@! TF.FileFunction,Paste,Top*
G04 #@! TF.FilePolarity,Positive*
%FSLAX46Y46*%
G04 Gerber Fmt 4.6, Leading zero omitted, Abs format (unit mm)*
G04 Created by KiCad (PCBNEW 8.0.2-8.0.2-0~ubuntu22.04.1) date 2024-05-24 15:40:40*
%MOMM*%
%LPD*%
G01*
G04 APERTURE LIST*
G04 Aperture macros list*
%AMRoundRect*
0 Rectangle with rounded corners*
0 $1 Rounding radius*
0 $2 $3 $4 $5 $6 $7 $8 $9 X,Y pos of 4 corners*
0 Add a 4 corners polygon primitive as box body*
4,1,4,$2,$3,$4,$5,$6,$7,$8,$9,$2,$3,0*
0 Add four circle primitives for the rounded corners*
1,1,$1+$1,$2,$3*
1,1,$1+$1,$4,$5*
1,1,$1+$1,$6,$7*
1,1,$1+$1,$8,$9*
0 Add four rect primitives between the rounded corners*
20,1,$1+$1,$2,$3,$4,$5,0*
20,1,$1+$1,$4,$5,$6,$7,0*
20,1,$1+$1,$6,$7,$8,$9,0*
20,1,$1+$1,$8,$9,$2,$3,0*%
G04 Aperture macros list end*
%ADD10RoundRect,0.250000X0.262500X0.450000X-0.262500X0.450000X-0.262500X-0.450000X0.262500X-0.450000X0*%
%ADD11RoundRect,0.225000X0.375000X-0.225000X0.375000X0.225000X-0.375000X0.225000X-0.375000X-0.225000X0*%
%ADD12RoundRect,0.250000X-0.475000X0.250000X-0.475000X-0.250000X0.475000X-0.250000X0.475000X0.250000X0*%
%ADD13RoundRect,0.250000X-0.312500X-0.625000X0.312500X-0.625000X0.312500X0.625000X-0.312500X0.625000X0*%
%ADD14RoundRect,0.250000X0.450000X-0.262500X0.450000X0.262500X-0.450000X0.262500X-0.450000X-0.262500X0*%
%ADD15RoundRect,0.150000X0.675000X0.150000X-0.675000X0.150000X-0.675000X-0.150000X0.675000X-0.150000X0*%
%ADD16RoundRect,0.250000X-1.000000X-0.650000X1.000000X-0.650000X1.000000X0.650000X-1.000000X0.650000X0*%
%ADD17RoundRect,0.250000X0.625000X-0.312500X0.625000X0.312500X-0.625000X0.312500X-0.625000X-0.312500X0*%
%ADD18RoundRect,0.150000X-0.587500X-0.150000X0.587500X-0.150000X0.587500X0.150000X-0.587500X0.150000X0*%
%ADD19RoundRect,0.375000X-0.375000X0.625000X-0.375000X-0.625000X0.375000X-0.625000X0.375000X0.625000X0*%
%ADD20RoundRect,0.500000X-1.400000X0.500000X-1.400000X-0.500000X1.400000X-0.500000X1.400000X0.500000X0*%
%ADD21RoundRect,0.250000X-0.625000X0.312500X-0.625000X-0.312500X0.625000X-0.312500X0.625000X0.312500X0*%
%ADD22RoundRect,0.250000X0.312500X0.625000X-0.312500X0.625000X-0.312500X-0.625000X0.312500X-0.625000X0*%
%ADD23RoundRect,0.250000X-0.450000X0.262500X-0.450000X-0.262500X0.450000X-0.262500X0.450000X0.262500X0*%
%ADD24RoundRect,0.250000X0.650000X-0.325000X0.650000X0.325000X-0.650000X0.325000X-0.650000X-0.325000X0*%
%ADD25R,1.000000X0.700000*%
%ADD26RoundRect,0.250000X0.250000X0.475000X-0.250000X0.475000X-0.250000X-0.475000X0.250000X-0.475000X0*%
G04 APERTURE END LIST*
D10*
X105337500Y-46902651D03*
X107162500Y-46902651D03*
D11*
X132670000Y-85760000D03*
X132670000Y-89060000D03*
D12*
X118000000Y-98500000D03*
X118000000Y-96600000D03*
D13*
X108462500Y-67750000D03*
X105537500Y-67750000D03*
D14*
X125500000Y-84712500D03*
X125500000Y-82887500D03*
D11*
X131700000Y-53600000D03*
X131700000Y-56900000D03*
D14*
X125500000Y-88137500D03*
X125500000Y-89962500D03*
D15*
X110675000Y-51055000D03*
X110675000Y-49785000D03*
X110675000Y-48515000D03*
X110675000Y-47245000D03*
X115925000Y-47245000D03*
X115925000Y-48515000D03*
X115925000Y-49785000D03*
X115925000Y-51055000D03*
D16*
X115250000Y-67750000D03*
X111250000Y-67750000D03*
D17*
X115950000Y-61725000D03*
X115950000Y-64650000D03*
D16*
X116060000Y-58890000D03*
X112060000Y-58890000D03*
D11*
X132440000Y-98030000D03*
X132440000Y-101330000D03*
D18*
X129450000Y-83850000D03*
X127575000Y-84800000D03*
X127575000Y-82900000D03*
D17*
X113500000Y-61787500D03*
X113500000Y-64712500D03*
D14*
X125500000Y-78287500D03*
X125500000Y-80112500D03*
D18*
X129550000Y-79250000D03*
X127675000Y-80200000D03*
X127675000Y-78300000D03*
D17*
X118700000Y-51787500D03*
X118700000Y-54712500D03*
D18*
X129587500Y-89087500D03*
X127712500Y-90037500D03*
X127712500Y-88137500D03*
D13*
X107175000Y-49402651D03*
X104250000Y-49402651D03*
D19*
X117450000Y-84150000D03*
D20*
X119750000Y-90450000D03*
D19*
X119750000Y-84150000D03*
X122050000Y-84150000D03*
D17*
X108500000Y-61787500D03*
X108500000Y-64712500D03*
D10*
X127687500Y-56650000D03*
X129512500Y-56650000D03*
D18*
X129350000Y-53600000D03*
X127475000Y-54550000D03*
X127475000Y-52650000D03*
D21*
X118700000Y-49762500D03*
X118700000Y-46837500D03*
D22*
X114037500Y-44750000D03*
X116962500Y-44750000D03*
D23*
X116000000Y-98462500D03*
X116000000Y-96637500D03*
D24*
X111150000Y-61787500D03*
X111150000Y-64737500D03*
D22*
X107787500Y-43800000D03*
X110712500Y-43800000D03*
D16*
X121897349Y-80300000D03*
X117897349Y-80300000D03*
D11*
X131850000Y-78100000D03*
X131850000Y-81400000D03*
D25*
X138795000Y-37580000D03*
X138795000Y-41580000D03*
X132845000Y-41580000D03*
X132845000Y-37580000D03*
D26*
X112550000Y-53100000D03*
X114450000Y-53100000D03*
M02*
