M48
; DRILL file {KiCad 8.0.2-8.0.2-0~ubuntu22.04.1} date 2024-05-24T15:40:44+0700
; FORMAT={-:-/ absolute / metric / decimal}
; #@! TF.CreationDate,2024-05-24T15:40:44+07:00
; #@! TF.GenerationSoftware,Kicad,Pcbnew,8.0.2-8.0.2-0~ubuntu22.04.1
; #@! TF.FileFunction,Plated,1,2,PTH
FMAT,2
METRIC
; #@! TA.AperFunction,Plated,PTH,ViaDrill
T1C0.300
; #@! TA.AperFunction,Plated,PTH,ComponentDrill
T2C0.400
; #@! TA.AperFunction,Plated,PTH,ViaDrill
T3C0.500
; #@! TA.AperFunction,Plated,PTH,ComponentDrill
T4C0.500
; #@! TA.AperFunction,Plated,PTH,ComponentDrill
T5C0.650
; #@! TA.AperFunction,Plated,PTH,ComponentDrill
T6C0.700
; #@! TA.AperFunction,Plated,PTH,ComponentDrill
T7C0.800
; #@! TA.AperFunction,Plated,PTH,ComponentDrill
T8C0.950
; #@! TA.AperFunction,Plated,PTH,ComponentDrill
T9C1.000
; #@! TA.AperFunction,Plated,PTH,ComponentDrill
T10C1.200
; #@! TA.AperFunction,Plated,PTH,ComponentDrill
T11C1.300
; #@! TA.AperFunction,Plated,PTH,ComponentDrill
T12C2.200
; #@! TA.AperFunction,Plated,PTH,ComponentDrill
T13C2.350
%
G90
G05
T1
X105.5Y-64.86
X105.5Y-66.135
X106.5Y-43.413
X106.5Y-44.285
X109.78Y-51.055
X109.937Y-61.34
X109.937Y-62.213
X110.675Y-51.055
X111.48Y-45.78
X111.627Y-57.635
X112.0Y-46.3
X112.5Y-57.635
X112.75Y-47.25
X113.505Y-48.005
X114.09Y-97.07
X114.805Y-66.471
X114.95Y-96.637
X115.677Y-66.471
X116.527Y-43.235
X117.4Y-43.235
X121.578Y-85.485
X122.45Y-85.485
X124.35Y-79.513
X124.35Y-80.385
X124.4Y-89.587
X124.4Y-90.46
X124.55Y-85.21
X124.575Y-84.36
X127.002Y-53.335
X127.127Y-83.61
X127.225Y-55.585
X127.252Y-79.035
X127.252Y-88.785
X127.875Y-53.335
X128.0Y-83.61
X128.097Y-55.585
X128.125Y-79.035
X128.125Y-88.785
X130.375Y-56.235
X130.375Y-57.107
X138.705Y-57.055
X139.65Y-58.0
X146.93Y-76.17
X147.01Y-99.59
X147.03Y-73.95
X147.05Y-60.14
X147.05Y-68.39
X147.05Y-97.79
X147.06Y-90.41
X147.07Y-71.46
X147.07Y-84.67
X147.1Y-86.8
X147.12Y-78.21
X147.12Y-94.01
X147.12Y-96.01
X147.13Y-88.5
X147.13Y-92.3
X147.16Y-80.37
X147.16Y-82.65
X147.17Y-65.51
X147.18Y-63.0
X147.43Y-101.64
X147.75Y-56.84
X148.07Y-100.5
X148.11Y-91.42
X148.12Y-95.07
X148.14Y-66.78
X148.14Y-89.39
X148.15Y-58.68
X148.15Y-72.69
X148.16Y-98.74
X148.18Y-93.25
X148.19Y-85.76
X148.2Y-87.59
X148.22Y-70.08
X148.24Y-75.1
X148.24Y-96.96
X148.27Y-79.33
X148.27Y-81.56
X148.28Y-77.19
X148.29Y-64.38
X148.3Y-61.64
X148.3Y-83.72
X149.61Y-56.29
X149.81Y-54.11
X151.11Y-52.38
X152.07Y-54.07
X153.246Y-51.515
T2
X102.525Y-38.285
X102.87Y-101.8
X103.008Y-37.118
X103.008Y-39.452
X103.353Y-100.633
X103.353Y-102.967
X104.175Y-36.635
X104.175Y-39.935
X104.52Y-100.15
X104.52Y-103.45
X105.342Y-37.118
X105.342Y-39.452
X105.687Y-100.633
X105.687Y-102.967
X105.825Y-38.285
X106.17Y-101.8
X147.91Y-43.73
X148.393Y-42.563
X148.393Y-44.897
X149.56Y-42.08
X149.56Y-45.38
X150.727Y-42.563
X150.727Y-44.897
X151.21Y-43.73
X156.75Y-102.12
X157.233Y-100.953
X157.233Y-103.287
X158.4Y-100.47
X158.4Y-103.77
X159.567Y-100.953
X159.567Y-103.287
X160.05Y-102.12
T3
X111.5Y-103.3
X112.5Y-103.3
X115.825Y-99.635
X115.825Y-101.1
X117.5Y-103.3
X118.75Y-103.3
X120.95Y-87.05
X120.95Y-88.3
X122.0Y-87.05
X122.0Y-88.3
X131.7Y-64.25
X131.7Y-66.26
T4
X159.99Y-82.49
X159.99Y-83.69
X159.99Y-84.89
X159.99Y-94.09
X159.99Y-95.29
X159.99Y-96.49
X160.09Y-60.09
X160.09Y-61.29
X160.09Y-62.49
X160.09Y-70.89
X160.09Y-72.09
X160.09Y-73.29
X160.16Y-51.63
X160.16Y-52.83
X160.16Y-54.03
X160.22Y-36.41
X160.22Y-37.61
X160.22Y-38.81
X160.22Y-43.01
X160.22Y-44.21
X160.22Y-45.41
T5
X143.63Y-37.61
X143.63Y-47.61
T6
X136.59Y-83.19
X136.59Y-90.79
X136.59Y-94.79
X136.59Y-102.39
X136.69Y-60.79
X136.69Y-68.39
X136.69Y-71.59
X136.69Y-79.19
T7
X106.0Y-53.653
X106.0Y-57.153
X109.75Y-80.55
X113.25Y-80.55
X123.5Y-94.953
X123.5Y-98.453
T8
X143.62Y-51.71
X148.62Y-51.71
T9
X109.75Y-91.25
X109.75Y-93.79
X109.75Y-96.33
X109.75Y-98.87
X112.29Y-91.25
X112.29Y-93.79
X112.29Y-96.33
X112.29Y-98.87
T10
X121.1Y-60.55
X121.1Y-63.05
X121.1Y-68.05
X121.1Y-70.55
X129.6Y-60.55
X129.6Y-70.55
T11
X125.92Y-39.09
X125.92Y-42.59
T12
X104.175Y-38.285
X104.52Y-101.8
X149.56Y-43.73
X158.4Y-102.12
T2
X149.29Y-90.39G85X149.29Y-91.19
G05
X149.29Y-101.99G85X149.29Y-102.79
G05
X149.39Y-67.99G85X149.39Y-68.79
G05
X149.39Y-78.79G85X149.39Y-79.59
G05
X151.83Y-83.29G85X151.83Y-84.09
G05
X151.83Y-94.89G85X151.83Y-95.69
G05
X151.93Y-60.89G85X151.93Y-61.69
G05
X151.93Y-71.69G85X151.93Y-72.49
G05
T13
X155.74Y-83.69G85X158.24Y-83.69
G05
X155.74Y-95.29G85X158.24Y-95.29
G05
X155.84Y-61.29G85X158.34Y-61.29
G05
X155.84Y-72.09G85X158.34Y-72.09
G05
X155.91Y-52.83G85X158.41Y-52.83
G05
X155.97Y-37.61G85X158.47Y-37.61
G05
X155.97Y-44.21G85X158.47Y-44.21
G05
M30
