G04 #@! TF.GenerationSoftware,KiCad,Pcbnew,8.0.2-8.0.2-0~ubuntu22.04.1*
G04 #@! TF.CreationDate,2024-05-22T14:55:53+07:00*
G04 #@! TF.ProjectId,PCB_design,5043425f-6465-4736-9967-6e2e6b696361,rev?*
G04 #@! TF.SameCoordinates,Original*
G04 #@! TF.FileFunction,Legend,Top*
G04 #@! TF.FilePolarity,Positive*
%FSLAX46Y46*%
G04 Gerber Fmt 4.6, Leading zero omitted, Abs format (unit mm)*
G04 Created by KiCad (PCBNEW 8.0.2-8.0.2-0~ubuntu22.04.1) date 2024-05-22 14:55:53*
%MOMM*%
%LPD*%
G01*
G04 APERTURE LIST*
G04 Aperture macros list*
%AMRoundRect*
0 Rectangle with rounded corners*
0 $1 Rounding radius*
0 $2 $3 $4 $5 $6 $7 $8 $9 X,Y pos of 4 corners*
0 Add a 4 corners polygon primitive as box body*
4,1,4,$2,$3,$4,$5,$6,$7,$8,$9,$2,$3,0*
0 Add four circle primitives for the rounded corners*
1,1,$1+$1,$2,$3*
1,1,$1+$1,$4,$5*
1,1,$1+$1,$6,$7*
1,1,$1+$1,$8,$9*
0 Add four rect primitives between the rounded corners*
20,1,$1+$1,$2,$3,$4,$5,0*
20,1,$1+$1,$4,$5,$6,$7,0*
20,1,$1+$1,$6,$7,$8,$9,0*
20,1,$1+$1,$8,$9,$2,$3,0*%
G04 Aperture macros list end*
%ADD10C,0.100000*%
%ADD11C,0.150000*%
%ADD12C,0.120000*%
%ADD13RoundRect,0.250000X-0.450000X0.262500X-0.450000X-0.262500X0.450000X-0.262500X0.450000X0.262500X0*%
%ADD14RoundRect,0.225000X0.375000X-0.225000X0.375000X0.225000X-0.375000X0.225000X-0.375000X-0.225000X0*%
%ADD15RoundRect,0.250000X0.475000X-0.250000X0.475000X0.250000X-0.475000X0.250000X-0.475000X-0.250000X0*%
%ADD16RoundRect,0.250000X0.625000X-0.312500X0.625000X0.312500X-0.625000X0.312500X-0.625000X-0.312500X0*%
%ADD17C,0.700000*%
%ADD18RoundRect,1.500000X1.000000X2.000000X-1.000000X2.000000X-1.000000X-2.000000X1.000000X-2.000000X0*%
%ADD19RoundRect,0.250000X0.450000X-0.262500X0.450000X0.262500X-0.450000X0.262500X-0.450000X-0.262500X0*%
%ADD20C,4.400000*%
%ADD21R,1.600000X1.600000*%
%ADD22C,1.600000*%
%ADD23RoundRect,0.150000X0.675000X0.150000X-0.675000X0.150000X-0.675000X-0.150000X0.675000X-0.150000X0*%
%ADD24C,1.524000*%
%ADD25RoundRect,0.250000X-1.000000X-0.650000X1.000000X-0.650000X1.000000X0.650000X-1.000000X0.650000X0*%
%ADD26C,2.000000*%
%ADD27C,4.000000*%
%ADD28RoundRect,0.150000X-0.587500X-0.150000X0.587500X-0.150000X0.587500X0.150000X-0.587500X0.150000X0*%
%ADD29R,1.700000X1.700000*%
%ADD30O,1.700000X1.700000*%
%ADD31C,2.600000*%
%ADD32RoundRect,1.500000X2.000000X-1.000000X2.000000X1.000000X-2.000000X1.000000X-2.000000X-1.000000X0*%
%ADD33RoundRect,0.375000X-0.375000X0.625000X-0.375000X-0.625000X0.375000X-0.625000X0.375000X0.625000X0*%
%ADD34RoundRect,0.500000X-1.400000X0.500000X-1.400000X-0.500000X1.400000X-0.500000X1.400000X0.500000X0*%
%ADD35RoundRect,0.250000X0.312500X0.625000X-0.312500X0.625000X-0.312500X-0.625000X0.312500X-0.625000X0*%
%ADD36RoundRect,0.250000X0.262500X0.450000X-0.262500X0.450000X-0.262500X-0.450000X0.262500X-0.450000X0*%
%ADD37RoundRect,0.250000X-0.625000X0.312500X-0.625000X-0.312500X0.625000X-0.312500X0.625000X0.312500X0*%
%ADD38RoundRect,0.250000X0.650000X-0.325000X0.650000X0.325000X-0.650000X0.325000X-0.650000X-0.325000X0*%
%ADD39C,1.800000*%
%ADD40R,1.000000X0.700000*%
%ADD41RoundRect,0.250000X0.250000X0.475000X-0.250000X0.475000X-0.250000X-0.475000X0.250000X-0.475000X0*%
G04 APERTURE END LIST*
D10*
X102311027Y-69662475D02*
X102882455Y-69662475D01*
X102596741Y-70662475D02*
X102596741Y-69662475D01*
X103358646Y-70662475D02*
X103263408Y-70614856D01*
X103263408Y-70614856D02*
X103215789Y-70567236D01*
X103215789Y-70567236D02*
X103168170Y-70471998D01*
X103168170Y-70471998D02*
X103168170Y-70186284D01*
X103168170Y-70186284D02*
X103215789Y-70091046D01*
X103215789Y-70091046D02*
X103263408Y-70043427D01*
X103263408Y-70043427D02*
X103358646Y-69995808D01*
X103358646Y-69995808D02*
X103501503Y-69995808D01*
X103501503Y-69995808D02*
X103596741Y-70043427D01*
X103596741Y-70043427D02*
X103644360Y-70091046D01*
X103644360Y-70091046D02*
X103691979Y-70186284D01*
X103691979Y-70186284D02*
X103691979Y-70471998D01*
X103691979Y-70471998D02*
X103644360Y-70567236D01*
X103644360Y-70567236D02*
X103596741Y-70614856D01*
X103596741Y-70614856D02*
X103501503Y-70662475D01*
X103501503Y-70662475D02*
X103358646Y-70662475D01*
X104549122Y-69995808D02*
X104549122Y-70662475D01*
X104120551Y-69995808D02*
X104120551Y-70519617D01*
X104120551Y-70519617D02*
X104168170Y-70614856D01*
X104168170Y-70614856D02*
X104263408Y-70662475D01*
X104263408Y-70662475D02*
X104406265Y-70662475D01*
X104406265Y-70662475D02*
X104501503Y-70614856D01*
X104501503Y-70614856D02*
X104549122Y-70567236D01*
X105453884Y-70614856D02*
X105358646Y-70662475D01*
X105358646Y-70662475D02*
X105168170Y-70662475D01*
X105168170Y-70662475D02*
X105072932Y-70614856D01*
X105072932Y-70614856D02*
X105025313Y-70567236D01*
X105025313Y-70567236D02*
X104977694Y-70471998D01*
X104977694Y-70471998D02*
X104977694Y-70186284D01*
X104977694Y-70186284D02*
X105025313Y-70091046D01*
X105025313Y-70091046D02*
X105072932Y-70043427D01*
X105072932Y-70043427D02*
X105168170Y-69995808D01*
X105168170Y-69995808D02*
X105358646Y-69995808D01*
X105358646Y-69995808D02*
X105453884Y-70043427D01*
X105882456Y-70662475D02*
X105882456Y-69662475D01*
X106311027Y-70662475D02*
X106311027Y-70138665D01*
X106311027Y-70138665D02*
X106263408Y-70043427D01*
X106263408Y-70043427D02*
X106168170Y-69995808D01*
X106168170Y-69995808D02*
X106025313Y-69995808D01*
X106025313Y-69995808D02*
X105930075Y-70043427D01*
X105930075Y-70043427D02*
X105882456Y-70091046D01*
X107501504Y-70614856D02*
X107596742Y-70662475D01*
X107596742Y-70662475D02*
X107787218Y-70662475D01*
X107787218Y-70662475D02*
X107882456Y-70614856D01*
X107882456Y-70614856D02*
X107930075Y-70519617D01*
X107930075Y-70519617D02*
X107930075Y-70471998D01*
X107930075Y-70471998D02*
X107882456Y-70376760D01*
X107882456Y-70376760D02*
X107787218Y-70329141D01*
X107787218Y-70329141D02*
X107644361Y-70329141D01*
X107644361Y-70329141D02*
X107549123Y-70281522D01*
X107549123Y-70281522D02*
X107501504Y-70186284D01*
X107501504Y-70186284D02*
X107501504Y-70138665D01*
X107501504Y-70138665D02*
X107549123Y-70043427D01*
X107549123Y-70043427D02*
X107644361Y-69995808D01*
X107644361Y-69995808D02*
X107787218Y-69995808D01*
X107787218Y-69995808D02*
X107882456Y-70043427D01*
X108263409Y-69995808D02*
X108453885Y-70662475D01*
X108453885Y-70662475D02*
X108644361Y-70186284D01*
X108644361Y-70186284D02*
X108834837Y-70662475D01*
X108834837Y-70662475D02*
X109025313Y-69995808D01*
X109406266Y-70662475D02*
X109406266Y-69995808D01*
X109406266Y-69662475D02*
X109358647Y-69710094D01*
X109358647Y-69710094D02*
X109406266Y-69757713D01*
X109406266Y-69757713D02*
X109453885Y-69710094D01*
X109453885Y-69710094D02*
X109406266Y-69662475D01*
X109406266Y-69662475D02*
X109406266Y-69757713D01*
X109739599Y-69995808D02*
X110120551Y-69995808D01*
X109882456Y-69662475D02*
X109882456Y-70519617D01*
X109882456Y-70519617D02*
X109930075Y-70614856D01*
X109930075Y-70614856D02*
X110025313Y-70662475D01*
X110025313Y-70662475D02*
X110120551Y-70662475D01*
X110882456Y-70614856D02*
X110787218Y-70662475D01*
X110787218Y-70662475D02*
X110596742Y-70662475D01*
X110596742Y-70662475D02*
X110501504Y-70614856D01*
X110501504Y-70614856D02*
X110453885Y-70567236D01*
X110453885Y-70567236D02*
X110406266Y-70471998D01*
X110406266Y-70471998D02*
X110406266Y-70186284D01*
X110406266Y-70186284D02*
X110453885Y-70091046D01*
X110453885Y-70091046D02*
X110501504Y-70043427D01*
X110501504Y-70043427D02*
X110596742Y-69995808D01*
X110596742Y-69995808D02*
X110787218Y-69995808D01*
X110787218Y-69995808D02*
X110882456Y-70043427D01*
X111311028Y-70662475D02*
X111311028Y-69662475D01*
X111739599Y-70662475D02*
X111739599Y-70138665D01*
X111739599Y-70138665D02*
X111691980Y-70043427D01*
X111691980Y-70043427D02*
X111596742Y-69995808D01*
X111596742Y-69995808D02*
X111453885Y-69995808D01*
X111453885Y-69995808D02*
X111358647Y-70043427D01*
X111358647Y-70043427D02*
X111311028Y-70091046D01*
X102930074Y-72272419D02*
X102453884Y-72272419D01*
X102453884Y-72272419D02*
X102453884Y-71272419D01*
X103406265Y-72272419D02*
X103311027Y-72224800D01*
X103311027Y-72224800D02*
X103263408Y-72177180D01*
X103263408Y-72177180D02*
X103215789Y-72081942D01*
X103215789Y-72081942D02*
X103215789Y-71796228D01*
X103215789Y-71796228D02*
X103263408Y-71700990D01*
X103263408Y-71700990D02*
X103311027Y-71653371D01*
X103311027Y-71653371D02*
X103406265Y-71605752D01*
X103406265Y-71605752D02*
X103549122Y-71605752D01*
X103549122Y-71605752D02*
X103644360Y-71653371D01*
X103644360Y-71653371D02*
X103691979Y-71700990D01*
X103691979Y-71700990D02*
X103739598Y-71796228D01*
X103739598Y-71796228D02*
X103739598Y-72081942D01*
X103739598Y-72081942D02*
X103691979Y-72177180D01*
X103691979Y-72177180D02*
X103644360Y-72224800D01*
X103644360Y-72224800D02*
X103549122Y-72272419D01*
X103549122Y-72272419D02*
X103406265Y-72272419D01*
X104596741Y-71605752D02*
X104596741Y-72272419D01*
X104168170Y-71605752D02*
X104168170Y-72129561D01*
X104168170Y-72129561D02*
X104215789Y-72224800D01*
X104215789Y-72224800D02*
X104311027Y-72272419D01*
X104311027Y-72272419D02*
X104453884Y-72272419D01*
X104453884Y-72272419D02*
X104549122Y-72224800D01*
X104549122Y-72224800D02*
X104596741Y-72177180D01*
X105072932Y-72272419D02*
X105072932Y-71605752D01*
X105072932Y-71272419D02*
X105025313Y-71320038D01*
X105025313Y-71320038D02*
X105072932Y-71367657D01*
X105072932Y-71367657D02*
X105120551Y-71320038D01*
X105120551Y-71320038D02*
X105072932Y-71272419D01*
X105072932Y-71272419D02*
X105072932Y-71367657D01*
X105501503Y-72224800D02*
X105596741Y-72272419D01*
X105596741Y-72272419D02*
X105787217Y-72272419D01*
X105787217Y-72272419D02*
X105882455Y-72224800D01*
X105882455Y-72224800D02*
X105930074Y-72129561D01*
X105930074Y-72129561D02*
X105930074Y-72081942D01*
X105930074Y-72081942D02*
X105882455Y-71986704D01*
X105882455Y-71986704D02*
X105787217Y-71939085D01*
X105787217Y-71939085D02*
X105644360Y-71939085D01*
X105644360Y-71939085D02*
X105549122Y-71891466D01*
X105549122Y-71891466D02*
X105501503Y-71796228D01*
X105501503Y-71796228D02*
X105501503Y-71748609D01*
X105501503Y-71748609D02*
X105549122Y-71653371D01*
X105549122Y-71653371D02*
X105644360Y-71605752D01*
X105644360Y-71605752D02*
X105787217Y-71605752D01*
X105787217Y-71605752D02*
X105882455Y-71653371D01*
X107120551Y-72272419D02*
X107120551Y-71272419D01*
X107120551Y-71272419D02*
X107358646Y-71272419D01*
X107358646Y-71272419D02*
X107501503Y-71320038D01*
X107501503Y-71320038D02*
X107596741Y-71415276D01*
X107596741Y-71415276D02*
X107644360Y-71510514D01*
X107644360Y-71510514D02*
X107691979Y-71700990D01*
X107691979Y-71700990D02*
X107691979Y-71843847D01*
X107691979Y-71843847D02*
X107644360Y-72034323D01*
X107644360Y-72034323D02*
X107596741Y-72129561D01*
X107596741Y-72129561D02*
X107501503Y-72224800D01*
X107501503Y-72224800D02*
X107358646Y-72272419D01*
X107358646Y-72272419D02*
X107120551Y-72272419D01*
X108120551Y-71748609D02*
X108453884Y-71748609D01*
X108596741Y-72272419D02*
X108120551Y-72272419D01*
X108120551Y-72272419D02*
X108120551Y-71272419D01*
X108120551Y-71272419D02*
X108596741Y-71272419D01*
X109596741Y-72272419D02*
X109263408Y-71796228D01*
X109025313Y-72272419D02*
X109025313Y-71272419D01*
X109025313Y-71272419D02*
X109406265Y-71272419D01*
X109406265Y-71272419D02*
X109501503Y-71320038D01*
X109501503Y-71320038D02*
X109549122Y-71367657D01*
X109549122Y-71367657D02*
X109596741Y-71462895D01*
X109596741Y-71462895D02*
X109596741Y-71605752D01*
X109596741Y-71605752D02*
X109549122Y-71700990D01*
X109549122Y-71700990D02*
X109501503Y-71748609D01*
X109501503Y-71748609D02*
X109406265Y-71796228D01*
X109406265Y-71796228D02*
X109025313Y-71796228D01*
X110215789Y-71796228D02*
X110215789Y-72272419D01*
X109882456Y-71272419D02*
X110215789Y-71796228D01*
X110215789Y-71796228D02*
X110549122Y-71272419D01*
X111453884Y-72177180D02*
X111406265Y-72224800D01*
X111406265Y-72224800D02*
X111263408Y-72272419D01*
X111263408Y-72272419D02*
X111168170Y-72272419D01*
X111168170Y-72272419D02*
X111025313Y-72224800D01*
X111025313Y-72224800D02*
X110930075Y-72129561D01*
X110930075Y-72129561D02*
X110882456Y-72034323D01*
X110882456Y-72034323D02*
X110834837Y-71843847D01*
X110834837Y-71843847D02*
X110834837Y-71700990D01*
X110834837Y-71700990D02*
X110882456Y-71510514D01*
X110882456Y-71510514D02*
X110930075Y-71415276D01*
X110930075Y-71415276D02*
X111025313Y-71320038D01*
X111025313Y-71320038D02*
X111168170Y-71272419D01*
X111168170Y-71272419D02*
X111263408Y-71272419D01*
X111263408Y-71272419D02*
X111406265Y-71320038D01*
X111406265Y-71320038D02*
X111453884Y-71367657D01*
X111882456Y-72272419D02*
X111882456Y-71272419D01*
X112453884Y-72272419D02*
X112025313Y-71700990D01*
X112453884Y-71272419D02*
X111882456Y-71843847D01*
X112882456Y-71748609D02*
X113215789Y-71748609D01*
X113358646Y-72272419D02*
X112882456Y-72272419D01*
X112882456Y-72272419D02*
X112882456Y-71272419D01*
X112882456Y-71272419D02*
X113358646Y-71272419D01*
X114358646Y-72272419D02*
X114025313Y-71796228D01*
X113787218Y-72272419D02*
X113787218Y-71272419D01*
X113787218Y-71272419D02*
X114168170Y-71272419D01*
X114168170Y-71272419D02*
X114263408Y-71320038D01*
X114263408Y-71320038D02*
X114311027Y-71367657D01*
X114311027Y-71367657D02*
X114358646Y-71462895D01*
X114358646Y-71462895D02*
X114358646Y-71605752D01*
X114358646Y-71605752D02*
X114311027Y-71700990D01*
X114311027Y-71700990D02*
X114263408Y-71748609D01*
X114263408Y-71748609D02*
X114168170Y-71796228D01*
X114168170Y-71796228D02*
X113787218Y-71796228D01*
X114787218Y-71748609D02*
X115120551Y-71748609D01*
X115263408Y-72272419D02*
X114787218Y-72272419D01*
X114787218Y-72272419D02*
X114787218Y-71272419D01*
X114787218Y-71272419D02*
X115263408Y-71272419D01*
D11*
X104733333Y-52304819D02*
X104400000Y-51828628D01*
X104161905Y-52304819D02*
X104161905Y-51304819D01*
X104161905Y-51304819D02*
X104542857Y-51304819D01*
X104542857Y-51304819D02*
X104638095Y-51352438D01*
X104638095Y-51352438D02*
X104685714Y-51400057D01*
X104685714Y-51400057D02*
X104733333Y-51495295D01*
X104733333Y-51495295D02*
X104733333Y-51638152D01*
X104733333Y-51638152D02*
X104685714Y-51733390D01*
X104685714Y-51733390D02*
X104638095Y-51781009D01*
X104638095Y-51781009D02*
X104542857Y-51828628D01*
X104542857Y-51828628D02*
X104161905Y-51828628D01*
X105590476Y-51638152D02*
X105590476Y-52304819D01*
X105352381Y-51257200D02*
X105114286Y-51971485D01*
X105114286Y-51971485D02*
X105733333Y-51971485D01*
X132354819Y-88388094D02*
X131354819Y-88388094D01*
X131354819Y-88388094D02*
X131354819Y-88149999D01*
X131354819Y-88149999D02*
X131402438Y-88007142D01*
X131402438Y-88007142D02*
X131497676Y-87911904D01*
X131497676Y-87911904D02*
X131592914Y-87864285D01*
X131592914Y-87864285D02*
X131783390Y-87816666D01*
X131783390Y-87816666D02*
X131926247Y-87816666D01*
X131926247Y-87816666D02*
X132116723Y-87864285D01*
X132116723Y-87864285D02*
X132211961Y-87911904D01*
X132211961Y-87911904D02*
X132307200Y-88007142D01*
X132307200Y-88007142D02*
X132354819Y-88149999D01*
X132354819Y-88149999D02*
X132354819Y-88388094D01*
X131354819Y-87483332D02*
X131354819Y-86816666D01*
X131354819Y-86816666D02*
X132354819Y-87245237D01*
X114833333Y-93509580D02*
X114785714Y-93557200D01*
X114785714Y-93557200D02*
X114642857Y-93604819D01*
X114642857Y-93604819D02*
X114547619Y-93604819D01*
X114547619Y-93604819D02*
X114404762Y-93557200D01*
X114404762Y-93557200D02*
X114309524Y-93461961D01*
X114309524Y-93461961D02*
X114261905Y-93366723D01*
X114261905Y-93366723D02*
X114214286Y-93176247D01*
X114214286Y-93176247D02*
X114214286Y-93033390D01*
X114214286Y-93033390D02*
X114261905Y-92842914D01*
X114261905Y-92842914D02*
X114309524Y-92747676D01*
X114309524Y-92747676D02*
X114404762Y-92652438D01*
X114404762Y-92652438D02*
X114547619Y-92604819D01*
X114547619Y-92604819D02*
X114642857Y-92604819D01*
X114642857Y-92604819D02*
X114785714Y-92652438D01*
X114785714Y-92652438D02*
X114833333Y-92700057D01*
X115404762Y-93033390D02*
X115309524Y-92985771D01*
X115309524Y-92985771D02*
X115261905Y-92938152D01*
X115261905Y-92938152D02*
X115214286Y-92842914D01*
X115214286Y-92842914D02*
X115214286Y-92795295D01*
X115214286Y-92795295D02*
X115261905Y-92700057D01*
X115261905Y-92700057D02*
X115309524Y-92652438D01*
X115309524Y-92652438D02*
X115404762Y-92604819D01*
X115404762Y-92604819D02*
X115595238Y-92604819D01*
X115595238Y-92604819D02*
X115690476Y-92652438D01*
X115690476Y-92652438D02*
X115738095Y-92700057D01*
X115738095Y-92700057D02*
X115785714Y-92795295D01*
X115785714Y-92795295D02*
X115785714Y-92842914D01*
X115785714Y-92842914D02*
X115738095Y-92938152D01*
X115738095Y-92938152D02*
X115690476Y-92985771D01*
X115690476Y-92985771D02*
X115595238Y-93033390D01*
X115595238Y-93033390D02*
X115404762Y-93033390D01*
X115404762Y-93033390D02*
X115309524Y-93081009D01*
X115309524Y-93081009D02*
X115261905Y-93128628D01*
X115261905Y-93128628D02*
X115214286Y-93223866D01*
X115214286Y-93223866D02*
X115214286Y-93414342D01*
X115214286Y-93414342D02*
X115261905Y-93509580D01*
X115261905Y-93509580D02*
X115309524Y-93557200D01*
X115309524Y-93557200D02*
X115404762Y-93604819D01*
X115404762Y-93604819D02*
X115595238Y-93604819D01*
X115595238Y-93604819D02*
X115690476Y-93557200D01*
X115690476Y-93557200D02*
X115738095Y-93509580D01*
X115738095Y-93509580D02*
X115785714Y-93414342D01*
X115785714Y-93414342D02*
X115785714Y-93223866D01*
X115785714Y-93223866D02*
X115738095Y-93128628D01*
X115738095Y-93128628D02*
X115690476Y-93081009D01*
X115690476Y-93081009D02*
X115595238Y-93033390D01*
X99354819Y-60642857D02*
X98878628Y-60976190D01*
X99354819Y-61214285D02*
X98354819Y-61214285D01*
X98354819Y-61214285D02*
X98354819Y-60833333D01*
X98354819Y-60833333D02*
X98402438Y-60738095D01*
X98402438Y-60738095D02*
X98450057Y-60690476D01*
X98450057Y-60690476D02*
X98545295Y-60642857D01*
X98545295Y-60642857D02*
X98688152Y-60642857D01*
X98688152Y-60642857D02*
X98783390Y-60690476D01*
X98783390Y-60690476D02*
X98831009Y-60738095D01*
X98831009Y-60738095D02*
X98878628Y-60833333D01*
X98878628Y-60833333D02*
X98878628Y-61214285D01*
X99354819Y-59690476D02*
X99354819Y-60261904D01*
X99354819Y-59976190D02*
X98354819Y-59976190D01*
X98354819Y-59976190D02*
X98497676Y-60071428D01*
X98497676Y-60071428D02*
X98592914Y-60166666D01*
X98592914Y-60166666D02*
X98640533Y-60261904D01*
X98354819Y-58785714D02*
X98354819Y-59261904D01*
X98354819Y-59261904D02*
X98831009Y-59309523D01*
X98831009Y-59309523D02*
X98783390Y-59261904D01*
X98783390Y-59261904D02*
X98735771Y-59166666D01*
X98735771Y-59166666D02*
X98735771Y-58928571D01*
X98735771Y-58928571D02*
X98783390Y-58833333D01*
X98783390Y-58833333D02*
X98831009Y-58785714D01*
X98831009Y-58785714D02*
X98926247Y-58738095D01*
X98926247Y-58738095D02*
X99164342Y-58738095D01*
X99164342Y-58738095D02*
X99259580Y-58785714D01*
X99259580Y-58785714D02*
X99307200Y-58833333D01*
X99307200Y-58833333D02*
X99354819Y-58928571D01*
X99354819Y-58928571D02*
X99354819Y-59166666D01*
X99354819Y-59166666D02*
X99307200Y-59261904D01*
X99307200Y-59261904D02*
X99259580Y-59309523D01*
D10*
X133433333Y-31442580D02*
X133433333Y-30728295D01*
X133433333Y-30728295D02*
X133480952Y-30585438D01*
X133480952Y-30585438D02*
X133576190Y-30490200D01*
X133576190Y-30490200D02*
X133719047Y-30442580D01*
X133719047Y-30442580D02*
X133814285Y-30442580D01*
X133004761Y-31347342D02*
X132957142Y-31394961D01*
X132957142Y-31394961D02*
X132861904Y-31442580D01*
X132861904Y-31442580D02*
X132623809Y-31442580D01*
X132623809Y-31442580D02*
X132528571Y-31394961D01*
X132528571Y-31394961D02*
X132480952Y-31347342D01*
X132480952Y-31347342D02*
X132433333Y-31252104D01*
X132433333Y-31252104D02*
X132433333Y-31156866D01*
X132433333Y-31156866D02*
X132480952Y-31014009D01*
X132480952Y-31014009D02*
X133052380Y-30442580D01*
X133052380Y-30442580D02*
X132433333Y-30442580D01*
D11*
X125904819Y-89942857D02*
X125428628Y-90276190D01*
X125904819Y-90514285D02*
X124904819Y-90514285D01*
X124904819Y-90514285D02*
X124904819Y-90133333D01*
X124904819Y-90133333D02*
X124952438Y-90038095D01*
X124952438Y-90038095D02*
X125000057Y-89990476D01*
X125000057Y-89990476D02*
X125095295Y-89942857D01*
X125095295Y-89942857D02*
X125238152Y-89942857D01*
X125238152Y-89942857D02*
X125333390Y-89990476D01*
X125333390Y-89990476D02*
X125381009Y-90038095D01*
X125381009Y-90038095D02*
X125428628Y-90133333D01*
X125428628Y-90133333D02*
X125428628Y-90514285D01*
X125904819Y-88990476D02*
X125904819Y-89561904D01*
X125904819Y-89276190D02*
X124904819Y-89276190D01*
X124904819Y-89276190D02*
X125047676Y-89371428D01*
X125047676Y-89371428D02*
X125142914Y-89466666D01*
X125142914Y-89466666D02*
X125190533Y-89561904D01*
X124904819Y-88657142D02*
X124904819Y-88038095D01*
X124904819Y-88038095D02*
X125285771Y-88371428D01*
X125285771Y-88371428D02*
X125285771Y-88228571D01*
X125285771Y-88228571D02*
X125333390Y-88133333D01*
X125333390Y-88133333D02*
X125381009Y-88085714D01*
X125381009Y-88085714D02*
X125476247Y-88038095D01*
X125476247Y-88038095D02*
X125714342Y-88038095D01*
X125714342Y-88038095D02*
X125809580Y-88085714D01*
X125809580Y-88085714D02*
X125857200Y-88133333D01*
X125857200Y-88133333D02*
X125904819Y-88228571D01*
X125904819Y-88228571D02*
X125904819Y-88514285D01*
X125904819Y-88514285D02*
X125857200Y-88609523D01*
X125857200Y-88609523D02*
X125809580Y-88657142D01*
X158854821Y-40488093D02*
X158854821Y-39488093D01*
X158854821Y-39964283D02*
X159426249Y-39964283D01*
X159426249Y-40488093D02*
X159426249Y-39488093D01*
X160426249Y-40488093D02*
X159854821Y-40488093D01*
X160140535Y-40488093D02*
X160140535Y-39488093D01*
X160140535Y-39488093D02*
X160045297Y-39630950D01*
X160045297Y-39630950D02*
X159950059Y-39726188D01*
X159950059Y-39726188D02*
X159854821Y-39773807D01*
X132204819Y-56038094D02*
X131204819Y-56038094D01*
X131204819Y-56038094D02*
X131204819Y-55799999D01*
X131204819Y-55799999D02*
X131252438Y-55657142D01*
X131252438Y-55657142D02*
X131347676Y-55561904D01*
X131347676Y-55561904D02*
X131442914Y-55514285D01*
X131442914Y-55514285D02*
X131633390Y-55466666D01*
X131633390Y-55466666D02*
X131776247Y-55466666D01*
X131776247Y-55466666D02*
X131966723Y-55514285D01*
X131966723Y-55514285D02*
X132061961Y-55561904D01*
X132061961Y-55561904D02*
X132157200Y-55657142D01*
X132157200Y-55657142D02*
X132204819Y-55799999D01*
X132204819Y-55799999D02*
X132204819Y-56038094D01*
X131204819Y-54561904D02*
X131204819Y-55038094D01*
X131204819Y-55038094D02*
X131681009Y-55085713D01*
X131681009Y-55085713D02*
X131633390Y-55038094D01*
X131633390Y-55038094D02*
X131585771Y-54942856D01*
X131585771Y-54942856D02*
X131585771Y-54704761D01*
X131585771Y-54704761D02*
X131633390Y-54609523D01*
X131633390Y-54609523D02*
X131681009Y-54561904D01*
X131681009Y-54561904D02*
X131776247Y-54514285D01*
X131776247Y-54514285D02*
X132014342Y-54514285D01*
X132014342Y-54514285D02*
X132109580Y-54561904D01*
X132109580Y-54561904D02*
X132157200Y-54609523D01*
X132157200Y-54609523D02*
X132204819Y-54704761D01*
X132204819Y-54704761D02*
X132204819Y-54942856D01*
X132204819Y-54942856D02*
X132157200Y-55038094D01*
X132157200Y-55038094D02*
X132109580Y-55085713D01*
X125704819Y-93680357D02*
X125228628Y-94013690D01*
X125704819Y-94251785D02*
X124704819Y-94251785D01*
X124704819Y-94251785D02*
X124704819Y-93870833D01*
X124704819Y-93870833D02*
X124752438Y-93775595D01*
X124752438Y-93775595D02*
X124800057Y-93727976D01*
X124800057Y-93727976D02*
X124895295Y-93680357D01*
X124895295Y-93680357D02*
X125038152Y-93680357D01*
X125038152Y-93680357D02*
X125133390Y-93727976D01*
X125133390Y-93727976D02*
X125181009Y-93775595D01*
X125181009Y-93775595D02*
X125228628Y-93870833D01*
X125228628Y-93870833D02*
X125228628Y-94251785D01*
X125704819Y-92727976D02*
X125704819Y-93299404D01*
X125704819Y-93013690D02*
X124704819Y-93013690D01*
X124704819Y-93013690D02*
X124847676Y-93108928D01*
X124847676Y-93108928D02*
X124942914Y-93204166D01*
X124942914Y-93204166D02*
X124990533Y-93299404D01*
X125038152Y-91870833D02*
X125704819Y-91870833D01*
X124657200Y-92108928D02*
X125371485Y-92347023D01*
X125371485Y-92347023D02*
X125371485Y-91727976D01*
X101683333Y-41909580D02*
X101635714Y-41957200D01*
X101635714Y-41957200D02*
X101492857Y-42004819D01*
X101492857Y-42004819D02*
X101397619Y-42004819D01*
X101397619Y-42004819D02*
X101254762Y-41957200D01*
X101254762Y-41957200D02*
X101159524Y-41861961D01*
X101159524Y-41861961D02*
X101111905Y-41766723D01*
X101111905Y-41766723D02*
X101064286Y-41576247D01*
X101064286Y-41576247D02*
X101064286Y-41433390D01*
X101064286Y-41433390D02*
X101111905Y-41242914D01*
X101111905Y-41242914D02*
X101159524Y-41147676D01*
X101159524Y-41147676D02*
X101254762Y-41052438D01*
X101254762Y-41052438D02*
X101397619Y-41004819D01*
X101397619Y-41004819D02*
X101492857Y-41004819D01*
X101492857Y-41004819D02*
X101635714Y-41052438D01*
X101635714Y-41052438D02*
X101683333Y-41100057D01*
X102016667Y-41004819D02*
X102635714Y-41004819D01*
X102635714Y-41004819D02*
X102302381Y-41385771D01*
X102302381Y-41385771D02*
X102445238Y-41385771D01*
X102445238Y-41385771D02*
X102540476Y-41433390D01*
X102540476Y-41433390D02*
X102588095Y-41481009D01*
X102588095Y-41481009D02*
X102635714Y-41576247D01*
X102635714Y-41576247D02*
X102635714Y-41814342D01*
X102635714Y-41814342D02*
X102588095Y-41909580D01*
X102588095Y-41909580D02*
X102540476Y-41957200D01*
X102540476Y-41957200D02*
X102445238Y-42004819D01*
X102445238Y-42004819D02*
X102159524Y-42004819D01*
X102159524Y-42004819D02*
X102064286Y-41957200D01*
X102064286Y-41957200D02*
X102016667Y-41909580D01*
X112588095Y-48604819D02*
X112588095Y-49414342D01*
X112588095Y-49414342D02*
X112635714Y-49509580D01*
X112635714Y-49509580D02*
X112683333Y-49557200D01*
X112683333Y-49557200D02*
X112778571Y-49604819D01*
X112778571Y-49604819D02*
X112969047Y-49604819D01*
X112969047Y-49604819D02*
X113064285Y-49557200D01*
X113064285Y-49557200D02*
X113111904Y-49509580D01*
X113111904Y-49509580D02*
X113159523Y-49414342D01*
X113159523Y-49414342D02*
X113159523Y-48604819D01*
X113540476Y-48604819D02*
X114159523Y-48604819D01*
X114159523Y-48604819D02*
X113826190Y-48985771D01*
X113826190Y-48985771D02*
X113969047Y-48985771D01*
X113969047Y-48985771D02*
X114064285Y-49033390D01*
X114064285Y-49033390D02*
X114111904Y-49081009D01*
X114111904Y-49081009D02*
X114159523Y-49176247D01*
X114159523Y-49176247D02*
X114159523Y-49414342D01*
X114159523Y-49414342D02*
X114111904Y-49509580D01*
X114111904Y-49509580D02*
X114064285Y-49557200D01*
X114064285Y-49557200D02*
X113969047Y-49604819D01*
X113969047Y-49604819D02*
X113683333Y-49604819D01*
X113683333Y-49604819D02*
X113588095Y-49557200D01*
X113588095Y-49557200D02*
X113540476Y-49509580D01*
D10*
X124433333Y-39212180D02*
X124385714Y-39259800D01*
X124385714Y-39259800D02*
X124242857Y-39307419D01*
X124242857Y-39307419D02*
X124147619Y-39307419D01*
X124147619Y-39307419D02*
X124004762Y-39259800D01*
X124004762Y-39259800D02*
X123909524Y-39164561D01*
X123909524Y-39164561D02*
X123861905Y-39069323D01*
X123861905Y-39069323D02*
X123814286Y-38878847D01*
X123814286Y-38878847D02*
X123814286Y-38735990D01*
X123814286Y-38735990D02*
X123861905Y-38545514D01*
X123861905Y-38545514D02*
X123909524Y-38450276D01*
X123909524Y-38450276D02*
X124004762Y-38355038D01*
X124004762Y-38355038D02*
X124147619Y-38307419D01*
X124147619Y-38307419D02*
X124242857Y-38307419D01*
X124242857Y-38307419D02*
X124385714Y-38355038D01*
X124385714Y-38355038D02*
X124433333Y-38402657D01*
X125385714Y-39307419D02*
X124814286Y-39307419D01*
X125100000Y-39307419D02*
X125100000Y-38307419D01*
X125100000Y-38307419D02*
X125004762Y-38450276D01*
X125004762Y-38450276D02*
X124909524Y-38545514D01*
X124909524Y-38545514D02*
X124814286Y-38593133D01*
D11*
X105111905Y-61954819D02*
X105111905Y-60954819D01*
X105111905Y-60954819D02*
X105350000Y-60954819D01*
X105350000Y-60954819D02*
X105492857Y-61002438D01*
X105492857Y-61002438D02*
X105588095Y-61097676D01*
X105588095Y-61097676D02*
X105635714Y-61192914D01*
X105635714Y-61192914D02*
X105683333Y-61383390D01*
X105683333Y-61383390D02*
X105683333Y-61526247D01*
X105683333Y-61526247D02*
X105635714Y-61716723D01*
X105635714Y-61716723D02*
X105588095Y-61811961D01*
X105588095Y-61811961D02*
X105492857Y-61907200D01*
X105492857Y-61907200D02*
X105350000Y-61954819D01*
X105350000Y-61954819D02*
X105111905Y-61954819D01*
X106064286Y-61050057D02*
X106111905Y-61002438D01*
X106111905Y-61002438D02*
X106207143Y-60954819D01*
X106207143Y-60954819D02*
X106445238Y-60954819D01*
X106445238Y-60954819D02*
X106540476Y-61002438D01*
X106540476Y-61002438D02*
X106588095Y-61050057D01*
X106588095Y-61050057D02*
X106635714Y-61145295D01*
X106635714Y-61145295D02*
X106635714Y-61240533D01*
X106635714Y-61240533D02*
X106588095Y-61383390D01*
X106588095Y-61383390D02*
X106016667Y-61954819D01*
X106016667Y-61954819D02*
X106635714Y-61954819D01*
X105433333Y-68279819D02*
X105100000Y-67803628D01*
X104861905Y-68279819D02*
X104861905Y-67279819D01*
X104861905Y-67279819D02*
X105242857Y-67279819D01*
X105242857Y-67279819D02*
X105338095Y-67327438D01*
X105338095Y-67327438D02*
X105385714Y-67375057D01*
X105385714Y-67375057D02*
X105433333Y-67470295D01*
X105433333Y-67470295D02*
X105433333Y-67613152D01*
X105433333Y-67613152D02*
X105385714Y-67708390D01*
X105385714Y-67708390D02*
X105338095Y-67756009D01*
X105338095Y-67756009D02*
X105242857Y-67803628D01*
X105242857Y-67803628D02*
X104861905Y-67803628D01*
X105909524Y-68279819D02*
X106100000Y-68279819D01*
X106100000Y-68279819D02*
X106195238Y-68232200D01*
X106195238Y-68232200D02*
X106242857Y-68184580D01*
X106242857Y-68184580D02*
X106338095Y-68041723D01*
X106338095Y-68041723D02*
X106385714Y-67851247D01*
X106385714Y-67851247D02*
X106385714Y-67470295D01*
X106385714Y-67470295D02*
X106338095Y-67375057D01*
X106338095Y-67375057D02*
X106290476Y-67327438D01*
X106290476Y-67327438D02*
X106195238Y-67279819D01*
X106195238Y-67279819D02*
X106004762Y-67279819D01*
X106004762Y-67279819D02*
X105909524Y-67327438D01*
X105909524Y-67327438D02*
X105861905Y-67375057D01*
X105861905Y-67375057D02*
X105814286Y-67470295D01*
X105814286Y-67470295D02*
X105814286Y-67708390D01*
X105814286Y-67708390D02*
X105861905Y-67803628D01*
X105861905Y-67803628D02*
X105909524Y-67851247D01*
X105909524Y-67851247D02*
X106004762Y-67898866D01*
X106004762Y-67898866D02*
X106195238Y-67898866D01*
X106195238Y-67898866D02*
X106290476Y-67851247D01*
X106290476Y-67851247D02*
X106338095Y-67803628D01*
X106338095Y-67803628D02*
X106385714Y-67708390D01*
D10*
X131483609Y-44183333D02*
X131483609Y-44516666D01*
X132007419Y-44516666D02*
X131007419Y-44516666D01*
X131007419Y-44516666D02*
X131007419Y-44040476D01*
X132007419Y-43135714D02*
X132007419Y-43707142D01*
X132007419Y-43421428D02*
X131007419Y-43421428D01*
X131007419Y-43421428D02*
X131150276Y-43516666D01*
X131150276Y-43516666D02*
X131245514Y-43611904D01*
X131245514Y-43611904D02*
X131293133Y-43707142D01*
D11*
X132254819Y-98888094D02*
X131254819Y-98888094D01*
X131254819Y-98888094D02*
X131254819Y-98649999D01*
X131254819Y-98649999D02*
X131302438Y-98507142D01*
X131302438Y-98507142D02*
X131397676Y-98411904D01*
X131397676Y-98411904D02*
X131492914Y-98364285D01*
X131492914Y-98364285D02*
X131683390Y-98316666D01*
X131683390Y-98316666D02*
X131826247Y-98316666D01*
X131826247Y-98316666D02*
X132016723Y-98364285D01*
X132016723Y-98364285D02*
X132111961Y-98411904D01*
X132111961Y-98411904D02*
X132207200Y-98507142D01*
X132207200Y-98507142D02*
X132254819Y-98649999D01*
X132254819Y-98649999D02*
X132254819Y-98888094D01*
X131683390Y-97745237D02*
X131635771Y-97840475D01*
X131635771Y-97840475D02*
X131588152Y-97888094D01*
X131588152Y-97888094D02*
X131492914Y-97935713D01*
X131492914Y-97935713D02*
X131445295Y-97935713D01*
X131445295Y-97935713D02*
X131350057Y-97888094D01*
X131350057Y-97888094D02*
X131302438Y-97840475D01*
X131302438Y-97840475D02*
X131254819Y-97745237D01*
X131254819Y-97745237D02*
X131254819Y-97554761D01*
X131254819Y-97554761D02*
X131302438Y-97459523D01*
X131302438Y-97459523D02*
X131350057Y-97411904D01*
X131350057Y-97411904D02*
X131445295Y-97364285D01*
X131445295Y-97364285D02*
X131492914Y-97364285D01*
X131492914Y-97364285D02*
X131588152Y-97411904D01*
X131588152Y-97411904D02*
X131635771Y-97459523D01*
X131635771Y-97459523D02*
X131683390Y-97554761D01*
X131683390Y-97554761D02*
X131683390Y-97745237D01*
X131683390Y-97745237D02*
X131731009Y-97840475D01*
X131731009Y-97840475D02*
X131778628Y-97888094D01*
X131778628Y-97888094D02*
X131873866Y-97935713D01*
X131873866Y-97935713D02*
X132064342Y-97935713D01*
X132064342Y-97935713D02*
X132159580Y-97888094D01*
X132159580Y-97888094D02*
X132207200Y-97840475D01*
X132207200Y-97840475D02*
X132254819Y-97745237D01*
X132254819Y-97745237D02*
X132254819Y-97554761D01*
X132254819Y-97554761D02*
X132207200Y-97459523D01*
X132207200Y-97459523D02*
X132159580Y-97411904D01*
X132159580Y-97411904D02*
X132064342Y-97364285D01*
X132064342Y-97364285D02*
X131873866Y-97364285D01*
X131873866Y-97364285D02*
X131778628Y-97411904D01*
X131778628Y-97411904D02*
X131731009Y-97459523D01*
X131731009Y-97459523D02*
X131683390Y-97554761D01*
D10*
X148411905Y-49257419D02*
X148411905Y-48257419D01*
X148983333Y-49257419D02*
X148554762Y-48685990D01*
X148983333Y-48257419D02*
X148411905Y-48828847D01*
X149935714Y-49257419D02*
X149364286Y-49257419D01*
X149650000Y-49257419D02*
X149650000Y-48257419D01*
X149650000Y-48257419D02*
X149554762Y-48400276D01*
X149554762Y-48400276D02*
X149459524Y-48495514D01*
X149459524Y-48495514D02*
X149364286Y-48543133D01*
D11*
X128417261Y-84150057D02*
X128322023Y-84102438D01*
X128322023Y-84102438D02*
X128226785Y-84007200D01*
X128226785Y-84007200D02*
X128083928Y-83864342D01*
X128083928Y-83864342D02*
X127988690Y-83816723D01*
X127988690Y-83816723D02*
X127893452Y-83816723D01*
X127941071Y-84054819D02*
X127845833Y-84007200D01*
X127845833Y-84007200D02*
X127750595Y-83911961D01*
X127750595Y-83911961D02*
X127702976Y-83721485D01*
X127702976Y-83721485D02*
X127702976Y-83388152D01*
X127702976Y-83388152D02*
X127750595Y-83197676D01*
X127750595Y-83197676D02*
X127845833Y-83102438D01*
X127845833Y-83102438D02*
X127941071Y-83054819D01*
X127941071Y-83054819D02*
X128131547Y-83054819D01*
X128131547Y-83054819D02*
X128226785Y-83102438D01*
X128226785Y-83102438D02*
X128322023Y-83197676D01*
X128322023Y-83197676D02*
X128369642Y-83388152D01*
X128369642Y-83388152D02*
X128369642Y-83721485D01*
X128369642Y-83721485D02*
X128322023Y-83911961D01*
X128322023Y-83911961D02*
X128226785Y-84007200D01*
X128226785Y-84007200D02*
X128131547Y-84054819D01*
X128131547Y-84054819D02*
X127941071Y-84054819D01*
X128702976Y-83054819D02*
X129322023Y-83054819D01*
X129322023Y-83054819D02*
X128988690Y-83435771D01*
X128988690Y-83435771D02*
X129131547Y-83435771D01*
X129131547Y-83435771D02*
X129226785Y-83483390D01*
X129226785Y-83483390D02*
X129274404Y-83531009D01*
X129274404Y-83531009D02*
X129322023Y-83626247D01*
X129322023Y-83626247D02*
X129322023Y-83864342D01*
X129322023Y-83864342D02*
X129274404Y-83959580D01*
X129274404Y-83959580D02*
X129226785Y-84007200D01*
X129226785Y-84007200D02*
X129131547Y-84054819D01*
X129131547Y-84054819D02*
X128845833Y-84054819D01*
X128845833Y-84054819D02*
X128750595Y-84007200D01*
X128750595Y-84007200D02*
X128702976Y-83959580D01*
D10*
X155111905Y-101057419D02*
X155111905Y-100057419D01*
X155683333Y-101057419D02*
X155254762Y-100485990D01*
X155683333Y-100057419D02*
X155111905Y-100628847D01*
X156540476Y-100390752D02*
X156540476Y-101057419D01*
X156302381Y-100009800D02*
X156064286Y-100724085D01*
X156064286Y-100724085D02*
X156683333Y-100724085D01*
D11*
X103766666Y-87704819D02*
X103766666Y-88419104D01*
X103766666Y-88419104D02*
X103719047Y-88561961D01*
X103719047Y-88561961D02*
X103623809Y-88657200D01*
X103623809Y-88657200D02*
X103480952Y-88704819D01*
X103480952Y-88704819D02*
X103385714Y-88704819D01*
X104147619Y-87704819D02*
X104814285Y-87704819D01*
X104814285Y-87704819D02*
X104385714Y-88704819D01*
X102933333Y-68229819D02*
X102600000Y-67753628D01*
X102361905Y-68229819D02*
X102361905Y-67229819D01*
X102361905Y-67229819D02*
X102742857Y-67229819D01*
X102742857Y-67229819D02*
X102838095Y-67277438D01*
X102838095Y-67277438D02*
X102885714Y-67325057D01*
X102885714Y-67325057D02*
X102933333Y-67420295D01*
X102933333Y-67420295D02*
X102933333Y-67563152D01*
X102933333Y-67563152D02*
X102885714Y-67658390D01*
X102885714Y-67658390D02*
X102838095Y-67706009D01*
X102838095Y-67706009D02*
X102742857Y-67753628D01*
X102742857Y-67753628D02*
X102361905Y-67753628D01*
X103266667Y-67229819D02*
X103885714Y-67229819D01*
X103885714Y-67229819D02*
X103552381Y-67610771D01*
X103552381Y-67610771D02*
X103695238Y-67610771D01*
X103695238Y-67610771D02*
X103790476Y-67658390D01*
X103790476Y-67658390D02*
X103838095Y-67706009D01*
X103838095Y-67706009D02*
X103885714Y-67801247D01*
X103885714Y-67801247D02*
X103885714Y-68039342D01*
X103885714Y-68039342D02*
X103838095Y-68134580D01*
X103838095Y-68134580D02*
X103790476Y-68182200D01*
X103790476Y-68182200D02*
X103695238Y-68229819D01*
X103695238Y-68229819D02*
X103409524Y-68229819D01*
X103409524Y-68229819D02*
X103314286Y-68182200D01*
X103314286Y-68182200D02*
X103266667Y-68134580D01*
D10*
X155111905Y-71557419D02*
X155111905Y-70557419D01*
X155683333Y-71557419D02*
X155254762Y-70985990D01*
X155683333Y-70557419D02*
X155111905Y-71128847D01*
X156064286Y-70652657D02*
X156111905Y-70605038D01*
X156111905Y-70605038D02*
X156207143Y-70557419D01*
X156207143Y-70557419D02*
X156445238Y-70557419D01*
X156445238Y-70557419D02*
X156540476Y-70605038D01*
X156540476Y-70605038D02*
X156588095Y-70652657D01*
X156588095Y-70652657D02*
X156635714Y-70747895D01*
X156635714Y-70747895D02*
X156635714Y-70843133D01*
X156635714Y-70843133D02*
X156588095Y-70985990D01*
X156588095Y-70985990D02*
X156016667Y-71557419D01*
X156016667Y-71557419D02*
X156635714Y-71557419D01*
D11*
X125954819Y-82930357D02*
X125478628Y-83263690D01*
X125954819Y-83501785D02*
X124954819Y-83501785D01*
X124954819Y-83501785D02*
X124954819Y-83120833D01*
X124954819Y-83120833D02*
X125002438Y-83025595D01*
X125002438Y-83025595D02*
X125050057Y-82977976D01*
X125050057Y-82977976D02*
X125145295Y-82930357D01*
X125145295Y-82930357D02*
X125288152Y-82930357D01*
X125288152Y-82930357D02*
X125383390Y-82977976D01*
X125383390Y-82977976D02*
X125431009Y-83025595D01*
X125431009Y-83025595D02*
X125478628Y-83120833D01*
X125478628Y-83120833D02*
X125478628Y-83501785D01*
X125954819Y-81977976D02*
X125954819Y-82549404D01*
X125954819Y-82263690D02*
X124954819Y-82263690D01*
X124954819Y-82263690D02*
X125097676Y-82358928D01*
X125097676Y-82358928D02*
X125192914Y-82454166D01*
X125192914Y-82454166D02*
X125240533Y-82549404D01*
X125050057Y-81597023D02*
X125002438Y-81549404D01*
X125002438Y-81549404D02*
X124954819Y-81454166D01*
X124954819Y-81454166D02*
X124954819Y-81216071D01*
X124954819Y-81216071D02*
X125002438Y-81120833D01*
X125002438Y-81120833D02*
X125050057Y-81073214D01*
X125050057Y-81073214D02*
X125145295Y-81025595D01*
X125145295Y-81025595D02*
X125240533Y-81025595D01*
X125240533Y-81025595D02*
X125383390Y-81073214D01*
X125383390Y-81073214D02*
X125954819Y-81644642D01*
X125954819Y-81644642D02*
X125954819Y-81025595D01*
X110633333Y-33254819D02*
X110157143Y-33254819D01*
X110157143Y-33254819D02*
X110157143Y-32254819D01*
X110919048Y-32350057D02*
X110966667Y-32302438D01*
X110966667Y-32302438D02*
X111061905Y-32254819D01*
X111061905Y-32254819D02*
X111300000Y-32254819D01*
X111300000Y-32254819D02*
X111395238Y-32302438D01*
X111395238Y-32302438D02*
X111442857Y-32350057D01*
X111442857Y-32350057D02*
X111490476Y-32445295D01*
X111490476Y-32445295D02*
X111490476Y-32540533D01*
X111490476Y-32540533D02*
X111442857Y-32683390D01*
X111442857Y-32683390D02*
X110871429Y-33254819D01*
X110871429Y-33254819D02*
X111490476Y-33254819D01*
D10*
X140033333Y-31392580D02*
X140033333Y-30678295D01*
X140033333Y-30678295D02*
X140080952Y-30535438D01*
X140080952Y-30535438D02*
X140176190Y-30440200D01*
X140176190Y-30440200D02*
X140319047Y-30392580D01*
X140319047Y-30392580D02*
X140414285Y-30392580D01*
X139414285Y-30964009D02*
X139509523Y-31011628D01*
X139509523Y-31011628D02*
X139557142Y-31059247D01*
X139557142Y-31059247D02*
X139604761Y-31154485D01*
X139604761Y-31154485D02*
X139604761Y-31202104D01*
X139604761Y-31202104D02*
X139557142Y-31297342D01*
X139557142Y-31297342D02*
X139509523Y-31344961D01*
X139509523Y-31344961D02*
X139414285Y-31392580D01*
X139414285Y-31392580D02*
X139223809Y-31392580D01*
X139223809Y-31392580D02*
X139128571Y-31344961D01*
X139128571Y-31344961D02*
X139080952Y-31297342D01*
X139080952Y-31297342D02*
X139033333Y-31202104D01*
X139033333Y-31202104D02*
X139033333Y-31154485D01*
X139033333Y-31154485D02*
X139080952Y-31059247D01*
X139080952Y-31059247D02*
X139128571Y-31011628D01*
X139128571Y-31011628D02*
X139223809Y-30964009D01*
X139223809Y-30964009D02*
X139414285Y-30964009D01*
X139414285Y-30964009D02*
X139509523Y-30916390D01*
X139509523Y-30916390D02*
X139557142Y-30868771D01*
X139557142Y-30868771D02*
X139604761Y-30773533D01*
X139604761Y-30773533D02*
X139604761Y-30583057D01*
X139604761Y-30583057D02*
X139557142Y-30487819D01*
X139557142Y-30487819D02*
X139509523Y-30440200D01*
X139509523Y-30440200D02*
X139414285Y-30392580D01*
X139414285Y-30392580D02*
X139223809Y-30392580D01*
X139223809Y-30392580D02*
X139128571Y-30440200D01*
X139128571Y-30440200D02*
X139080952Y-30487819D01*
X139080952Y-30487819D02*
X139033333Y-30583057D01*
X139033333Y-30583057D02*
X139033333Y-30773533D01*
X139033333Y-30773533D02*
X139080952Y-30868771D01*
X139080952Y-30868771D02*
X139128571Y-30916390D01*
X139128571Y-30916390D02*
X139223809Y-30964009D01*
D11*
X129454761Y-82300057D02*
X129359523Y-82252438D01*
X129359523Y-82252438D02*
X129264285Y-82157200D01*
X129264285Y-82157200D02*
X129121428Y-82014342D01*
X129121428Y-82014342D02*
X129026190Y-81966723D01*
X129026190Y-81966723D02*
X128930952Y-81966723D01*
X128978571Y-82204819D02*
X128883333Y-82157200D01*
X128883333Y-82157200D02*
X128788095Y-82061961D01*
X128788095Y-82061961D02*
X128740476Y-81871485D01*
X128740476Y-81871485D02*
X128740476Y-81538152D01*
X128740476Y-81538152D02*
X128788095Y-81347676D01*
X128788095Y-81347676D02*
X128883333Y-81252438D01*
X128883333Y-81252438D02*
X128978571Y-81204819D01*
X128978571Y-81204819D02*
X129169047Y-81204819D01*
X129169047Y-81204819D02*
X129264285Y-81252438D01*
X129264285Y-81252438D02*
X129359523Y-81347676D01*
X129359523Y-81347676D02*
X129407142Y-81538152D01*
X129407142Y-81538152D02*
X129407142Y-81871485D01*
X129407142Y-81871485D02*
X129359523Y-82061961D01*
X129359523Y-82061961D02*
X129264285Y-82157200D01*
X129264285Y-82157200D02*
X129169047Y-82204819D01*
X129169047Y-82204819D02*
X128978571Y-82204819D01*
X129788095Y-81300057D02*
X129835714Y-81252438D01*
X129835714Y-81252438D02*
X129930952Y-81204819D01*
X129930952Y-81204819D02*
X130169047Y-81204819D01*
X130169047Y-81204819D02*
X130264285Y-81252438D01*
X130264285Y-81252438D02*
X130311904Y-81300057D01*
X130311904Y-81300057D02*
X130359523Y-81395295D01*
X130359523Y-81395295D02*
X130359523Y-81490533D01*
X130359523Y-81490533D02*
X130311904Y-81633390D01*
X130311904Y-81633390D02*
X129740476Y-82204819D01*
X129740476Y-82204819D02*
X130359523Y-82204819D01*
X121304819Y-53316666D02*
X120828628Y-53649999D01*
X121304819Y-53888094D02*
X120304819Y-53888094D01*
X120304819Y-53888094D02*
X120304819Y-53507142D01*
X120304819Y-53507142D02*
X120352438Y-53411904D01*
X120352438Y-53411904D02*
X120400057Y-53364285D01*
X120400057Y-53364285D02*
X120495295Y-53316666D01*
X120495295Y-53316666D02*
X120638152Y-53316666D01*
X120638152Y-53316666D02*
X120733390Y-53364285D01*
X120733390Y-53364285D02*
X120781009Y-53411904D01*
X120781009Y-53411904D02*
X120828628Y-53507142D01*
X120828628Y-53507142D02*
X120828628Y-53888094D01*
X120304819Y-52983332D02*
X120304819Y-52316666D01*
X120304819Y-52316666D02*
X121304819Y-52745237D01*
X118388095Y-32971367D02*
X118388095Y-31971367D01*
X118388095Y-32447557D02*
X118959523Y-32447557D01*
X118959523Y-32971367D02*
X118959523Y-31971367D01*
X119340476Y-31971367D02*
X119959523Y-31971367D01*
X119959523Y-31971367D02*
X119626190Y-32352319D01*
X119626190Y-32352319D02*
X119769047Y-32352319D01*
X119769047Y-32352319D02*
X119864285Y-32399938D01*
X119864285Y-32399938D02*
X119911904Y-32447557D01*
X119911904Y-32447557D02*
X119959523Y-32542795D01*
X119959523Y-32542795D02*
X119959523Y-32780890D01*
X119959523Y-32780890D02*
X119911904Y-32876128D01*
X119911904Y-32876128D02*
X119864285Y-32923748D01*
X119864285Y-32923748D02*
X119769047Y-32971367D01*
X119769047Y-32971367D02*
X119483333Y-32971367D01*
X119483333Y-32971367D02*
X119388095Y-32923748D01*
X119388095Y-32923748D02*
X119340476Y-32876128D01*
X128304761Y-94637557D02*
X128209523Y-94589938D01*
X128209523Y-94589938D02*
X128114285Y-94494700D01*
X128114285Y-94494700D02*
X127971428Y-94351842D01*
X127971428Y-94351842D02*
X127876190Y-94304223D01*
X127876190Y-94304223D02*
X127780952Y-94304223D01*
X127828571Y-94542319D02*
X127733333Y-94494700D01*
X127733333Y-94494700D02*
X127638095Y-94399461D01*
X127638095Y-94399461D02*
X127590476Y-94208985D01*
X127590476Y-94208985D02*
X127590476Y-93875652D01*
X127590476Y-93875652D02*
X127638095Y-93685176D01*
X127638095Y-93685176D02*
X127733333Y-93589938D01*
X127733333Y-93589938D02*
X127828571Y-93542319D01*
X127828571Y-93542319D02*
X128019047Y-93542319D01*
X128019047Y-93542319D02*
X128114285Y-93589938D01*
X128114285Y-93589938D02*
X128209523Y-93685176D01*
X128209523Y-93685176D02*
X128257142Y-93875652D01*
X128257142Y-93875652D02*
X128257142Y-94208985D01*
X128257142Y-94208985D02*
X128209523Y-94399461D01*
X128209523Y-94399461D02*
X128114285Y-94494700D01*
X128114285Y-94494700D02*
X128019047Y-94542319D01*
X128019047Y-94542319D02*
X127828571Y-94542319D01*
X129114285Y-93875652D02*
X129114285Y-94542319D01*
X128876190Y-93494700D02*
X128638095Y-94208985D01*
X128638095Y-94208985D02*
X129257142Y-94208985D01*
D10*
X157966666Y-77557419D02*
X157966666Y-78271704D01*
X157966666Y-78271704D02*
X157919047Y-78414561D01*
X157919047Y-78414561D02*
X157823809Y-78509800D01*
X157823809Y-78509800D02*
X157680952Y-78557419D01*
X157680952Y-78557419D02*
X157585714Y-78557419D01*
X158919047Y-77557419D02*
X158442857Y-77557419D01*
X158442857Y-77557419D02*
X158395238Y-78033609D01*
X158395238Y-78033609D02*
X158442857Y-77985990D01*
X158442857Y-77985990D02*
X158538095Y-77938371D01*
X158538095Y-77938371D02*
X158776190Y-77938371D01*
X158776190Y-77938371D02*
X158871428Y-77985990D01*
X158871428Y-77985990D02*
X158919047Y-78033609D01*
X158919047Y-78033609D02*
X158966666Y-78128847D01*
X158966666Y-78128847D02*
X158966666Y-78366942D01*
X158966666Y-78366942D02*
X158919047Y-78462180D01*
X158919047Y-78462180D02*
X158871428Y-78509800D01*
X158871428Y-78509800D02*
X158776190Y-78557419D01*
X158776190Y-78557419D02*
X158538095Y-78557419D01*
X158538095Y-78557419D02*
X158442857Y-78509800D01*
X158442857Y-78509800D02*
X158395238Y-78462180D01*
X155111905Y-86807419D02*
X155111905Y-85807419D01*
X155683333Y-86807419D02*
X155254762Y-86235990D01*
X155683333Y-85807419D02*
X155111905Y-86378847D01*
X156016667Y-85807419D02*
X156635714Y-85807419D01*
X156635714Y-85807419D02*
X156302381Y-86188371D01*
X156302381Y-86188371D02*
X156445238Y-86188371D01*
X156445238Y-86188371D02*
X156540476Y-86235990D01*
X156540476Y-86235990D02*
X156588095Y-86283609D01*
X156588095Y-86283609D02*
X156635714Y-86378847D01*
X156635714Y-86378847D02*
X156635714Y-86616942D01*
X156635714Y-86616942D02*
X156588095Y-86712180D01*
X156588095Y-86712180D02*
X156540476Y-86759800D01*
X156540476Y-86759800D02*
X156445238Y-86807419D01*
X156445238Y-86807419D02*
X156159524Y-86807419D01*
X156159524Y-86807419D02*
X156064286Y-86759800D01*
X156064286Y-86759800D02*
X156016667Y-86712180D01*
D11*
X100554819Y-55342857D02*
X100078628Y-55676190D01*
X100554819Y-55914285D02*
X99554819Y-55914285D01*
X99554819Y-55914285D02*
X99554819Y-55533333D01*
X99554819Y-55533333D02*
X99602438Y-55438095D01*
X99602438Y-55438095D02*
X99650057Y-55390476D01*
X99650057Y-55390476D02*
X99745295Y-55342857D01*
X99745295Y-55342857D02*
X99888152Y-55342857D01*
X99888152Y-55342857D02*
X99983390Y-55390476D01*
X99983390Y-55390476D02*
X100031009Y-55438095D01*
X100031009Y-55438095D02*
X100078628Y-55533333D01*
X100078628Y-55533333D02*
X100078628Y-55914285D01*
X100554819Y-54390476D02*
X100554819Y-54961904D01*
X100554819Y-54676190D02*
X99554819Y-54676190D01*
X99554819Y-54676190D02*
X99697676Y-54771428D01*
X99697676Y-54771428D02*
X99792914Y-54866666D01*
X99792914Y-54866666D02*
X99840533Y-54961904D01*
X100554819Y-53438095D02*
X100554819Y-54009523D01*
X100554819Y-53723809D02*
X99554819Y-53723809D01*
X99554819Y-53723809D02*
X99697676Y-53819047D01*
X99697676Y-53819047D02*
X99792914Y-53914285D01*
X99792914Y-53914285D02*
X99840533Y-54009523D01*
X110554819Y-88261904D02*
X111364342Y-88261904D01*
X111364342Y-88261904D02*
X111459580Y-88214285D01*
X111459580Y-88214285D02*
X111507200Y-88166666D01*
X111507200Y-88166666D02*
X111554819Y-88071428D01*
X111554819Y-88071428D02*
X111554819Y-87880952D01*
X111554819Y-87880952D02*
X111507200Y-87785714D01*
X111507200Y-87785714D02*
X111459580Y-87738095D01*
X111459580Y-87738095D02*
X111364342Y-87690476D01*
X111364342Y-87690476D02*
X110554819Y-87690476D01*
X111554819Y-86690476D02*
X111554819Y-87261904D01*
X111554819Y-86976190D02*
X110554819Y-86976190D01*
X110554819Y-86976190D02*
X110697676Y-87071428D01*
X110697676Y-87071428D02*
X110792914Y-87166666D01*
X110792914Y-87166666D02*
X110840533Y-87261904D01*
X104683333Y-54304819D02*
X104350000Y-53828628D01*
X104111905Y-54304819D02*
X104111905Y-53304819D01*
X104111905Y-53304819D02*
X104492857Y-53304819D01*
X104492857Y-53304819D02*
X104588095Y-53352438D01*
X104588095Y-53352438D02*
X104635714Y-53400057D01*
X104635714Y-53400057D02*
X104683333Y-53495295D01*
X104683333Y-53495295D02*
X104683333Y-53638152D01*
X104683333Y-53638152D02*
X104635714Y-53733390D01*
X104635714Y-53733390D02*
X104588095Y-53781009D01*
X104588095Y-53781009D02*
X104492857Y-53828628D01*
X104492857Y-53828628D02*
X104111905Y-53828628D01*
X105540476Y-53304819D02*
X105350000Y-53304819D01*
X105350000Y-53304819D02*
X105254762Y-53352438D01*
X105254762Y-53352438D02*
X105207143Y-53400057D01*
X105207143Y-53400057D02*
X105111905Y-53542914D01*
X105111905Y-53542914D02*
X105064286Y-53733390D01*
X105064286Y-53733390D02*
X105064286Y-54114342D01*
X105064286Y-54114342D02*
X105111905Y-54209580D01*
X105111905Y-54209580D02*
X105159524Y-54257200D01*
X105159524Y-54257200D02*
X105254762Y-54304819D01*
X105254762Y-54304819D02*
X105445238Y-54304819D01*
X105445238Y-54304819D02*
X105540476Y-54257200D01*
X105540476Y-54257200D02*
X105588095Y-54209580D01*
X105588095Y-54209580D02*
X105635714Y-54114342D01*
X105635714Y-54114342D02*
X105635714Y-53876247D01*
X105635714Y-53876247D02*
X105588095Y-53781009D01*
X105588095Y-53781009D02*
X105540476Y-53733390D01*
X105540476Y-53733390D02*
X105445238Y-53685771D01*
X105445238Y-53685771D02*
X105254762Y-53685771D01*
X105254762Y-53685771D02*
X105159524Y-53733390D01*
X105159524Y-53733390D02*
X105111905Y-53781009D01*
X105111905Y-53781009D02*
X105064286Y-53876247D01*
X125483333Y-57754819D02*
X125150000Y-57278628D01*
X124911905Y-57754819D02*
X124911905Y-56754819D01*
X124911905Y-56754819D02*
X125292857Y-56754819D01*
X125292857Y-56754819D02*
X125388095Y-56802438D01*
X125388095Y-56802438D02*
X125435714Y-56850057D01*
X125435714Y-56850057D02*
X125483333Y-56945295D01*
X125483333Y-56945295D02*
X125483333Y-57088152D01*
X125483333Y-57088152D02*
X125435714Y-57183390D01*
X125435714Y-57183390D02*
X125388095Y-57231009D01*
X125388095Y-57231009D02*
X125292857Y-57278628D01*
X125292857Y-57278628D02*
X124911905Y-57278628D01*
X126435714Y-57754819D02*
X125864286Y-57754819D01*
X126150000Y-57754819D02*
X126150000Y-56754819D01*
X126150000Y-56754819D02*
X126054762Y-56897676D01*
X126054762Y-56897676D02*
X125959524Y-56992914D01*
X125959524Y-56992914D02*
X125864286Y-57040533D01*
X129154761Y-51500057D02*
X129059523Y-51452438D01*
X129059523Y-51452438D02*
X128964285Y-51357200D01*
X128964285Y-51357200D02*
X128821428Y-51214342D01*
X128821428Y-51214342D02*
X128726190Y-51166723D01*
X128726190Y-51166723D02*
X128630952Y-51166723D01*
X128678571Y-51404819D02*
X128583333Y-51357200D01*
X128583333Y-51357200D02*
X128488095Y-51261961D01*
X128488095Y-51261961D02*
X128440476Y-51071485D01*
X128440476Y-51071485D02*
X128440476Y-50738152D01*
X128440476Y-50738152D02*
X128488095Y-50547676D01*
X128488095Y-50547676D02*
X128583333Y-50452438D01*
X128583333Y-50452438D02*
X128678571Y-50404819D01*
X128678571Y-50404819D02*
X128869047Y-50404819D01*
X128869047Y-50404819D02*
X128964285Y-50452438D01*
X128964285Y-50452438D02*
X129059523Y-50547676D01*
X129059523Y-50547676D02*
X129107142Y-50738152D01*
X129107142Y-50738152D02*
X129107142Y-51071485D01*
X129107142Y-51071485D02*
X129059523Y-51261961D01*
X129059523Y-51261961D02*
X128964285Y-51357200D01*
X128964285Y-51357200D02*
X128869047Y-51404819D01*
X128869047Y-51404819D02*
X128678571Y-51404819D01*
X130059523Y-51404819D02*
X129488095Y-51404819D01*
X129773809Y-51404819D02*
X129773809Y-50404819D01*
X129773809Y-50404819D02*
X129678571Y-50547676D01*
X129678571Y-50547676D02*
X129583333Y-50642914D01*
X129583333Y-50642914D02*
X129488095Y-50690533D01*
X106633333Y-93409580D02*
X106585714Y-93457200D01*
X106585714Y-93457200D02*
X106442857Y-93504819D01*
X106442857Y-93504819D02*
X106347619Y-93504819D01*
X106347619Y-93504819D02*
X106204762Y-93457200D01*
X106204762Y-93457200D02*
X106109524Y-93361961D01*
X106109524Y-93361961D02*
X106061905Y-93266723D01*
X106061905Y-93266723D02*
X106014286Y-93076247D01*
X106014286Y-93076247D02*
X106014286Y-92933390D01*
X106014286Y-92933390D02*
X106061905Y-92742914D01*
X106061905Y-92742914D02*
X106109524Y-92647676D01*
X106109524Y-92647676D02*
X106204762Y-92552438D01*
X106204762Y-92552438D02*
X106347619Y-92504819D01*
X106347619Y-92504819D02*
X106442857Y-92504819D01*
X106442857Y-92504819D02*
X106585714Y-92552438D01*
X106585714Y-92552438D02*
X106633333Y-92600057D01*
X106966667Y-92504819D02*
X107633333Y-92504819D01*
X107633333Y-92504819D02*
X107204762Y-93504819D01*
X121154819Y-48942857D02*
X120678628Y-49276190D01*
X121154819Y-49514285D02*
X120154819Y-49514285D01*
X120154819Y-49514285D02*
X120154819Y-49133333D01*
X120154819Y-49133333D02*
X120202438Y-49038095D01*
X120202438Y-49038095D02*
X120250057Y-48990476D01*
X120250057Y-48990476D02*
X120345295Y-48942857D01*
X120345295Y-48942857D02*
X120488152Y-48942857D01*
X120488152Y-48942857D02*
X120583390Y-48990476D01*
X120583390Y-48990476D02*
X120631009Y-49038095D01*
X120631009Y-49038095D02*
X120678628Y-49133333D01*
X120678628Y-49133333D02*
X120678628Y-49514285D01*
X121154819Y-47990476D02*
X121154819Y-48561904D01*
X121154819Y-48276190D02*
X120154819Y-48276190D01*
X120154819Y-48276190D02*
X120297676Y-48371428D01*
X120297676Y-48371428D02*
X120392914Y-48466666D01*
X120392914Y-48466666D02*
X120440533Y-48561904D01*
X120154819Y-47371428D02*
X120154819Y-47276190D01*
X120154819Y-47276190D02*
X120202438Y-47180952D01*
X120202438Y-47180952D02*
X120250057Y-47133333D01*
X120250057Y-47133333D02*
X120345295Y-47085714D01*
X120345295Y-47085714D02*
X120535771Y-47038095D01*
X120535771Y-47038095D02*
X120773866Y-47038095D01*
X120773866Y-47038095D02*
X120964342Y-47085714D01*
X120964342Y-47085714D02*
X121059580Y-47133333D01*
X121059580Y-47133333D02*
X121107200Y-47180952D01*
X121107200Y-47180952D02*
X121154819Y-47276190D01*
X121154819Y-47276190D02*
X121154819Y-47371428D01*
X121154819Y-47371428D02*
X121107200Y-47466666D01*
X121107200Y-47466666D02*
X121059580Y-47514285D01*
X121059580Y-47514285D02*
X120964342Y-47561904D01*
X120964342Y-47561904D02*
X120773866Y-47609523D01*
X120773866Y-47609523D02*
X120535771Y-47609523D01*
X120535771Y-47609523D02*
X120345295Y-47561904D01*
X120345295Y-47561904D02*
X120250057Y-47514285D01*
X120250057Y-47514285D02*
X120202438Y-47466666D01*
X120202438Y-47466666D02*
X120154819Y-47371428D01*
D10*
X158166666Y-48457419D02*
X158166666Y-49171704D01*
X158166666Y-49171704D02*
X158119047Y-49314561D01*
X158119047Y-49314561D02*
X158023809Y-49409800D01*
X158023809Y-49409800D02*
X157880952Y-49457419D01*
X157880952Y-49457419D02*
X157785714Y-49457419D01*
X158547619Y-48457419D02*
X159166666Y-48457419D01*
X159166666Y-48457419D02*
X158833333Y-48838371D01*
X158833333Y-48838371D02*
X158976190Y-48838371D01*
X158976190Y-48838371D02*
X159071428Y-48885990D01*
X159071428Y-48885990D02*
X159119047Y-48933609D01*
X159119047Y-48933609D02*
X159166666Y-49028847D01*
X159166666Y-49028847D02*
X159166666Y-49266942D01*
X159166666Y-49266942D02*
X159119047Y-49362180D01*
X159119047Y-49362180D02*
X159071428Y-49409800D01*
X159071428Y-49409800D02*
X158976190Y-49457419D01*
X158976190Y-49457419D02*
X158690476Y-49457419D01*
X158690476Y-49457419D02*
X158595238Y-49409800D01*
X158595238Y-49409800D02*
X158547619Y-49362180D01*
D11*
X115320833Y-45204819D02*
X114987500Y-44728628D01*
X114749405Y-45204819D02*
X114749405Y-44204819D01*
X114749405Y-44204819D02*
X115130357Y-44204819D01*
X115130357Y-44204819D02*
X115225595Y-44252438D01*
X115225595Y-44252438D02*
X115273214Y-44300057D01*
X115273214Y-44300057D02*
X115320833Y-44395295D01*
X115320833Y-44395295D02*
X115320833Y-44538152D01*
X115320833Y-44538152D02*
X115273214Y-44633390D01*
X115273214Y-44633390D02*
X115225595Y-44681009D01*
X115225595Y-44681009D02*
X115130357Y-44728628D01*
X115130357Y-44728628D02*
X114749405Y-44728628D01*
X116225595Y-44204819D02*
X115749405Y-44204819D01*
X115749405Y-44204819D02*
X115701786Y-44681009D01*
X115701786Y-44681009D02*
X115749405Y-44633390D01*
X115749405Y-44633390D02*
X115844643Y-44585771D01*
X115844643Y-44585771D02*
X116082738Y-44585771D01*
X116082738Y-44585771D02*
X116177976Y-44633390D01*
X116177976Y-44633390D02*
X116225595Y-44681009D01*
X116225595Y-44681009D02*
X116273214Y-44776247D01*
X116273214Y-44776247D02*
X116273214Y-45014342D01*
X116273214Y-45014342D02*
X116225595Y-45109580D01*
X116225595Y-45109580D02*
X116177976Y-45157200D01*
X116177976Y-45157200D02*
X116082738Y-45204819D01*
X116082738Y-45204819D02*
X115844643Y-45204819D01*
X115844643Y-45204819D02*
X115749405Y-45157200D01*
X115749405Y-45157200D02*
X115701786Y-45109580D01*
X119083333Y-95667319D02*
X118750000Y-95191128D01*
X118511905Y-95667319D02*
X118511905Y-94667319D01*
X118511905Y-94667319D02*
X118892857Y-94667319D01*
X118892857Y-94667319D02*
X118988095Y-94714938D01*
X118988095Y-94714938D02*
X119035714Y-94762557D01*
X119035714Y-94762557D02*
X119083333Y-94857795D01*
X119083333Y-94857795D02*
X119083333Y-95000652D01*
X119083333Y-95000652D02*
X119035714Y-95095890D01*
X119035714Y-95095890D02*
X118988095Y-95143509D01*
X118988095Y-95143509D02*
X118892857Y-95191128D01*
X118892857Y-95191128D02*
X118511905Y-95191128D01*
X119654762Y-95095890D02*
X119559524Y-95048271D01*
X119559524Y-95048271D02*
X119511905Y-95000652D01*
X119511905Y-95000652D02*
X119464286Y-94905414D01*
X119464286Y-94905414D02*
X119464286Y-94857795D01*
X119464286Y-94857795D02*
X119511905Y-94762557D01*
X119511905Y-94762557D02*
X119559524Y-94714938D01*
X119559524Y-94714938D02*
X119654762Y-94667319D01*
X119654762Y-94667319D02*
X119845238Y-94667319D01*
X119845238Y-94667319D02*
X119940476Y-94714938D01*
X119940476Y-94714938D02*
X119988095Y-94762557D01*
X119988095Y-94762557D02*
X120035714Y-94857795D01*
X120035714Y-94857795D02*
X120035714Y-94905414D01*
X120035714Y-94905414D02*
X119988095Y-95000652D01*
X119988095Y-95000652D02*
X119940476Y-95048271D01*
X119940476Y-95048271D02*
X119845238Y-95095890D01*
X119845238Y-95095890D02*
X119654762Y-95095890D01*
X119654762Y-95095890D02*
X119559524Y-95143509D01*
X119559524Y-95143509D02*
X119511905Y-95191128D01*
X119511905Y-95191128D02*
X119464286Y-95286366D01*
X119464286Y-95286366D02*
X119464286Y-95476842D01*
X119464286Y-95476842D02*
X119511905Y-95572080D01*
X119511905Y-95572080D02*
X119559524Y-95619700D01*
X119559524Y-95619700D02*
X119654762Y-95667319D01*
X119654762Y-95667319D02*
X119845238Y-95667319D01*
X119845238Y-95667319D02*
X119940476Y-95619700D01*
X119940476Y-95619700D02*
X119988095Y-95572080D01*
X119988095Y-95572080D02*
X120035714Y-95476842D01*
X120035714Y-95476842D02*
X120035714Y-95286366D01*
X120035714Y-95286366D02*
X119988095Y-95191128D01*
X119988095Y-95191128D02*
X119940476Y-95143509D01*
X119940476Y-95143509D02*
X119845238Y-95095890D01*
X158254821Y-101471545D02*
X158254821Y-100471545D01*
X158254821Y-100947735D02*
X158826249Y-100947735D01*
X158826249Y-101471545D02*
X158826249Y-100471545D01*
X159254821Y-100566783D02*
X159302440Y-100519164D01*
X159302440Y-100519164D02*
X159397678Y-100471545D01*
X159397678Y-100471545D02*
X159635773Y-100471545D01*
X159635773Y-100471545D02*
X159731011Y-100519164D01*
X159731011Y-100519164D02*
X159778630Y-100566783D01*
X159778630Y-100566783D02*
X159826249Y-100662021D01*
X159826249Y-100662021D02*
X159826249Y-100757259D01*
X159826249Y-100757259D02*
X159778630Y-100900116D01*
X159778630Y-100900116D02*
X159207202Y-101471545D01*
X159207202Y-101471545D02*
X159826249Y-101471545D01*
X99309580Y-64916666D02*
X99357200Y-64964285D01*
X99357200Y-64964285D02*
X99404819Y-65107142D01*
X99404819Y-65107142D02*
X99404819Y-65202380D01*
X99404819Y-65202380D02*
X99357200Y-65345237D01*
X99357200Y-65345237D02*
X99261961Y-65440475D01*
X99261961Y-65440475D02*
X99166723Y-65488094D01*
X99166723Y-65488094D02*
X98976247Y-65535713D01*
X98976247Y-65535713D02*
X98833390Y-65535713D01*
X98833390Y-65535713D02*
X98642914Y-65488094D01*
X98642914Y-65488094D02*
X98547676Y-65440475D01*
X98547676Y-65440475D02*
X98452438Y-65345237D01*
X98452438Y-65345237D02*
X98404819Y-65202380D01*
X98404819Y-65202380D02*
X98404819Y-65107142D01*
X98404819Y-65107142D02*
X98452438Y-64964285D01*
X98452438Y-64964285D02*
X98500057Y-64916666D01*
X98738152Y-64059523D02*
X99404819Y-64059523D01*
X98357200Y-64297618D02*
X99071485Y-64535713D01*
X99071485Y-64535713D02*
X99071485Y-63916666D01*
X109442319Y-40866666D02*
X108966128Y-41199999D01*
X109442319Y-41438094D02*
X108442319Y-41438094D01*
X108442319Y-41438094D02*
X108442319Y-41057142D01*
X108442319Y-41057142D02*
X108489938Y-40961904D01*
X108489938Y-40961904D02*
X108537557Y-40914285D01*
X108537557Y-40914285D02*
X108632795Y-40866666D01*
X108632795Y-40866666D02*
X108775652Y-40866666D01*
X108775652Y-40866666D02*
X108870890Y-40914285D01*
X108870890Y-40914285D02*
X108918509Y-40961904D01*
X108918509Y-40961904D02*
X108966128Y-41057142D01*
X108966128Y-41057142D02*
X108966128Y-41438094D01*
X108537557Y-40485713D02*
X108489938Y-40438094D01*
X108489938Y-40438094D02*
X108442319Y-40342856D01*
X108442319Y-40342856D02*
X108442319Y-40104761D01*
X108442319Y-40104761D02*
X108489938Y-40009523D01*
X108489938Y-40009523D02*
X108537557Y-39961904D01*
X108537557Y-39961904D02*
X108632795Y-39914285D01*
X108632795Y-39914285D02*
X108728033Y-39914285D01*
X108728033Y-39914285D02*
X108870890Y-39961904D01*
X108870890Y-39961904D02*
X109442319Y-40533332D01*
X109442319Y-40533332D02*
X109442319Y-39914285D01*
X103071369Y-106971545D02*
X103071369Y-105971545D01*
X103071369Y-106447735D02*
X103642797Y-106447735D01*
X103642797Y-106971545D02*
X103642797Y-105971545D01*
X104547559Y-106304878D02*
X104547559Y-106971545D01*
X104309464Y-105923926D02*
X104071369Y-106638211D01*
X104071369Y-106638211D02*
X104690416Y-106638211D01*
X119111905Y-79104819D02*
X119111905Y-78104819D01*
X119111905Y-78104819D02*
X119350000Y-78104819D01*
X119350000Y-78104819D02*
X119492857Y-78152438D01*
X119492857Y-78152438D02*
X119588095Y-78247676D01*
X119588095Y-78247676D02*
X119635714Y-78342914D01*
X119635714Y-78342914D02*
X119683333Y-78533390D01*
X119683333Y-78533390D02*
X119683333Y-78676247D01*
X119683333Y-78676247D02*
X119635714Y-78866723D01*
X119635714Y-78866723D02*
X119588095Y-78961961D01*
X119588095Y-78961961D02*
X119492857Y-79057200D01*
X119492857Y-79057200D02*
X119350000Y-79104819D01*
X119350000Y-79104819D02*
X119111905Y-79104819D01*
X120540476Y-78438152D02*
X120540476Y-79104819D01*
X120302381Y-78057200D02*
X120064286Y-78771485D01*
X120064286Y-78771485D02*
X120683333Y-78771485D01*
D10*
X151083333Y-31442580D02*
X151083333Y-30728295D01*
X151083333Y-30728295D02*
X151130952Y-30585438D01*
X151130952Y-30585438D02*
X151226190Y-30490200D01*
X151226190Y-30490200D02*
X151369047Y-30442580D01*
X151369047Y-30442580D02*
X151464285Y-30442580D01*
X150083333Y-30442580D02*
X150654761Y-30442580D01*
X150369047Y-30442580D02*
X150369047Y-31442580D01*
X150369047Y-31442580D02*
X150464285Y-31299723D01*
X150464285Y-31299723D02*
X150559523Y-31204485D01*
X150559523Y-31204485D02*
X150654761Y-31156866D01*
X157966666Y-92257419D02*
X157966666Y-92971704D01*
X157966666Y-92971704D02*
X157919047Y-93114561D01*
X157919047Y-93114561D02*
X157823809Y-93209800D01*
X157823809Y-93209800D02*
X157680952Y-93257419D01*
X157680952Y-93257419D02*
X157585714Y-93257419D01*
X158871428Y-92257419D02*
X158680952Y-92257419D01*
X158680952Y-92257419D02*
X158585714Y-92305038D01*
X158585714Y-92305038D02*
X158538095Y-92352657D01*
X158538095Y-92352657D02*
X158442857Y-92495514D01*
X158442857Y-92495514D02*
X158395238Y-92685990D01*
X158395238Y-92685990D02*
X158395238Y-93066942D01*
X158395238Y-93066942D02*
X158442857Y-93162180D01*
X158442857Y-93162180D02*
X158490476Y-93209800D01*
X158490476Y-93209800D02*
X158585714Y-93257419D01*
X158585714Y-93257419D02*
X158776190Y-93257419D01*
X158776190Y-93257419D02*
X158871428Y-93209800D01*
X158871428Y-93209800D02*
X158919047Y-93162180D01*
X158919047Y-93162180D02*
X158966666Y-93066942D01*
X158966666Y-93066942D02*
X158966666Y-92828847D01*
X158966666Y-92828847D02*
X158919047Y-92733609D01*
X158919047Y-92733609D02*
X158871428Y-92685990D01*
X158871428Y-92685990D02*
X158776190Y-92638371D01*
X158776190Y-92638371D02*
X158585714Y-92638371D01*
X158585714Y-92638371D02*
X158490476Y-92685990D01*
X158490476Y-92685990D02*
X158442857Y-92733609D01*
X158442857Y-92733609D02*
X158395238Y-92828847D01*
X123057419Y-66061904D02*
X123057419Y-65490476D01*
X124057419Y-65776190D02*
X123057419Y-65776190D01*
X124057419Y-64633333D02*
X124057419Y-65204761D01*
X124057419Y-64919047D02*
X123057419Y-64919047D01*
X123057419Y-64919047D02*
X123200276Y-65014285D01*
X123200276Y-65014285D02*
X123295514Y-65109523D01*
X123295514Y-65109523D02*
X123343133Y-65204761D01*
D11*
X132304819Y-80488094D02*
X131304819Y-80488094D01*
X131304819Y-80488094D02*
X131304819Y-80249999D01*
X131304819Y-80249999D02*
X131352438Y-80107142D01*
X131352438Y-80107142D02*
X131447676Y-80011904D01*
X131447676Y-80011904D02*
X131542914Y-79964285D01*
X131542914Y-79964285D02*
X131733390Y-79916666D01*
X131733390Y-79916666D02*
X131876247Y-79916666D01*
X131876247Y-79916666D02*
X132066723Y-79964285D01*
X132066723Y-79964285D02*
X132161961Y-80011904D01*
X132161961Y-80011904D02*
X132257200Y-80107142D01*
X132257200Y-80107142D02*
X132304819Y-80249999D01*
X132304819Y-80249999D02*
X132304819Y-80488094D01*
X131304819Y-79059523D02*
X131304819Y-79249999D01*
X131304819Y-79249999D02*
X131352438Y-79345237D01*
X131352438Y-79345237D02*
X131400057Y-79392856D01*
X131400057Y-79392856D02*
X131542914Y-79488094D01*
X131542914Y-79488094D02*
X131733390Y-79535713D01*
X131733390Y-79535713D02*
X132114342Y-79535713D01*
X132114342Y-79535713D02*
X132209580Y-79488094D01*
X132209580Y-79488094D02*
X132257200Y-79440475D01*
X132257200Y-79440475D02*
X132304819Y-79345237D01*
X132304819Y-79345237D02*
X132304819Y-79154761D01*
X132304819Y-79154761D02*
X132257200Y-79059523D01*
X132257200Y-79059523D02*
X132209580Y-79011904D01*
X132209580Y-79011904D02*
X132114342Y-78964285D01*
X132114342Y-78964285D02*
X131876247Y-78964285D01*
X131876247Y-78964285D02*
X131781009Y-79011904D01*
X131781009Y-79011904D02*
X131733390Y-79059523D01*
X131733390Y-79059523D02*
X131685771Y-79154761D01*
X131685771Y-79154761D02*
X131685771Y-79345237D01*
X131685771Y-79345237D02*
X131733390Y-79440475D01*
X131733390Y-79440475D02*
X131781009Y-79488094D01*
X131781009Y-79488094D02*
X131876247Y-79535713D01*
X113636905Y-38404819D02*
X113636905Y-37404819D01*
X113636905Y-37404819D02*
X113875000Y-37404819D01*
X113875000Y-37404819D02*
X114017857Y-37452438D01*
X114017857Y-37452438D02*
X114113095Y-37547676D01*
X114113095Y-37547676D02*
X114160714Y-37642914D01*
X114160714Y-37642914D02*
X114208333Y-37833390D01*
X114208333Y-37833390D02*
X114208333Y-37976247D01*
X114208333Y-37976247D02*
X114160714Y-38166723D01*
X114160714Y-38166723D02*
X114113095Y-38261961D01*
X114113095Y-38261961D02*
X114017857Y-38357200D01*
X114017857Y-38357200D02*
X113875000Y-38404819D01*
X113875000Y-38404819D02*
X113636905Y-38404819D01*
X115160714Y-38404819D02*
X114589286Y-38404819D01*
X114875000Y-38404819D02*
X114875000Y-37404819D01*
X114875000Y-37404819D02*
X114779762Y-37547676D01*
X114779762Y-37547676D02*
X114684524Y-37642914D01*
X114684524Y-37642914D02*
X114589286Y-37690533D01*
D10*
X157966666Y-62957419D02*
X157966666Y-63671704D01*
X157966666Y-63671704D02*
X157919047Y-63814561D01*
X157919047Y-63814561D02*
X157823809Y-63909800D01*
X157823809Y-63909800D02*
X157680952Y-63957419D01*
X157680952Y-63957419D02*
X157585714Y-63957419D01*
X158871428Y-63290752D02*
X158871428Y-63957419D01*
X158633333Y-62909800D02*
X158395238Y-63624085D01*
X158395238Y-63624085D02*
X159014285Y-63624085D01*
D11*
X116809580Y-54516666D02*
X116857200Y-54564285D01*
X116857200Y-54564285D02*
X116904819Y-54707142D01*
X116904819Y-54707142D02*
X116904819Y-54802380D01*
X116904819Y-54802380D02*
X116857200Y-54945237D01*
X116857200Y-54945237D02*
X116761961Y-55040475D01*
X116761961Y-55040475D02*
X116666723Y-55088094D01*
X116666723Y-55088094D02*
X116476247Y-55135713D01*
X116476247Y-55135713D02*
X116333390Y-55135713D01*
X116333390Y-55135713D02*
X116142914Y-55088094D01*
X116142914Y-55088094D02*
X116047676Y-55040475D01*
X116047676Y-55040475D02*
X115952438Y-54945237D01*
X115952438Y-54945237D02*
X115904819Y-54802380D01*
X115904819Y-54802380D02*
X115904819Y-54707142D01*
X115904819Y-54707142D02*
X115952438Y-54564285D01*
X115952438Y-54564285D02*
X116000057Y-54516666D01*
X116904819Y-54040475D02*
X116904819Y-53849999D01*
X116904819Y-53849999D02*
X116857200Y-53754761D01*
X116857200Y-53754761D02*
X116809580Y-53707142D01*
X116809580Y-53707142D02*
X116666723Y-53611904D01*
X116666723Y-53611904D02*
X116476247Y-53564285D01*
X116476247Y-53564285D02*
X116095295Y-53564285D01*
X116095295Y-53564285D02*
X116000057Y-53611904D01*
X116000057Y-53611904D02*
X115952438Y-53659523D01*
X115952438Y-53659523D02*
X115904819Y-53754761D01*
X115904819Y-53754761D02*
X115904819Y-53945237D01*
X115904819Y-53945237D02*
X115952438Y-54040475D01*
X115952438Y-54040475D02*
X116000057Y-54088094D01*
X116000057Y-54088094D02*
X116095295Y-54135713D01*
X116095295Y-54135713D02*
X116333390Y-54135713D01*
X116333390Y-54135713D02*
X116428628Y-54088094D01*
X116428628Y-54088094D02*
X116476247Y-54040475D01*
X116476247Y-54040475D02*
X116523866Y-53945237D01*
X116523866Y-53945237D02*
X116523866Y-53754761D01*
X116523866Y-53754761D02*
X116476247Y-53659523D01*
X116476247Y-53659523D02*
X116428628Y-53611904D01*
X116428628Y-53611904D02*
X116333390Y-53564285D01*
X106212231Y-81866666D02*
X106259851Y-81914285D01*
X106259851Y-81914285D02*
X106307470Y-82057142D01*
X106307470Y-82057142D02*
X106307470Y-82152380D01*
X106307470Y-82152380D02*
X106259851Y-82295237D01*
X106259851Y-82295237D02*
X106164612Y-82390475D01*
X106164612Y-82390475D02*
X106069374Y-82438094D01*
X106069374Y-82438094D02*
X105878898Y-82485713D01*
X105878898Y-82485713D02*
X105736041Y-82485713D01*
X105736041Y-82485713D02*
X105545565Y-82438094D01*
X105545565Y-82438094D02*
X105450327Y-82390475D01*
X105450327Y-82390475D02*
X105355089Y-82295237D01*
X105355089Y-82295237D02*
X105307470Y-82152380D01*
X105307470Y-82152380D02*
X105307470Y-82057142D01*
X105307470Y-82057142D02*
X105355089Y-81914285D01*
X105355089Y-81914285D02*
X105402708Y-81866666D01*
X105307470Y-81009523D02*
X105307470Y-81199999D01*
X105307470Y-81199999D02*
X105355089Y-81295237D01*
X105355089Y-81295237D02*
X105402708Y-81342856D01*
X105402708Y-81342856D02*
X105545565Y-81438094D01*
X105545565Y-81438094D02*
X105736041Y-81485713D01*
X105736041Y-81485713D02*
X106116993Y-81485713D01*
X106116993Y-81485713D02*
X106212231Y-81438094D01*
X106212231Y-81438094D02*
X106259851Y-81390475D01*
X106259851Y-81390475D02*
X106307470Y-81295237D01*
X106307470Y-81295237D02*
X106307470Y-81104761D01*
X106307470Y-81104761D02*
X106259851Y-81009523D01*
X106259851Y-81009523D02*
X106212231Y-80961904D01*
X106212231Y-80961904D02*
X106116993Y-80914285D01*
X106116993Y-80914285D02*
X105878898Y-80914285D01*
X105878898Y-80914285D02*
X105783660Y-80961904D01*
X105783660Y-80961904D02*
X105736041Y-81009523D01*
X105736041Y-81009523D02*
X105688422Y-81104761D01*
X105688422Y-81104761D02*
X105688422Y-81295237D01*
X105688422Y-81295237D02*
X105736041Y-81390475D01*
X105736041Y-81390475D02*
X105783660Y-81438094D01*
X105783660Y-81438094D02*
X105878898Y-81485713D01*
D12*
X106165000Y-52122936D02*
X106165000Y-52577064D01*
X107635000Y-52122936D02*
X107635000Y-52577064D01*
X130900000Y-90010000D02*
X130900000Y-86000000D01*
X130900000Y-90010000D02*
X132900000Y-90010000D01*
X132900000Y-90010000D02*
X132900000Y-86000000D01*
X116315000Y-93023752D02*
X116315000Y-92501248D01*
X117785000Y-93023752D02*
X117785000Y-92501248D01*
X99890000Y-60727064D02*
X99890000Y-59272936D01*
X101710000Y-60727064D02*
X101710000Y-59272936D01*
D10*
X135850000Y-39300000D02*
X130350000Y-39300000D01*
X130350000Y-31800000D01*
X135850000Y-31800000D01*
X135850000Y-39300000D01*
D12*
X124765000Y-86177064D02*
X124765000Y-85722936D01*
X126235000Y-86177064D02*
X126235000Y-85722936D01*
X130700000Y-57610000D02*
X130700000Y-53600000D01*
X130700000Y-57610000D02*
X132700000Y-57610000D01*
X132700000Y-57610000D02*
X132700000Y-53600000D01*
X124515000Y-96677064D02*
X124515000Y-96222936D01*
X125985000Y-96677064D02*
X125985000Y-96222936D01*
X103310000Y-47121000D02*
X100333000Y-47121000D01*
X103310000Y-47161000D02*
X100340000Y-47161000D01*
X103310000Y-47201000D02*
X100348000Y-47201000D01*
X103310000Y-47241000D02*
X100356000Y-47241000D01*
X103310000Y-47281000D02*
X100365000Y-47281000D01*
X103310000Y-47321000D02*
X100374000Y-47321000D01*
X103310000Y-47361000D02*
X100383000Y-47361000D01*
X103310000Y-47401000D02*
X100393000Y-47401000D01*
X103310000Y-47441000D02*
X100403000Y-47441000D01*
X103310000Y-47481000D02*
X100414000Y-47481000D01*
X103310000Y-47521000D02*
X100425000Y-47521000D01*
X103310000Y-47561000D02*
X100436000Y-47561000D01*
X103310000Y-47601000D02*
X100448000Y-47601000D01*
X103310000Y-47641000D02*
X100461000Y-47641000D01*
X103310000Y-47681000D02*
X100473000Y-47681000D01*
X103310000Y-47721000D02*
X100487000Y-47721000D01*
X103310000Y-47761000D02*
X100500000Y-47761000D01*
X103310000Y-47801000D02*
X100515000Y-47801000D01*
X103310000Y-47841000D02*
X100529000Y-47841000D01*
X103310000Y-47881000D02*
X100545000Y-47881000D01*
X103310000Y-47921000D02*
X100560000Y-47921000D01*
X103310000Y-47961000D02*
X100576000Y-47961000D01*
X103310000Y-48001000D02*
X100593000Y-48001000D01*
X103310000Y-48041000D02*
X100610000Y-48041000D01*
X103310000Y-48081000D02*
X100628000Y-48081000D01*
X103310000Y-48121000D02*
X100646000Y-48121000D01*
X103310000Y-48161000D02*
X100664000Y-48161000D01*
X103310000Y-48201000D02*
X100684000Y-48201000D01*
X103310000Y-48241000D02*
X100703000Y-48241000D01*
X103310000Y-48281000D02*
X100723000Y-48281000D01*
X103310000Y-48321000D02*
X100744000Y-48321000D01*
X103310000Y-48361000D02*
X100766000Y-48361000D01*
X103310000Y-48401000D02*
X100788000Y-48401000D01*
X103310000Y-48441000D02*
X100810000Y-48441000D01*
X103310000Y-48481000D02*
X100833000Y-48481000D01*
X103310000Y-48521000D02*
X100857000Y-48521000D01*
X103310000Y-48561000D02*
X100881000Y-48561000D01*
X103310000Y-48601000D02*
X100906000Y-48601000D01*
X103310000Y-48641000D02*
X100932000Y-48641000D01*
X103310000Y-48681000D02*
X100958000Y-48681000D01*
X103310000Y-48721000D02*
X100985000Y-48721000D01*
X103310000Y-48761000D02*
X101012000Y-48761000D01*
X103310000Y-48801000D02*
X101041000Y-48801000D01*
X103310000Y-48841000D02*
X101070000Y-48841000D01*
X103310000Y-48881000D02*
X101100000Y-48881000D01*
X103310000Y-48921000D02*
X101130000Y-48921000D01*
X103310000Y-48961000D02*
X101161000Y-48961000D01*
X103310000Y-49001000D02*
X101194000Y-49001000D01*
X103310000Y-49041000D02*
X101226000Y-49041000D01*
X103310000Y-49081000D02*
X101260000Y-49081000D01*
X103310000Y-49121000D02*
X101295000Y-49121000D01*
X103310000Y-49161000D02*
X101331000Y-49161000D01*
X104883000Y-50481000D02*
X103817000Y-50481000D01*
X105118000Y-50441000D02*
X103582000Y-50441000D01*
X105298000Y-50401000D02*
X103402000Y-50401000D01*
X105448000Y-50361000D02*
X103252000Y-50361000D01*
X105579000Y-50321000D02*
X103121000Y-50321000D01*
X105696000Y-50281000D02*
X103004000Y-50281000D01*
X105803000Y-50241000D02*
X102897000Y-50241000D01*
X105902000Y-50201000D02*
X102798000Y-50201000D01*
X105995000Y-50161000D02*
X102705000Y-50161000D01*
X106081000Y-50121000D02*
X102619000Y-50121000D01*
X106163000Y-50081000D02*
X102537000Y-50081000D01*
X106240000Y-50041000D02*
X102460000Y-50041000D01*
X106314000Y-50001000D02*
X102386000Y-50001000D01*
X106384000Y-49961000D02*
X102316000Y-49961000D01*
X106452000Y-49921000D02*
X102248000Y-49921000D01*
X106516000Y-49881000D02*
X102184000Y-49881000D01*
X106578000Y-49841000D02*
X102122000Y-49841000D01*
X106637000Y-49801000D02*
X102063000Y-49801000D01*
X106665000Y-41990302D02*
X106665000Y-42790302D01*
X106695000Y-49761000D02*
X102005000Y-49761000D01*
X106750000Y-49721000D02*
X101950000Y-49721000D01*
X106804000Y-49681000D02*
X101896000Y-49681000D01*
X106855000Y-49641000D02*
X101845000Y-49641000D01*
X106906000Y-49601000D02*
X101794000Y-49601000D01*
X106954000Y-49561000D02*
X101746000Y-49561000D01*
X107001000Y-49521000D02*
X101699000Y-49521000D01*
X107047000Y-49481000D02*
X101653000Y-49481000D01*
X107065000Y-42390302D02*
X106265000Y-42390302D01*
X107091000Y-49441000D02*
X101609000Y-49441000D01*
X107134000Y-49401000D02*
X101566000Y-49401000D01*
X107176000Y-49361000D02*
X101524000Y-49361000D01*
X107217000Y-49321000D02*
X101483000Y-49321000D01*
X107257000Y-49281000D02*
X101443000Y-49281000D01*
X107295000Y-49241000D02*
X101405000Y-49241000D01*
X107333000Y-49201000D02*
X101367000Y-49201000D01*
X107369000Y-49161000D02*
X105390000Y-49161000D01*
X107405000Y-49121000D02*
X105390000Y-49121000D01*
X107440000Y-49081000D02*
X105390000Y-49081000D01*
X107474000Y-49041000D02*
X105390000Y-49041000D01*
X107506000Y-49001000D02*
X105390000Y-49001000D01*
X107539000Y-48961000D02*
X105390000Y-48961000D01*
X107570000Y-48921000D02*
X105390000Y-48921000D01*
X107600000Y-48881000D02*
X105390000Y-48881000D01*
X107630000Y-48841000D02*
X105390000Y-48841000D01*
X107659000Y-48801000D02*
X105390000Y-48801000D01*
X107688000Y-48761000D02*
X105390000Y-48761000D01*
X107715000Y-48721000D02*
X105390000Y-48721000D01*
X107742000Y-48681000D02*
X105390000Y-48681000D01*
X107768000Y-48641000D02*
X105390000Y-48641000D01*
X107794000Y-48601000D02*
X105390000Y-48601000D01*
X107819000Y-48561000D02*
X105390000Y-48561000D01*
X107843000Y-48521000D02*
X105390000Y-48521000D01*
X107867000Y-48481000D02*
X105390000Y-48481000D01*
X107890000Y-48441000D02*
X105390000Y-48441000D01*
X107912000Y-48401000D02*
X105390000Y-48401000D01*
X107934000Y-48361000D02*
X105390000Y-48361000D01*
X107956000Y-48321000D02*
X105390000Y-48321000D01*
X107977000Y-48281000D02*
X105390000Y-48281000D01*
X107997000Y-48241000D02*
X105390000Y-48241000D01*
X108016000Y-48201000D02*
X105390000Y-48201000D01*
X108036000Y-48161000D02*
X105390000Y-48161000D01*
X108054000Y-48121000D02*
X105390000Y-48121000D01*
X108072000Y-48081000D02*
X105390000Y-48081000D01*
X108090000Y-48041000D02*
X105390000Y-48041000D01*
X108107000Y-48001000D02*
X105390000Y-48001000D01*
X108124000Y-47961000D02*
X105390000Y-47961000D01*
X108140000Y-47921000D02*
X105390000Y-47921000D01*
X108155000Y-47881000D02*
X105390000Y-47881000D01*
X108171000Y-47841000D02*
X105390000Y-47841000D01*
X108185000Y-47801000D02*
X105390000Y-47801000D01*
X108200000Y-47761000D02*
X105390000Y-47761000D01*
X108213000Y-47721000D02*
X105390000Y-47721000D01*
X108227000Y-47681000D02*
X105390000Y-47681000D01*
X108239000Y-47641000D02*
X105390000Y-47641000D01*
X108252000Y-47601000D02*
X105390000Y-47601000D01*
X108264000Y-47561000D02*
X105390000Y-47561000D01*
X108275000Y-47521000D02*
X105390000Y-47521000D01*
X108286000Y-47481000D02*
X105390000Y-47481000D01*
X108297000Y-47441000D02*
X105390000Y-47441000D01*
X108307000Y-47401000D02*
X105390000Y-47401000D01*
X108317000Y-47361000D02*
X105390000Y-47361000D01*
X108326000Y-47321000D02*
X105390000Y-47321000D01*
X108335000Y-47281000D02*
X105390000Y-47281000D01*
X108344000Y-47241000D02*
X105390000Y-47241000D01*
X108352000Y-47201000D02*
X105390000Y-47201000D01*
X108360000Y-47161000D02*
X105390000Y-47161000D01*
X108367000Y-47121000D02*
X105390000Y-47121000D01*
X108374000Y-47080000D02*
X100326000Y-47080000D01*
X108380000Y-47040000D02*
X100320000Y-47040000D01*
X108387000Y-47000000D02*
X100313000Y-47000000D01*
X108392000Y-46960000D02*
X100308000Y-46960000D01*
X108398000Y-46920000D02*
X100302000Y-46920000D01*
X108402000Y-46880000D02*
X100298000Y-46880000D01*
X108407000Y-46840000D02*
X100293000Y-46840000D01*
X108411000Y-46800000D02*
X100289000Y-46800000D01*
X108415000Y-46760000D02*
X100285000Y-46760000D01*
X108418000Y-46720000D02*
X100282000Y-46720000D01*
X108421000Y-46680000D02*
X100279000Y-46680000D01*
X108424000Y-46640000D02*
X100276000Y-46640000D01*
X108426000Y-46600000D02*
X100274000Y-46600000D01*
X108427000Y-46560000D02*
X100273000Y-46560000D01*
X108429000Y-46520000D02*
X100271000Y-46520000D01*
X108430000Y-46400000D02*
X100270000Y-46400000D01*
X108430000Y-46440000D02*
X100270000Y-46440000D01*
X108430000Y-46480000D02*
X100270000Y-46480000D01*
X108470000Y-46400000D02*
G75*
G02*
X100230000Y-46400000I-4120000J0D01*
G01*
X100230000Y-46400000D02*
G75*
G02*
X108470000Y-46400000I4120000J0D01*
G01*
X113300000Y-46590000D02*
X111350000Y-46590000D01*
X113300000Y-46590000D02*
X115250000Y-46590000D01*
X113300000Y-51710000D02*
X111350000Y-51710000D01*
X113300000Y-51710000D02*
X115250000Y-51710000D01*
X116240000Y-51945000D02*
X115760000Y-51945000D01*
X116000000Y-51615000D01*
X116240000Y-51945000D01*
G36*
X116240000Y-51945000D02*
G01*
X115760000Y-51945000D01*
X116000000Y-51615000D01*
X116240000Y-51945000D01*
G37*
D10*
X122100000Y-45350000D02*
X127100000Y-45350000D01*
X127100000Y-32350000D01*
X122100000Y-32350000D01*
X122100000Y-45350000D01*
D12*
X102440000Y-57350000D02*
X102440000Y-60650000D01*
X102440000Y-57350000D02*
X107950000Y-57350000D01*
X102440000Y-60650000D02*
X107950000Y-60650000D01*
X104690000Y-65402064D02*
X104690000Y-63947936D01*
X106510000Y-65402064D02*
X106510000Y-63947936D01*
D10*
X135550000Y-46100000D02*
X127550000Y-46100000D01*
X127550000Y-41600000D01*
X135550000Y-41600000D01*
X135550000Y-46100000D01*
D12*
X110490000Y-55550000D02*
X110490000Y-58850000D01*
X110490000Y-55550000D02*
X116000000Y-55550000D01*
X110490000Y-58850000D02*
X116000000Y-58850000D01*
X130800000Y-100510000D02*
X130800000Y-96500000D01*
X130800000Y-100510000D02*
X132800000Y-100510000D01*
X132800000Y-100510000D02*
X132800000Y-96500000D01*
D10*
X133175000Y-49850000D02*
X154525000Y-49850000D01*
X154525000Y-63350000D01*
X133175000Y-63350000D01*
X133175000Y-49850000D01*
D12*
X128512500Y-84440000D02*
X127862500Y-84440000D01*
X128512500Y-84440000D02*
X129162500Y-84440000D01*
X128512500Y-87560000D02*
X127862500Y-87560000D01*
X128512500Y-87560000D02*
X129162500Y-87560000D01*
X127350000Y-84490000D02*
X127110000Y-84160000D01*
X127590000Y-84160000D01*
X127350000Y-84490000D01*
G36*
X127350000Y-84490000D02*
G01*
X127110000Y-84160000D01*
X127590000Y-84160000D01*
X127350000Y-84490000D01*
G37*
D10*
X133300000Y-93600000D02*
X154650000Y-93600000D01*
X154650000Y-107100000D01*
X133300000Y-107100000D01*
X133300000Y-93600000D01*
D12*
X99330000Y-89600000D02*
X99330000Y-99880000D01*
X99330000Y-89600000D02*
X101930000Y-89600000D01*
X99330000Y-99880000D02*
X104530000Y-99880000D01*
X101930000Y-89600000D02*
X101930000Y-92200000D01*
X101930000Y-92200000D02*
X104530000Y-92200000D01*
X103200000Y-89600000D02*
X104530000Y-89600000D01*
X104530000Y-89600000D02*
X104530000Y-90930000D01*
X104530000Y-92200000D02*
X104530000Y-99880000D01*
X102240000Y-65464564D02*
X102240000Y-64010436D01*
X104060000Y-65464564D02*
X104060000Y-64010436D01*
D10*
X133300000Y-64350000D02*
X154650000Y-64350000D01*
X154650000Y-77850000D01*
X133300000Y-77850000D01*
X133300000Y-64350000D01*
D12*
X124765000Y-79427064D02*
X124765000Y-78972936D01*
X126235000Y-79427064D02*
X126235000Y-78972936D01*
X109932500Y-35400000D02*
G75*
G02*
X102192500Y-35400000I-3870000J0D01*
G01*
X102192500Y-35400000D02*
G75*
G02*
X109932500Y-35400000I3870000J0D01*
G01*
D10*
X142450000Y-39300000D02*
X136950000Y-39300000D01*
X136950000Y-31800000D01*
X142450000Y-31800000D01*
X142450000Y-39300000D01*
D12*
X128612500Y-77690000D02*
X127962500Y-77690000D01*
X128612500Y-77690000D02*
X129262500Y-77690000D01*
X128612500Y-80810000D02*
X127962500Y-80810000D01*
X128612500Y-80810000D02*
X129262500Y-80810000D01*
X127450000Y-77740000D02*
X127210000Y-77410000D01*
X127690000Y-77410000D01*
X127450000Y-77740000D01*
G36*
X127450000Y-77740000D02*
G01*
X127210000Y-77410000D01*
X127690000Y-77410000D01*
X127450000Y-77740000D01*
G37*
X117790000Y-53977064D02*
X117790000Y-52522936D01*
X119610000Y-53977064D02*
X119610000Y-52522936D01*
X128400000Y-94927500D02*
X127750000Y-94927500D01*
X128400000Y-94927500D02*
X129050000Y-94927500D01*
X128400000Y-98047500D02*
X127750000Y-98047500D01*
X128400000Y-98047500D02*
X129050000Y-98047500D01*
X127237500Y-94977500D02*
X126997500Y-94647500D01*
X127477500Y-94647500D01*
X127237500Y-94977500D01*
G36*
X127237500Y-94977500D02*
G01*
X126997500Y-94647500D01*
X127477500Y-94647500D01*
X127237500Y-94977500D01*
G37*
D10*
X155300000Y-84550000D02*
X162800000Y-84550000D01*
X162800000Y-79050000D01*
X155300000Y-79050000D01*
X155300000Y-84550000D01*
X133300000Y-78850000D02*
X154650000Y-78850000D01*
X154650000Y-92350000D01*
X133300000Y-92350000D01*
X133300000Y-78850000D01*
D12*
X101190000Y-55427064D02*
X101190000Y-53972936D01*
X103010000Y-55427064D02*
X103010000Y-53972936D01*
X107690000Y-85650000D02*
X107690000Y-89410000D01*
X107690000Y-89410000D02*
X108950000Y-89410000D01*
X114510000Y-85650000D02*
X114510000Y-89410000D01*
X114510000Y-89410000D02*
X113250000Y-89410000D01*
X114740000Y-84610000D02*
X114410000Y-84370000D01*
X114740000Y-84130000D01*
X114740000Y-84610000D01*
G36*
X114740000Y-84610000D02*
G01*
X114410000Y-84370000D01*
X114740000Y-84130000D01*
X114740000Y-84610000D01*
G37*
X106639564Y-55040000D02*
X105185436Y-55040000D01*
X106639564Y-56860000D02*
X105185436Y-56860000D01*
X128827064Y-55915000D02*
X128372936Y-55915000D01*
X128827064Y-57385000D02*
X128372936Y-57385000D01*
X128412500Y-52040000D02*
X127762500Y-52040000D01*
X128412500Y-52040000D02*
X129062500Y-52040000D01*
X128412500Y-55160000D02*
X127762500Y-55160000D01*
X128412500Y-55160000D02*
X129062500Y-55160000D01*
X127250000Y-52090000D02*
X127010000Y-51760000D01*
X127490000Y-51760000D01*
X127250000Y-52090000D01*
G36*
X127250000Y-52090000D02*
G01*
X127010000Y-51760000D01*
X127490000Y-51760000D01*
X127250000Y-52090000D01*
G37*
X110110000Y-97518349D02*
X107133000Y-97518349D01*
X110110000Y-97558349D02*
X107140000Y-97558349D01*
X110110000Y-97598349D02*
X107148000Y-97598349D01*
X110110000Y-97638349D02*
X107156000Y-97638349D01*
X110110000Y-97678349D02*
X107165000Y-97678349D01*
X110110000Y-97718349D02*
X107174000Y-97718349D01*
X110110000Y-97758349D02*
X107183000Y-97758349D01*
X110110000Y-97798349D02*
X107193000Y-97798349D01*
X110110000Y-97838349D02*
X107203000Y-97838349D01*
X110110000Y-97878349D02*
X107214000Y-97878349D01*
X110110000Y-97918349D02*
X107225000Y-97918349D01*
X110110000Y-97958349D02*
X107236000Y-97958349D01*
X110110000Y-97998349D02*
X107248000Y-97998349D01*
X110110000Y-98038349D02*
X107261000Y-98038349D01*
X110110000Y-98078349D02*
X107273000Y-98078349D01*
X110110000Y-98118349D02*
X107287000Y-98118349D01*
X110110000Y-98158349D02*
X107300000Y-98158349D01*
X110110000Y-98198349D02*
X107315000Y-98198349D01*
X110110000Y-98238349D02*
X107329000Y-98238349D01*
X110110000Y-98278349D02*
X107345000Y-98278349D01*
X110110000Y-98318349D02*
X107360000Y-98318349D01*
X110110000Y-98358349D02*
X107376000Y-98358349D01*
X110110000Y-98398349D02*
X107393000Y-98398349D01*
X110110000Y-98438349D02*
X107410000Y-98438349D01*
X110110000Y-98478349D02*
X107428000Y-98478349D01*
X110110000Y-98518349D02*
X107446000Y-98518349D01*
X110110000Y-98558349D02*
X107464000Y-98558349D01*
X110110000Y-98598349D02*
X107484000Y-98598349D01*
X110110000Y-98638349D02*
X107503000Y-98638349D01*
X110110000Y-98678349D02*
X107523000Y-98678349D01*
X110110000Y-98718349D02*
X107544000Y-98718349D01*
X110110000Y-98758349D02*
X107566000Y-98758349D01*
X110110000Y-98798349D02*
X107588000Y-98798349D01*
X110110000Y-98838349D02*
X107610000Y-98838349D01*
X110110000Y-98878349D02*
X107633000Y-98878349D01*
X110110000Y-98918349D02*
X107657000Y-98918349D01*
X110110000Y-98958349D02*
X107681000Y-98958349D01*
X110110000Y-98998349D02*
X107706000Y-98998349D01*
X110110000Y-99038349D02*
X107732000Y-99038349D01*
X110110000Y-99078349D02*
X107758000Y-99078349D01*
X110110000Y-99118349D02*
X107785000Y-99118349D01*
X110110000Y-99158349D02*
X107812000Y-99158349D01*
X110110000Y-99198349D02*
X107841000Y-99198349D01*
X110110000Y-99238349D02*
X107870000Y-99238349D01*
X110110000Y-99278349D02*
X107900000Y-99278349D01*
X110110000Y-99318349D02*
X107930000Y-99318349D01*
X110110000Y-99358349D02*
X107961000Y-99358349D01*
X110110000Y-99398349D02*
X107994000Y-99398349D01*
X110110000Y-99438349D02*
X108026000Y-99438349D01*
X110110000Y-99478349D02*
X108060000Y-99478349D01*
X110110000Y-99518349D02*
X108095000Y-99518349D01*
X110110000Y-99558349D02*
X108131000Y-99558349D01*
X111683000Y-100878349D02*
X110617000Y-100878349D01*
X111918000Y-100838349D02*
X110382000Y-100838349D01*
X112098000Y-100798349D02*
X110202000Y-100798349D01*
X112248000Y-100758349D02*
X110052000Y-100758349D01*
X112379000Y-100718349D02*
X109921000Y-100718349D01*
X112496000Y-100678349D02*
X109804000Y-100678349D01*
X112603000Y-100638349D02*
X109697000Y-100638349D01*
X112702000Y-100598349D02*
X109598000Y-100598349D01*
X112795000Y-100558349D02*
X109505000Y-100558349D01*
X112881000Y-100518349D02*
X109419000Y-100518349D01*
X112963000Y-100478349D02*
X109337000Y-100478349D01*
X113040000Y-100438349D02*
X109260000Y-100438349D01*
X113114000Y-100398349D02*
X109186000Y-100398349D01*
X113184000Y-100358349D02*
X109116000Y-100358349D01*
X113252000Y-100318349D02*
X109048000Y-100318349D01*
X113316000Y-100278349D02*
X108984000Y-100278349D01*
X113378000Y-100238349D02*
X108922000Y-100238349D01*
X113437000Y-100198349D02*
X108863000Y-100198349D01*
X113465000Y-92387651D02*
X113465000Y-93187651D01*
X113495000Y-100158349D02*
X108805000Y-100158349D01*
X113550000Y-100118349D02*
X108750000Y-100118349D01*
X113604000Y-100078349D02*
X108696000Y-100078349D01*
X113655000Y-100038349D02*
X108645000Y-100038349D01*
X113706000Y-99998349D02*
X108594000Y-99998349D01*
X113754000Y-99958349D02*
X108546000Y-99958349D01*
X113801000Y-99918349D02*
X108499000Y-99918349D01*
X113847000Y-99878349D02*
X108453000Y-99878349D01*
X113865000Y-92787651D02*
X113065000Y-92787651D01*
X113891000Y-99838349D02*
X108409000Y-99838349D01*
X113934000Y-99798349D02*
X108366000Y-99798349D01*
X113976000Y-99758349D02*
X108324000Y-99758349D01*
X114017000Y-99718349D02*
X108283000Y-99718349D01*
X114057000Y-99678349D02*
X108243000Y-99678349D01*
X114095000Y-99638349D02*
X108205000Y-99638349D01*
X114133000Y-99598349D02*
X108167000Y-99598349D01*
X114169000Y-99558349D02*
X112190000Y-99558349D01*
X114205000Y-99518349D02*
X112190000Y-99518349D01*
X114240000Y-99478349D02*
X112190000Y-99478349D01*
X114274000Y-99438349D02*
X112190000Y-99438349D01*
X114306000Y-99398349D02*
X112190000Y-99398349D01*
X114339000Y-99358349D02*
X112190000Y-99358349D01*
X114370000Y-99318349D02*
X112190000Y-99318349D01*
X114400000Y-99278349D02*
X112190000Y-99278349D01*
X114430000Y-99238349D02*
X112190000Y-99238349D01*
X114459000Y-99198349D02*
X112190000Y-99198349D01*
X114488000Y-99158349D02*
X112190000Y-99158349D01*
X114515000Y-99118349D02*
X112190000Y-99118349D01*
X114542000Y-99078349D02*
X112190000Y-99078349D01*
X114568000Y-99038349D02*
X112190000Y-99038349D01*
X114594000Y-98998349D02*
X112190000Y-98998349D01*
X114619000Y-98958349D02*
X112190000Y-98958349D01*
X114643000Y-98918349D02*
X112190000Y-98918349D01*
X114667000Y-98878349D02*
X112190000Y-98878349D01*
X114690000Y-98838349D02*
X112190000Y-98838349D01*
X114712000Y-98798349D02*
X112190000Y-98798349D01*
X114734000Y-98758349D02*
X112190000Y-98758349D01*
X114756000Y-98718349D02*
X112190000Y-98718349D01*
X114777000Y-98678349D02*
X112190000Y-98678349D01*
X114797000Y-98638349D02*
X112190000Y-98638349D01*
X114816000Y-98598349D02*
X112190000Y-98598349D01*
X114836000Y-98558349D02*
X112190000Y-98558349D01*
X114854000Y-98518349D02*
X112190000Y-98518349D01*
X114872000Y-98478349D02*
X112190000Y-98478349D01*
X114890000Y-98438349D02*
X112190000Y-98438349D01*
X114907000Y-98398349D02*
X112190000Y-98398349D01*
X114924000Y-98358349D02*
X112190000Y-98358349D01*
X114940000Y-98318349D02*
X112190000Y-98318349D01*
X114955000Y-98278349D02*
X112190000Y-98278349D01*
X114971000Y-98238349D02*
X112190000Y-98238349D01*
X114985000Y-98198349D02*
X112190000Y-98198349D01*
X115000000Y-98158349D02*
X112190000Y-98158349D01*
X115013000Y-98118349D02*
X112190000Y-98118349D01*
X115027000Y-98078349D02*
X112190000Y-98078349D01*
X115039000Y-98038349D02*
X112190000Y-98038349D01*
X115052000Y-97998349D02*
X112190000Y-97998349D01*
X115064000Y-97958349D02*
X112190000Y-97958349D01*
X115075000Y-97918349D02*
X112190000Y-97918349D01*
X115086000Y-97878349D02*
X112190000Y-97878349D01*
X115097000Y-97838349D02*
X112190000Y-97838349D01*
X115107000Y-97798349D02*
X112190000Y-97798349D01*
X115117000Y-97758349D02*
X112190000Y-97758349D01*
X115126000Y-97718349D02*
X112190000Y-97718349D01*
X115135000Y-97678349D02*
X112190000Y-97678349D01*
X115144000Y-97638349D02*
X112190000Y-97638349D01*
X115152000Y-97598349D02*
X112190000Y-97598349D01*
X115160000Y-97558349D02*
X112190000Y-97558349D01*
X115167000Y-97518349D02*
X112190000Y-97518349D01*
X115174000Y-97477349D02*
X107126000Y-97477349D01*
X115180000Y-97437349D02*
X107120000Y-97437349D01*
X115187000Y-97397349D02*
X107113000Y-97397349D01*
X115192000Y-97357349D02*
X107108000Y-97357349D01*
X115198000Y-97317349D02*
X107102000Y-97317349D01*
X115202000Y-97277349D02*
X107098000Y-97277349D01*
X115207000Y-97237349D02*
X107093000Y-97237349D01*
X115211000Y-97197349D02*
X107089000Y-97197349D01*
X115215000Y-97157349D02*
X107085000Y-97157349D01*
X115218000Y-97117349D02*
X107082000Y-97117349D01*
X115221000Y-97077349D02*
X107079000Y-97077349D01*
X115224000Y-97037349D02*
X107076000Y-97037349D01*
X115226000Y-96997349D02*
X107074000Y-96997349D01*
X115227000Y-96957349D02*
X107073000Y-96957349D01*
X115229000Y-96917349D02*
X107071000Y-96917349D01*
X115230000Y-96797349D02*
X107070000Y-96797349D01*
X115230000Y-96837349D02*
X107070000Y-96837349D01*
X115230000Y-96877349D02*
X107070000Y-96877349D01*
X115270000Y-96797349D02*
G75*
G02*
X107030000Y-96797349I-4120000J0D01*
G01*
X107030000Y-96797349D02*
G75*
G02*
X115270000Y-96797349I4120000J0D01*
G01*
X117790000Y-47572936D02*
X117790000Y-49027064D01*
X119610000Y-47572936D02*
X119610000Y-49027064D01*
D10*
X155500000Y-55550000D02*
X163000000Y-55550000D01*
X163000000Y-50050000D01*
X155500000Y-50050000D01*
X155500000Y-55550000D01*
D12*
X116227064Y-43840000D02*
X114772936Y-43840000D01*
X116227064Y-45660000D02*
X114772936Y-45660000D01*
X118515000Y-92989564D02*
X118515000Y-92535436D01*
X119985000Y-92989564D02*
X119985000Y-92535436D01*
X99890000Y-65461252D02*
X99890000Y-64038748D01*
X101710000Y-65461252D02*
X101710000Y-64038748D01*
X106527064Y-39740000D02*
X105072936Y-39740000D01*
X106527064Y-41560000D02*
X105072936Y-41560000D01*
X116340000Y-79500000D02*
X116340000Y-82800000D01*
X116340000Y-79500000D02*
X121850000Y-79500000D01*
X116340000Y-82800000D02*
X121850000Y-82800000D01*
D10*
X153500000Y-39400000D02*
X148000000Y-39400000D01*
X148000000Y-31900000D01*
X153500000Y-31900000D01*
X153500000Y-39400000D01*
X155300000Y-99250000D02*
X162800000Y-99250000D01*
X162800000Y-93750000D01*
X155300000Y-93750000D01*
X155300000Y-99250000D01*
X118350000Y-72800000D02*
X132350000Y-72800000D01*
X132350000Y-58300000D01*
X118350000Y-58300000D01*
X118350000Y-72800000D01*
D12*
X130850000Y-82110000D02*
X130850000Y-78100000D01*
X130850000Y-82110000D02*
X132850000Y-82110000D01*
X132850000Y-82110000D02*
X132850000Y-78100000D01*
X116675000Y-35340000D02*
X111375000Y-35340000D01*
X116675000Y-40550000D02*
X112075000Y-40550000D01*
X110875000Y-35340000D02*
X110595000Y-35340000D01*
X110875000Y-35060000D01*
X110875000Y-35340000D01*
G36*
X110875000Y-35340000D02*
G01*
X110595000Y-35340000D01*
X110875000Y-35060000D01*
X110875000Y-35340000D01*
G37*
D10*
X155300000Y-70050000D02*
X162800000Y-70050000D01*
X162800000Y-64550000D01*
X155300000Y-64550000D01*
X155300000Y-70050000D01*
D12*
X113761252Y-52365000D02*
X113238748Y-52365000D01*
X113761252Y-53835000D02*
X113238748Y-53835000D01*
X106140302Y-76035000D02*
X106940302Y-76035000D01*
X106540302Y-75635000D02*
X106540302Y-76435000D01*
X110550000Y-74270000D02*
X110550000Y-82430000D01*
X110590000Y-74270000D02*
X110590000Y-82430000D01*
X110630000Y-74270000D02*
X110630000Y-82430000D01*
X110670000Y-74271000D02*
X110670000Y-82429000D01*
X110710000Y-74273000D02*
X110710000Y-82427000D01*
X110750000Y-74274000D02*
X110750000Y-82426000D01*
X110790000Y-74276000D02*
X110790000Y-82424000D01*
X110830000Y-74279000D02*
X110830000Y-82421000D01*
X110870000Y-74282000D02*
X110870000Y-82418000D01*
X110910000Y-74285000D02*
X110910000Y-82415000D01*
X110950000Y-74289000D02*
X110950000Y-82411000D01*
X110990000Y-74293000D02*
X110990000Y-82407000D01*
X111030000Y-74298000D02*
X111030000Y-82402000D01*
X111070000Y-74302000D02*
X111070000Y-82398000D01*
X111110000Y-74308000D02*
X111110000Y-82392000D01*
X111150000Y-74313000D02*
X111150000Y-82387000D01*
X111190000Y-74320000D02*
X111190000Y-82380000D01*
X111230000Y-74326000D02*
X111230000Y-82374000D01*
X111271000Y-74333000D02*
X111271000Y-77310000D01*
X111271000Y-79390000D02*
X111271000Y-82367000D01*
X111311000Y-74340000D02*
X111311000Y-77310000D01*
X111311000Y-79390000D02*
X111311000Y-82360000D01*
X111351000Y-74348000D02*
X111351000Y-77310000D01*
X111351000Y-79390000D02*
X111351000Y-82352000D01*
X111391000Y-74356000D02*
X111391000Y-77310000D01*
X111391000Y-79390000D02*
X111391000Y-82344000D01*
X111431000Y-74365000D02*
X111431000Y-77310000D01*
X111431000Y-79390000D02*
X111431000Y-82335000D01*
X111471000Y-74374000D02*
X111471000Y-77310000D01*
X111471000Y-79390000D02*
X111471000Y-82326000D01*
X111511000Y-74383000D02*
X111511000Y-77310000D01*
X111511000Y-79390000D02*
X111511000Y-82317000D01*
X111551000Y-74393000D02*
X111551000Y-77310000D01*
X111551000Y-79390000D02*
X111551000Y-82307000D01*
X111591000Y-74403000D02*
X111591000Y-77310000D01*
X111591000Y-79390000D02*
X111591000Y-82297000D01*
X111631000Y-74414000D02*
X111631000Y-77310000D01*
X111631000Y-79390000D02*
X111631000Y-82286000D01*
X111671000Y-74425000D02*
X111671000Y-77310000D01*
X111671000Y-79390000D02*
X111671000Y-82275000D01*
X111711000Y-74436000D02*
X111711000Y-77310000D01*
X111711000Y-79390000D02*
X111711000Y-82264000D01*
X111751000Y-74448000D02*
X111751000Y-77310000D01*
X111751000Y-79390000D02*
X111751000Y-82252000D01*
X111791000Y-74461000D02*
X111791000Y-77310000D01*
X111791000Y-79390000D02*
X111791000Y-82239000D01*
X111831000Y-74473000D02*
X111831000Y-77310000D01*
X111831000Y-79390000D02*
X111831000Y-82227000D01*
X111871000Y-74487000D02*
X111871000Y-77310000D01*
X111871000Y-79390000D02*
X111871000Y-82213000D01*
X111911000Y-74500000D02*
X111911000Y-77310000D01*
X111911000Y-79390000D02*
X111911000Y-82200000D01*
X111951000Y-74515000D02*
X111951000Y-77310000D01*
X111951000Y-79390000D02*
X111951000Y-82185000D01*
X111991000Y-74529000D02*
X111991000Y-77310000D01*
X111991000Y-79390000D02*
X111991000Y-82171000D01*
X112031000Y-74545000D02*
X112031000Y-77310000D01*
X112031000Y-79390000D02*
X112031000Y-82155000D01*
X112071000Y-74560000D02*
X112071000Y-77310000D01*
X112071000Y-79390000D02*
X112071000Y-82140000D01*
X112111000Y-74576000D02*
X112111000Y-77310000D01*
X112111000Y-79390000D02*
X112111000Y-82124000D01*
X112151000Y-74593000D02*
X112151000Y-77310000D01*
X112151000Y-79390000D02*
X112151000Y-82107000D01*
X112191000Y-74610000D02*
X112191000Y-77310000D01*
X112191000Y-79390000D02*
X112191000Y-82090000D01*
X112231000Y-74628000D02*
X112231000Y-77310000D01*
X112231000Y-79390000D02*
X112231000Y-82072000D01*
X112271000Y-74646000D02*
X112271000Y-77310000D01*
X112271000Y-79390000D02*
X112271000Y-82054000D01*
X112311000Y-74664000D02*
X112311000Y-77310000D01*
X112311000Y-79390000D02*
X112311000Y-82036000D01*
X112351000Y-74684000D02*
X112351000Y-77310000D01*
X112351000Y-79390000D02*
X112351000Y-82016000D01*
X112391000Y-74703000D02*
X112391000Y-77310000D01*
X112391000Y-79390000D02*
X112391000Y-81997000D01*
X112431000Y-74723000D02*
X112431000Y-77310000D01*
X112431000Y-79390000D02*
X112431000Y-81977000D01*
X112471000Y-74744000D02*
X112471000Y-77310000D01*
X112471000Y-79390000D02*
X112471000Y-81956000D01*
X112511000Y-74766000D02*
X112511000Y-77310000D01*
X112511000Y-79390000D02*
X112511000Y-81934000D01*
X112551000Y-74788000D02*
X112551000Y-77310000D01*
X112551000Y-79390000D02*
X112551000Y-81912000D01*
X112591000Y-74810000D02*
X112591000Y-77310000D01*
X112591000Y-79390000D02*
X112591000Y-81890000D01*
X112631000Y-74833000D02*
X112631000Y-77310000D01*
X112631000Y-79390000D02*
X112631000Y-81867000D01*
X112671000Y-74857000D02*
X112671000Y-77310000D01*
X112671000Y-79390000D02*
X112671000Y-81843000D01*
X112711000Y-74881000D02*
X112711000Y-77310000D01*
X112711000Y-79390000D02*
X112711000Y-81819000D01*
X112751000Y-74906000D02*
X112751000Y-77310000D01*
X112751000Y-79390000D02*
X112751000Y-81794000D01*
X112791000Y-74932000D02*
X112791000Y-77310000D01*
X112791000Y-79390000D02*
X112791000Y-81768000D01*
X112831000Y-74958000D02*
X112831000Y-77310000D01*
X112831000Y-79390000D02*
X112831000Y-81742000D01*
X112871000Y-74985000D02*
X112871000Y-77310000D01*
X112871000Y-79390000D02*
X112871000Y-81715000D01*
X112911000Y-75012000D02*
X112911000Y-77310000D01*
X112911000Y-79390000D02*
X112911000Y-81688000D01*
X112951000Y-75041000D02*
X112951000Y-77310000D01*
X112951000Y-79390000D02*
X112951000Y-81659000D01*
X112991000Y-75070000D02*
X112991000Y-77310000D01*
X112991000Y-79390000D02*
X112991000Y-81630000D01*
X113031000Y-75100000D02*
X113031000Y-77310000D01*
X113031000Y-79390000D02*
X113031000Y-81600000D01*
X113071000Y-75130000D02*
X113071000Y-77310000D01*
X113071000Y-79390000D02*
X113071000Y-81570000D01*
X113111000Y-75161000D02*
X113111000Y-77310000D01*
X113111000Y-79390000D02*
X113111000Y-81539000D01*
X113151000Y-75194000D02*
X113151000Y-77310000D01*
X113151000Y-79390000D02*
X113151000Y-81506000D01*
X113191000Y-75226000D02*
X113191000Y-77310000D01*
X113191000Y-79390000D02*
X113191000Y-81474000D01*
X113231000Y-75260000D02*
X113231000Y-77310000D01*
X113231000Y-79390000D02*
X113231000Y-81440000D01*
X113271000Y-75295000D02*
X113271000Y-77310000D01*
X113271000Y-79390000D02*
X113271000Y-81405000D01*
X113311000Y-75331000D02*
X113311000Y-77310000D01*
X113311000Y-79390000D02*
X113311000Y-81369000D01*
X113351000Y-75367000D02*
X113351000Y-81333000D01*
X113391000Y-75405000D02*
X113391000Y-81295000D01*
X113431000Y-75443000D02*
X113431000Y-81257000D01*
X113471000Y-75483000D02*
X113471000Y-81217000D01*
X113511000Y-75524000D02*
X113511000Y-81176000D01*
X113551000Y-75566000D02*
X113551000Y-81134000D01*
X113591000Y-75609000D02*
X113591000Y-81091000D01*
X113631000Y-75653000D02*
X113631000Y-81047000D01*
X113671000Y-75699000D02*
X113671000Y-81001000D01*
X113711000Y-75746000D02*
X113711000Y-80954000D01*
X113751000Y-75794000D02*
X113751000Y-80906000D01*
X113791000Y-75845000D02*
X113791000Y-80855000D01*
X113831000Y-75896000D02*
X113831000Y-80804000D01*
X113871000Y-75950000D02*
X113871000Y-80750000D01*
X113911000Y-76005000D02*
X113911000Y-80695000D01*
X113951000Y-76063000D02*
X113951000Y-80637000D01*
X113991000Y-76122000D02*
X113991000Y-80578000D01*
X114031000Y-76184000D02*
X114031000Y-80516000D01*
X114071000Y-76248000D02*
X114071000Y-80452000D01*
X114111000Y-76316000D02*
X114111000Y-80384000D01*
X114151000Y-76386000D02*
X114151000Y-80314000D01*
X114191000Y-76460000D02*
X114191000Y-80240000D01*
X114231000Y-76537000D02*
X114231000Y-80163000D01*
X114271000Y-76619000D02*
X114271000Y-80081000D01*
X114311000Y-76705000D02*
X114311000Y-79995000D01*
X114351000Y-76798000D02*
X114351000Y-79902000D01*
X114391000Y-76897000D02*
X114391000Y-79803000D01*
X114431000Y-77004000D02*
X114431000Y-79696000D01*
X114471000Y-77121000D02*
X114471000Y-79579000D01*
X114511000Y-77252000D02*
X114511000Y-79448000D01*
X114551000Y-77402000D02*
X114551000Y-79298000D01*
X114591000Y-77582000D02*
X114591000Y-79118000D01*
X114631000Y-77817000D02*
X114631000Y-78883000D01*
X114670000Y-78350000D02*
G75*
G02*
X106430000Y-78350000I-4120000J0D01*
G01*
X106430000Y-78350000D02*
G75*
G02*
X114670000Y-78350000I4120000J0D01*
G01*
%LPC*%
D13*
X106900000Y-51437500D03*
X106900000Y-53262500D03*
D14*
X131900000Y-89300000D03*
X131900000Y-86000000D03*
D15*
X117050000Y-93712500D03*
X117050000Y-91812500D03*
D16*
X100800000Y-61462500D03*
X100800000Y-58537500D03*
D17*
X134300000Y-33300000D03*
D18*
X133100000Y-35550000D03*
D17*
X133100000Y-33300000D03*
X131900000Y-33300000D03*
D19*
X125500000Y-86862500D03*
X125500000Y-85037500D03*
D17*
X156216726Y-43033274D03*
X156700000Y-41866548D03*
X156700000Y-44200000D03*
X157866726Y-41383274D03*
D20*
X157866726Y-43033274D03*
D17*
X157866726Y-44683274D03*
X159033452Y-41866548D03*
X159033452Y-44200000D03*
X159516726Y-43033274D03*
D14*
X131700000Y-56900000D03*
X131700000Y-53600000D03*
D19*
X125250000Y-97362500D03*
X125250000Y-95537500D03*
D21*
X104350000Y-44650000D03*
D22*
X104350000Y-48150000D03*
D23*
X115925000Y-51055000D03*
X115925000Y-49785000D03*
X115925000Y-48515000D03*
X115925000Y-47245000D03*
X110675000Y-47245000D03*
X110675000Y-48515000D03*
X110675000Y-49785000D03*
X110675000Y-51055000D03*
D24*
X124600000Y-43850000D03*
X124600000Y-33850000D03*
D25*
X103950000Y-59000000D03*
X107950000Y-59000000D03*
D16*
X105600000Y-66137500D03*
X105600000Y-63212500D03*
D26*
X134050000Y-43850000D03*
X129050000Y-43850000D03*
D25*
X112000000Y-57200000D03*
X116000000Y-57200000D03*
D14*
X131800000Y-99800000D03*
X131800000Y-96500000D03*
D27*
X148725000Y-60350000D03*
X151265000Y-52750000D03*
X136025000Y-60350000D03*
X136025000Y-52750000D03*
D28*
X127575000Y-85050000D03*
X127575000Y-86950000D03*
X129450000Y-86000000D03*
D27*
X148850000Y-104100000D03*
X151390000Y-96500000D03*
X136150000Y-104100000D03*
X136150000Y-96500000D03*
D29*
X103200000Y-90930000D03*
D30*
X100660000Y-90930000D03*
X103200000Y-93470000D03*
X100660000Y-93470000D03*
X103200000Y-96010000D03*
X100660000Y-96010000D03*
X103200000Y-98550000D03*
X100660000Y-98550000D03*
D16*
X103150000Y-66200000D03*
X103150000Y-63275000D03*
D27*
X148850000Y-74850000D03*
X151390000Y-67250000D03*
X136150000Y-74850000D03*
X136150000Y-67250000D03*
D19*
X125500000Y-80112500D03*
X125500000Y-78287500D03*
D31*
X107812500Y-35400000D03*
X104312500Y-35400000D03*
D17*
X140900000Y-33300000D03*
D18*
X139700000Y-35550000D03*
D17*
X139700000Y-33300000D03*
X138500000Y-33300000D03*
D28*
X127675000Y-78300000D03*
X127675000Y-80200000D03*
X129550000Y-79250000D03*
D16*
X118700000Y-54712500D03*
X118700000Y-51787500D03*
D17*
X113883274Y-32533274D03*
X114366548Y-31366548D03*
X114366548Y-33700000D03*
X115533274Y-30883274D03*
D20*
X115533274Y-32533274D03*
D17*
X115533274Y-34183274D03*
X116700000Y-31366548D03*
X116700000Y-33700000D03*
X117183274Y-32533274D03*
D28*
X127462500Y-95537500D03*
X127462500Y-97437500D03*
X129337500Y-96487500D03*
D17*
X161300000Y-83000000D03*
D32*
X159050000Y-81800000D03*
D17*
X161300000Y-81800000D03*
X161300000Y-80600000D03*
D27*
X148850000Y-89350000D03*
X151390000Y-81750000D03*
X136150000Y-89350000D03*
X136150000Y-81750000D03*
D16*
X102100000Y-56162500D03*
X102100000Y-53237500D03*
D33*
X113400000Y-84350000D03*
X111100000Y-84350000D03*
D34*
X111100000Y-90650000D03*
D33*
X108800000Y-84350000D03*
D35*
X107375000Y-55950000D03*
X104450000Y-55950000D03*
D36*
X129512500Y-56650000D03*
X127687500Y-56650000D03*
D28*
X127475000Y-52650000D03*
X127475000Y-54550000D03*
X129350000Y-53600000D03*
D21*
X111150000Y-95047349D03*
D22*
X111150000Y-98547349D03*
D37*
X118700000Y-46837500D03*
X118700000Y-49762500D03*
D17*
X161500000Y-54000000D03*
D32*
X159250000Y-52800000D03*
D17*
X161500000Y-52800000D03*
X161500000Y-51600000D03*
D35*
X116962500Y-44750000D03*
X114037500Y-44750000D03*
D19*
X119250000Y-93675000D03*
X119250000Y-91850000D03*
D17*
X157400000Y-104650000D03*
X157883274Y-103483274D03*
X157883274Y-105816726D03*
X159050000Y-103000000D03*
D20*
X159050000Y-104650000D03*
D17*
X159050000Y-106300000D03*
X160216726Y-103483274D03*
X160216726Y-105816726D03*
X160700000Y-104650000D03*
D38*
X100800000Y-66225000D03*
X100800000Y-63275000D03*
D35*
X107262500Y-40650000D03*
X104337500Y-40650000D03*
D17*
X98783274Y-104616726D03*
X99266548Y-103450000D03*
X99266548Y-105783452D03*
X100433274Y-102966726D03*
D20*
X100433274Y-104616726D03*
D17*
X100433274Y-106266726D03*
X101600000Y-103450000D03*
X101600000Y-105783452D03*
X102083274Y-104616726D03*
D25*
X117850000Y-81150000D03*
X121850000Y-81150000D03*
D17*
X151950000Y-33400000D03*
D18*
X150750000Y-35650000D03*
D17*
X150750000Y-33400000D03*
X149550000Y-33400000D03*
X161300000Y-97700000D03*
D32*
X159050000Y-96500000D03*
D17*
X161300000Y-96500000D03*
X161300000Y-95300000D03*
D39*
X121100000Y-68050000D03*
X121100000Y-70550000D03*
X129600000Y-70550000D03*
X129600000Y-60550000D03*
X121100000Y-63050000D03*
X121100000Y-60550000D03*
D14*
X131850000Y-81400000D03*
X131850000Y-78100000D03*
D40*
X111400000Y-35950000D03*
X111400000Y-39950000D03*
X117350000Y-39950000D03*
X117350000Y-35950000D03*
D17*
X161300000Y-68500000D03*
D32*
X159050000Y-67300000D03*
D17*
X161300000Y-67300000D03*
X161300000Y-66100000D03*
D41*
X114450000Y-53100000D03*
X112550000Y-53100000D03*
D21*
X108800000Y-78350000D03*
D22*
X112300000Y-78350000D03*
%LPD*%
M02*
