G04 #@! TF.GenerationSoftware,KiCad,Pcbnew,8.0.2-8.0.2-0~ubuntu22.04.1*
G04 #@! TF.CreationDate,2024-05-20T14:29:34+07:00*
G04 #@! TF.ProjectId,PCB_design,5043425f-6465-4736-9967-6e2e6b696361,rev?*
G04 #@! TF.SameCoordinates,Original*
G04 #@! TF.FileFunction,Soldermask,Top*
G04 #@! TF.FilePolarity,Negative*
%FSLAX46Y46*%
G04 Gerber Fmt 4.6, Leading zero omitted, Abs format (unit mm)*
G04 Created by KiCad (PCBNEW 8.0.2-8.0.2-0~ubuntu22.04.1) date 2024-05-20 14:29:34*
%MOMM*%
%LPD*%
G01*
G04 APERTURE LIST*
G04 Aperture macros list*
%AMRoundRect*
0 Rectangle with rounded corners*
0 $1 Rounding radius*
0 $2 $3 $4 $5 $6 $7 $8 $9 X,Y pos of 4 corners*
0 Add a 4 corners polygon primitive as box body*
4,1,4,$2,$3,$4,$5,$6,$7,$8,$9,$2,$3,0*
0 Add four circle primitives for the rounded corners*
1,1,$1+$1,$2,$3*
1,1,$1+$1,$4,$5*
1,1,$1+$1,$6,$7*
1,1,$1+$1,$8,$9*
0 Add four rect primitives between the rounded corners*
20,1,$1+$1,$2,$3,$4,$5,0*
20,1,$1+$1,$4,$5,$6,$7,0*
20,1,$1+$1,$6,$7,$8,$9,0*
20,1,$1+$1,$8,$9,$2,$3,0*%
G04 Aperture macros list end*
%ADD10C,4.000000*%
%ADD11RoundRect,0.150000X-0.675000X-0.150000X0.675000X-0.150000X0.675000X0.150000X-0.675000X0.150000X0*%
%ADD12RoundRect,0.250000X0.450000X-0.262500X0.450000X0.262500X-0.450000X0.262500X-0.450000X-0.262500X0*%
%ADD13RoundRect,0.225000X0.375000X-0.225000X0.375000X0.225000X-0.375000X0.225000X-0.375000X-0.225000X0*%
%ADD14RoundRect,0.250000X-0.475000X0.250000X-0.475000X-0.250000X0.475000X-0.250000X0.475000X0.250000X0*%
%ADD15R,1.700000X1.700000*%
%ADD16O,1.700000X1.700000*%
%ADD17RoundRect,0.250000X-0.625000X0.312500X-0.625000X-0.312500X0.625000X-0.312500X0.625000X0.312500X0*%
%ADD18R,1.600000X1.600000*%
%ADD19C,1.600000*%
%ADD20C,1.524000*%
%ADD21RoundRect,0.250000X-0.650000X1.000000X-0.650000X-1.000000X0.650000X-1.000000X0.650000X1.000000X0*%
%ADD22C,2.000000*%
%ADD23RoundRect,0.250000X1.000000X0.650000X-1.000000X0.650000X-1.000000X-0.650000X1.000000X-0.650000X0*%
%ADD24RoundRect,0.150000X-0.587500X-0.150000X0.587500X-0.150000X0.587500X0.150000X-0.587500X0.150000X0*%
%ADD25C,2.600000*%
%ADD26RoundRect,0.375000X0.625000X0.375000X-0.625000X0.375000X-0.625000X-0.375000X0.625000X-0.375000X0*%
%ADD27RoundRect,0.500000X0.500000X1.400000X-0.500000X1.400000X-0.500000X-1.400000X0.500000X-1.400000X0*%
%ADD28RoundRect,0.250000X-0.312500X-0.625000X0.312500X-0.625000X0.312500X0.625000X-0.312500X0.625000X0*%
%ADD29RoundRect,0.250000X-0.450000X0.262500X-0.450000X-0.262500X0.450000X-0.262500X0.450000X0.262500X0*%
%ADD30C,1.800000*%
%ADD31R,1.000000X0.700000*%
%ADD32RoundRect,0.250000X-0.250000X-0.475000X0.250000X-0.475000X0.250000X0.475000X-0.250000X0.475000X0*%
G04 APERTURE END LIST*
D10*
X149215000Y-77950000D03*
X146675000Y-85550000D03*
X133975000Y-85550000D03*
X133975000Y-77950000D03*
X149315000Y-63250000D03*
X146775000Y-70850000D03*
X134075000Y-70850000D03*
X134075000Y-63250000D03*
X149300000Y-48600000D03*
X146760000Y-56200000D03*
X134060000Y-56200000D03*
X134060000Y-48600000D03*
X149165000Y-34150000D03*
X146625000Y-41750000D03*
X133925000Y-41750000D03*
X133925000Y-34150000D03*
D11*
X120125000Y-60345000D03*
X120125000Y-61615000D03*
X120125000Y-62885000D03*
X120125000Y-64155000D03*
X114875000Y-64155000D03*
X114875000Y-62885000D03*
X114875000Y-61615000D03*
X114875000Y-60345000D03*
D12*
X112250000Y-54087500D03*
X112250000Y-55912500D03*
D13*
X129460000Y-67410000D03*
X129460000Y-70710000D03*
D14*
X115250000Y-69800000D03*
X115250000Y-71700000D03*
D15*
X155710000Y-85410000D03*
X100500000Y-58775000D03*
D16*
X100500000Y-56235000D03*
X100500000Y-53695000D03*
D17*
X120600000Y-46337500D03*
X120600000Y-49262500D03*
D12*
X125210000Y-62410000D03*
X125210000Y-64235000D03*
D13*
X129450000Y-38400000D03*
X129450000Y-41700000D03*
D12*
X125210000Y-76910000D03*
X125210000Y-78735000D03*
D18*
X114650000Y-36252651D03*
D19*
X114650000Y-32752651D03*
D20*
X100500000Y-40250000D03*
X100500000Y-50250000D03*
D21*
X124000000Y-54750000D03*
X124000000Y-58750000D03*
D17*
X117140000Y-40530000D03*
X117140000Y-43455000D03*
D22*
X100500000Y-64250000D03*
X105500000Y-64250000D03*
D23*
X108250000Y-51250000D03*
X112250000Y-51250000D03*
D13*
X129460000Y-82160000D03*
X129460000Y-85460000D03*
D24*
X129460000Y-63160000D03*
X127585000Y-64110000D03*
X127585000Y-62210000D03*
D14*
X119640000Y-40555000D03*
X119640000Y-42455000D03*
D15*
X155700000Y-56250000D03*
X155900000Y-41750000D03*
D17*
X114640000Y-40530000D03*
X114640000Y-43455000D03*
D12*
X125200000Y-47700000D03*
X125200000Y-49525000D03*
D25*
X109180000Y-42470000D03*
X105680000Y-42470000D03*
D24*
X129450000Y-48700000D03*
X127575000Y-49650000D03*
X127575000Y-47750000D03*
D17*
X108250000Y-57212500D03*
X108250000Y-54287500D03*
D24*
X129460000Y-77910000D03*
X127585000Y-78860000D03*
X127585000Y-76960000D03*
D17*
X115250000Y-55962500D03*
X115250000Y-53037500D03*
D26*
X108617500Y-89362500D03*
X108617500Y-87062500D03*
D27*
X102317500Y-87062500D03*
D26*
X108617500Y-84762500D03*
D17*
X115250000Y-51212500D03*
X115250000Y-48287500D03*
D12*
X125200000Y-33125000D03*
X125200000Y-34950000D03*
D24*
X129450000Y-34050000D03*
X127575000Y-35000000D03*
X127575000Y-33100000D03*
D19*
X120750000Y-68152651D03*
D18*
X120750000Y-71652651D03*
D28*
X112462500Y-61500000D03*
X109537500Y-61500000D03*
X112462500Y-64250000D03*
X109537500Y-64250000D03*
D29*
X112980000Y-69887500D03*
X112980000Y-71712500D03*
D28*
X106275000Y-36240000D03*
X109200000Y-36240000D03*
D21*
X121207500Y-84772500D03*
X121207500Y-88772500D03*
D30*
X105500000Y-71500000D03*
X108000000Y-71500000D03*
X98000000Y-80000000D03*
X108000000Y-80000000D03*
X100500000Y-71500000D03*
X98000000Y-71500000D03*
D13*
X129450000Y-52950000D03*
X129450000Y-56250000D03*
D16*
X112620000Y-80240000D03*
X112620000Y-77700000D03*
X115160000Y-80240000D03*
X115160000Y-77700000D03*
X117700000Y-80240000D03*
X117700000Y-77700000D03*
X120240000Y-80240000D03*
D15*
X120240000Y-77700000D03*
D31*
X103775000Y-36240000D03*
X103775000Y-32240000D03*
X97825000Y-32240000D03*
X97825000Y-36240000D03*
D15*
X155710000Y-70910000D03*
D32*
X117000000Y-58000000D03*
X115100000Y-58000000D03*
D18*
X114487500Y-84762500D03*
D19*
X114487500Y-88262500D03*
M02*
