%TF.GenerationSoftware,KiCad,Pcbnew,8.0.2-8.0.2-0~ubuntu22.04.1*%
%TF.CreationDate,2024-05-20T16:02:15+07:00*%
%TF.ProjectId,PCB_design,5043425f-6465-4736-9967-6e2e6b696361,rev?*%
%TF.SameCoordinates,Original*%
%TF.FileFunction,Drillmap*%
%TF.FilePolarity,Positive*%
%FSLAX45Y45*%
G04 Gerber Fmt 4.5, Leading zero omitted, Abs format (unit mm)*
G04 Created by KiCad (PCBNEW 8.0.2-8.0.2-0~ubuntu22.04.1) date 2024-05-20 16:02:15*
%MOMM*%
%LPD*%
G01*
G04 APERTURE LIST*
%ADD10C,0.050000*%
%ADD11C,0.200000*%
%ADD12C,0.100000*%
%ADD13C,0.120000*%
%ADD14C,0.130000*%
%ADD15C,0.140000*%
%ADD16C,0.220000*%
G04 APERTURE END LIST*
D10*
X9350000Y-2800000D02*
X16000000Y-2800000D01*
X16000000Y-9400000D01*
X9350000Y-9400000D01*
X9350000Y-2800000D01*
D11*
D12*
X9485000Y-3360000D02*
X9515000Y-3390000D01*
X9515000Y-3360000D02*
X9485000Y-3390000D01*
X9535000Y-4285000D02*
X9565000Y-4315000D01*
X9565000Y-4285000D02*
X9535000Y-4315000D01*
X9585000Y-5985000D02*
X9615000Y-6015000D01*
X9615000Y-5985000D02*
X9585000Y-6015000D01*
X9635000Y-7610000D02*
X9665000Y-7640000D01*
X9665000Y-7610000D02*
X9635000Y-7640000D01*
X9635000Y-8235000D02*
X9665000Y-8265000D01*
X9665000Y-8235000D02*
X9635000Y-8265000D01*
X9885000Y-8735000D02*
X9915000Y-8765000D01*
X9915000Y-8735000D02*
X9885000Y-8765000D01*
X10055000Y-9095000D02*
X10085000Y-9125000D01*
X10085000Y-9095000D02*
X10055000Y-9125000D01*
X10085000Y-8135000D02*
X10115000Y-8165000D01*
X10115000Y-8135000D02*
X10085000Y-8165000D01*
X10160000Y-3010000D02*
X10190000Y-3040000D01*
X10190000Y-3010000D02*
X10160000Y-3040000D01*
X10185000Y-4285000D02*
X10215000Y-4315000D01*
X10215000Y-4285000D02*
X10185000Y-4315000D01*
X10235000Y-5735000D02*
X10265000Y-5765000D01*
X10265000Y-5735000D02*
X10235000Y-5765000D01*
X10285000Y-7335000D02*
X10315000Y-7365000D01*
X10315000Y-7335000D02*
X10285000Y-7365000D01*
X10335000Y-3885000D02*
X10365000Y-3915000D01*
X10365000Y-3885000D02*
X10335000Y-3915000D01*
X10385000Y-5185000D02*
X10415000Y-5215000D01*
X10415000Y-5185000D02*
X10385000Y-5215000D01*
X10385000Y-8035000D02*
X10415000Y-8065000D01*
X10415000Y-8035000D02*
X10385000Y-8065000D01*
X10385000Y-9085000D02*
X10415000Y-9115000D01*
X10415000Y-9085000D02*
X10385000Y-9115000D01*
X10405000Y-6775000D02*
X10435000Y-6805000D01*
X10435000Y-6775000D02*
X10405000Y-6805000D01*
X10435000Y-8485000D02*
X10465000Y-8515000D01*
X10465000Y-8485000D02*
X10435000Y-8515000D01*
X10585000Y-4935000D02*
X10615000Y-4965000D01*
X10615000Y-4935000D02*
X10585000Y-4965000D01*
X10685000Y-5985000D02*
X10715000Y-6015000D01*
X10715000Y-5985000D02*
X10685000Y-6015000D01*
X10685000Y-8335000D02*
X10715000Y-8365000D01*
X10715000Y-8335000D02*
X10685000Y-8365000D01*
X10710000Y-6910000D02*
X10740000Y-6940000D01*
X10740000Y-6910000D02*
X10710000Y-6940000D01*
X10785000Y-7710000D02*
X10815000Y-7740000D01*
X10815000Y-7710000D02*
X10785000Y-7740000D01*
X11085000Y-4585000D02*
X11115000Y-4615000D01*
X11115000Y-4585000D02*
X11085000Y-4615000D01*
X11110000Y-3860000D02*
X11140000Y-3890000D01*
X11140000Y-3860000D02*
X11110000Y-3890000D01*
X11185000Y-6835000D02*
X11215000Y-6865000D01*
X11215000Y-6835000D02*
X11185000Y-6865000D01*
X11260000Y-7410000D02*
X11290000Y-7440000D01*
X11290000Y-7410000D02*
X11260000Y-7440000D01*
X11535000Y-4585000D02*
X11565000Y-4615000D01*
X11565000Y-4585000D02*
X11535000Y-4615000D01*
X11585000Y-6735000D02*
X11615000Y-6765000D01*
X11615000Y-6735000D02*
X11585000Y-6765000D01*
X11685000Y-8285000D02*
X11715000Y-8315000D01*
X11715000Y-8285000D02*
X11685000Y-8315000D01*
X11685000Y-8635000D02*
X11715000Y-8665000D01*
X11715000Y-8635000D02*
X11685000Y-8665000D01*
X11735000Y-6185000D02*
X11765000Y-6215000D01*
X11765000Y-6185000D02*
X11735000Y-6215000D01*
X11835000Y-2935000D02*
X11865000Y-2965000D01*
X11865000Y-2935000D02*
X11835000Y-2965000D01*
X11835000Y-4885000D02*
X11865000Y-4915000D01*
X11865000Y-4885000D02*
X11835000Y-4915000D01*
X11835000Y-5885000D02*
X11865000Y-5915000D01*
X11865000Y-5885000D02*
X11835000Y-5915000D01*
X11885000Y-3660000D02*
X11915000Y-3690000D01*
X11915000Y-3660000D02*
X11885000Y-3690000D01*
X11885000Y-8985000D02*
X11915000Y-9015000D01*
X11915000Y-8985000D02*
X11885000Y-9015000D01*
X11935000Y-5335000D02*
X11965000Y-5365000D01*
X11965000Y-5335000D02*
X11935000Y-5365000D01*
X12085000Y-9235000D02*
X12115000Y-9265000D01*
X12115000Y-9235000D02*
X12085000Y-9265000D01*
X12235000Y-3835000D02*
X12265000Y-3865000D01*
X12265000Y-3835000D02*
X12235000Y-3865000D01*
X12235000Y-4485000D02*
X12265000Y-4515000D01*
X12265000Y-4485000D02*
X12235000Y-4515000D01*
X12355000Y-3105000D02*
X12385000Y-3135000D01*
X12385000Y-3105000D02*
X12355000Y-3135000D01*
X12435000Y-6585000D02*
X12465000Y-6615000D01*
X12465000Y-6585000D02*
X12435000Y-6615000D01*
X12435000Y-8335000D02*
X12465000Y-8365000D01*
X12465000Y-8335000D02*
X12435000Y-8365000D01*
X12485000Y-4585000D02*
X12515000Y-4615000D01*
X12515000Y-4585000D02*
X12485000Y-4615000D01*
X12485000Y-5135000D02*
X12515000Y-5165000D01*
X12515000Y-5135000D02*
X12485000Y-5165000D01*
X12505000Y-3105000D02*
X12535000Y-3135000D01*
X12535000Y-3105000D02*
X12505000Y-3135000D01*
X12535000Y-6035000D02*
X12565000Y-6065000D01*
X12565000Y-6035000D02*
X12535000Y-6065000D01*
X12625000Y-3615000D02*
X12655000Y-3645000D01*
X12655000Y-3615000D02*
X12625000Y-3645000D01*
X12635000Y-8135000D02*
X12665000Y-8165000D01*
X12665000Y-8135000D02*
X12635000Y-8165000D01*
X12685000Y-8785000D02*
X12715000Y-8815000D01*
X12715000Y-8785000D02*
X12685000Y-8815000D01*
X12685000Y-9035000D02*
X12715000Y-9065000D01*
X12715000Y-9035000D02*
X12685000Y-9065000D01*
X12835000Y-5435000D02*
X12865000Y-5465000D01*
X12865000Y-5435000D02*
X12835000Y-5465000D01*
X12835000Y-5885000D02*
X12865000Y-5915000D01*
X12865000Y-5885000D02*
X12835000Y-5915000D01*
X12885000Y-4435000D02*
X12915000Y-4465000D01*
X12915000Y-4435000D02*
X12885000Y-4465000D01*
X13045000Y-3245000D02*
X13075000Y-3275000D01*
X13075000Y-3245000D02*
X13045000Y-3275000D01*
X13135000Y-4635000D02*
X13165000Y-4665000D01*
X13165000Y-4635000D02*
X13135000Y-4665000D01*
X13585000Y-2885000D02*
X13615000Y-2915000D01*
X13615000Y-2885000D02*
X13585000Y-2915000D01*
X13655000Y-3235000D02*
X13685000Y-3265000D01*
X13685000Y-3235000D02*
X13655000Y-3265000D01*
X13785000Y-4385000D02*
X13815000Y-4415000D01*
X13815000Y-4385000D02*
X13785000Y-4415000D01*
X13785000Y-5835000D02*
X13815000Y-5865000D01*
X13815000Y-5835000D02*
X13785000Y-5865000D01*
X13785000Y-7235000D02*
X13815000Y-7265000D01*
X13815000Y-7235000D02*
X13785000Y-7265000D01*
X13785000Y-8335000D02*
X13815000Y-8365000D01*
X13815000Y-8335000D02*
X13785000Y-8365000D01*
X13835000Y-9060000D02*
X13865000Y-9090000D01*
X13865000Y-9060000D02*
X13835000Y-9090000D01*
X14095000Y-4385000D02*
X14125000Y-4415000D01*
X14125000Y-4385000D02*
X14095000Y-4415000D01*
X14105000Y-4005000D02*
X14135000Y-4035000D01*
X14135000Y-4005000D02*
X14105000Y-4035000D01*
X14115000Y-5845000D02*
X14145000Y-5875000D01*
X14145000Y-5845000D02*
X14115000Y-5875000D01*
X14115000Y-7235000D02*
X14145000Y-7265000D01*
X14145000Y-7235000D02*
X14115000Y-7265000D01*
X14135000Y-8335000D02*
X14165000Y-8365000D01*
X14165000Y-8335000D02*
X14135000Y-8365000D01*
X14160000Y-7910000D02*
X14190000Y-7940000D01*
X14190000Y-7910000D02*
X14160000Y-7940000D01*
X14185000Y-6560000D02*
X14215000Y-6590000D01*
X14215000Y-6560000D02*
X14185000Y-6590000D01*
X14235000Y-4935000D02*
X14265000Y-4965000D01*
X14265000Y-4935000D02*
X14235000Y-4965000D01*
X14335000Y-3515000D02*
X14365000Y-3545000D01*
X14365000Y-3515000D02*
X14335000Y-3545000D01*
X14845000Y-3855000D02*
X14875000Y-3885000D01*
X14875000Y-3855000D02*
X14845000Y-3885000D01*
X14855000Y-6645000D02*
X14885000Y-6675000D01*
X14885000Y-6645000D02*
X14855000Y-6675000D01*
X14855000Y-7425000D02*
X14885000Y-7455000D01*
X14885000Y-7425000D02*
X14855000Y-7455000D01*
X14865000Y-5215000D02*
X14895000Y-5245000D01*
X14895000Y-5215000D02*
X14865000Y-5245000D01*
X14895000Y-4505000D02*
X14925000Y-4535000D01*
X14925000Y-4505000D02*
X14895000Y-4535000D01*
X14905000Y-5925000D02*
X14935000Y-5955000D01*
X14935000Y-5925000D02*
X14905000Y-5955000D01*
X14995000Y-8155000D02*
X15025000Y-8185000D01*
X15025000Y-8155000D02*
X14995000Y-8185000D01*
X15215000Y-8795000D02*
X15245000Y-8825000D01*
X15245000Y-8795000D02*
X15215000Y-8825000D01*
X15360000Y-3010000D02*
X15390000Y-3040000D01*
X15390000Y-3010000D02*
X15360000Y-3040000D01*
X15460000Y-3785000D02*
X15490000Y-3815000D01*
X15490000Y-3785000D02*
X15460000Y-3815000D01*
X15510000Y-5560000D02*
X15540000Y-5590000D01*
X15540000Y-5560000D02*
X15510000Y-5590000D01*
X15560000Y-8885000D02*
X15590000Y-8915000D01*
X15590000Y-8885000D02*
X15560000Y-8915000D01*
X15585000Y-6960000D02*
X15615000Y-6990000D01*
X15615000Y-6960000D02*
X15585000Y-6990000D01*
X9565000Y-9050000D02*
G75*
G02*
X9525000Y-9050000I-20000J0D01*
G01*
X9525000Y-9050000D02*
G75*
G02*
X9565000Y-9050000I20000J0D01*
G01*
X9613327Y-8933327D02*
G75*
G02*
X9573327Y-8933327I-20000J0D01*
G01*
X9573327Y-8933327D02*
G75*
G02*
X9613327Y-8933327I20000J0D01*
G01*
X9613327Y-9166673D02*
G75*
G02*
X9573327Y-9166673I-20000J0D01*
G01*
X9573327Y-9166673D02*
G75*
G02*
X9613327Y-9166673I20000J0D01*
G01*
X9730000Y-8885000D02*
G75*
G02*
X9690000Y-8885000I-20000J0D01*
G01*
X9690000Y-8885000D02*
G75*
G02*
X9730000Y-8885000I20000J0D01*
G01*
X9730000Y-9215000D02*
G75*
G02*
X9690000Y-9215000I-20000J0D01*
G01*
X9690000Y-9215000D02*
G75*
G02*
X9730000Y-9215000I20000J0D01*
G01*
X9846673Y-8933327D02*
G75*
G02*
X9806673Y-8933327I-20000J0D01*
G01*
X9806673Y-8933327D02*
G75*
G02*
X9846673Y-8933327I20000J0D01*
G01*
X9846673Y-9166673D02*
G75*
G02*
X9806673Y-9166673I-20000J0D01*
G01*
X9806673Y-9166673D02*
G75*
G02*
X9846673Y-9166673I20000J0D01*
G01*
X9895000Y-9050000D02*
G75*
G02*
X9855000Y-9050000I-20000J0D01*
G01*
X9855000Y-9050000D02*
G75*
G02*
X9895000Y-9050000I20000J0D01*
G01*
X10640000Y-3191673D02*
G75*
G02*
X10600000Y-3191673I-20000J0D01*
G01*
X10600000Y-3191673D02*
G75*
G02*
X10640000Y-3191673I20000J0D01*
G01*
X10688327Y-3075000D02*
G75*
G02*
X10648327Y-3075000I-20000J0D01*
G01*
X10648327Y-3075000D02*
G75*
G02*
X10688327Y-3075000I20000J0D01*
G01*
X10688327Y-3308345D02*
G75*
G02*
X10648327Y-3308345I-20000J0D01*
G01*
X10648327Y-3308345D02*
G75*
G02*
X10688327Y-3308345I20000J0D01*
G01*
X10805000Y-3026673D02*
G75*
G02*
X10765000Y-3026673I-20000J0D01*
G01*
X10765000Y-3026673D02*
G75*
G02*
X10805000Y-3026673I20000J0D01*
G01*
X10805000Y-3356673D02*
G75*
G02*
X10765000Y-3356673I-20000J0D01*
G01*
X10765000Y-3356673D02*
G75*
G02*
X10805000Y-3356673I20000J0D01*
G01*
X10921673Y-3075000D02*
G75*
G02*
X10881673Y-3075000I-20000J0D01*
G01*
X10881673Y-3075000D02*
G75*
G02*
X10921673Y-3075000I20000J0D01*
G01*
X10921673Y-3308345D02*
G75*
G02*
X10881673Y-3308345I-20000J0D01*
G01*
X10881673Y-3308345D02*
G75*
G02*
X10921673Y-3308345I20000J0D01*
G01*
X10970000Y-3191673D02*
G75*
G02*
X10930000Y-3191673I-20000J0D01*
G01*
X10930000Y-3191673D02*
G75*
G02*
X10970000Y-3191673I20000J0D01*
G01*
X15380000Y-4175000D02*
G75*
G02*
X15340000Y-4175000I-20000J0D01*
G01*
X15340000Y-4175000D02*
G75*
G02*
X15380000Y-4175000I20000J0D01*
G01*
X15428327Y-4058327D02*
G75*
G02*
X15388327Y-4058327I-20000J0D01*
G01*
X15388327Y-4058327D02*
G75*
G02*
X15428327Y-4058327I20000J0D01*
G01*
X15428327Y-4291673D02*
G75*
G02*
X15388327Y-4291673I-20000J0D01*
G01*
X15388327Y-4291673D02*
G75*
G02*
X15428327Y-4291673I20000J0D01*
G01*
X15430000Y-8535000D02*
G75*
G02*
X15390000Y-8535000I-20000J0D01*
G01*
X15390000Y-8535000D02*
G75*
G02*
X15430000Y-8535000I20000J0D01*
G01*
X15478327Y-8418327D02*
G75*
G02*
X15438327Y-8418327I-20000J0D01*
G01*
X15438327Y-8418327D02*
G75*
G02*
X15478327Y-8418327I20000J0D01*
G01*
X15478327Y-8651673D02*
G75*
G02*
X15438327Y-8651673I-20000J0D01*
G01*
X15438327Y-8651673D02*
G75*
G02*
X15478327Y-8651673I20000J0D01*
G01*
X15545000Y-4010000D02*
G75*
G02*
X15505000Y-4010000I-20000J0D01*
G01*
X15505000Y-4010000D02*
G75*
G02*
X15545000Y-4010000I20000J0D01*
G01*
X15545000Y-4340000D02*
G75*
G02*
X15505000Y-4340000I-20000J0D01*
G01*
X15505000Y-4340000D02*
G75*
G02*
X15545000Y-4340000I20000J0D01*
G01*
X15595000Y-8370000D02*
G75*
G02*
X15555000Y-8370000I-20000J0D01*
G01*
X15555000Y-8370000D02*
G75*
G02*
X15595000Y-8370000I20000J0D01*
G01*
X15595000Y-8700000D02*
G75*
G02*
X15555000Y-8700000I-20000J0D01*
G01*
X15555000Y-8700000D02*
G75*
G02*
X15595000Y-8700000I20000J0D01*
G01*
X15661673Y-4058327D02*
G75*
G02*
X15621673Y-4058327I-20000J0D01*
G01*
X15621673Y-4058327D02*
G75*
G02*
X15661673Y-4058327I20000J0D01*
G01*
X15661673Y-4291673D02*
G75*
G02*
X15621673Y-4291673I-20000J0D01*
G01*
X15621673Y-4291673D02*
G75*
G02*
X15661673Y-4291673I20000J0D01*
G01*
X15710000Y-4175000D02*
G75*
G02*
X15670000Y-4175000I-20000J0D01*
G01*
X15670000Y-4175000D02*
G75*
G02*
X15710000Y-4175000I20000J0D01*
G01*
X15711673Y-8418327D02*
G75*
G02*
X15671673Y-8418327I-20000J0D01*
G01*
X15671673Y-8418327D02*
G75*
G02*
X15711673Y-8418327I20000J0D01*
G01*
X15711673Y-8651673D02*
G75*
G02*
X15671673Y-8651673I-20000J0D01*
G01*
X15671673Y-8651673D02*
G75*
G02*
X15711673Y-8651673I20000J0D01*
G01*
X15760000Y-8535000D02*
G75*
G02*
X15720000Y-8535000I-20000J0D01*
G01*
X15720000Y-8535000D02*
G75*
G02*
X15760000Y-8535000I20000J0D01*
G01*
X10550000Y-4750000D02*
X10550000Y-4800000D01*
X10525000Y-4775000D02*
X10575000Y-4775000D01*
X10072981Y-4047981D02*
X10072981Y-4002019D01*
X10027019Y-4002019D01*
X10027019Y-4047981D01*
X10072981Y-4047981D01*
X10072981Y-5047981D02*
X10072981Y-5002019D01*
X10027019Y-5002019D01*
X10027019Y-5047981D01*
X10072981Y-5047981D01*
X11448750Y-8516250D02*
X11488750Y-8476250D01*
X11448750Y-8436250D01*
X11408750Y-8476250D01*
X11448750Y-8516250D01*
X11448750Y-8866250D02*
X11488750Y-8826250D01*
X11448750Y-8786250D01*
X11408750Y-8826250D01*
X11448750Y-8866250D01*
X11465000Y-3315265D02*
X11505000Y-3275265D01*
X11465000Y-3235265D01*
X11425000Y-3275265D01*
X11465000Y-3315265D01*
X11465000Y-3665265D02*
X11505000Y-3625265D01*
X11465000Y-3585265D01*
X11425000Y-3625265D01*
X11465000Y-3665265D01*
X12075000Y-6855265D02*
X12115000Y-6815265D01*
X12075000Y-6775265D01*
X12035000Y-6815265D01*
X12075000Y-6855265D01*
X12075000Y-7205265D02*
X12115000Y-7165265D01*
X12075000Y-7125265D01*
X12035000Y-7165265D01*
X12075000Y-7205265D01*
X10002500Y-6377500D02*
X10097500Y-6472500D01*
X10097500Y-6377500D02*
X10002500Y-6472500D01*
X10097500Y-6425000D02*
G75*
G02*
X10002500Y-6425000I-47500J0D01*
G01*
X10002500Y-6425000D02*
G75*
G02*
X10097500Y-6425000I47500J0D01*
G01*
X10502500Y-6377500D02*
X10597500Y-6472500D01*
X10597500Y-6377500D02*
X10502500Y-6472500D01*
X10597500Y-6425000D02*
G75*
G02*
X10502500Y-6425000I-47500J0D01*
G01*
X10502500Y-6425000D02*
G75*
G02*
X10597500Y-6425000I47500J0D01*
G01*
X13575000Y-3750000D02*
X13675000Y-3850000D01*
X13675000Y-3750000D02*
X13575000Y-3850000D01*
X13625000Y-3750000D02*
X13625000Y-3850000D01*
X13575000Y-3800000D02*
X13675000Y-3800000D01*
X10000000Y-5319500D02*
X10100000Y-5419500D01*
X10100000Y-5319500D02*
X10000000Y-5419500D01*
X10085356Y-5404856D02*
X10085356Y-5334144D01*
X10014644Y-5334144D01*
X10014644Y-5404856D01*
X10085356Y-5404856D01*
X10000000Y-5573500D02*
X10100000Y-5673500D01*
X10100000Y-5573500D02*
X10000000Y-5673500D01*
X10085356Y-5658856D02*
X10085356Y-5588144D01*
X10014644Y-5588144D01*
X10014644Y-5658856D01*
X10085356Y-5658856D01*
X10000000Y-5827500D02*
X10100000Y-5927500D01*
X10100000Y-5827500D02*
X10000000Y-5927500D01*
X10085356Y-5912856D02*
X10085356Y-5842144D01*
X10014644Y-5842144D01*
X10014644Y-5912856D01*
X10085356Y-5912856D01*
X11212000Y-7720000D02*
X11312000Y-7820000D01*
X11312000Y-7720000D02*
X11212000Y-7820000D01*
X11297356Y-7805356D02*
X11297356Y-7734644D01*
X11226644Y-7734644D01*
X11226644Y-7805356D01*
X11297356Y-7805356D01*
X11212000Y-7974000D02*
X11312000Y-8074000D01*
X11312000Y-7974000D02*
X11212000Y-8074000D01*
X11297356Y-8059356D02*
X11297356Y-7988644D01*
X11226644Y-7988644D01*
X11226644Y-8059356D01*
X11297356Y-8059356D01*
X11466000Y-7720000D02*
X11566000Y-7820000D01*
X11566000Y-7720000D02*
X11466000Y-7820000D01*
X11551356Y-7805356D02*
X11551356Y-7734644D01*
X11480644Y-7734644D01*
X11480644Y-7805356D01*
X11551356Y-7805356D01*
X11466000Y-7974000D02*
X11566000Y-8074000D01*
X11566000Y-7974000D02*
X11466000Y-8074000D01*
X11551356Y-8059356D02*
X11551356Y-7988644D01*
X11480644Y-7988644D01*
X11480644Y-8059356D01*
X11551356Y-8059356D01*
X11720000Y-7720000D02*
X11820000Y-7820000D01*
X11820000Y-7720000D02*
X11720000Y-7820000D01*
X11805356Y-7805356D02*
X11805356Y-7734644D01*
X11734644Y-7734644D01*
X11734644Y-7805356D01*
X11805356Y-7805356D01*
X11720000Y-7974000D02*
X11820000Y-8074000D01*
X11820000Y-7974000D02*
X11720000Y-8074000D01*
X11805356Y-8059356D02*
X11805356Y-7988644D01*
X11734644Y-7988644D01*
X11734644Y-8059356D01*
X11805356Y-8059356D01*
X11974000Y-7720000D02*
X12074000Y-7820000D01*
X12074000Y-7720000D02*
X11974000Y-7820000D01*
X12059356Y-7805356D02*
X12059356Y-7734644D01*
X11988644Y-7734644D01*
X11988644Y-7805356D01*
X12059356Y-7805356D01*
X11974000Y-7974000D02*
X12074000Y-8074000D01*
X12074000Y-7974000D02*
X11974000Y-8074000D01*
X12059356Y-8059356D02*
X12059356Y-7988644D01*
X11988644Y-7988644D01*
X11988644Y-8059356D01*
X12059356Y-8059356D01*
X15475000Y-6250000D02*
X15575000Y-6350000D01*
X15575000Y-6250000D02*
X15475000Y-6350000D01*
X15560356Y-6335356D02*
X15560356Y-6264644D01*
X15489644Y-6264644D01*
X15489644Y-6335356D01*
X15560356Y-6335356D01*
X15475000Y-7750000D02*
X15575000Y-7850000D01*
X15575000Y-7750000D02*
X15475000Y-7850000D01*
X15560356Y-7835356D02*
X15560356Y-7764644D01*
X15489644Y-7764644D01*
X15489644Y-7835356D01*
X15560356Y-7835356D01*
X15525000Y-4800000D02*
X15625000Y-4900000D01*
X15625000Y-4800000D02*
X15525000Y-4900000D01*
X15610356Y-4885356D02*
X15610356Y-4814644D01*
X15539644Y-4814644D01*
X15539644Y-4885356D01*
X15610356Y-4885356D01*
X15540000Y-3375000D02*
X15640000Y-3475000D01*
X15640000Y-3375000D02*
X15540000Y-3475000D01*
X15625356Y-3460356D02*
X15625356Y-3389644D01*
X15554644Y-3389644D01*
X15554644Y-3460356D01*
X15625356Y-3460356D01*
D13*
X9740000Y-7090000D02*
X9860000Y-7210000D01*
X9860000Y-7090000D02*
X9740000Y-7210000D01*
X9800000Y-7210000D02*
X9860000Y-7150000D01*
X9800000Y-7090000D01*
X9740000Y-7150000D01*
X9800000Y-7210000D01*
X9740000Y-7940000D02*
X9860000Y-8060000D01*
X9860000Y-7940000D02*
X9740000Y-8060000D01*
X9800000Y-8060000D02*
X9860000Y-8000000D01*
X9800000Y-7940000D01*
X9740000Y-8000000D01*
X9800000Y-8060000D01*
X9990000Y-7090000D02*
X10110000Y-7210000D01*
X10110000Y-7090000D02*
X9990000Y-7210000D01*
X10050000Y-7210000D02*
X10110000Y-7150000D01*
X10050000Y-7090000D01*
X9990000Y-7150000D01*
X10050000Y-7210000D01*
X10490000Y-7090000D02*
X10610000Y-7210000D01*
X10610000Y-7090000D02*
X10490000Y-7210000D01*
X10550000Y-7210000D02*
X10610000Y-7150000D01*
X10550000Y-7090000D01*
X10490000Y-7150000D01*
X10550000Y-7210000D01*
X10740000Y-7090000D02*
X10860000Y-7210000D01*
X10860000Y-7090000D02*
X10740000Y-7210000D01*
X10800000Y-7210000D02*
X10860000Y-7150000D01*
X10800000Y-7090000D01*
X10740000Y-7150000D01*
X10800000Y-7210000D01*
X10740000Y-7940000D02*
X10860000Y-8060000D01*
X10860000Y-7940000D02*
X10740000Y-8060000D01*
X10800000Y-8060000D02*
X10860000Y-8000000D01*
X10800000Y-7940000D01*
X10740000Y-8000000D01*
X10800000Y-8060000D01*
D14*
X10568000Y-4182000D02*
X10568000Y-4312000D01*
X10503000Y-4247000D02*
X10633000Y-4247000D01*
X10633000Y-4247000D02*
G75*
G02*
X10503000Y-4247000I-65000J0D01*
G01*
X10503000Y-4247000D02*
G75*
G02*
X10633000Y-4247000I65000J0D01*
G01*
X10918000Y-4182000D02*
X10918000Y-4312000D01*
X10853000Y-4247000D02*
X10983000Y-4247000D01*
X10983000Y-4247000D02*
G75*
G02*
X10853000Y-4247000I-65000J0D01*
G01*
X10853000Y-4247000D02*
G75*
G02*
X10983000Y-4247000I65000J0D01*
G01*
D15*
X13441998Y-3464498D02*
X13441998Y-3365502D01*
X13343002Y-3365502D01*
X13343002Y-3464498D01*
X13441998Y-3464498D01*
X13462500Y-3415000D02*
G75*
G02*
X13322500Y-3415000I-70000J0D01*
G01*
X13322500Y-3415000D02*
G75*
G02*
X13462500Y-3415000I70000J0D01*
G01*
X13441998Y-4224498D02*
X13441998Y-4125502D01*
X13343002Y-4125502D01*
X13343002Y-4224498D01*
X13441998Y-4224498D01*
X13462500Y-4175000D02*
G75*
G02*
X13322500Y-4175000I-70000J0D01*
G01*
X13322500Y-4175000D02*
G75*
G02*
X13462500Y-4175000I70000J0D01*
G01*
X13454498Y-4914498D02*
X13454498Y-4815502D01*
X13355502Y-4815502D01*
X13355502Y-4914498D01*
X13454498Y-4914498D01*
X13475000Y-4865000D02*
G75*
G02*
X13335000Y-4865000I-70000J0D01*
G01*
X13335000Y-4865000D02*
G75*
G02*
X13475000Y-4865000I70000J0D01*
G01*
X13454498Y-5674498D02*
X13454498Y-5575502D01*
X13355502Y-5575502D01*
X13355502Y-5674498D01*
X13454498Y-5674498D01*
X13475000Y-5625000D02*
G75*
G02*
X13335000Y-5625000I-70000J0D01*
G01*
X13335000Y-5625000D02*
G75*
G02*
X13475000Y-5625000I70000J0D01*
G01*
X13454498Y-6364498D02*
X13454498Y-6265502D01*
X13355502Y-6265502D01*
X13355502Y-6364498D01*
X13454498Y-6364498D01*
X13475000Y-6315000D02*
G75*
G02*
X13335000Y-6315000I-70000J0D01*
G01*
X13335000Y-6315000D02*
G75*
G02*
X13475000Y-6315000I70000J0D01*
G01*
X13454498Y-7124498D02*
X13454498Y-7025502D01*
X13355502Y-7025502D01*
X13355502Y-7124498D01*
X13454498Y-7124498D01*
X13475000Y-7075000D02*
G75*
G02*
X13335000Y-7075000I-70000J0D01*
G01*
X13335000Y-7075000D02*
G75*
G02*
X13475000Y-7075000I70000J0D01*
G01*
X13454498Y-7839498D02*
X13454498Y-7740502D01*
X13355502Y-7740502D01*
X13355502Y-7839498D01*
X13454498Y-7839498D01*
X13475000Y-7790000D02*
G75*
G02*
X13335000Y-7790000I-70000J0D01*
G01*
X13335000Y-7790000D02*
G75*
G02*
X13475000Y-7790000I70000J0D01*
G01*
X13454498Y-8599498D02*
X13454498Y-8500502D01*
X13355502Y-8500502D01*
X13355502Y-8599498D01*
X13454498Y-8599498D01*
X13475000Y-8550000D02*
G75*
G02*
X13335000Y-8550000I-70000J0D01*
G01*
X13335000Y-8550000D02*
G75*
G02*
X13475000Y-8550000I70000J0D01*
G01*
X14711998Y-4224498D02*
X14711998Y-4125502D01*
X14613002Y-4125502D01*
X14613002Y-4224498D01*
X14711998Y-4224498D01*
X14732500Y-4175000D02*
G75*
G02*
X14592500Y-4175000I-70000J0D01*
G01*
X14592500Y-4175000D02*
G75*
G02*
X14732500Y-4175000I70000J0D01*
G01*
X14724498Y-5674498D02*
X14724498Y-5575502D01*
X14625502Y-5575502D01*
X14625502Y-5674498D01*
X14724498Y-5674498D01*
X14745000Y-5625000D02*
G75*
G02*
X14605000Y-5625000I-70000J0D01*
G01*
X14605000Y-5625000D02*
G75*
G02*
X14745000Y-5625000I70000J0D01*
G01*
X14724498Y-7124498D02*
X14724498Y-7025502D01*
X14625502Y-7025502D01*
X14625502Y-7124498D01*
X14724498Y-7124498D01*
X14745000Y-7075000D02*
G75*
G02*
X14605000Y-7075000I-70000J0D01*
G01*
X14605000Y-7075000D02*
G75*
G02*
X14745000Y-7075000I70000J0D01*
G01*
X14724498Y-8599498D02*
X14724498Y-8500502D01*
X14625502Y-8500502D01*
X14625502Y-8599498D01*
X14724498Y-8599498D01*
X14745000Y-8550000D02*
G75*
G02*
X14605000Y-8550000I-70000J0D01*
G01*
X14605000Y-8550000D02*
G75*
G02*
X14745000Y-8550000I70000J0D01*
G01*
X14965998Y-3464498D02*
X14965998Y-3365502D01*
X14867002Y-3365502D01*
X14867002Y-3464498D01*
X14965998Y-3464498D01*
X14986500Y-3415000D02*
G75*
G02*
X14846500Y-3415000I-70000J0D01*
G01*
X14846500Y-3415000D02*
G75*
G02*
X14986500Y-3415000I70000J0D01*
G01*
X14978498Y-4914498D02*
X14978498Y-4815502D01*
X14879502Y-4815502D01*
X14879502Y-4914498D01*
X14978498Y-4914498D01*
X14999000Y-4865000D02*
G75*
G02*
X14859000Y-4865000I-70000J0D01*
G01*
X14859000Y-4865000D02*
G75*
G02*
X14999000Y-4865000I70000J0D01*
G01*
X14978498Y-6364498D02*
X14978498Y-6265502D01*
X14879502Y-6265502D01*
X14879502Y-6364498D01*
X14978498Y-6364498D01*
X14999000Y-6315000D02*
G75*
G02*
X14859000Y-6315000I-70000J0D01*
G01*
X14859000Y-6315000D02*
G75*
G02*
X14999000Y-6315000I70000J0D01*
G01*
X14978498Y-7839498D02*
X14978498Y-7740502D01*
X14879502Y-7740502D01*
X14879502Y-7839498D01*
X14978498Y-7839498D01*
X14999000Y-7790000D02*
G75*
G02*
X14859000Y-7790000I-70000J0D01*
G01*
X14859000Y-7790000D02*
G75*
G02*
X14999000Y-7790000I70000J0D01*
G01*
D16*
X9710000Y-9160000D02*
X9820000Y-9050000D01*
X9710000Y-8940000D01*
X9600000Y-9050000D01*
X9710000Y-9160000D01*
X9820000Y-9050000D02*
G75*
G02*
X9600000Y-9050000I-110000J0D01*
G01*
X9600000Y-9050000D02*
G75*
G02*
X9820000Y-9050000I110000J0D01*
G01*
X10785000Y-3301673D02*
X10895000Y-3191673D01*
X10785000Y-3081673D01*
X10675000Y-3191673D01*
X10785000Y-3301673D01*
X10895000Y-3191673D02*
G75*
G02*
X10675000Y-3191673I-110000J0D01*
G01*
X10675000Y-3191673D02*
G75*
G02*
X10895000Y-3191673I110000J0D01*
G01*
X15525000Y-4285000D02*
X15635000Y-4175000D01*
X15525000Y-4065000D01*
X15415000Y-4175000D01*
X15525000Y-4285000D01*
X15635000Y-4175000D02*
G75*
G02*
X15415000Y-4175000I-110000J0D01*
G01*
X15415000Y-4175000D02*
G75*
G02*
X15635000Y-4175000I110000J0D01*
G01*
X15575000Y-8645000D02*
X15685000Y-8535000D01*
X15575000Y-8425000D01*
X15465000Y-8535000D01*
X15575000Y-8645000D01*
X15685000Y-8535000D02*
G75*
G02*
X15465000Y-8535000I-110000J0D01*
G01*
X15465000Y-8535000D02*
G75*
G02*
X15685000Y-8535000I110000J0D01*
G01*
D11*
X9608277Y-9713984D02*
X9608277Y-9513984D01*
X9608277Y-9513984D02*
X9655896Y-9513984D01*
X9655896Y-9513984D02*
X9684467Y-9523508D01*
X9684467Y-9523508D02*
X9703515Y-9542555D01*
X9703515Y-9542555D02*
X9713039Y-9561603D01*
X9713039Y-9561603D02*
X9722563Y-9599698D01*
X9722563Y-9599698D02*
X9722563Y-9628270D01*
X9722563Y-9628270D02*
X9713039Y-9666365D01*
X9713039Y-9666365D02*
X9703515Y-9685412D01*
X9703515Y-9685412D02*
X9684467Y-9704460D01*
X9684467Y-9704460D02*
X9655896Y-9713984D01*
X9655896Y-9713984D02*
X9608277Y-9713984D01*
X9808277Y-9713984D02*
X9808277Y-9580650D01*
X9808277Y-9618746D02*
X9817801Y-9599698D01*
X9817801Y-9599698D02*
X9827324Y-9590174D01*
X9827324Y-9590174D02*
X9846372Y-9580650D01*
X9846372Y-9580650D02*
X9865420Y-9580650D01*
X9932086Y-9713984D02*
X9932086Y-9580650D01*
X9932086Y-9513984D02*
X9922563Y-9523508D01*
X9922563Y-9523508D02*
X9932086Y-9533031D01*
X9932086Y-9533031D02*
X9941610Y-9523508D01*
X9941610Y-9523508D02*
X9932086Y-9513984D01*
X9932086Y-9513984D02*
X9932086Y-9533031D01*
X10055896Y-9713984D02*
X10036848Y-9704460D01*
X10036848Y-9704460D02*
X10027324Y-9685412D01*
X10027324Y-9685412D02*
X10027324Y-9513984D01*
X10160658Y-9713984D02*
X10141610Y-9704460D01*
X10141610Y-9704460D02*
X10132086Y-9685412D01*
X10132086Y-9685412D02*
X10132086Y-9513984D01*
X10389229Y-9713984D02*
X10389229Y-9513984D01*
X10389229Y-9513984D02*
X10455896Y-9656841D01*
X10455896Y-9656841D02*
X10522563Y-9513984D01*
X10522563Y-9513984D02*
X10522563Y-9713984D01*
X10703515Y-9713984D02*
X10703515Y-9609222D01*
X10703515Y-9609222D02*
X10693991Y-9590174D01*
X10693991Y-9590174D02*
X10674944Y-9580650D01*
X10674944Y-9580650D02*
X10636848Y-9580650D01*
X10636848Y-9580650D02*
X10617801Y-9590174D01*
X10703515Y-9704460D02*
X10684467Y-9713984D01*
X10684467Y-9713984D02*
X10636848Y-9713984D01*
X10636848Y-9713984D02*
X10617801Y-9704460D01*
X10617801Y-9704460D02*
X10608277Y-9685412D01*
X10608277Y-9685412D02*
X10608277Y-9666365D01*
X10608277Y-9666365D02*
X10617801Y-9647317D01*
X10617801Y-9647317D02*
X10636848Y-9637793D01*
X10636848Y-9637793D02*
X10684467Y-9637793D01*
X10684467Y-9637793D02*
X10703515Y-9628270D01*
X10798753Y-9580650D02*
X10798753Y-9780650D01*
X10798753Y-9590174D02*
X10817801Y-9580650D01*
X10817801Y-9580650D02*
X10855896Y-9580650D01*
X10855896Y-9580650D02*
X10874944Y-9590174D01*
X10874944Y-9590174D02*
X10884467Y-9599698D01*
X10884467Y-9599698D02*
X10893991Y-9618746D01*
X10893991Y-9618746D02*
X10893991Y-9675889D01*
X10893991Y-9675889D02*
X10884467Y-9694936D01*
X10884467Y-9694936D02*
X10874944Y-9704460D01*
X10874944Y-9704460D02*
X10855896Y-9713984D01*
X10855896Y-9713984D02*
X10817801Y-9713984D01*
X10817801Y-9713984D02*
X10798753Y-9704460D01*
X10979705Y-9694936D02*
X10989229Y-9704460D01*
X10989229Y-9704460D02*
X10979705Y-9713984D01*
X10979705Y-9713984D02*
X10970182Y-9704460D01*
X10970182Y-9704460D02*
X10979705Y-9694936D01*
X10979705Y-9694936D02*
X10979705Y-9713984D01*
X10979705Y-9590174D02*
X10989229Y-9599698D01*
X10989229Y-9599698D02*
X10979705Y-9609222D01*
X10979705Y-9609222D02*
X10970182Y-9599698D01*
X10970182Y-9599698D02*
X10979705Y-9590174D01*
X10979705Y-9590174D02*
X10979705Y-9609222D01*
D12*
X9317500Y-10027500D02*
X9347500Y-10057500D01*
X9347500Y-10027500D02*
X9317500Y-10057500D01*
D11*
X9646372Y-9933984D02*
X9665420Y-9933984D01*
X9665420Y-9933984D02*
X9684467Y-9943508D01*
X9684467Y-9943508D02*
X9693991Y-9953031D01*
X9693991Y-9953031D02*
X9703515Y-9972079D01*
X9703515Y-9972079D02*
X9713039Y-10010174D01*
X9713039Y-10010174D02*
X9713039Y-10057793D01*
X9713039Y-10057793D02*
X9703515Y-10095889D01*
X9703515Y-10095889D02*
X9693991Y-10114936D01*
X9693991Y-10114936D02*
X9684467Y-10124460D01*
X9684467Y-10124460D02*
X9665420Y-10133984D01*
X9665420Y-10133984D02*
X9646372Y-10133984D01*
X9646372Y-10133984D02*
X9627324Y-10124460D01*
X9627324Y-10124460D02*
X9617801Y-10114936D01*
X9617801Y-10114936D02*
X9608277Y-10095889D01*
X9608277Y-10095889D02*
X9598753Y-10057793D01*
X9598753Y-10057793D02*
X9598753Y-10010174D01*
X9598753Y-10010174D02*
X9608277Y-9972079D01*
X9608277Y-9972079D02*
X9617801Y-9953031D01*
X9617801Y-9953031D02*
X9627324Y-9943508D01*
X9627324Y-9943508D02*
X9646372Y-9933984D01*
X9798753Y-10114936D02*
X9808277Y-10124460D01*
X9808277Y-10124460D02*
X9798753Y-10133984D01*
X9798753Y-10133984D02*
X9789229Y-10124460D01*
X9789229Y-10124460D02*
X9798753Y-10114936D01*
X9798753Y-10114936D02*
X9798753Y-10133984D01*
X9874944Y-9933984D02*
X9998753Y-9933984D01*
X9998753Y-9933984D02*
X9932086Y-10010174D01*
X9932086Y-10010174D02*
X9960658Y-10010174D01*
X9960658Y-10010174D02*
X9979705Y-10019698D01*
X9979705Y-10019698D02*
X9989229Y-10029222D01*
X9989229Y-10029222D02*
X9998753Y-10048270D01*
X9998753Y-10048270D02*
X9998753Y-10095889D01*
X9998753Y-10095889D02*
X9989229Y-10114936D01*
X9989229Y-10114936D02*
X9979705Y-10124460D01*
X9979705Y-10124460D02*
X9960658Y-10133984D01*
X9960658Y-10133984D02*
X9903515Y-10133984D01*
X9903515Y-10133984D02*
X9884467Y-10124460D01*
X9884467Y-10124460D02*
X9874944Y-10114936D01*
X10122563Y-9933984D02*
X10141610Y-9933984D01*
X10141610Y-9933984D02*
X10160658Y-9943508D01*
X10160658Y-9943508D02*
X10170182Y-9953031D01*
X10170182Y-9953031D02*
X10179705Y-9972079D01*
X10179705Y-9972079D02*
X10189229Y-10010174D01*
X10189229Y-10010174D02*
X10189229Y-10057793D01*
X10189229Y-10057793D02*
X10179705Y-10095889D01*
X10179705Y-10095889D02*
X10170182Y-10114936D01*
X10170182Y-10114936D02*
X10160658Y-10124460D01*
X10160658Y-10124460D02*
X10141610Y-10133984D01*
X10141610Y-10133984D02*
X10122563Y-10133984D01*
X10122563Y-10133984D02*
X10103515Y-10124460D01*
X10103515Y-10124460D02*
X10093991Y-10114936D01*
X10093991Y-10114936D02*
X10084467Y-10095889D01*
X10084467Y-10095889D02*
X10074944Y-10057793D01*
X10074944Y-10057793D02*
X10074944Y-10010174D01*
X10074944Y-10010174D02*
X10084467Y-9972079D01*
X10084467Y-9972079D02*
X10093991Y-9953031D01*
X10093991Y-9953031D02*
X10103515Y-9943508D01*
X10103515Y-9943508D02*
X10122563Y-9933984D01*
X10313039Y-9933984D02*
X10332086Y-9933984D01*
X10332086Y-9933984D02*
X10351134Y-9943508D01*
X10351134Y-9943508D02*
X10360658Y-9953031D01*
X10360658Y-9953031D02*
X10370182Y-9972079D01*
X10370182Y-9972079D02*
X10379705Y-10010174D01*
X10379705Y-10010174D02*
X10379705Y-10057793D01*
X10379705Y-10057793D02*
X10370182Y-10095889D01*
X10370182Y-10095889D02*
X10360658Y-10114936D01*
X10360658Y-10114936D02*
X10351134Y-10124460D01*
X10351134Y-10124460D02*
X10332086Y-10133984D01*
X10332086Y-10133984D02*
X10313039Y-10133984D01*
X10313039Y-10133984D02*
X10293991Y-10124460D01*
X10293991Y-10124460D02*
X10284467Y-10114936D01*
X10284467Y-10114936D02*
X10274944Y-10095889D01*
X10274944Y-10095889D02*
X10265420Y-10057793D01*
X10265420Y-10057793D02*
X10265420Y-10010174D01*
X10265420Y-10010174D02*
X10274944Y-9972079D01*
X10274944Y-9972079D02*
X10284467Y-9953031D01*
X10284467Y-9953031D02*
X10293991Y-9943508D01*
X10293991Y-9943508D02*
X10313039Y-9933984D01*
X10465420Y-10133984D02*
X10465420Y-10000650D01*
X10465420Y-10019698D02*
X10474944Y-10010174D01*
X10474944Y-10010174D02*
X10493991Y-10000650D01*
X10493991Y-10000650D02*
X10522563Y-10000650D01*
X10522563Y-10000650D02*
X10541610Y-10010174D01*
X10541610Y-10010174D02*
X10551134Y-10029222D01*
X10551134Y-10029222D02*
X10551134Y-10133984D01*
X10551134Y-10029222D02*
X10560658Y-10010174D01*
X10560658Y-10010174D02*
X10579705Y-10000650D01*
X10579705Y-10000650D02*
X10608277Y-10000650D01*
X10608277Y-10000650D02*
X10627325Y-10010174D01*
X10627325Y-10010174D02*
X10636848Y-10029222D01*
X10636848Y-10029222D02*
X10636848Y-10133984D01*
X10732086Y-10133984D02*
X10732086Y-10000650D01*
X10732086Y-10019698D02*
X10741610Y-10010174D01*
X10741610Y-10010174D02*
X10760658Y-10000650D01*
X10760658Y-10000650D02*
X10789229Y-10000650D01*
X10789229Y-10000650D02*
X10808277Y-10010174D01*
X10808277Y-10010174D02*
X10817801Y-10029222D01*
X10817801Y-10029222D02*
X10817801Y-10133984D01*
X10817801Y-10029222D02*
X10827325Y-10010174D01*
X10827325Y-10010174D02*
X10846372Y-10000650D01*
X10846372Y-10000650D02*
X10874944Y-10000650D01*
X10874944Y-10000650D02*
X10893991Y-10010174D01*
X10893991Y-10010174D02*
X10903515Y-10029222D01*
X10903515Y-10029222D02*
X10903515Y-10133984D01*
X11293991Y-9924460D02*
X11122563Y-10181603D01*
X11551134Y-9933984D02*
X11570182Y-9933984D01*
X11570182Y-9933984D02*
X11589229Y-9943508D01*
X11589229Y-9943508D02*
X11598753Y-9953031D01*
X11598753Y-9953031D02*
X11608277Y-9972079D01*
X11608277Y-9972079D02*
X11617801Y-10010174D01*
X11617801Y-10010174D02*
X11617801Y-10057793D01*
X11617801Y-10057793D02*
X11608277Y-10095889D01*
X11608277Y-10095889D02*
X11598753Y-10114936D01*
X11598753Y-10114936D02*
X11589229Y-10124460D01*
X11589229Y-10124460D02*
X11570182Y-10133984D01*
X11570182Y-10133984D02*
X11551134Y-10133984D01*
X11551134Y-10133984D02*
X11532086Y-10124460D01*
X11532086Y-10124460D02*
X11522563Y-10114936D01*
X11522563Y-10114936D02*
X11513039Y-10095889D01*
X11513039Y-10095889D02*
X11503515Y-10057793D01*
X11503515Y-10057793D02*
X11503515Y-10010174D01*
X11503515Y-10010174D02*
X11513039Y-9972079D01*
X11513039Y-9972079D02*
X11522563Y-9953031D01*
X11522563Y-9953031D02*
X11532086Y-9943508D01*
X11532086Y-9943508D02*
X11551134Y-9933984D01*
X11703515Y-10114936D02*
X11713039Y-10124460D01*
X11713039Y-10124460D02*
X11703515Y-10133984D01*
X11703515Y-10133984D02*
X11693991Y-10124460D01*
X11693991Y-10124460D02*
X11703515Y-10114936D01*
X11703515Y-10114936D02*
X11703515Y-10133984D01*
X11836848Y-9933984D02*
X11855896Y-9933984D01*
X11855896Y-9933984D02*
X11874944Y-9943508D01*
X11874944Y-9943508D02*
X11884467Y-9953031D01*
X11884467Y-9953031D02*
X11893991Y-9972079D01*
X11893991Y-9972079D02*
X11903515Y-10010174D01*
X11903515Y-10010174D02*
X11903515Y-10057793D01*
X11903515Y-10057793D02*
X11893991Y-10095889D01*
X11893991Y-10095889D02*
X11884467Y-10114936D01*
X11884467Y-10114936D02*
X11874944Y-10124460D01*
X11874944Y-10124460D02*
X11855896Y-10133984D01*
X11855896Y-10133984D02*
X11836848Y-10133984D01*
X11836848Y-10133984D02*
X11817801Y-10124460D01*
X11817801Y-10124460D02*
X11808277Y-10114936D01*
X11808277Y-10114936D02*
X11798753Y-10095889D01*
X11798753Y-10095889D02*
X11789229Y-10057793D01*
X11789229Y-10057793D02*
X11789229Y-10010174D01*
X11789229Y-10010174D02*
X11798753Y-9972079D01*
X11798753Y-9972079D02*
X11808277Y-9953031D01*
X11808277Y-9953031D02*
X11817801Y-9943508D01*
X11817801Y-9943508D02*
X11836848Y-9933984D01*
X12093991Y-10133984D02*
X11979706Y-10133984D01*
X12036848Y-10133984D02*
X12036848Y-9933984D01*
X12036848Y-9933984D02*
X12017801Y-9962555D01*
X12017801Y-9962555D02*
X11998753Y-9981603D01*
X11998753Y-9981603D02*
X11979706Y-9991127D01*
X12284467Y-10133984D02*
X12170182Y-10133984D01*
X12227325Y-10133984D02*
X12227325Y-9933984D01*
X12227325Y-9933984D02*
X12208277Y-9962555D01*
X12208277Y-9962555D02*
X12189229Y-9981603D01*
X12189229Y-9981603D02*
X12170182Y-9991127D01*
X12398753Y-10019698D02*
X12379706Y-10010174D01*
X12379706Y-10010174D02*
X12370182Y-10000650D01*
X12370182Y-10000650D02*
X12360658Y-9981603D01*
X12360658Y-9981603D02*
X12360658Y-9972079D01*
X12360658Y-9972079D02*
X12370182Y-9953031D01*
X12370182Y-9953031D02*
X12379706Y-9943508D01*
X12379706Y-9943508D02*
X12398753Y-9933984D01*
X12398753Y-9933984D02*
X12436848Y-9933984D01*
X12436848Y-9933984D02*
X12455896Y-9943508D01*
X12455896Y-9943508D02*
X12465420Y-9953031D01*
X12465420Y-9953031D02*
X12474944Y-9972079D01*
X12474944Y-9972079D02*
X12474944Y-9981603D01*
X12474944Y-9981603D02*
X12465420Y-10000650D01*
X12465420Y-10000650D02*
X12455896Y-10010174D01*
X12455896Y-10010174D02*
X12436848Y-10019698D01*
X12436848Y-10019698D02*
X12398753Y-10019698D01*
X12398753Y-10019698D02*
X12379706Y-10029222D01*
X12379706Y-10029222D02*
X12370182Y-10038746D01*
X12370182Y-10038746D02*
X12360658Y-10057793D01*
X12360658Y-10057793D02*
X12360658Y-10095889D01*
X12360658Y-10095889D02*
X12370182Y-10114936D01*
X12370182Y-10114936D02*
X12379706Y-10124460D01*
X12379706Y-10124460D02*
X12398753Y-10133984D01*
X12398753Y-10133984D02*
X12436848Y-10133984D01*
X12436848Y-10133984D02*
X12455896Y-10124460D01*
X12455896Y-10124460D02*
X12465420Y-10114936D01*
X12465420Y-10114936D02*
X12474944Y-10095889D01*
X12474944Y-10095889D02*
X12474944Y-10057793D01*
X12474944Y-10057793D02*
X12465420Y-10038746D01*
X12465420Y-10038746D02*
X12455896Y-10029222D01*
X12455896Y-10029222D02*
X12436848Y-10019698D01*
X12551134Y-9933984D02*
X12551134Y-9972079D01*
X12627325Y-9933984D02*
X12627325Y-9972079D01*
X12922563Y-10210174D02*
X12913039Y-10200650D01*
X12913039Y-10200650D02*
X12893991Y-10172079D01*
X12893991Y-10172079D02*
X12884468Y-10153031D01*
X12884468Y-10153031D02*
X12874944Y-10124460D01*
X12874944Y-10124460D02*
X12865420Y-10076841D01*
X12865420Y-10076841D02*
X12865420Y-10038746D01*
X12865420Y-10038746D02*
X12874944Y-9991127D01*
X12874944Y-9991127D02*
X12884468Y-9962555D01*
X12884468Y-9962555D02*
X12893991Y-9943508D01*
X12893991Y-9943508D02*
X12913039Y-9914936D01*
X12913039Y-9914936D02*
X12922563Y-9905412D01*
X13027325Y-10019698D02*
X13008277Y-10010174D01*
X13008277Y-10010174D02*
X12998753Y-10000650D01*
X12998753Y-10000650D02*
X12989229Y-9981603D01*
X12989229Y-9981603D02*
X12989229Y-9972079D01*
X12989229Y-9972079D02*
X12998753Y-9953031D01*
X12998753Y-9953031D02*
X13008277Y-9943508D01*
X13008277Y-9943508D02*
X13027325Y-9933984D01*
X13027325Y-9933984D02*
X13065420Y-9933984D01*
X13065420Y-9933984D02*
X13084468Y-9943508D01*
X13084468Y-9943508D02*
X13093991Y-9953031D01*
X13093991Y-9953031D02*
X13103515Y-9972079D01*
X13103515Y-9972079D02*
X13103515Y-9981603D01*
X13103515Y-9981603D02*
X13093991Y-10000650D01*
X13093991Y-10000650D02*
X13084468Y-10010174D01*
X13084468Y-10010174D02*
X13065420Y-10019698D01*
X13065420Y-10019698D02*
X13027325Y-10019698D01*
X13027325Y-10019698D02*
X13008277Y-10029222D01*
X13008277Y-10029222D02*
X12998753Y-10038746D01*
X12998753Y-10038746D02*
X12989229Y-10057793D01*
X12989229Y-10057793D02*
X12989229Y-10095889D01*
X12989229Y-10095889D02*
X12998753Y-10114936D01*
X12998753Y-10114936D02*
X13008277Y-10124460D01*
X13008277Y-10124460D02*
X13027325Y-10133984D01*
X13027325Y-10133984D02*
X13065420Y-10133984D01*
X13065420Y-10133984D02*
X13084468Y-10124460D01*
X13084468Y-10124460D02*
X13093991Y-10114936D01*
X13093991Y-10114936D02*
X13103515Y-10095889D01*
X13103515Y-10095889D02*
X13103515Y-10057793D01*
X13103515Y-10057793D02*
X13093991Y-10038746D01*
X13093991Y-10038746D02*
X13084468Y-10029222D01*
X13084468Y-10029222D02*
X13065420Y-10019698D01*
X13274944Y-9933984D02*
X13236848Y-9933984D01*
X13236848Y-9933984D02*
X13217801Y-9943508D01*
X13217801Y-9943508D02*
X13208277Y-9953031D01*
X13208277Y-9953031D02*
X13189229Y-9981603D01*
X13189229Y-9981603D02*
X13179706Y-10019698D01*
X13179706Y-10019698D02*
X13179706Y-10095889D01*
X13179706Y-10095889D02*
X13189229Y-10114936D01*
X13189229Y-10114936D02*
X13198753Y-10124460D01*
X13198753Y-10124460D02*
X13217801Y-10133984D01*
X13217801Y-10133984D02*
X13255896Y-10133984D01*
X13255896Y-10133984D02*
X13274944Y-10124460D01*
X13274944Y-10124460D02*
X13284468Y-10114936D01*
X13284468Y-10114936D02*
X13293991Y-10095889D01*
X13293991Y-10095889D02*
X13293991Y-10048270D01*
X13293991Y-10048270D02*
X13284468Y-10029222D01*
X13284468Y-10029222D02*
X13274944Y-10019698D01*
X13274944Y-10019698D02*
X13255896Y-10010174D01*
X13255896Y-10010174D02*
X13217801Y-10010174D01*
X13217801Y-10010174D02*
X13198753Y-10019698D01*
X13198753Y-10019698D02*
X13189229Y-10029222D01*
X13189229Y-10029222D02*
X13179706Y-10048270D01*
X13532087Y-10133984D02*
X13532087Y-9933984D01*
X13617801Y-10133984D02*
X13617801Y-10029222D01*
X13617801Y-10029222D02*
X13608277Y-10010174D01*
X13608277Y-10010174D02*
X13589230Y-10000650D01*
X13589230Y-10000650D02*
X13560658Y-10000650D01*
X13560658Y-10000650D02*
X13541610Y-10010174D01*
X13541610Y-10010174D02*
X13532087Y-10019698D01*
X13741610Y-10133984D02*
X13722563Y-10124460D01*
X13722563Y-10124460D02*
X13713039Y-10114936D01*
X13713039Y-10114936D02*
X13703515Y-10095889D01*
X13703515Y-10095889D02*
X13703515Y-10038746D01*
X13703515Y-10038746D02*
X13713039Y-10019698D01*
X13713039Y-10019698D02*
X13722563Y-10010174D01*
X13722563Y-10010174D02*
X13741610Y-10000650D01*
X13741610Y-10000650D02*
X13770182Y-10000650D01*
X13770182Y-10000650D02*
X13789230Y-10010174D01*
X13789230Y-10010174D02*
X13798753Y-10019698D01*
X13798753Y-10019698D02*
X13808277Y-10038746D01*
X13808277Y-10038746D02*
X13808277Y-10095889D01*
X13808277Y-10095889D02*
X13798753Y-10114936D01*
X13798753Y-10114936D02*
X13789230Y-10124460D01*
X13789230Y-10124460D02*
X13770182Y-10133984D01*
X13770182Y-10133984D02*
X13741610Y-10133984D01*
X13922563Y-10133984D02*
X13903515Y-10124460D01*
X13903515Y-10124460D02*
X13893991Y-10105412D01*
X13893991Y-10105412D02*
X13893991Y-9933984D01*
X14074944Y-10124460D02*
X14055896Y-10133984D01*
X14055896Y-10133984D02*
X14017801Y-10133984D01*
X14017801Y-10133984D02*
X13998753Y-10124460D01*
X13998753Y-10124460D02*
X13989230Y-10105412D01*
X13989230Y-10105412D02*
X13989230Y-10029222D01*
X13989230Y-10029222D02*
X13998753Y-10010174D01*
X13998753Y-10010174D02*
X14017801Y-10000650D01*
X14017801Y-10000650D02*
X14055896Y-10000650D01*
X14055896Y-10000650D02*
X14074944Y-10010174D01*
X14074944Y-10010174D02*
X14084468Y-10029222D01*
X14084468Y-10029222D02*
X14084468Y-10048270D01*
X14084468Y-10048270D02*
X13989230Y-10067317D01*
X14160658Y-10124460D02*
X14179706Y-10133984D01*
X14179706Y-10133984D02*
X14217801Y-10133984D01*
X14217801Y-10133984D02*
X14236849Y-10124460D01*
X14236849Y-10124460D02*
X14246372Y-10105412D01*
X14246372Y-10105412D02*
X14246372Y-10095889D01*
X14246372Y-10095889D02*
X14236849Y-10076841D01*
X14236849Y-10076841D02*
X14217801Y-10067317D01*
X14217801Y-10067317D02*
X14189230Y-10067317D01*
X14189230Y-10067317D02*
X14170182Y-10057793D01*
X14170182Y-10057793D02*
X14160658Y-10038746D01*
X14160658Y-10038746D02*
X14160658Y-10029222D01*
X14160658Y-10029222D02*
X14170182Y-10010174D01*
X14170182Y-10010174D02*
X14189230Y-10000650D01*
X14189230Y-10000650D02*
X14217801Y-10000650D01*
X14217801Y-10000650D02*
X14236849Y-10010174D01*
X14313039Y-10210174D02*
X14322563Y-10200650D01*
X14322563Y-10200650D02*
X14341611Y-10172079D01*
X14341611Y-10172079D02*
X14351134Y-10153031D01*
X14351134Y-10153031D02*
X14360658Y-10124460D01*
X14360658Y-10124460D02*
X14370182Y-10076841D01*
X14370182Y-10076841D02*
X14370182Y-10038746D01*
X14370182Y-10038746D02*
X14360658Y-9991127D01*
X14360658Y-9991127D02*
X14351134Y-9962555D01*
X14351134Y-9962555D02*
X14341611Y-9943508D01*
X14341611Y-9943508D02*
X14322563Y-9914936D01*
X14322563Y-9914936D02*
X14313039Y-9905412D01*
D12*
X9347500Y-10306500D02*
G75*
G02*
X9307500Y-10306500I-20000J0D01*
G01*
X9307500Y-10306500D02*
G75*
G02*
X9347500Y-10306500I20000J0D01*
G01*
D11*
X9646372Y-10197984D02*
X9665420Y-10197984D01*
X9665420Y-10197984D02*
X9684467Y-10207508D01*
X9684467Y-10207508D02*
X9693991Y-10217031D01*
X9693991Y-10217031D02*
X9703515Y-10236079D01*
X9703515Y-10236079D02*
X9713039Y-10274174D01*
X9713039Y-10274174D02*
X9713039Y-10321793D01*
X9713039Y-10321793D02*
X9703515Y-10359889D01*
X9703515Y-10359889D02*
X9693991Y-10378936D01*
X9693991Y-10378936D02*
X9684467Y-10388460D01*
X9684467Y-10388460D02*
X9665420Y-10397984D01*
X9665420Y-10397984D02*
X9646372Y-10397984D01*
X9646372Y-10397984D02*
X9627324Y-10388460D01*
X9627324Y-10388460D02*
X9617801Y-10378936D01*
X9617801Y-10378936D02*
X9608277Y-10359889D01*
X9608277Y-10359889D02*
X9598753Y-10321793D01*
X9598753Y-10321793D02*
X9598753Y-10274174D01*
X9598753Y-10274174D02*
X9608277Y-10236079D01*
X9608277Y-10236079D02*
X9617801Y-10217031D01*
X9617801Y-10217031D02*
X9627324Y-10207508D01*
X9627324Y-10207508D02*
X9646372Y-10197984D01*
X9798753Y-10378936D02*
X9808277Y-10388460D01*
X9808277Y-10388460D02*
X9798753Y-10397984D01*
X9798753Y-10397984D02*
X9789229Y-10388460D01*
X9789229Y-10388460D02*
X9798753Y-10378936D01*
X9798753Y-10378936D02*
X9798753Y-10397984D01*
X9979705Y-10264650D02*
X9979705Y-10397984D01*
X9932086Y-10188460D02*
X9884467Y-10331317D01*
X9884467Y-10331317D02*
X10008277Y-10331317D01*
X10122563Y-10197984D02*
X10141610Y-10197984D01*
X10141610Y-10197984D02*
X10160658Y-10207508D01*
X10160658Y-10207508D02*
X10170182Y-10217031D01*
X10170182Y-10217031D02*
X10179705Y-10236079D01*
X10179705Y-10236079D02*
X10189229Y-10274174D01*
X10189229Y-10274174D02*
X10189229Y-10321793D01*
X10189229Y-10321793D02*
X10179705Y-10359889D01*
X10179705Y-10359889D02*
X10170182Y-10378936D01*
X10170182Y-10378936D02*
X10160658Y-10388460D01*
X10160658Y-10388460D02*
X10141610Y-10397984D01*
X10141610Y-10397984D02*
X10122563Y-10397984D01*
X10122563Y-10397984D02*
X10103515Y-10388460D01*
X10103515Y-10388460D02*
X10093991Y-10378936D01*
X10093991Y-10378936D02*
X10084467Y-10359889D01*
X10084467Y-10359889D02*
X10074944Y-10321793D01*
X10074944Y-10321793D02*
X10074944Y-10274174D01*
X10074944Y-10274174D02*
X10084467Y-10236079D01*
X10084467Y-10236079D02*
X10093991Y-10217031D01*
X10093991Y-10217031D02*
X10103515Y-10207508D01*
X10103515Y-10207508D02*
X10122563Y-10197984D01*
X10313039Y-10197984D02*
X10332086Y-10197984D01*
X10332086Y-10197984D02*
X10351134Y-10207508D01*
X10351134Y-10207508D02*
X10360658Y-10217031D01*
X10360658Y-10217031D02*
X10370182Y-10236079D01*
X10370182Y-10236079D02*
X10379705Y-10274174D01*
X10379705Y-10274174D02*
X10379705Y-10321793D01*
X10379705Y-10321793D02*
X10370182Y-10359889D01*
X10370182Y-10359889D02*
X10360658Y-10378936D01*
X10360658Y-10378936D02*
X10351134Y-10388460D01*
X10351134Y-10388460D02*
X10332086Y-10397984D01*
X10332086Y-10397984D02*
X10313039Y-10397984D01*
X10313039Y-10397984D02*
X10293991Y-10388460D01*
X10293991Y-10388460D02*
X10284467Y-10378936D01*
X10284467Y-10378936D02*
X10274944Y-10359889D01*
X10274944Y-10359889D02*
X10265420Y-10321793D01*
X10265420Y-10321793D02*
X10265420Y-10274174D01*
X10265420Y-10274174D02*
X10274944Y-10236079D01*
X10274944Y-10236079D02*
X10284467Y-10217031D01*
X10284467Y-10217031D02*
X10293991Y-10207508D01*
X10293991Y-10207508D02*
X10313039Y-10197984D01*
X10465420Y-10397984D02*
X10465420Y-10264650D01*
X10465420Y-10283698D02*
X10474944Y-10274174D01*
X10474944Y-10274174D02*
X10493991Y-10264650D01*
X10493991Y-10264650D02*
X10522563Y-10264650D01*
X10522563Y-10264650D02*
X10541610Y-10274174D01*
X10541610Y-10274174D02*
X10551134Y-10293222D01*
X10551134Y-10293222D02*
X10551134Y-10397984D01*
X10551134Y-10293222D02*
X10560658Y-10274174D01*
X10560658Y-10274174D02*
X10579705Y-10264650D01*
X10579705Y-10264650D02*
X10608277Y-10264650D01*
X10608277Y-10264650D02*
X10627325Y-10274174D01*
X10627325Y-10274174D02*
X10636848Y-10293222D01*
X10636848Y-10293222D02*
X10636848Y-10397984D01*
X10732086Y-10397984D02*
X10732086Y-10264650D01*
X10732086Y-10283698D02*
X10741610Y-10274174D01*
X10741610Y-10274174D02*
X10760658Y-10264650D01*
X10760658Y-10264650D02*
X10789229Y-10264650D01*
X10789229Y-10264650D02*
X10808277Y-10274174D01*
X10808277Y-10274174D02*
X10817801Y-10293222D01*
X10817801Y-10293222D02*
X10817801Y-10397984D01*
X10817801Y-10293222D02*
X10827325Y-10274174D01*
X10827325Y-10274174D02*
X10846372Y-10264650D01*
X10846372Y-10264650D02*
X10874944Y-10264650D01*
X10874944Y-10264650D02*
X10893991Y-10274174D01*
X10893991Y-10274174D02*
X10903515Y-10293222D01*
X10903515Y-10293222D02*
X10903515Y-10397984D01*
X11293991Y-10188460D02*
X11122563Y-10445603D01*
X11551134Y-10197984D02*
X11570182Y-10197984D01*
X11570182Y-10197984D02*
X11589229Y-10207508D01*
X11589229Y-10207508D02*
X11598753Y-10217031D01*
X11598753Y-10217031D02*
X11608277Y-10236079D01*
X11608277Y-10236079D02*
X11617801Y-10274174D01*
X11617801Y-10274174D02*
X11617801Y-10321793D01*
X11617801Y-10321793D02*
X11608277Y-10359889D01*
X11608277Y-10359889D02*
X11598753Y-10378936D01*
X11598753Y-10378936D02*
X11589229Y-10388460D01*
X11589229Y-10388460D02*
X11570182Y-10397984D01*
X11570182Y-10397984D02*
X11551134Y-10397984D01*
X11551134Y-10397984D02*
X11532086Y-10388460D01*
X11532086Y-10388460D02*
X11522563Y-10378936D01*
X11522563Y-10378936D02*
X11513039Y-10359889D01*
X11513039Y-10359889D02*
X11503515Y-10321793D01*
X11503515Y-10321793D02*
X11503515Y-10274174D01*
X11503515Y-10274174D02*
X11513039Y-10236079D01*
X11513039Y-10236079D02*
X11522563Y-10217031D01*
X11522563Y-10217031D02*
X11532086Y-10207508D01*
X11532086Y-10207508D02*
X11551134Y-10197984D01*
X11703515Y-10378936D02*
X11713039Y-10388460D01*
X11713039Y-10388460D02*
X11703515Y-10397984D01*
X11703515Y-10397984D02*
X11693991Y-10388460D01*
X11693991Y-10388460D02*
X11703515Y-10378936D01*
X11703515Y-10378936D02*
X11703515Y-10397984D01*
X11836848Y-10197984D02*
X11855896Y-10197984D01*
X11855896Y-10197984D02*
X11874944Y-10207508D01*
X11874944Y-10207508D02*
X11884467Y-10217031D01*
X11884467Y-10217031D02*
X11893991Y-10236079D01*
X11893991Y-10236079D02*
X11903515Y-10274174D01*
X11903515Y-10274174D02*
X11903515Y-10321793D01*
X11903515Y-10321793D02*
X11893991Y-10359889D01*
X11893991Y-10359889D02*
X11884467Y-10378936D01*
X11884467Y-10378936D02*
X11874944Y-10388460D01*
X11874944Y-10388460D02*
X11855896Y-10397984D01*
X11855896Y-10397984D02*
X11836848Y-10397984D01*
X11836848Y-10397984D02*
X11817801Y-10388460D01*
X11817801Y-10388460D02*
X11808277Y-10378936D01*
X11808277Y-10378936D02*
X11798753Y-10359889D01*
X11798753Y-10359889D02*
X11789229Y-10321793D01*
X11789229Y-10321793D02*
X11789229Y-10274174D01*
X11789229Y-10274174D02*
X11798753Y-10236079D01*
X11798753Y-10236079D02*
X11808277Y-10217031D01*
X11808277Y-10217031D02*
X11817801Y-10207508D01*
X11817801Y-10207508D02*
X11836848Y-10197984D01*
X12093991Y-10397984D02*
X11979706Y-10397984D01*
X12036848Y-10397984D02*
X12036848Y-10197984D01*
X12036848Y-10197984D02*
X12017801Y-10226555D01*
X12017801Y-10226555D02*
X11998753Y-10245603D01*
X11998753Y-10245603D02*
X11979706Y-10255127D01*
X12274944Y-10197984D02*
X12179706Y-10197984D01*
X12179706Y-10197984D02*
X12170182Y-10293222D01*
X12170182Y-10293222D02*
X12179706Y-10283698D01*
X12179706Y-10283698D02*
X12198753Y-10274174D01*
X12198753Y-10274174D02*
X12246372Y-10274174D01*
X12246372Y-10274174D02*
X12265420Y-10283698D01*
X12265420Y-10283698D02*
X12274944Y-10293222D01*
X12274944Y-10293222D02*
X12284467Y-10312270D01*
X12284467Y-10312270D02*
X12284467Y-10359889D01*
X12284467Y-10359889D02*
X12274944Y-10378936D01*
X12274944Y-10378936D02*
X12265420Y-10388460D01*
X12265420Y-10388460D02*
X12246372Y-10397984D01*
X12246372Y-10397984D02*
X12198753Y-10397984D01*
X12198753Y-10397984D02*
X12179706Y-10388460D01*
X12179706Y-10388460D02*
X12170182Y-10378936D01*
X12351134Y-10197984D02*
X12484467Y-10197984D01*
X12484467Y-10197984D02*
X12398753Y-10397984D01*
X12551134Y-10197984D02*
X12551134Y-10236079D01*
X12627325Y-10197984D02*
X12627325Y-10236079D01*
X12922563Y-10474174D02*
X12913039Y-10464650D01*
X12913039Y-10464650D02*
X12893991Y-10436079D01*
X12893991Y-10436079D02*
X12884468Y-10417031D01*
X12884468Y-10417031D02*
X12874944Y-10388460D01*
X12874944Y-10388460D02*
X12865420Y-10340841D01*
X12865420Y-10340841D02*
X12865420Y-10302746D01*
X12865420Y-10302746D02*
X12874944Y-10255127D01*
X12874944Y-10255127D02*
X12884468Y-10226555D01*
X12884468Y-10226555D02*
X12893991Y-10207508D01*
X12893991Y-10207508D02*
X12913039Y-10178936D01*
X12913039Y-10178936D02*
X12922563Y-10169412D01*
X12979706Y-10197984D02*
X13103515Y-10197984D01*
X13103515Y-10197984D02*
X13036848Y-10274174D01*
X13036848Y-10274174D02*
X13065420Y-10274174D01*
X13065420Y-10274174D02*
X13084468Y-10283698D01*
X13084468Y-10283698D02*
X13093991Y-10293222D01*
X13093991Y-10293222D02*
X13103515Y-10312270D01*
X13103515Y-10312270D02*
X13103515Y-10359889D01*
X13103515Y-10359889D02*
X13093991Y-10378936D01*
X13093991Y-10378936D02*
X13084468Y-10388460D01*
X13084468Y-10388460D02*
X13065420Y-10397984D01*
X13065420Y-10397984D02*
X13008277Y-10397984D01*
X13008277Y-10397984D02*
X12989229Y-10388460D01*
X12989229Y-10388460D02*
X12979706Y-10378936D01*
X13179706Y-10217031D02*
X13189229Y-10207508D01*
X13189229Y-10207508D02*
X13208277Y-10197984D01*
X13208277Y-10197984D02*
X13255896Y-10197984D01*
X13255896Y-10197984D02*
X13274944Y-10207508D01*
X13274944Y-10207508D02*
X13284468Y-10217031D01*
X13284468Y-10217031D02*
X13293991Y-10236079D01*
X13293991Y-10236079D02*
X13293991Y-10255127D01*
X13293991Y-10255127D02*
X13284468Y-10283698D01*
X13284468Y-10283698D02*
X13170182Y-10397984D01*
X13170182Y-10397984D02*
X13293991Y-10397984D01*
X13532087Y-10397984D02*
X13532087Y-10197984D01*
X13617801Y-10397984D02*
X13617801Y-10293222D01*
X13617801Y-10293222D02*
X13608277Y-10274174D01*
X13608277Y-10274174D02*
X13589230Y-10264650D01*
X13589230Y-10264650D02*
X13560658Y-10264650D01*
X13560658Y-10264650D02*
X13541610Y-10274174D01*
X13541610Y-10274174D02*
X13532087Y-10283698D01*
X13741610Y-10397984D02*
X13722563Y-10388460D01*
X13722563Y-10388460D02*
X13713039Y-10378936D01*
X13713039Y-10378936D02*
X13703515Y-10359889D01*
X13703515Y-10359889D02*
X13703515Y-10302746D01*
X13703515Y-10302746D02*
X13713039Y-10283698D01*
X13713039Y-10283698D02*
X13722563Y-10274174D01*
X13722563Y-10274174D02*
X13741610Y-10264650D01*
X13741610Y-10264650D02*
X13770182Y-10264650D01*
X13770182Y-10264650D02*
X13789230Y-10274174D01*
X13789230Y-10274174D02*
X13798753Y-10283698D01*
X13798753Y-10283698D02*
X13808277Y-10302746D01*
X13808277Y-10302746D02*
X13808277Y-10359889D01*
X13808277Y-10359889D02*
X13798753Y-10378936D01*
X13798753Y-10378936D02*
X13789230Y-10388460D01*
X13789230Y-10388460D02*
X13770182Y-10397984D01*
X13770182Y-10397984D02*
X13741610Y-10397984D01*
X13922563Y-10397984D02*
X13903515Y-10388460D01*
X13903515Y-10388460D02*
X13893991Y-10369412D01*
X13893991Y-10369412D02*
X13893991Y-10197984D01*
X14074944Y-10388460D02*
X14055896Y-10397984D01*
X14055896Y-10397984D02*
X14017801Y-10397984D01*
X14017801Y-10397984D02*
X13998753Y-10388460D01*
X13998753Y-10388460D02*
X13989230Y-10369412D01*
X13989230Y-10369412D02*
X13989230Y-10293222D01*
X13989230Y-10293222D02*
X13998753Y-10274174D01*
X13998753Y-10274174D02*
X14017801Y-10264650D01*
X14017801Y-10264650D02*
X14055896Y-10264650D01*
X14055896Y-10264650D02*
X14074944Y-10274174D01*
X14074944Y-10274174D02*
X14084468Y-10293222D01*
X14084468Y-10293222D02*
X14084468Y-10312270D01*
X14084468Y-10312270D02*
X13989230Y-10331317D01*
X14160658Y-10388460D02*
X14179706Y-10397984D01*
X14179706Y-10397984D02*
X14217801Y-10397984D01*
X14217801Y-10397984D02*
X14236849Y-10388460D01*
X14236849Y-10388460D02*
X14246372Y-10369412D01*
X14246372Y-10369412D02*
X14246372Y-10359889D01*
X14246372Y-10359889D02*
X14236849Y-10340841D01*
X14236849Y-10340841D02*
X14217801Y-10331317D01*
X14217801Y-10331317D02*
X14189230Y-10331317D01*
X14189230Y-10331317D02*
X14170182Y-10321793D01*
X14170182Y-10321793D02*
X14160658Y-10302746D01*
X14160658Y-10302746D02*
X14160658Y-10293222D01*
X14160658Y-10293222D02*
X14170182Y-10274174D01*
X14170182Y-10274174D02*
X14189230Y-10264650D01*
X14189230Y-10264650D02*
X14217801Y-10264650D01*
X14217801Y-10264650D02*
X14236849Y-10274174D01*
X14313039Y-10474174D02*
X14322563Y-10464650D01*
X14322563Y-10464650D02*
X14341611Y-10436079D01*
X14341611Y-10436079D02*
X14351134Y-10417031D01*
X14351134Y-10417031D02*
X14360658Y-10388460D01*
X14360658Y-10388460D02*
X14370182Y-10340841D01*
X14370182Y-10340841D02*
X14370182Y-10302746D01*
X14370182Y-10302746D02*
X14360658Y-10255127D01*
X14360658Y-10255127D02*
X14351134Y-10226555D01*
X14351134Y-10226555D02*
X14341611Y-10207508D01*
X14341611Y-10207508D02*
X14322563Y-10178936D01*
X14322563Y-10178936D02*
X14313039Y-10169412D01*
D12*
X9322500Y-10545500D02*
X9322500Y-10595500D01*
X9297500Y-10570500D02*
X9347500Y-10570500D01*
D11*
X9646372Y-10461984D02*
X9665420Y-10461984D01*
X9665420Y-10461984D02*
X9684467Y-10471508D01*
X9684467Y-10471508D02*
X9693991Y-10481031D01*
X9693991Y-10481031D02*
X9703515Y-10500079D01*
X9703515Y-10500079D02*
X9713039Y-10538174D01*
X9713039Y-10538174D02*
X9713039Y-10585793D01*
X9713039Y-10585793D02*
X9703515Y-10623889D01*
X9703515Y-10623889D02*
X9693991Y-10642936D01*
X9693991Y-10642936D02*
X9684467Y-10652460D01*
X9684467Y-10652460D02*
X9665420Y-10661984D01*
X9665420Y-10661984D02*
X9646372Y-10661984D01*
X9646372Y-10661984D02*
X9627324Y-10652460D01*
X9627324Y-10652460D02*
X9617801Y-10642936D01*
X9617801Y-10642936D02*
X9608277Y-10623889D01*
X9608277Y-10623889D02*
X9598753Y-10585793D01*
X9598753Y-10585793D02*
X9598753Y-10538174D01*
X9598753Y-10538174D02*
X9608277Y-10500079D01*
X9608277Y-10500079D02*
X9617801Y-10481031D01*
X9617801Y-10481031D02*
X9627324Y-10471508D01*
X9627324Y-10471508D02*
X9646372Y-10461984D01*
X9798753Y-10642936D02*
X9808277Y-10652460D01*
X9808277Y-10652460D02*
X9798753Y-10661984D01*
X9798753Y-10661984D02*
X9789229Y-10652460D01*
X9789229Y-10652460D02*
X9798753Y-10642936D01*
X9798753Y-10642936D02*
X9798753Y-10661984D01*
X9989229Y-10461984D02*
X9893991Y-10461984D01*
X9893991Y-10461984D02*
X9884467Y-10557222D01*
X9884467Y-10557222D02*
X9893991Y-10547698D01*
X9893991Y-10547698D02*
X9913039Y-10538174D01*
X9913039Y-10538174D02*
X9960658Y-10538174D01*
X9960658Y-10538174D02*
X9979705Y-10547698D01*
X9979705Y-10547698D02*
X9989229Y-10557222D01*
X9989229Y-10557222D02*
X9998753Y-10576270D01*
X9998753Y-10576270D02*
X9998753Y-10623889D01*
X9998753Y-10623889D02*
X9989229Y-10642936D01*
X9989229Y-10642936D02*
X9979705Y-10652460D01*
X9979705Y-10652460D02*
X9960658Y-10661984D01*
X9960658Y-10661984D02*
X9913039Y-10661984D01*
X9913039Y-10661984D02*
X9893991Y-10652460D01*
X9893991Y-10652460D02*
X9884467Y-10642936D01*
X10122563Y-10461984D02*
X10141610Y-10461984D01*
X10141610Y-10461984D02*
X10160658Y-10471508D01*
X10160658Y-10471508D02*
X10170182Y-10481031D01*
X10170182Y-10481031D02*
X10179705Y-10500079D01*
X10179705Y-10500079D02*
X10189229Y-10538174D01*
X10189229Y-10538174D02*
X10189229Y-10585793D01*
X10189229Y-10585793D02*
X10179705Y-10623889D01*
X10179705Y-10623889D02*
X10170182Y-10642936D01*
X10170182Y-10642936D02*
X10160658Y-10652460D01*
X10160658Y-10652460D02*
X10141610Y-10661984D01*
X10141610Y-10661984D02*
X10122563Y-10661984D01*
X10122563Y-10661984D02*
X10103515Y-10652460D01*
X10103515Y-10652460D02*
X10093991Y-10642936D01*
X10093991Y-10642936D02*
X10084467Y-10623889D01*
X10084467Y-10623889D02*
X10074944Y-10585793D01*
X10074944Y-10585793D02*
X10074944Y-10538174D01*
X10074944Y-10538174D02*
X10084467Y-10500079D01*
X10084467Y-10500079D02*
X10093991Y-10481031D01*
X10093991Y-10481031D02*
X10103515Y-10471508D01*
X10103515Y-10471508D02*
X10122563Y-10461984D01*
X10313039Y-10461984D02*
X10332086Y-10461984D01*
X10332086Y-10461984D02*
X10351134Y-10471508D01*
X10351134Y-10471508D02*
X10360658Y-10481031D01*
X10360658Y-10481031D02*
X10370182Y-10500079D01*
X10370182Y-10500079D02*
X10379705Y-10538174D01*
X10379705Y-10538174D02*
X10379705Y-10585793D01*
X10379705Y-10585793D02*
X10370182Y-10623889D01*
X10370182Y-10623889D02*
X10360658Y-10642936D01*
X10360658Y-10642936D02*
X10351134Y-10652460D01*
X10351134Y-10652460D02*
X10332086Y-10661984D01*
X10332086Y-10661984D02*
X10313039Y-10661984D01*
X10313039Y-10661984D02*
X10293991Y-10652460D01*
X10293991Y-10652460D02*
X10284467Y-10642936D01*
X10284467Y-10642936D02*
X10274944Y-10623889D01*
X10274944Y-10623889D02*
X10265420Y-10585793D01*
X10265420Y-10585793D02*
X10265420Y-10538174D01*
X10265420Y-10538174D02*
X10274944Y-10500079D01*
X10274944Y-10500079D02*
X10284467Y-10481031D01*
X10284467Y-10481031D02*
X10293991Y-10471508D01*
X10293991Y-10471508D02*
X10313039Y-10461984D01*
X10465420Y-10661984D02*
X10465420Y-10528650D01*
X10465420Y-10547698D02*
X10474944Y-10538174D01*
X10474944Y-10538174D02*
X10493991Y-10528650D01*
X10493991Y-10528650D02*
X10522563Y-10528650D01*
X10522563Y-10528650D02*
X10541610Y-10538174D01*
X10541610Y-10538174D02*
X10551134Y-10557222D01*
X10551134Y-10557222D02*
X10551134Y-10661984D01*
X10551134Y-10557222D02*
X10560658Y-10538174D01*
X10560658Y-10538174D02*
X10579705Y-10528650D01*
X10579705Y-10528650D02*
X10608277Y-10528650D01*
X10608277Y-10528650D02*
X10627325Y-10538174D01*
X10627325Y-10538174D02*
X10636848Y-10557222D01*
X10636848Y-10557222D02*
X10636848Y-10661984D01*
X10732086Y-10661984D02*
X10732086Y-10528650D01*
X10732086Y-10547698D02*
X10741610Y-10538174D01*
X10741610Y-10538174D02*
X10760658Y-10528650D01*
X10760658Y-10528650D02*
X10789229Y-10528650D01*
X10789229Y-10528650D02*
X10808277Y-10538174D01*
X10808277Y-10538174D02*
X10817801Y-10557222D01*
X10817801Y-10557222D02*
X10817801Y-10661984D01*
X10817801Y-10557222D02*
X10827325Y-10538174D01*
X10827325Y-10538174D02*
X10846372Y-10528650D01*
X10846372Y-10528650D02*
X10874944Y-10528650D01*
X10874944Y-10528650D02*
X10893991Y-10538174D01*
X10893991Y-10538174D02*
X10903515Y-10557222D01*
X10903515Y-10557222D02*
X10903515Y-10661984D01*
X11293991Y-10452460D02*
X11122563Y-10709603D01*
X11551134Y-10461984D02*
X11570182Y-10461984D01*
X11570182Y-10461984D02*
X11589229Y-10471508D01*
X11589229Y-10471508D02*
X11598753Y-10481031D01*
X11598753Y-10481031D02*
X11608277Y-10500079D01*
X11608277Y-10500079D02*
X11617801Y-10538174D01*
X11617801Y-10538174D02*
X11617801Y-10585793D01*
X11617801Y-10585793D02*
X11608277Y-10623889D01*
X11608277Y-10623889D02*
X11598753Y-10642936D01*
X11598753Y-10642936D02*
X11589229Y-10652460D01*
X11589229Y-10652460D02*
X11570182Y-10661984D01*
X11570182Y-10661984D02*
X11551134Y-10661984D01*
X11551134Y-10661984D02*
X11532086Y-10652460D01*
X11532086Y-10652460D02*
X11522563Y-10642936D01*
X11522563Y-10642936D02*
X11513039Y-10623889D01*
X11513039Y-10623889D02*
X11503515Y-10585793D01*
X11503515Y-10585793D02*
X11503515Y-10538174D01*
X11503515Y-10538174D02*
X11513039Y-10500079D01*
X11513039Y-10500079D02*
X11522563Y-10481031D01*
X11522563Y-10481031D02*
X11532086Y-10471508D01*
X11532086Y-10471508D02*
X11551134Y-10461984D01*
X11703515Y-10642936D02*
X11713039Y-10652460D01*
X11713039Y-10652460D02*
X11703515Y-10661984D01*
X11703515Y-10661984D02*
X11693991Y-10652460D01*
X11693991Y-10652460D02*
X11703515Y-10642936D01*
X11703515Y-10642936D02*
X11703515Y-10661984D01*
X11836848Y-10461984D02*
X11855896Y-10461984D01*
X11855896Y-10461984D02*
X11874944Y-10471508D01*
X11874944Y-10471508D02*
X11884467Y-10481031D01*
X11884467Y-10481031D02*
X11893991Y-10500079D01*
X11893991Y-10500079D02*
X11903515Y-10538174D01*
X11903515Y-10538174D02*
X11903515Y-10585793D01*
X11903515Y-10585793D02*
X11893991Y-10623889D01*
X11893991Y-10623889D02*
X11884467Y-10642936D01*
X11884467Y-10642936D02*
X11874944Y-10652460D01*
X11874944Y-10652460D02*
X11855896Y-10661984D01*
X11855896Y-10661984D02*
X11836848Y-10661984D01*
X11836848Y-10661984D02*
X11817801Y-10652460D01*
X11817801Y-10652460D02*
X11808277Y-10642936D01*
X11808277Y-10642936D02*
X11798753Y-10623889D01*
X11798753Y-10623889D02*
X11789229Y-10585793D01*
X11789229Y-10585793D02*
X11789229Y-10538174D01*
X11789229Y-10538174D02*
X11798753Y-10500079D01*
X11798753Y-10500079D02*
X11808277Y-10481031D01*
X11808277Y-10481031D02*
X11817801Y-10471508D01*
X11817801Y-10471508D02*
X11836848Y-10461984D01*
X12093991Y-10661984D02*
X11979706Y-10661984D01*
X12036848Y-10661984D02*
X12036848Y-10461984D01*
X12036848Y-10461984D02*
X12017801Y-10490555D01*
X12017801Y-10490555D02*
X11998753Y-10509603D01*
X11998753Y-10509603D02*
X11979706Y-10519127D01*
X12189229Y-10661984D02*
X12227325Y-10661984D01*
X12227325Y-10661984D02*
X12246372Y-10652460D01*
X12246372Y-10652460D02*
X12255896Y-10642936D01*
X12255896Y-10642936D02*
X12274944Y-10614365D01*
X12274944Y-10614365D02*
X12284467Y-10576270D01*
X12284467Y-10576270D02*
X12284467Y-10500079D01*
X12284467Y-10500079D02*
X12274944Y-10481031D01*
X12274944Y-10481031D02*
X12265420Y-10471508D01*
X12265420Y-10471508D02*
X12246372Y-10461984D01*
X12246372Y-10461984D02*
X12208277Y-10461984D01*
X12208277Y-10461984D02*
X12189229Y-10471508D01*
X12189229Y-10471508D02*
X12179706Y-10481031D01*
X12179706Y-10481031D02*
X12170182Y-10500079D01*
X12170182Y-10500079D02*
X12170182Y-10547698D01*
X12170182Y-10547698D02*
X12179706Y-10566746D01*
X12179706Y-10566746D02*
X12189229Y-10576270D01*
X12189229Y-10576270D02*
X12208277Y-10585793D01*
X12208277Y-10585793D02*
X12246372Y-10585793D01*
X12246372Y-10585793D02*
X12265420Y-10576270D01*
X12265420Y-10576270D02*
X12274944Y-10566746D01*
X12274944Y-10566746D02*
X12284467Y-10547698D01*
X12351134Y-10461984D02*
X12484467Y-10461984D01*
X12484467Y-10461984D02*
X12398753Y-10661984D01*
X12551134Y-10461984D02*
X12551134Y-10500079D01*
X12627325Y-10461984D02*
X12627325Y-10500079D01*
X12922563Y-10738174D02*
X12913039Y-10728650D01*
X12913039Y-10728650D02*
X12893991Y-10700079D01*
X12893991Y-10700079D02*
X12884468Y-10681031D01*
X12884468Y-10681031D02*
X12874944Y-10652460D01*
X12874944Y-10652460D02*
X12865420Y-10604841D01*
X12865420Y-10604841D02*
X12865420Y-10566746D01*
X12865420Y-10566746D02*
X12874944Y-10519127D01*
X12874944Y-10519127D02*
X12884468Y-10490555D01*
X12884468Y-10490555D02*
X12893991Y-10471508D01*
X12893991Y-10471508D02*
X12913039Y-10442936D01*
X12913039Y-10442936D02*
X12922563Y-10433412D01*
X13103515Y-10661984D02*
X12989229Y-10661984D01*
X13046372Y-10661984D02*
X13046372Y-10461984D01*
X13046372Y-10461984D02*
X13027325Y-10490555D01*
X13027325Y-10490555D02*
X13008277Y-10509603D01*
X13008277Y-10509603D02*
X12989229Y-10519127D01*
X13341610Y-10661984D02*
X13341610Y-10461984D01*
X13427325Y-10661984D02*
X13427325Y-10557222D01*
X13427325Y-10557222D02*
X13417801Y-10538174D01*
X13417801Y-10538174D02*
X13398753Y-10528650D01*
X13398753Y-10528650D02*
X13370182Y-10528650D01*
X13370182Y-10528650D02*
X13351134Y-10538174D01*
X13351134Y-10538174D02*
X13341610Y-10547698D01*
X13551134Y-10661984D02*
X13532087Y-10652460D01*
X13532087Y-10652460D02*
X13522563Y-10642936D01*
X13522563Y-10642936D02*
X13513039Y-10623889D01*
X13513039Y-10623889D02*
X13513039Y-10566746D01*
X13513039Y-10566746D02*
X13522563Y-10547698D01*
X13522563Y-10547698D02*
X13532087Y-10538174D01*
X13532087Y-10538174D02*
X13551134Y-10528650D01*
X13551134Y-10528650D02*
X13579706Y-10528650D01*
X13579706Y-10528650D02*
X13598753Y-10538174D01*
X13598753Y-10538174D02*
X13608277Y-10547698D01*
X13608277Y-10547698D02*
X13617801Y-10566746D01*
X13617801Y-10566746D02*
X13617801Y-10623889D01*
X13617801Y-10623889D02*
X13608277Y-10642936D01*
X13608277Y-10642936D02*
X13598753Y-10652460D01*
X13598753Y-10652460D02*
X13579706Y-10661984D01*
X13579706Y-10661984D02*
X13551134Y-10661984D01*
X13732087Y-10661984D02*
X13713039Y-10652460D01*
X13713039Y-10652460D02*
X13703515Y-10633412D01*
X13703515Y-10633412D02*
X13703515Y-10461984D01*
X13884468Y-10652460D02*
X13865420Y-10661984D01*
X13865420Y-10661984D02*
X13827325Y-10661984D01*
X13827325Y-10661984D02*
X13808277Y-10652460D01*
X13808277Y-10652460D02*
X13798753Y-10633412D01*
X13798753Y-10633412D02*
X13798753Y-10557222D01*
X13798753Y-10557222D02*
X13808277Y-10538174D01*
X13808277Y-10538174D02*
X13827325Y-10528650D01*
X13827325Y-10528650D02*
X13865420Y-10528650D01*
X13865420Y-10528650D02*
X13884468Y-10538174D01*
X13884468Y-10538174D02*
X13893991Y-10557222D01*
X13893991Y-10557222D02*
X13893991Y-10576270D01*
X13893991Y-10576270D02*
X13798753Y-10595317D01*
X13960658Y-10738174D02*
X13970182Y-10728650D01*
X13970182Y-10728650D02*
X13989230Y-10700079D01*
X13989230Y-10700079D02*
X13998753Y-10681031D01*
X13998753Y-10681031D02*
X14008277Y-10652460D01*
X14008277Y-10652460D02*
X14017801Y-10604841D01*
X14017801Y-10604841D02*
X14017801Y-10566746D01*
X14017801Y-10566746D02*
X14008277Y-10519127D01*
X14008277Y-10519127D02*
X13998753Y-10490555D01*
X13998753Y-10490555D02*
X13989230Y-10471508D01*
X13989230Y-10471508D02*
X13970182Y-10442936D01*
X13970182Y-10442936D02*
X13960658Y-10433412D01*
D12*
X9337981Y-10857481D02*
X9337981Y-10811519D01*
X9292019Y-10811519D01*
X9292019Y-10857481D01*
X9337981Y-10857481D01*
D11*
X9646372Y-10725984D02*
X9665420Y-10725984D01*
X9665420Y-10725984D02*
X9684467Y-10735508D01*
X9684467Y-10735508D02*
X9693991Y-10745031D01*
X9693991Y-10745031D02*
X9703515Y-10764079D01*
X9703515Y-10764079D02*
X9713039Y-10802174D01*
X9713039Y-10802174D02*
X9713039Y-10849793D01*
X9713039Y-10849793D02*
X9703515Y-10887889D01*
X9703515Y-10887889D02*
X9693991Y-10906936D01*
X9693991Y-10906936D02*
X9684467Y-10916460D01*
X9684467Y-10916460D02*
X9665420Y-10925984D01*
X9665420Y-10925984D02*
X9646372Y-10925984D01*
X9646372Y-10925984D02*
X9627324Y-10916460D01*
X9627324Y-10916460D02*
X9617801Y-10906936D01*
X9617801Y-10906936D02*
X9608277Y-10887889D01*
X9608277Y-10887889D02*
X9598753Y-10849793D01*
X9598753Y-10849793D02*
X9598753Y-10802174D01*
X9598753Y-10802174D02*
X9608277Y-10764079D01*
X9608277Y-10764079D02*
X9617801Y-10745031D01*
X9617801Y-10745031D02*
X9627324Y-10735508D01*
X9627324Y-10735508D02*
X9646372Y-10725984D01*
X9798753Y-10906936D02*
X9808277Y-10916460D01*
X9808277Y-10916460D02*
X9798753Y-10925984D01*
X9798753Y-10925984D02*
X9789229Y-10916460D01*
X9789229Y-10916460D02*
X9798753Y-10906936D01*
X9798753Y-10906936D02*
X9798753Y-10925984D01*
X9979705Y-10725984D02*
X9941610Y-10725984D01*
X9941610Y-10725984D02*
X9922563Y-10735508D01*
X9922563Y-10735508D02*
X9913039Y-10745031D01*
X9913039Y-10745031D02*
X9893991Y-10773603D01*
X9893991Y-10773603D02*
X9884467Y-10811698D01*
X9884467Y-10811698D02*
X9884467Y-10887889D01*
X9884467Y-10887889D02*
X9893991Y-10906936D01*
X9893991Y-10906936D02*
X9903515Y-10916460D01*
X9903515Y-10916460D02*
X9922563Y-10925984D01*
X9922563Y-10925984D02*
X9960658Y-10925984D01*
X9960658Y-10925984D02*
X9979705Y-10916460D01*
X9979705Y-10916460D02*
X9989229Y-10906936D01*
X9989229Y-10906936D02*
X9998753Y-10887889D01*
X9998753Y-10887889D02*
X9998753Y-10840270D01*
X9998753Y-10840270D02*
X9989229Y-10821222D01*
X9989229Y-10821222D02*
X9979705Y-10811698D01*
X9979705Y-10811698D02*
X9960658Y-10802174D01*
X9960658Y-10802174D02*
X9922563Y-10802174D01*
X9922563Y-10802174D02*
X9903515Y-10811698D01*
X9903515Y-10811698D02*
X9893991Y-10821222D01*
X9893991Y-10821222D02*
X9884467Y-10840270D01*
X10179705Y-10725984D02*
X10084467Y-10725984D01*
X10084467Y-10725984D02*
X10074944Y-10821222D01*
X10074944Y-10821222D02*
X10084467Y-10811698D01*
X10084467Y-10811698D02*
X10103515Y-10802174D01*
X10103515Y-10802174D02*
X10151134Y-10802174D01*
X10151134Y-10802174D02*
X10170182Y-10811698D01*
X10170182Y-10811698D02*
X10179705Y-10821222D01*
X10179705Y-10821222D02*
X10189229Y-10840270D01*
X10189229Y-10840270D02*
X10189229Y-10887889D01*
X10189229Y-10887889D02*
X10179705Y-10906936D01*
X10179705Y-10906936D02*
X10170182Y-10916460D01*
X10170182Y-10916460D02*
X10151134Y-10925984D01*
X10151134Y-10925984D02*
X10103515Y-10925984D01*
X10103515Y-10925984D02*
X10084467Y-10916460D01*
X10084467Y-10916460D02*
X10074944Y-10906936D01*
X10313039Y-10725984D02*
X10332086Y-10725984D01*
X10332086Y-10725984D02*
X10351134Y-10735508D01*
X10351134Y-10735508D02*
X10360658Y-10745031D01*
X10360658Y-10745031D02*
X10370182Y-10764079D01*
X10370182Y-10764079D02*
X10379705Y-10802174D01*
X10379705Y-10802174D02*
X10379705Y-10849793D01*
X10379705Y-10849793D02*
X10370182Y-10887889D01*
X10370182Y-10887889D02*
X10360658Y-10906936D01*
X10360658Y-10906936D02*
X10351134Y-10916460D01*
X10351134Y-10916460D02*
X10332086Y-10925984D01*
X10332086Y-10925984D02*
X10313039Y-10925984D01*
X10313039Y-10925984D02*
X10293991Y-10916460D01*
X10293991Y-10916460D02*
X10284467Y-10906936D01*
X10284467Y-10906936D02*
X10274944Y-10887889D01*
X10274944Y-10887889D02*
X10265420Y-10849793D01*
X10265420Y-10849793D02*
X10265420Y-10802174D01*
X10265420Y-10802174D02*
X10274944Y-10764079D01*
X10274944Y-10764079D02*
X10284467Y-10745031D01*
X10284467Y-10745031D02*
X10293991Y-10735508D01*
X10293991Y-10735508D02*
X10313039Y-10725984D01*
X10465420Y-10925984D02*
X10465420Y-10792650D01*
X10465420Y-10811698D02*
X10474944Y-10802174D01*
X10474944Y-10802174D02*
X10493991Y-10792650D01*
X10493991Y-10792650D02*
X10522563Y-10792650D01*
X10522563Y-10792650D02*
X10541610Y-10802174D01*
X10541610Y-10802174D02*
X10551134Y-10821222D01*
X10551134Y-10821222D02*
X10551134Y-10925984D01*
X10551134Y-10821222D02*
X10560658Y-10802174D01*
X10560658Y-10802174D02*
X10579705Y-10792650D01*
X10579705Y-10792650D02*
X10608277Y-10792650D01*
X10608277Y-10792650D02*
X10627325Y-10802174D01*
X10627325Y-10802174D02*
X10636848Y-10821222D01*
X10636848Y-10821222D02*
X10636848Y-10925984D01*
X10732086Y-10925984D02*
X10732086Y-10792650D01*
X10732086Y-10811698D02*
X10741610Y-10802174D01*
X10741610Y-10802174D02*
X10760658Y-10792650D01*
X10760658Y-10792650D02*
X10789229Y-10792650D01*
X10789229Y-10792650D02*
X10808277Y-10802174D01*
X10808277Y-10802174D02*
X10817801Y-10821222D01*
X10817801Y-10821222D02*
X10817801Y-10925984D01*
X10817801Y-10821222D02*
X10827325Y-10802174D01*
X10827325Y-10802174D02*
X10846372Y-10792650D01*
X10846372Y-10792650D02*
X10874944Y-10792650D01*
X10874944Y-10792650D02*
X10893991Y-10802174D01*
X10893991Y-10802174D02*
X10903515Y-10821222D01*
X10903515Y-10821222D02*
X10903515Y-10925984D01*
X11293991Y-10716460D02*
X11122563Y-10973603D01*
X11551134Y-10725984D02*
X11570182Y-10725984D01*
X11570182Y-10725984D02*
X11589229Y-10735508D01*
X11589229Y-10735508D02*
X11598753Y-10745031D01*
X11598753Y-10745031D02*
X11608277Y-10764079D01*
X11608277Y-10764079D02*
X11617801Y-10802174D01*
X11617801Y-10802174D02*
X11617801Y-10849793D01*
X11617801Y-10849793D02*
X11608277Y-10887889D01*
X11608277Y-10887889D02*
X11598753Y-10906936D01*
X11598753Y-10906936D02*
X11589229Y-10916460D01*
X11589229Y-10916460D02*
X11570182Y-10925984D01*
X11570182Y-10925984D02*
X11551134Y-10925984D01*
X11551134Y-10925984D02*
X11532086Y-10916460D01*
X11532086Y-10916460D02*
X11522563Y-10906936D01*
X11522563Y-10906936D02*
X11513039Y-10887889D01*
X11513039Y-10887889D02*
X11503515Y-10849793D01*
X11503515Y-10849793D02*
X11503515Y-10802174D01*
X11503515Y-10802174D02*
X11513039Y-10764079D01*
X11513039Y-10764079D02*
X11522563Y-10745031D01*
X11522563Y-10745031D02*
X11532086Y-10735508D01*
X11532086Y-10735508D02*
X11551134Y-10725984D01*
X11703515Y-10906936D02*
X11713039Y-10916460D01*
X11713039Y-10916460D02*
X11703515Y-10925984D01*
X11703515Y-10925984D02*
X11693991Y-10916460D01*
X11693991Y-10916460D02*
X11703515Y-10906936D01*
X11703515Y-10906936D02*
X11703515Y-10925984D01*
X11836848Y-10725984D02*
X11855896Y-10725984D01*
X11855896Y-10725984D02*
X11874944Y-10735508D01*
X11874944Y-10735508D02*
X11884467Y-10745031D01*
X11884467Y-10745031D02*
X11893991Y-10764079D01*
X11893991Y-10764079D02*
X11903515Y-10802174D01*
X11903515Y-10802174D02*
X11903515Y-10849793D01*
X11903515Y-10849793D02*
X11893991Y-10887889D01*
X11893991Y-10887889D02*
X11884467Y-10906936D01*
X11884467Y-10906936D02*
X11874944Y-10916460D01*
X11874944Y-10916460D02*
X11855896Y-10925984D01*
X11855896Y-10925984D02*
X11836848Y-10925984D01*
X11836848Y-10925984D02*
X11817801Y-10916460D01*
X11817801Y-10916460D02*
X11808277Y-10906936D01*
X11808277Y-10906936D02*
X11798753Y-10887889D01*
X11798753Y-10887889D02*
X11789229Y-10849793D01*
X11789229Y-10849793D02*
X11789229Y-10802174D01*
X11789229Y-10802174D02*
X11798753Y-10764079D01*
X11798753Y-10764079D02*
X11808277Y-10745031D01*
X11808277Y-10745031D02*
X11817801Y-10735508D01*
X11817801Y-10735508D02*
X11836848Y-10725984D01*
X11979706Y-10745031D02*
X11989229Y-10735508D01*
X11989229Y-10735508D02*
X12008277Y-10725984D01*
X12008277Y-10725984D02*
X12055896Y-10725984D01*
X12055896Y-10725984D02*
X12074944Y-10735508D01*
X12074944Y-10735508D02*
X12084467Y-10745031D01*
X12084467Y-10745031D02*
X12093991Y-10764079D01*
X12093991Y-10764079D02*
X12093991Y-10783127D01*
X12093991Y-10783127D02*
X12084467Y-10811698D01*
X12084467Y-10811698D02*
X11970182Y-10925984D01*
X11970182Y-10925984D02*
X12093991Y-10925984D01*
X12274944Y-10725984D02*
X12179706Y-10725984D01*
X12179706Y-10725984D02*
X12170182Y-10821222D01*
X12170182Y-10821222D02*
X12179706Y-10811698D01*
X12179706Y-10811698D02*
X12198753Y-10802174D01*
X12198753Y-10802174D02*
X12246372Y-10802174D01*
X12246372Y-10802174D02*
X12265420Y-10811698D01*
X12265420Y-10811698D02*
X12274944Y-10821222D01*
X12274944Y-10821222D02*
X12284467Y-10840270D01*
X12284467Y-10840270D02*
X12284467Y-10887889D01*
X12284467Y-10887889D02*
X12274944Y-10906936D01*
X12274944Y-10906936D02*
X12265420Y-10916460D01*
X12265420Y-10916460D02*
X12246372Y-10925984D01*
X12246372Y-10925984D02*
X12198753Y-10925984D01*
X12198753Y-10925984D02*
X12179706Y-10916460D01*
X12179706Y-10916460D02*
X12170182Y-10906936D01*
X12455896Y-10725984D02*
X12417801Y-10725984D01*
X12417801Y-10725984D02*
X12398753Y-10735508D01*
X12398753Y-10735508D02*
X12389229Y-10745031D01*
X12389229Y-10745031D02*
X12370182Y-10773603D01*
X12370182Y-10773603D02*
X12360658Y-10811698D01*
X12360658Y-10811698D02*
X12360658Y-10887889D01*
X12360658Y-10887889D02*
X12370182Y-10906936D01*
X12370182Y-10906936D02*
X12379706Y-10916460D01*
X12379706Y-10916460D02*
X12398753Y-10925984D01*
X12398753Y-10925984D02*
X12436848Y-10925984D01*
X12436848Y-10925984D02*
X12455896Y-10916460D01*
X12455896Y-10916460D02*
X12465420Y-10906936D01*
X12465420Y-10906936D02*
X12474944Y-10887889D01*
X12474944Y-10887889D02*
X12474944Y-10840270D01*
X12474944Y-10840270D02*
X12465420Y-10821222D01*
X12465420Y-10821222D02*
X12455896Y-10811698D01*
X12455896Y-10811698D02*
X12436848Y-10802174D01*
X12436848Y-10802174D02*
X12398753Y-10802174D01*
X12398753Y-10802174D02*
X12379706Y-10811698D01*
X12379706Y-10811698D02*
X12370182Y-10821222D01*
X12370182Y-10821222D02*
X12360658Y-10840270D01*
X12551134Y-10725984D02*
X12551134Y-10764079D01*
X12627325Y-10725984D02*
X12627325Y-10764079D01*
X12922563Y-11002174D02*
X12913039Y-10992650D01*
X12913039Y-10992650D02*
X12893991Y-10964079D01*
X12893991Y-10964079D02*
X12884468Y-10945031D01*
X12884468Y-10945031D02*
X12874944Y-10916460D01*
X12874944Y-10916460D02*
X12865420Y-10868841D01*
X12865420Y-10868841D02*
X12865420Y-10830746D01*
X12865420Y-10830746D02*
X12874944Y-10783127D01*
X12874944Y-10783127D02*
X12884468Y-10754555D01*
X12884468Y-10754555D02*
X12893991Y-10735508D01*
X12893991Y-10735508D02*
X12913039Y-10706936D01*
X12913039Y-10706936D02*
X12922563Y-10697412D01*
X12989229Y-10745031D02*
X12998753Y-10735508D01*
X12998753Y-10735508D02*
X13017801Y-10725984D01*
X13017801Y-10725984D02*
X13065420Y-10725984D01*
X13065420Y-10725984D02*
X13084468Y-10735508D01*
X13084468Y-10735508D02*
X13093991Y-10745031D01*
X13093991Y-10745031D02*
X13103515Y-10764079D01*
X13103515Y-10764079D02*
X13103515Y-10783127D01*
X13103515Y-10783127D02*
X13093991Y-10811698D01*
X13093991Y-10811698D02*
X12979706Y-10925984D01*
X12979706Y-10925984D02*
X13103515Y-10925984D01*
X13341610Y-10925984D02*
X13341610Y-10725984D01*
X13427325Y-10925984D02*
X13427325Y-10821222D01*
X13427325Y-10821222D02*
X13417801Y-10802174D01*
X13417801Y-10802174D02*
X13398753Y-10792650D01*
X13398753Y-10792650D02*
X13370182Y-10792650D01*
X13370182Y-10792650D02*
X13351134Y-10802174D01*
X13351134Y-10802174D02*
X13341610Y-10811698D01*
X13551134Y-10925984D02*
X13532087Y-10916460D01*
X13532087Y-10916460D02*
X13522563Y-10906936D01*
X13522563Y-10906936D02*
X13513039Y-10887889D01*
X13513039Y-10887889D02*
X13513039Y-10830746D01*
X13513039Y-10830746D02*
X13522563Y-10811698D01*
X13522563Y-10811698D02*
X13532087Y-10802174D01*
X13532087Y-10802174D02*
X13551134Y-10792650D01*
X13551134Y-10792650D02*
X13579706Y-10792650D01*
X13579706Y-10792650D02*
X13598753Y-10802174D01*
X13598753Y-10802174D02*
X13608277Y-10811698D01*
X13608277Y-10811698D02*
X13617801Y-10830746D01*
X13617801Y-10830746D02*
X13617801Y-10887889D01*
X13617801Y-10887889D02*
X13608277Y-10906936D01*
X13608277Y-10906936D02*
X13598753Y-10916460D01*
X13598753Y-10916460D02*
X13579706Y-10925984D01*
X13579706Y-10925984D02*
X13551134Y-10925984D01*
X13732087Y-10925984D02*
X13713039Y-10916460D01*
X13713039Y-10916460D02*
X13703515Y-10897412D01*
X13703515Y-10897412D02*
X13703515Y-10725984D01*
X13884468Y-10916460D02*
X13865420Y-10925984D01*
X13865420Y-10925984D02*
X13827325Y-10925984D01*
X13827325Y-10925984D02*
X13808277Y-10916460D01*
X13808277Y-10916460D02*
X13798753Y-10897412D01*
X13798753Y-10897412D02*
X13798753Y-10821222D01*
X13798753Y-10821222D02*
X13808277Y-10802174D01*
X13808277Y-10802174D02*
X13827325Y-10792650D01*
X13827325Y-10792650D02*
X13865420Y-10792650D01*
X13865420Y-10792650D02*
X13884468Y-10802174D01*
X13884468Y-10802174D02*
X13893991Y-10821222D01*
X13893991Y-10821222D02*
X13893991Y-10840270D01*
X13893991Y-10840270D02*
X13798753Y-10859317D01*
X13970182Y-10916460D02*
X13989230Y-10925984D01*
X13989230Y-10925984D02*
X14027325Y-10925984D01*
X14027325Y-10925984D02*
X14046372Y-10916460D01*
X14046372Y-10916460D02*
X14055896Y-10897412D01*
X14055896Y-10897412D02*
X14055896Y-10887889D01*
X14055896Y-10887889D02*
X14046372Y-10868841D01*
X14046372Y-10868841D02*
X14027325Y-10859317D01*
X14027325Y-10859317D02*
X13998753Y-10859317D01*
X13998753Y-10859317D02*
X13979706Y-10849793D01*
X13979706Y-10849793D02*
X13970182Y-10830746D01*
X13970182Y-10830746D02*
X13970182Y-10821222D01*
X13970182Y-10821222D02*
X13979706Y-10802174D01*
X13979706Y-10802174D02*
X13998753Y-10792650D01*
X13998753Y-10792650D02*
X14027325Y-10792650D01*
X14027325Y-10792650D02*
X14046372Y-10802174D01*
X14122563Y-11002174D02*
X14132087Y-10992650D01*
X14132087Y-10992650D02*
X14151134Y-10964079D01*
X14151134Y-10964079D02*
X14160658Y-10945031D01*
X14160658Y-10945031D02*
X14170182Y-10916460D01*
X14170182Y-10916460D02*
X14179706Y-10868841D01*
X14179706Y-10868841D02*
X14179706Y-10830746D01*
X14179706Y-10830746D02*
X14170182Y-10783127D01*
X14170182Y-10783127D02*
X14160658Y-10754555D01*
X14160658Y-10754555D02*
X14151134Y-10735508D01*
X14151134Y-10735508D02*
X14132087Y-10706936D01*
X14132087Y-10706936D02*
X14122563Y-10697412D01*
D12*
X9307500Y-11138500D02*
X9347500Y-11098500D01*
X9307500Y-11058500D01*
X9267500Y-11098500D01*
X9307500Y-11138500D01*
D11*
X9646372Y-10989984D02*
X9665420Y-10989984D01*
X9665420Y-10989984D02*
X9684467Y-10999508D01*
X9684467Y-10999508D02*
X9693991Y-11009031D01*
X9693991Y-11009031D02*
X9703515Y-11028079D01*
X9703515Y-11028079D02*
X9713039Y-11066174D01*
X9713039Y-11066174D02*
X9713039Y-11113793D01*
X9713039Y-11113793D02*
X9703515Y-11151889D01*
X9703515Y-11151889D02*
X9693991Y-11170936D01*
X9693991Y-11170936D02*
X9684467Y-11180460D01*
X9684467Y-11180460D02*
X9665420Y-11189984D01*
X9665420Y-11189984D02*
X9646372Y-11189984D01*
X9646372Y-11189984D02*
X9627324Y-11180460D01*
X9627324Y-11180460D02*
X9617801Y-11170936D01*
X9617801Y-11170936D02*
X9608277Y-11151889D01*
X9608277Y-11151889D02*
X9598753Y-11113793D01*
X9598753Y-11113793D02*
X9598753Y-11066174D01*
X9598753Y-11066174D02*
X9608277Y-11028079D01*
X9608277Y-11028079D02*
X9617801Y-11009031D01*
X9617801Y-11009031D02*
X9627324Y-10999508D01*
X9627324Y-10999508D02*
X9646372Y-10989984D01*
X9798753Y-11170936D02*
X9808277Y-11180460D01*
X9808277Y-11180460D02*
X9798753Y-11189984D01*
X9798753Y-11189984D02*
X9789229Y-11180460D01*
X9789229Y-11180460D02*
X9798753Y-11170936D01*
X9798753Y-11170936D02*
X9798753Y-11189984D01*
X9922563Y-11075698D02*
X9903515Y-11066174D01*
X9903515Y-11066174D02*
X9893991Y-11056650D01*
X9893991Y-11056650D02*
X9884467Y-11037603D01*
X9884467Y-11037603D02*
X9884467Y-11028079D01*
X9884467Y-11028079D02*
X9893991Y-11009031D01*
X9893991Y-11009031D02*
X9903515Y-10999508D01*
X9903515Y-10999508D02*
X9922563Y-10989984D01*
X9922563Y-10989984D02*
X9960658Y-10989984D01*
X9960658Y-10989984D02*
X9979705Y-10999508D01*
X9979705Y-10999508D02*
X9989229Y-11009031D01*
X9989229Y-11009031D02*
X9998753Y-11028079D01*
X9998753Y-11028079D02*
X9998753Y-11037603D01*
X9998753Y-11037603D02*
X9989229Y-11056650D01*
X9989229Y-11056650D02*
X9979705Y-11066174D01*
X9979705Y-11066174D02*
X9960658Y-11075698D01*
X9960658Y-11075698D02*
X9922563Y-11075698D01*
X9922563Y-11075698D02*
X9903515Y-11085222D01*
X9903515Y-11085222D02*
X9893991Y-11094746D01*
X9893991Y-11094746D02*
X9884467Y-11113793D01*
X9884467Y-11113793D02*
X9884467Y-11151889D01*
X9884467Y-11151889D02*
X9893991Y-11170936D01*
X9893991Y-11170936D02*
X9903515Y-11180460D01*
X9903515Y-11180460D02*
X9922563Y-11189984D01*
X9922563Y-11189984D02*
X9960658Y-11189984D01*
X9960658Y-11189984D02*
X9979705Y-11180460D01*
X9979705Y-11180460D02*
X9989229Y-11170936D01*
X9989229Y-11170936D02*
X9998753Y-11151889D01*
X9998753Y-11151889D02*
X9998753Y-11113793D01*
X9998753Y-11113793D02*
X9989229Y-11094746D01*
X9989229Y-11094746D02*
X9979705Y-11085222D01*
X9979705Y-11085222D02*
X9960658Y-11075698D01*
X10122563Y-10989984D02*
X10141610Y-10989984D01*
X10141610Y-10989984D02*
X10160658Y-10999508D01*
X10160658Y-10999508D02*
X10170182Y-11009031D01*
X10170182Y-11009031D02*
X10179705Y-11028079D01*
X10179705Y-11028079D02*
X10189229Y-11066174D01*
X10189229Y-11066174D02*
X10189229Y-11113793D01*
X10189229Y-11113793D02*
X10179705Y-11151889D01*
X10179705Y-11151889D02*
X10170182Y-11170936D01*
X10170182Y-11170936D02*
X10160658Y-11180460D01*
X10160658Y-11180460D02*
X10141610Y-11189984D01*
X10141610Y-11189984D02*
X10122563Y-11189984D01*
X10122563Y-11189984D02*
X10103515Y-11180460D01*
X10103515Y-11180460D02*
X10093991Y-11170936D01*
X10093991Y-11170936D02*
X10084467Y-11151889D01*
X10084467Y-11151889D02*
X10074944Y-11113793D01*
X10074944Y-11113793D02*
X10074944Y-11066174D01*
X10074944Y-11066174D02*
X10084467Y-11028079D01*
X10084467Y-11028079D02*
X10093991Y-11009031D01*
X10093991Y-11009031D02*
X10103515Y-10999508D01*
X10103515Y-10999508D02*
X10122563Y-10989984D01*
X10313039Y-10989984D02*
X10332086Y-10989984D01*
X10332086Y-10989984D02*
X10351134Y-10999508D01*
X10351134Y-10999508D02*
X10360658Y-11009031D01*
X10360658Y-11009031D02*
X10370182Y-11028079D01*
X10370182Y-11028079D02*
X10379705Y-11066174D01*
X10379705Y-11066174D02*
X10379705Y-11113793D01*
X10379705Y-11113793D02*
X10370182Y-11151889D01*
X10370182Y-11151889D02*
X10360658Y-11170936D01*
X10360658Y-11170936D02*
X10351134Y-11180460D01*
X10351134Y-11180460D02*
X10332086Y-11189984D01*
X10332086Y-11189984D02*
X10313039Y-11189984D01*
X10313039Y-11189984D02*
X10293991Y-11180460D01*
X10293991Y-11180460D02*
X10284467Y-11170936D01*
X10284467Y-11170936D02*
X10274944Y-11151889D01*
X10274944Y-11151889D02*
X10265420Y-11113793D01*
X10265420Y-11113793D02*
X10265420Y-11066174D01*
X10265420Y-11066174D02*
X10274944Y-11028079D01*
X10274944Y-11028079D02*
X10284467Y-11009031D01*
X10284467Y-11009031D02*
X10293991Y-10999508D01*
X10293991Y-10999508D02*
X10313039Y-10989984D01*
X10465420Y-11189984D02*
X10465420Y-11056650D01*
X10465420Y-11075698D02*
X10474944Y-11066174D01*
X10474944Y-11066174D02*
X10493991Y-11056650D01*
X10493991Y-11056650D02*
X10522563Y-11056650D01*
X10522563Y-11056650D02*
X10541610Y-11066174D01*
X10541610Y-11066174D02*
X10551134Y-11085222D01*
X10551134Y-11085222D02*
X10551134Y-11189984D01*
X10551134Y-11085222D02*
X10560658Y-11066174D01*
X10560658Y-11066174D02*
X10579705Y-11056650D01*
X10579705Y-11056650D02*
X10608277Y-11056650D01*
X10608277Y-11056650D02*
X10627325Y-11066174D01*
X10627325Y-11066174D02*
X10636848Y-11085222D01*
X10636848Y-11085222D02*
X10636848Y-11189984D01*
X10732086Y-11189984D02*
X10732086Y-11056650D01*
X10732086Y-11075698D02*
X10741610Y-11066174D01*
X10741610Y-11066174D02*
X10760658Y-11056650D01*
X10760658Y-11056650D02*
X10789229Y-11056650D01*
X10789229Y-11056650D02*
X10808277Y-11066174D01*
X10808277Y-11066174D02*
X10817801Y-11085222D01*
X10817801Y-11085222D02*
X10817801Y-11189984D01*
X10817801Y-11085222D02*
X10827325Y-11066174D01*
X10827325Y-11066174D02*
X10846372Y-11056650D01*
X10846372Y-11056650D02*
X10874944Y-11056650D01*
X10874944Y-11056650D02*
X10893991Y-11066174D01*
X10893991Y-11066174D02*
X10903515Y-11085222D01*
X10903515Y-11085222D02*
X10903515Y-11189984D01*
X11293991Y-10980460D02*
X11122563Y-11237603D01*
X11551134Y-10989984D02*
X11570182Y-10989984D01*
X11570182Y-10989984D02*
X11589229Y-10999508D01*
X11589229Y-10999508D02*
X11598753Y-11009031D01*
X11598753Y-11009031D02*
X11608277Y-11028079D01*
X11608277Y-11028079D02*
X11617801Y-11066174D01*
X11617801Y-11066174D02*
X11617801Y-11113793D01*
X11617801Y-11113793D02*
X11608277Y-11151889D01*
X11608277Y-11151889D02*
X11598753Y-11170936D01*
X11598753Y-11170936D02*
X11589229Y-11180460D01*
X11589229Y-11180460D02*
X11570182Y-11189984D01*
X11570182Y-11189984D02*
X11551134Y-11189984D01*
X11551134Y-11189984D02*
X11532086Y-11180460D01*
X11532086Y-11180460D02*
X11522563Y-11170936D01*
X11522563Y-11170936D02*
X11513039Y-11151889D01*
X11513039Y-11151889D02*
X11503515Y-11113793D01*
X11503515Y-11113793D02*
X11503515Y-11066174D01*
X11503515Y-11066174D02*
X11513039Y-11028079D01*
X11513039Y-11028079D02*
X11522563Y-11009031D01*
X11522563Y-11009031D02*
X11532086Y-10999508D01*
X11532086Y-10999508D02*
X11551134Y-10989984D01*
X11703515Y-11170936D02*
X11713039Y-11180460D01*
X11713039Y-11180460D02*
X11703515Y-11189984D01*
X11703515Y-11189984D02*
X11693991Y-11180460D01*
X11693991Y-11180460D02*
X11703515Y-11170936D01*
X11703515Y-11170936D02*
X11703515Y-11189984D01*
X11836848Y-10989984D02*
X11855896Y-10989984D01*
X11855896Y-10989984D02*
X11874944Y-10999508D01*
X11874944Y-10999508D02*
X11884467Y-11009031D01*
X11884467Y-11009031D02*
X11893991Y-11028079D01*
X11893991Y-11028079D02*
X11903515Y-11066174D01*
X11903515Y-11066174D02*
X11903515Y-11113793D01*
X11903515Y-11113793D02*
X11893991Y-11151889D01*
X11893991Y-11151889D02*
X11884467Y-11170936D01*
X11884467Y-11170936D02*
X11874944Y-11180460D01*
X11874944Y-11180460D02*
X11855896Y-11189984D01*
X11855896Y-11189984D02*
X11836848Y-11189984D01*
X11836848Y-11189984D02*
X11817801Y-11180460D01*
X11817801Y-11180460D02*
X11808277Y-11170936D01*
X11808277Y-11170936D02*
X11798753Y-11151889D01*
X11798753Y-11151889D02*
X11789229Y-11113793D01*
X11789229Y-11113793D02*
X11789229Y-11066174D01*
X11789229Y-11066174D02*
X11798753Y-11028079D01*
X11798753Y-11028079D02*
X11808277Y-11009031D01*
X11808277Y-11009031D02*
X11817801Y-10999508D01*
X11817801Y-10999508D02*
X11836848Y-10989984D01*
X11970182Y-10989984D02*
X12093991Y-10989984D01*
X12093991Y-10989984D02*
X12027325Y-11066174D01*
X12027325Y-11066174D02*
X12055896Y-11066174D01*
X12055896Y-11066174D02*
X12074944Y-11075698D01*
X12074944Y-11075698D02*
X12084467Y-11085222D01*
X12084467Y-11085222D02*
X12093991Y-11104270D01*
X12093991Y-11104270D02*
X12093991Y-11151889D01*
X12093991Y-11151889D02*
X12084467Y-11170936D01*
X12084467Y-11170936D02*
X12074944Y-11180460D01*
X12074944Y-11180460D02*
X12055896Y-11189984D01*
X12055896Y-11189984D02*
X11998753Y-11189984D01*
X11998753Y-11189984D02*
X11979706Y-11180460D01*
X11979706Y-11180460D02*
X11970182Y-11170936D01*
X12284467Y-11189984D02*
X12170182Y-11189984D01*
X12227325Y-11189984D02*
X12227325Y-10989984D01*
X12227325Y-10989984D02*
X12208277Y-11018555D01*
X12208277Y-11018555D02*
X12189229Y-11037603D01*
X12189229Y-11037603D02*
X12170182Y-11047127D01*
X12465420Y-10989984D02*
X12370182Y-10989984D01*
X12370182Y-10989984D02*
X12360658Y-11085222D01*
X12360658Y-11085222D02*
X12370182Y-11075698D01*
X12370182Y-11075698D02*
X12389229Y-11066174D01*
X12389229Y-11066174D02*
X12436848Y-11066174D01*
X12436848Y-11066174D02*
X12455896Y-11075698D01*
X12455896Y-11075698D02*
X12465420Y-11085222D01*
X12465420Y-11085222D02*
X12474944Y-11104270D01*
X12474944Y-11104270D02*
X12474944Y-11151889D01*
X12474944Y-11151889D02*
X12465420Y-11170936D01*
X12465420Y-11170936D02*
X12455896Y-11180460D01*
X12455896Y-11180460D02*
X12436848Y-11189984D01*
X12436848Y-11189984D02*
X12389229Y-11189984D01*
X12389229Y-11189984D02*
X12370182Y-11180460D01*
X12370182Y-11180460D02*
X12360658Y-11170936D01*
X12551134Y-10989984D02*
X12551134Y-11028079D01*
X12627325Y-10989984D02*
X12627325Y-11028079D01*
X12922563Y-11266174D02*
X12913039Y-11256650D01*
X12913039Y-11256650D02*
X12893991Y-11228079D01*
X12893991Y-11228079D02*
X12884468Y-11209031D01*
X12884468Y-11209031D02*
X12874944Y-11180460D01*
X12874944Y-11180460D02*
X12865420Y-11132841D01*
X12865420Y-11132841D02*
X12865420Y-11094746D01*
X12865420Y-11094746D02*
X12874944Y-11047127D01*
X12874944Y-11047127D02*
X12884468Y-11018555D01*
X12884468Y-11018555D02*
X12893991Y-10999508D01*
X12893991Y-10999508D02*
X12913039Y-10970936D01*
X12913039Y-10970936D02*
X12922563Y-10961412D01*
X13084468Y-10989984D02*
X13046372Y-10989984D01*
X13046372Y-10989984D02*
X13027325Y-10999508D01*
X13027325Y-10999508D02*
X13017801Y-11009031D01*
X13017801Y-11009031D02*
X12998753Y-11037603D01*
X12998753Y-11037603D02*
X12989229Y-11075698D01*
X12989229Y-11075698D02*
X12989229Y-11151889D01*
X12989229Y-11151889D02*
X12998753Y-11170936D01*
X12998753Y-11170936D02*
X13008277Y-11180460D01*
X13008277Y-11180460D02*
X13027325Y-11189984D01*
X13027325Y-11189984D02*
X13065420Y-11189984D01*
X13065420Y-11189984D02*
X13084468Y-11180460D01*
X13084468Y-11180460D02*
X13093991Y-11170936D01*
X13093991Y-11170936D02*
X13103515Y-11151889D01*
X13103515Y-11151889D02*
X13103515Y-11104270D01*
X13103515Y-11104270D02*
X13093991Y-11085222D01*
X13093991Y-11085222D02*
X13084468Y-11075698D01*
X13084468Y-11075698D02*
X13065420Y-11066174D01*
X13065420Y-11066174D02*
X13027325Y-11066174D01*
X13027325Y-11066174D02*
X13008277Y-11075698D01*
X13008277Y-11075698D02*
X12998753Y-11085222D01*
X12998753Y-11085222D02*
X12989229Y-11104270D01*
X13341610Y-11189984D02*
X13341610Y-10989984D01*
X13427325Y-11189984D02*
X13427325Y-11085222D01*
X13427325Y-11085222D02*
X13417801Y-11066174D01*
X13417801Y-11066174D02*
X13398753Y-11056650D01*
X13398753Y-11056650D02*
X13370182Y-11056650D01*
X13370182Y-11056650D02*
X13351134Y-11066174D01*
X13351134Y-11066174D02*
X13341610Y-11075698D01*
X13551134Y-11189984D02*
X13532087Y-11180460D01*
X13532087Y-11180460D02*
X13522563Y-11170936D01*
X13522563Y-11170936D02*
X13513039Y-11151889D01*
X13513039Y-11151889D02*
X13513039Y-11094746D01*
X13513039Y-11094746D02*
X13522563Y-11075698D01*
X13522563Y-11075698D02*
X13532087Y-11066174D01*
X13532087Y-11066174D02*
X13551134Y-11056650D01*
X13551134Y-11056650D02*
X13579706Y-11056650D01*
X13579706Y-11056650D02*
X13598753Y-11066174D01*
X13598753Y-11066174D02*
X13608277Y-11075698D01*
X13608277Y-11075698D02*
X13617801Y-11094746D01*
X13617801Y-11094746D02*
X13617801Y-11151889D01*
X13617801Y-11151889D02*
X13608277Y-11170936D01*
X13608277Y-11170936D02*
X13598753Y-11180460D01*
X13598753Y-11180460D02*
X13579706Y-11189984D01*
X13579706Y-11189984D02*
X13551134Y-11189984D01*
X13732087Y-11189984D02*
X13713039Y-11180460D01*
X13713039Y-11180460D02*
X13703515Y-11161412D01*
X13703515Y-11161412D02*
X13703515Y-10989984D01*
X13884468Y-11180460D02*
X13865420Y-11189984D01*
X13865420Y-11189984D02*
X13827325Y-11189984D01*
X13827325Y-11189984D02*
X13808277Y-11180460D01*
X13808277Y-11180460D02*
X13798753Y-11161412D01*
X13798753Y-11161412D02*
X13798753Y-11085222D01*
X13798753Y-11085222D02*
X13808277Y-11066174D01*
X13808277Y-11066174D02*
X13827325Y-11056650D01*
X13827325Y-11056650D02*
X13865420Y-11056650D01*
X13865420Y-11056650D02*
X13884468Y-11066174D01*
X13884468Y-11066174D02*
X13893991Y-11085222D01*
X13893991Y-11085222D02*
X13893991Y-11104270D01*
X13893991Y-11104270D02*
X13798753Y-11123317D01*
X13970182Y-11180460D02*
X13989230Y-11189984D01*
X13989230Y-11189984D02*
X14027325Y-11189984D01*
X14027325Y-11189984D02*
X14046372Y-11180460D01*
X14046372Y-11180460D02*
X14055896Y-11161412D01*
X14055896Y-11161412D02*
X14055896Y-11151889D01*
X14055896Y-11151889D02*
X14046372Y-11132841D01*
X14046372Y-11132841D02*
X14027325Y-11123317D01*
X14027325Y-11123317D02*
X13998753Y-11123317D01*
X13998753Y-11123317D02*
X13979706Y-11113793D01*
X13979706Y-11113793D02*
X13970182Y-11094746D01*
X13970182Y-11094746D02*
X13970182Y-11085222D01*
X13970182Y-11085222D02*
X13979706Y-11066174D01*
X13979706Y-11066174D02*
X13998753Y-11056650D01*
X13998753Y-11056650D02*
X14027325Y-11056650D01*
X14027325Y-11056650D02*
X14046372Y-11066174D01*
X14122563Y-11266174D02*
X14132087Y-11256650D01*
X14132087Y-11256650D02*
X14151134Y-11228079D01*
X14151134Y-11228079D02*
X14160658Y-11209031D01*
X14160658Y-11209031D02*
X14170182Y-11180460D01*
X14170182Y-11180460D02*
X14179706Y-11132841D01*
X14179706Y-11132841D02*
X14179706Y-11094746D01*
X14179706Y-11094746D02*
X14170182Y-11047127D01*
X14170182Y-11047127D02*
X14160658Y-11018555D01*
X14160658Y-11018555D02*
X14151134Y-10999508D01*
X14151134Y-10999508D02*
X14132087Y-10970936D01*
X14132087Y-10970936D02*
X14122563Y-10961412D01*
D12*
X9252500Y-11315000D02*
X9347500Y-11410000D01*
X9347500Y-11315000D02*
X9252500Y-11410000D01*
X9347500Y-11362500D02*
G75*
G02*
X9252500Y-11362500I-47500J0D01*
G01*
X9252500Y-11362500D02*
G75*
G02*
X9347500Y-11362500I47500J0D01*
G01*
D11*
X9646372Y-11253984D02*
X9665420Y-11253984D01*
X9665420Y-11253984D02*
X9684467Y-11263508D01*
X9684467Y-11263508D02*
X9693991Y-11273031D01*
X9693991Y-11273031D02*
X9703515Y-11292079D01*
X9703515Y-11292079D02*
X9713039Y-11330174D01*
X9713039Y-11330174D02*
X9713039Y-11377793D01*
X9713039Y-11377793D02*
X9703515Y-11415888D01*
X9703515Y-11415888D02*
X9693991Y-11434936D01*
X9693991Y-11434936D02*
X9684467Y-11444460D01*
X9684467Y-11444460D02*
X9665420Y-11453984D01*
X9665420Y-11453984D02*
X9646372Y-11453984D01*
X9646372Y-11453984D02*
X9627324Y-11444460D01*
X9627324Y-11444460D02*
X9617801Y-11434936D01*
X9617801Y-11434936D02*
X9608277Y-11415888D01*
X9608277Y-11415888D02*
X9598753Y-11377793D01*
X9598753Y-11377793D02*
X9598753Y-11330174D01*
X9598753Y-11330174D02*
X9608277Y-11292079D01*
X9608277Y-11292079D02*
X9617801Y-11273031D01*
X9617801Y-11273031D02*
X9627324Y-11263508D01*
X9627324Y-11263508D02*
X9646372Y-11253984D01*
X9798753Y-11434936D02*
X9808277Y-11444460D01*
X9808277Y-11444460D02*
X9798753Y-11453984D01*
X9798753Y-11453984D02*
X9789229Y-11444460D01*
X9789229Y-11444460D02*
X9798753Y-11434936D01*
X9798753Y-11434936D02*
X9798753Y-11453984D01*
X9903515Y-11453984D02*
X9941610Y-11453984D01*
X9941610Y-11453984D02*
X9960658Y-11444460D01*
X9960658Y-11444460D02*
X9970182Y-11434936D01*
X9970182Y-11434936D02*
X9989229Y-11406365D01*
X9989229Y-11406365D02*
X9998753Y-11368269D01*
X9998753Y-11368269D02*
X9998753Y-11292079D01*
X9998753Y-11292079D02*
X9989229Y-11273031D01*
X9989229Y-11273031D02*
X9979705Y-11263508D01*
X9979705Y-11263508D02*
X9960658Y-11253984D01*
X9960658Y-11253984D02*
X9922563Y-11253984D01*
X9922563Y-11253984D02*
X9903515Y-11263508D01*
X9903515Y-11263508D02*
X9893991Y-11273031D01*
X9893991Y-11273031D02*
X9884467Y-11292079D01*
X9884467Y-11292079D02*
X9884467Y-11339698D01*
X9884467Y-11339698D02*
X9893991Y-11358746D01*
X9893991Y-11358746D02*
X9903515Y-11368269D01*
X9903515Y-11368269D02*
X9922563Y-11377793D01*
X9922563Y-11377793D02*
X9960658Y-11377793D01*
X9960658Y-11377793D02*
X9979705Y-11368269D01*
X9979705Y-11368269D02*
X9989229Y-11358746D01*
X9989229Y-11358746D02*
X9998753Y-11339698D01*
X10179705Y-11253984D02*
X10084467Y-11253984D01*
X10084467Y-11253984D02*
X10074944Y-11349222D01*
X10074944Y-11349222D02*
X10084467Y-11339698D01*
X10084467Y-11339698D02*
X10103515Y-11330174D01*
X10103515Y-11330174D02*
X10151134Y-11330174D01*
X10151134Y-11330174D02*
X10170182Y-11339698D01*
X10170182Y-11339698D02*
X10179705Y-11349222D01*
X10179705Y-11349222D02*
X10189229Y-11368269D01*
X10189229Y-11368269D02*
X10189229Y-11415888D01*
X10189229Y-11415888D02*
X10179705Y-11434936D01*
X10179705Y-11434936D02*
X10170182Y-11444460D01*
X10170182Y-11444460D02*
X10151134Y-11453984D01*
X10151134Y-11453984D02*
X10103515Y-11453984D01*
X10103515Y-11453984D02*
X10084467Y-11444460D01*
X10084467Y-11444460D02*
X10074944Y-11434936D01*
X10313039Y-11253984D02*
X10332086Y-11253984D01*
X10332086Y-11253984D02*
X10351134Y-11263508D01*
X10351134Y-11263508D02*
X10360658Y-11273031D01*
X10360658Y-11273031D02*
X10370182Y-11292079D01*
X10370182Y-11292079D02*
X10379705Y-11330174D01*
X10379705Y-11330174D02*
X10379705Y-11377793D01*
X10379705Y-11377793D02*
X10370182Y-11415888D01*
X10370182Y-11415888D02*
X10360658Y-11434936D01*
X10360658Y-11434936D02*
X10351134Y-11444460D01*
X10351134Y-11444460D02*
X10332086Y-11453984D01*
X10332086Y-11453984D02*
X10313039Y-11453984D01*
X10313039Y-11453984D02*
X10293991Y-11444460D01*
X10293991Y-11444460D02*
X10284467Y-11434936D01*
X10284467Y-11434936D02*
X10274944Y-11415888D01*
X10274944Y-11415888D02*
X10265420Y-11377793D01*
X10265420Y-11377793D02*
X10265420Y-11330174D01*
X10265420Y-11330174D02*
X10274944Y-11292079D01*
X10274944Y-11292079D02*
X10284467Y-11273031D01*
X10284467Y-11273031D02*
X10293991Y-11263508D01*
X10293991Y-11263508D02*
X10313039Y-11253984D01*
X10465420Y-11453984D02*
X10465420Y-11320650D01*
X10465420Y-11339698D02*
X10474944Y-11330174D01*
X10474944Y-11330174D02*
X10493991Y-11320650D01*
X10493991Y-11320650D02*
X10522563Y-11320650D01*
X10522563Y-11320650D02*
X10541610Y-11330174D01*
X10541610Y-11330174D02*
X10551134Y-11349222D01*
X10551134Y-11349222D02*
X10551134Y-11453984D01*
X10551134Y-11349222D02*
X10560658Y-11330174D01*
X10560658Y-11330174D02*
X10579705Y-11320650D01*
X10579705Y-11320650D02*
X10608277Y-11320650D01*
X10608277Y-11320650D02*
X10627325Y-11330174D01*
X10627325Y-11330174D02*
X10636848Y-11349222D01*
X10636848Y-11349222D02*
X10636848Y-11453984D01*
X10732086Y-11453984D02*
X10732086Y-11320650D01*
X10732086Y-11339698D02*
X10741610Y-11330174D01*
X10741610Y-11330174D02*
X10760658Y-11320650D01*
X10760658Y-11320650D02*
X10789229Y-11320650D01*
X10789229Y-11320650D02*
X10808277Y-11330174D01*
X10808277Y-11330174D02*
X10817801Y-11349222D01*
X10817801Y-11349222D02*
X10817801Y-11453984D01*
X10817801Y-11349222D02*
X10827325Y-11330174D01*
X10827325Y-11330174D02*
X10846372Y-11320650D01*
X10846372Y-11320650D02*
X10874944Y-11320650D01*
X10874944Y-11320650D02*
X10893991Y-11330174D01*
X10893991Y-11330174D02*
X10903515Y-11349222D01*
X10903515Y-11349222D02*
X10903515Y-11453984D01*
X11293991Y-11244460D02*
X11122563Y-11501603D01*
X11551134Y-11253984D02*
X11570182Y-11253984D01*
X11570182Y-11253984D02*
X11589229Y-11263508D01*
X11589229Y-11263508D02*
X11598753Y-11273031D01*
X11598753Y-11273031D02*
X11608277Y-11292079D01*
X11608277Y-11292079D02*
X11617801Y-11330174D01*
X11617801Y-11330174D02*
X11617801Y-11377793D01*
X11617801Y-11377793D02*
X11608277Y-11415888D01*
X11608277Y-11415888D02*
X11598753Y-11434936D01*
X11598753Y-11434936D02*
X11589229Y-11444460D01*
X11589229Y-11444460D02*
X11570182Y-11453984D01*
X11570182Y-11453984D02*
X11551134Y-11453984D01*
X11551134Y-11453984D02*
X11532086Y-11444460D01*
X11532086Y-11444460D02*
X11522563Y-11434936D01*
X11522563Y-11434936D02*
X11513039Y-11415888D01*
X11513039Y-11415888D02*
X11503515Y-11377793D01*
X11503515Y-11377793D02*
X11503515Y-11330174D01*
X11503515Y-11330174D02*
X11513039Y-11292079D01*
X11513039Y-11292079D02*
X11522563Y-11273031D01*
X11522563Y-11273031D02*
X11532086Y-11263508D01*
X11532086Y-11263508D02*
X11551134Y-11253984D01*
X11703515Y-11434936D02*
X11713039Y-11444460D01*
X11713039Y-11444460D02*
X11703515Y-11453984D01*
X11703515Y-11453984D02*
X11693991Y-11444460D01*
X11693991Y-11444460D02*
X11703515Y-11434936D01*
X11703515Y-11434936D02*
X11703515Y-11453984D01*
X11836848Y-11253984D02*
X11855896Y-11253984D01*
X11855896Y-11253984D02*
X11874944Y-11263508D01*
X11874944Y-11263508D02*
X11884467Y-11273031D01*
X11884467Y-11273031D02*
X11893991Y-11292079D01*
X11893991Y-11292079D02*
X11903515Y-11330174D01*
X11903515Y-11330174D02*
X11903515Y-11377793D01*
X11903515Y-11377793D02*
X11893991Y-11415888D01*
X11893991Y-11415888D02*
X11884467Y-11434936D01*
X11884467Y-11434936D02*
X11874944Y-11444460D01*
X11874944Y-11444460D02*
X11855896Y-11453984D01*
X11855896Y-11453984D02*
X11836848Y-11453984D01*
X11836848Y-11453984D02*
X11817801Y-11444460D01*
X11817801Y-11444460D02*
X11808277Y-11434936D01*
X11808277Y-11434936D02*
X11798753Y-11415888D01*
X11798753Y-11415888D02*
X11789229Y-11377793D01*
X11789229Y-11377793D02*
X11789229Y-11330174D01*
X11789229Y-11330174D02*
X11798753Y-11292079D01*
X11798753Y-11292079D02*
X11808277Y-11273031D01*
X11808277Y-11273031D02*
X11817801Y-11263508D01*
X11817801Y-11263508D02*
X11836848Y-11253984D01*
X11970182Y-11253984D02*
X12093991Y-11253984D01*
X12093991Y-11253984D02*
X12027325Y-11330174D01*
X12027325Y-11330174D02*
X12055896Y-11330174D01*
X12055896Y-11330174D02*
X12074944Y-11339698D01*
X12074944Y-11339698D02*
X12084467Y-11349222D01*
X12084467Y-11349222D02*
X12093991Y-11368269D01*
X12093991Y-11368269D02*
X12093991Y-11415888D01*
X12093991Y-11415888D02*
X12084467Y-11434936D01*
X12084467Y-11434936D02*
X12074944Y-11444460D01*
X12074944Y-11444460D02*
X12055896Y-11453984D01*
X12055896Y-11453984D02*
X11998753Y-11453984D01*
X11998753Y-11453984D02*
X11979706Y-11444460D01*
X11979706Y-11444460D02*
X11970182Y-11434936D01*
X12160658Y-11253984D02*
X12293991Y-11253984D01*
X12293991Y-11253984D02*
X12208277Y-11453984D01*
X12455896Y-11320650D02*
X12455896Y-11453984D01*
X12408277Y-11244460D02*
X12360658Y-11387317D01*
X12360658Y-11387317D02*
X12484467Y-11387317D01*
X12551134Y-11253984D02*
X12551134Y-11292079D01*
X12627325Y-11253984D02*
X12627325Y-11292079D01*
X12922563Y-11530174D02*
X12913039Y-11520650D01*
X12913039Y-11520650D02*
X12893991Y-11492079D01*
X12893991Y-11492079D02*
X12884468Y-11473031D01*
X12884468Y-11473031D02*
X12874944Y-11444460D01*
X12874944Y-11444460D02*
X12865420Y-11396841D01*
X12865420Y-11396841D02*
X12865420Y-11358746D01*
X12865420Y-11358746D02*
X12874944Y-11311127D01*
X12874944Y-11311127D02*
X12884468Y-11282555D01*
X12884468Y-11282555D02*
X12893991Y-11263508D01*
X12893991Y-11263508D02*
X12913039Y-11234936D01*
X12913039Y-11234936D02*
X12922563Y-11225412D01*
X12989229Y-11273031D02*
X12998753Y-11263508D01*
X12998753Y-11263508D02*
X13017801Y-11253984D01*
X13017801Y-11253984D02*
X13065420Y-11253984D01*
X13065420Y-11253984D02*
X13084468Y-11263508D01*
X13084468Y-11263508D02*
X13093991Y-11273031D01*
X13093991Y-11273031D02*
X13103515Y-11292079D01*
X13103515Y-11292079D02*
X13103515Y-11311127D01*
X13103515Y-11311127D02*
X13093991Y-11339698D01*
X13093991Y-11339698D02*
X12979706Y-11453984D01*
X12979706Y-11453984D02*
X13103515Y-11453984D01*
X13341610Y-11453984D02*
X13341610Y-11253984D01*
X13427325Y-11453984D02*
X13427325Y-11349222D01*
X13427325Y-11349222D02*
X13417801Y-11330174D01*
X13417801Y-11330174D02*
X13398753Y-11320650D01*
X13398753Y-11320650D02*
X13370182Y-11320650D01*
X13370182Y-11320650D02*
X13351134Y-11330174D01*
X13351134Y-11330174D02*
X13341610Y-11339698D01*
X13551134Y-11453984D02*
X13532087Y-11444460D01*
X13532087Y-11444460D02*
X13522563Y-11434936D01*
X13522563Y-11434936D02*
X13513039Y-11415888D01*
X13513039Y-11415888D02*
X13513039Y-11358746D01*
X13513039Y-11358746D02*
X13522563Y-11339698D01*
X13522563Y-11339698D02*
X13532087Y-11330174D01*
X13532087Y-11330174D02*
X13551134Y-11320650D01*
X13551134Y-11320650D02*
X13579706Y-11320650D01*
X13579706Y-11320650D02*
X13598753Y-11330174D01*
X13598753Y-11330174D02*
X13608277Y-11339698D01*
X13608277Y-11339698D02*
X13617801Y-11358746D01*
X13617801Y-11358746D02*
X13617801Y-11415888D01*
X13617801Y-11415888D02*
X13608277Y-11434936D01*
X13608277Y-11434936D02*
X13598753Y-11444460D01*
X13598753Y-11444460D02*
X13579706Y-11453984D01*
X13579706Y-11453984D02*
X13551134Y-11453984D01*
X13732087Y-11453984D02*
X13713039Y-11444460D01*
X13713039Y-11444460D02*
X13703515Y-11425412D01*
X13703515Y-11425412D02*
X13703515Y-11253984D01*
X13884468Y-11444460D02*
X13865420Y-11453984D01*
X13865420Y-11453984D02*
X13827325Y-11453984D01*
X13827325Y-11453984D02*
X13808277Y-11444460D01*
X13808277Y-11444460D02*
X13798753Y-11425412D01*
X13798753Y-11425412D02*
X13798753Y-11349222D01*
X13798753Y-11349222D02*
X13808277Y-11330174D01*
X13808277Y-11330174D02*
X13827325Y-11320650D01*
X13827325Y-11320650D02*
X13865420Y-11320650D01*
X13865420Y-11320650D02*
X13884468Y-11330174D01*
X13884468Y-11330174D02*
X13893991Y-11349222D01*
X13893991Y-11349222D02*
X13893991Y-11368269D01*
X13893991Y-11368269D02*
X13798753Y-11387317D01*
X13970182Y-11444460D02*
X13989230Y-11453984D01*
X13989230Y-11453984D02*
X14027325Y-11453984D01*
X14027325Y-11453984D02*
X14046372Y-11444460D01*
X14046372Y-11444460D02*
X14055896Y-11425412D01*
X14055896Y-11425412D02*
X14055896Y-11415888D01*
X14055896Y-11415888D02*
X14046372Y-11396841D01*
X14046372Y-11396841D02*
X14027325Y-11387317D01*
X14027325Y-11387317D02*
X13998753Y-11387317D01*
X13998753Y-11387317D02*
X13979706Y-11377793D01*
X13979706Y-11377793D02*
X13970182Y-11358746D01*
X13970182Y-11358746D02*
X13970182Y-11349222D01*
X13970182Y-11349222D02*
X13979706Y-11330174D01*
X13979706Y-11330174D02*
X13998753Y-11320650D01*
X13998753Y-11320650D02*
X14027325Y-11320650D01*
X14027325Y-11320650D02*
X14046372Y-11330174D01*
X14122563Y-11530174D02*
X14132087Y-11520650D01*
X14132087Y-11520650D02*
X14151134Y-11492079D01*
X14151134Y-11492079D02*
X14160658Y-11473031D01*
X14160658Y-11473031D02*
X14170182Y-11444460D01*
X14170182Y-11444460D02*
X14179706Y-11396841D01*
X14179706Y-11396841D02*
X14179706Y-11358746D01*
X14179706Y-11358746D02*
X14170182Y-11311127D01*
X14170182Y-11311127D02*
X14160658Y-11282555D01*
X14160658Y-11282555D02*
X14151134Y-11263508D01*
X14151134Y-11263508D02*
X14132087Y-11234936D01*
X14132087Y-11234936D02*
X14122563Y-11225412D01*
D12*
X9247500Y-11576500D02*
X9347500Y-11676500D01*
X9347500Y-11576500D02*
X9247500Y-11676500D01*
X9297500Y-11576500D02*
X9297500Y-11676500D01*
X9247500Y-11626500D02*
X9347500Y-11626500D01*
D11*
X9713039Y-11717984D02*
X9598753Y-11717984D01*
X9655896Y-11717984D02*
X9655896Y-11517984D01*
X9655896Y-11517984D02*
X9636848Y-11546555D01*
X9636848Y-11546555D02*
X9617801Y-11565603D01*
X9617801Y-11565603D02*
X9598753Y-11575127D01*
X9798753Y-11698936D02*
X9808277Y-11708460D01*
X9808277Y-11708460D02*
X9798753Y-11717984D01*
X9798753Y-11717984D02*
X9789229Y-11708460D01*
X9789229Y-11708460D02*
X9798753Y-11698936D01*
X9798753Y-11698936D02*
X9798753Y-11717984D01*
X9932086Y-11517984D02*
X9951134Y-11517984D01*
X9951134Y-11517984D02*
X9970182Y-11527508D01*
X9970182Y-11527508D02*
X9979705Y-11537031D01*
X9979705Y-11537031D02*
X9989229Y-11556079D01*
X9989229Y-11556079D02*
X9998753Y-11594174D01*
X9998753Y-11594174D02*
X9998753Y-11641793D01*
X9998753Y-11641793D02*
X9989229Y-11679888D01*
X9989229Y-11679888D02*
X9979705Y-11698936D01*
X9979705Y-11698936D02*
X9970182Y-11708460D01*
X9970182Y-11708460D02*
X9951134Y-11717984D01*
X9951134Y-11717984D02*
X9932086Y-11717984D01*
X9932086Y-11717984D02*
X9913039Y-11708460D01*
X9913039Y-11708460D02*
X9903515Y-11698936D01*
X9903515Y-11698936D02*
X9893991Y-11679888D01*
X9893991Y-11679888D02*
X9884467Y-11641793D01*
X9884467Y-11641793D02*
X9884467Y-11594174D01*
X9884467Y-11594174D02*
X9893991Y-11556079D01*
X9893991Y-11556079D02*
X9903515Y-11537031D01*
X9903515Y-11537031D02*
X9913039Y-11527508D01*
X9913039Y-11527508D02*
X9932086Y-11517984D01*
X10122563Y-11517984D02*
X10141610Y-11517984D01*
X10141610Y-11517984D02*
X10160658Y-11527508D01*
X10160658Y-11527508D02*
X10170182Y-11537031D01*
X10170182Y-11537031D02*
X10179705Y-11556079D01*
X10179705Y-11556079D02*
X10189229Y-11594174D01*
X10189229Y-11594174D02*
X10189229Y-11641793D01*
X10189229Y-11641793D02*
X10179705Y-11679888D01*
X10179705Y-11679888D02*
X10170182Y-11698936D01*
X10170182Y-11698936D02*
X10160658Y-11708460D01*
X10160658Y-11708460D02*
X10141610Y-11717984D01*
X10141610Y-11717984D02*
X10122563Y-11717984D01*
X10122563Y-11717984D02*
X10103515Y-11708460D01*
X10103515Y-11708460D02*
X10093991Y-11698936D01*
X10093991Y-11698936D02*
X10084467Y-11679888D01*
X10084467Y-11679888D02*
X10074944Y-11641793D01*
X10074944Y-11641793D02*
X10074944Y-11594174D01*
X10074944Y-11594174D02*
X10084467Y-11556079D01*
X10084467Y-11556079D02*
X10093991Y-11537031D01*
X10093991Y-11537031D02*
X10103515Y-11527508D01*
X10103515Y-11527508D02*
X10122563Y-11517984D01*
X10313039Y-11517984D02*
X10332086Y-11517984D01*
X10332086Y-11517984D02*
X10351134Y-11527508D01*
X10351134Y-11527508D02*
X10360658Y-11537031D01*
X10360658Y-11537031D02*
X10370182Y-11556079D01*
X10370182Y-11556079D02*
X10379705Y-11594174D01*
X10379705Y-11594174D02*
X10379705Y-11641793D01*
X10379705Y-11641793D02*
X10370182Y-11679888D01*
X10370182Y-11679888D02*
X10360658Y-11698936D01*
X10360658Y-11698936D02*
X10351134Y-11708460D01*
X10351134Y-11708460D02*
X10332086Y-11717984D01*
X10332086Y-11717984D02*
X10313039Y-11717984D01*
X10313039Y-11717984D02*
X10293991Y-11708460D01*
X10293991Y-11708460D02*
X10284467Y-11698936D01*
X10284467Y-11698936D02*
X10274944Y-11679888D01*
X10274944Y-11679888D02*
X10265420Y-11641793D01*
X10265420Y-11641793D02*
X10265420Y-11594174D01*
X10265420Y-11594174D02*
X10274944Y-11556079D01*
X10274944Y-11556079D02*
X10284467Y-11537031D01*
X10284467Y-11537031D02*
X10293991Y-11527508D01*
X10293991Y-11527508D02*
X10313039Y-11517984D01*
X10465420Y-11717984D02*
X10465420Y-11584650D01*
X10465420Y-11603698D02*
X10474944Y-11594174D01*
X10474944Y-11594174D02*
X10493991Y-11584650D01*
X10493991Y-11584650D02*
X10522563Y-11584650D01*
X10522563Y-11584650D02*
X10541610Y-11594174D01*
X10541610Y-11594174D02*
X10551134Y-11613222D01*
X10551134Y-11613222D02*
X10551134Y-11717984D01*
X10551134Y-11613222D02*
X10560658Y-11594174D01*
X10560658Y-11594174D02*
X10579705Y-11584650D01*
X10579705Y-11584650D02*
X10608277Y-11584650D01*
X10608277Y-11584650D02*
X10627325Y-11594174D01*
X10627325Y-11594174D02*
X10636848Y-11613222D01*
X10636848Y-11613222D02*
X10636848Y-11717984D01*
X10732086Y-11717984D02*
X10732086Y-11584650D01*
X10732086Y-11603698D02*
X10741610Y-11594174D01*
X10741610Y-11594174D02*
X10760658Y-11584650D01*
X10760658Y-11584650D02*
X10789229Y-11584650D01*
X10789229Y-11584650D02*
X10808277Y-11594174D01*
X10808277Y-11594174D02*
X10817801Y-11613222D01*
X10817801Y-11613222D02*
X10817801Y-11717984D01*
X10817801Y-11613222D02*
X10827325Y-11594174D01*
X10827325Y-11594174D02*
X10846372Y-11584650D01*
X10846372Y-11584650D02*
X10874944Y-11584650D01*
X10874944Y-11584650D02*
X10893991Y-11594174D01*
X10893991Y-11594174D02*
X10903515Y-11613222D01*
X10903515Y-11613222D02*
X10903515Y-11717984D01*
X11293991Y-11508460D02*
X11122563Y-11765603D01*
X11551134Y-11517984D02*
X11570182Y-11517984D01*
X11570182Y-11517984D02*
X11589229Y-11527508D01*
X11589229Y-11527508D02*
X11598753Y-11537031D01*
X11598753Y-11537031D02*
X11608277Y-11556079D01*
X11608277Y-11556079D02*
X11617801Y-11594174D01*
X11617801Y-11594174D02*
X11617801Y-11641793D01*
X11617801Y-11641793D02*
X11608277Y-11679888D01*
X11608277Y-11679888D02*
X11598753Y-11698936D01*
X11598753Y-11698936D02*
X11589229Y-11708460D01*
X11589229Y-11708460D02*
X11570182Y-11717984D01*
X11570182Y-11717984D02*
X11551134Y-11717984D01*
X11551134Y-11717984D02*
X11532086Y-11708460D01*
X11532086Y-11708460D02*
X11522563Y-11698936D01*
X11522563Y-11698936D02*
X11513039Y-11679888D01*
X11513039Y-11679888D02*
X11503515Y-11641793D01*
X11503515Y-11641793D02*
X11503515Y-11594174D01*
X11503515Y-11594174D02*
X11513039Y-11556079D01*
X11513039Y-11556079D02*
X11522563Y-11537031D01*
X11522563Y-11537031D02*
X11532086Y-11527508D01*
X11532086Y-11527508D02*
X11551134Y-11517984D01*
X11703515Y-11698936D02*
X11713039Y-11708460D01*
X11713039Y-11708460D02*
X11703515Y-11717984D01*
X11703515Y-11717984D02*
X11693991Y-11708460D01*
X11693991Y-11708460D02*
X11703515Y-11698936D01*
X11703515Y-11698936D02*
X11703515Y-11717984D01*
X11836848Y-11517984D02*
X11855896Y-11517984D01*
X11855896Y-11517984D02*
X11874944Y-11527508D01*
X11874944Y-11527508D02*
X11884467Y-11537031D01*
X11884467Y-11537031D02*
X11893991Y-11556079D01*
X11893991Y-11556079D02*
X11903515Y-11594174D01*
X11903515Y-11594174D02*
X11903515Y-11641793D01*
X11903515Y-11641793D02*
X11893991Y-11679888D01*
X11893991Y-11679888D02*
X11884467Y-11698936D01*
X11884467Y-11698936D02*
X11874944Y-11708460D01*
X11874944Y-11708460D02*
X11855896Y-11717984D01*
X11855896Y-11717984D02*
X11836848Y-11717984D01*
X11836848Y-11717984D02*
X11817801Y-11708460D01*
X11817801Y-11708460D02*
X11808277Y-11698936D01*
X11808277Y-11698936D02*
X11798753Y-11679888D01*
X11798753Y-11679888D02*
X11789229Y-11641793D01*
X11789229Y-11641793D02*
X11789229Y-11594174D01*
X11789229Y-11594174D02*
X11798753Y-11556079D01*
X11798753Y-11556079D02*
X11808277Y-11537031D01*
X11808277Y-11537031D02*
X11817801Y-11527508D01*
X11817801Y-11527508D02*
X11836848Y-11517984D01*
X11970182Y-11517984D02*
X12093991Y-11517984D01*
X12093991Y-11517984D02*
X12027325Y-11594174D01*
X12027325Y-11594174D02*
X12055896Y-11594174D01*
X12055896Y-11594174D02*
X12074944Y-11603698D01*
X12074944Y-11603698D02*
X12084467Y-11613222D01*
X12084467Y-11613222D02*
X12093991Y-11632269D01*
X12093991Y-11632269D02*
X12093991Y-11679888D01*
X12093991Y-11679888D02*
X12084467Y-11698936D01*
X12084467Y-11698936D02*
X12074944Y-11708460D01*
X12074944Y-11708460D02*
X12055896Y-11717984D01*
X12055896Y-11717984D02*
X11998753Y-11717984D01*
X11998753Y-11717984D02*
X11979706Y-11708460D01*
X11979706Y-11708460D02*
X11970182Y-11698936D01*
X12189229Y-11717984D02*
X12227325Y-11717984D01*
X12227325Y-11717984D02*
X12246372Y-11708460D01*
X12246372Y-11708460D02*
X12255896Y-11698936D01*
X12255896Y-11698936D02*
X12274944Y-11670365D01*
X12274944Y-11670365D02*
X12284467Y-11632269D01*
X12284467Y-11632269D02*
X12284467Y-11556079D01*
X12284467Y-11556079D02*
X12274944Y-11537031D01*
X12274944Y-11537031D02*
X12265420Y-11527508D01*
X12265420Y-11527508D02*
X12246372Y-11517984D01*
X12246372Y-11517984D02*
X12208277Y-11517984D01*
X12208277Y-11517984D02*
X12189229Y-11527508D01*
X12189229Y-11527508D02*
X12179706Y-11537031D01*
X12179706Y-11537031D02*
X12170182Y-11556079D01*
X12170182Y-11556079D02*
X12170182Y-11603698D01*
X12170182Y-11603698D02*
X12179706Y-11622746D01*
X12179706Y-11622746D02*
X12189229Y-11632269D01*
X12189229Y-11632269D02*
X12208277Y-11641793D01*
X12208277Y-11641793D02*
X12246372Y-11641793D01*
X12246372Y-11641793D02*
X12265420Y-11632269D01*
X12265420Y-11632269D02*
X12274944Y-11622746D01*
X12274944Y-11622746D02*
X12284467Y-11603698D01*
X12455896Y-11584650D02*
X12455896Y-11717984D01*
X12408277Y-11508460D02*
X12360658Y-11651317D01*
X12360658Y-11651317D02*
X12484467Y-11651317D01*
X12551134Y-11517984D02*
X12551134Y-11556079D01*
X12627325Y-11517984D02*
X12627325Y-11556079D01*
X12922563Y-11794174D02*
X12913039Y-11784650D01*
X12913039Y-11784650D02*
X12893991Y-11756079D01*
X12893991Y-11756079D02*
X12884468Y-11737031D01*
X12884468Y-11737031D02*
X12874944Y-11708460D01*
X12874944Y-11708460D02*
X12865420Y-11660841D01*
X12865420Y-11660841D02*
X12865420Y-11622746D01*
X12865420Y-11622746D02*
X12874944Y-11575127D01*
X12874944Y-11575127D02*
X12884468Y-11546555D01*
X12884468Y-11546555D02*
X12893991Y-11527508D01*
X12893991Y-11527508D02*
X12913039Y-11498936D01*
X12913039Y-11498936D02*
X12922563Y-11489412D01*
X13103515Y-11717984D02*
X12989229Y-11717984D01*
X13046372Y-11717984D02*
X13046372Y-11517984D01*
X13046372Y-11517984D02*
X13027325Y-11546555D01*
X13027325Y-11546555D02*
X13008277Y-11565603D01*
X13008277Y-11565603D02*
X12989229Y-11575127D01*
X13341610Y-11717984D02*
X13341610Y-11517984D01*
X13427325Y-11717984D02*
X13427325Y-11613222D01*
X13427325Y-11613222D02*
X13417801Y-11594174D01*
X13417801Y-11594174D02*
X13398753Y-11584650D01*
X13398753Y-11584650D02*
X13370182Y-11584650D01*
X13370182Y-11584650D02*
X13351134Y-11594174D01*
X13351134Y-11594174D02*
X13341610Y-11603698D01*
X13551134Y-11717984D02*
X13532087Y-11708460D01*
X13532087Y-11708460D02*
X13522563Y-11698936D01*
X13522563Y-11698936D02*
X13513039Y-11679888D01*
X13513039Y-11679888D02*
X13513039Y-11622746D01*
X13513039Y-11622746D02*
X13522563Y-11603698D01*
X13522563Y-11603698D02*
X13532087Y-11594174D01*
X13532087Y-11594174D02*
X13551134Y-11584650D01*
X13551134Y-11584650D02*
X13579706Y-11584650D01*
X13579706Y-11584650D02*
X13598753Y-11594174D01*
X13598753Y-11594174D02*
X13608277Y-11603698D01*
X13608277Y-11603698D02*
X13617801Y-11622746D01*
X13617801Y-11622746D02*
X13617801Y-11679888D01*
X13617801Y-11679888D02*
X13608277Y-11698936D01*
X13608277Y-11698936D02*
X13598753Y-11708460D01*
X13598753Y-11708460D02*
X13579706Y-11717984D01*
X13579706Y-11717984D02*
X13551134Y-11717984D01*
X13732087Y-11717984D02*
X13713039Y-11708460D01*
X13713039Y-11708460D02*
X13703515Y-11689412D01*
X13703515Y-11689412D02*
X13703515Y-11517984D01*
X13884468Y-11708460D02*
X13865420Y-11717984D01*
X13865420Y-11717984D02*
X13827325Y-11717984D01*
X13827325Y-11717984D02*
X13808277Y-11708460D01*
X13808277Y-11708460D02*
X13798753Y-11689412D01*
X13798753Y-11689412D02*
X13798753Y-11613222D01*
X13798753Y-11613222D02*
X13808277Y-11594174D01*
X13808277Y-11594174D02*
X13827325Y-11584650D01*
X13827325Y-11584650D02*
X13865420Y-11584650D01*
X13865420Y-11584650D02*
X13884468Y-11594174D01*
X13884468Y-11594174D02*
X13893991Y-11613222D01*
X13893991Y-11613222D02*
X13893991Y-11632269D01*
X13893991Y-11632269D02*
X13798753Y-11651317D01*
X13960658Y-11794174D02*
X13970182Y-11784650D01*
X13970182Y-11784650D02*
X13989230Y-11756079D01*
X13989230Y-11756079D02*
X13998753Y-11737031D01*
X13998753Y-11737031D02*
X14008277Y-11708460D01*
X14008277Y-11708460D02*
X14017801Y-11660841D01*
X14017801Y-11660841D02*
X14017801Y-11622746D01*
X14017801Y-11622746D02*
X14008277Y-11575127D01*
X14008277Y-11575127D02*
X13998753Y-11546555D01*
X13998753Y-11546555D02*
X13989230Y-11527508D01*
X13989230Y-11527508D02*
X13970182Y-11498936D01*
X13970182Y-11498936D02*
X13960658Y-11489412D01*
D12*
X9247500Y-11840500D02*
X9347500Y-11940500D01*
X9347500Y-11840500D02*
X9247500Y-11940500D01*
X9332856Y-11925856D02*
X9332856Y-11855144D01*
X9262144Y-11855144D01*
X9262144Y-11925856D01*
X9332856Y-11925856D01*
D11*
X9713039Y-11981984D02*
X9598753Y-11981984D01*
X9655896Y-11981984D02*
X9655896Y-11781984D01*
X9655896Y-11781984D02*
X9636848Y-11810555D01*
X9636848Y-11810555D02*
X9617801Y-11829603D01*
X9617801Y-11829603D02*
X9598753Y-11839127D01*
X9798753Y-11962936D02*
X9808277Y-11972460D01*
X9808277Y-11972460D02*
X9798753Y-11981984D01*
X9798753Y-11981984D02*
X9789229Y-11972460D01*
X9789229Y-11972460D02*
X9798753Y-11962936D01*
X9798753Y-11962936D02*
X9798753Y-11981984D01*
X9932086Y-11781984D02*
X9951134Y-11781984D01*
X9951134Y-11781984D02*
X9970182Y-11791508D01*
X9970182Y-11791508D02*
X9979705Y-11801031D01*
X9979705Y-11801031D02*
X9989229Y-11820079D01*
X9989229Y-11820079D02*
X9998753Y-11858174D01*
X9998753Y-11858174D02*
X9998753Y-11905793D01*
X9998753Y-11905793D02*
X9989229Y-11943888D01*
X9989229Y-11943888D02*
X9979705Y-11962936D01*
X9979705Y-11962936D02*
X9970182Y-11972460D01*
X9970182Y-11972460D02*
X9951134Y-11981984D01*
X9951134Y-11981984D02*
X9932086Y-11981984D01*
X9932086Y-11981984D02*
X9913039Y-11972460D01*
X9913039Y-11972460D02*
X9903515Y-11962936D01*
X9903515Y-11962936D02*
X9893991Y-11943888D01*
X9893991Y-11943888D02*
X9884467Y-11905793D01*
X9884467Y-11905793D02*
X9884467Y-11858174D01*
X9884467Y-11858174D02*
X9893991Y-11820079D01*
X9893991Y-11820079D02*
X9903515Y-11801031D01*
X9903515Y-11801031D02*
X9913039Y-11791508D01*
X9913039Y-11791508D02*
X9932086Y-11781984D01*
X10122563Y-11781984D02*
X10141610Y-11781984D01*
X10141610Y-11781984D02*
X10160658Y-11791508D01*
X10160658Y-11791508D02*
X10170182Y-11801031D01*
X10170182Y-11801031D02*
X10179705Y-11820079D01*
X10179705Y-11820079D02*
X10189229Y-11858174D01*
X10189229Y-11858174D02*
X10189229Y-11905793D01*
X10189229Y-11905793D02*
X10179705Y-11943888D01*
X10179705Y-11943888D02*
X10170182Y-11962936D01*
X10170182Y-11962936D02*
X10160658Y-11972460D01*
X10160658Y-11972460D02*
X10141610Y-11981984D01*
X10141610Y-11981984D02*
X10122563Y-11981984D01*
X10122563Y-11981984D02*
X10103515Y-11972460D01*
X10103515Y-11972460D02*
X10093991Y-11962936D01*
X10093991Y-11962936D02*
X10084467Y-11943888D01*
X10084467Y-11943888D02*
X10074944Y-11905793D01*
X10074944Y-11905793D02*
X10074944Y-11858174D01*
X10074944Y-11858174D02*
X10084467Y-11820079D01*
X10084467Y-11820079D02*
X10093991Y-11801031D01*
X10093991Y-11801031D02*
X10103515Y-11791508D01*
X10103515Y-11791508D02*
X10122563Y-11781984D01*
X10313039Y-11781984D02*
X10332086Y-11781984D01*
X10332086Y-11781984D02*
X10351134Y-11791508D01*
X10351134Y-11791508D02*
X10360658Y-11801031D01*
X10360658Y-11801031D02*
X10370182Y-11820079D01*
X10370182Y-11820079D02*
X10379705Y-11858174D01*
X10379705Y-11858174D02*
X10379705Y-11905793D01*
X10379705Y-11905793D02*
X10370182Y-11943888D01*
X10370182Y-11943888D02*
X10360658Y-11962936D01*
X10360658Y-11962936D02*
X10351134Y-11972460D01*
X10351134Y-11972460D02*
X10332086Y-11981984D01*
X10332086Y-11981984D02*
X10313039Y-11981984D01*
X10313039Y-11981984D02*
X10293991Y-11972460D01*
X10293991Y-11972460D02*
X10284467Y-11962936D01*
X10284467Y-11962936D02*
X10274944Y-11943888D01*
X10274944Y-11943888D02*
X10265420Y-11905793D01*
X10265420Y-11905793D02*
X10265420Y-11858174D01*
X10265420Y-11858174D02*
X10274944Y-11820079D01*
X10274944Y-11820079D02*
X10284467Y-11801031D01*
X10284467Y-11801031D02*
X10293991Y-11791508D01*
X10293991Y-11791508D02*
X10313039Y-11781984D01*
X10465420Y-11981984D02*
X10465420Y-11848650D01*
X10465420Y-11867698D02*
X10474944Y-11858174D01*
X10474944Y-11858174D02*
X10493991Y-11848650D01*
X10493991Y-11848650D02*
X10522563Y-11848650D01*
X10522563Y-11848650D02*
X10541610Y-11858174D01*
X10541610Y-11858174D02*
X10551134Y-11877222D01*
X10551134Y-11877222D02*
X10551134Y-11981984D01*
X10551134Y-11877222D02*
X10560658Y-11858174D01*
X10560658Y-11858174D02*
X10579705Y-11848650D01*
X10579705Y-11848650D02*
X10608277Y-11848650D01*
X10608277Y-11848650D02*
X10627325Y-11858174D01*
X10627325Y-11858174D02*
X10636848Y-11877222D01*
X10636848Y-11877222D02*
X10636848Y-11981984D01*
X10732086Y-11981984D02*
X10732086Y-11848650D01*
X10732086Y-11867698D02*
X10741610Y-11858174D01*
X10741610Y-11858174D02*
X10760658Y-11848650D01*
X10760658Y-11848650D02*
X10789229Y-11848650D01*
X10789229Y-11848650D02*
X10808277Y-11858174D01*
X10808277Y-11858174D02*
X10817801Y-11877222D01*
X10817801Y-11877222D02*
X10817801Y-11981984D01*
X10817801Y-11877222D02*
X10827325Y-11858174D01*
X10827325Y-11858174D02*
X10846372Y-11848650D01*
X10846372Y-11848650D02*
X10874944Y-11848650D01*
X10874944Y-11848650D02*
X10893991Y-11858174D01*
X10893991Y-11858174D02*
X10903515Y-11877222D01*
X10903515Y-11877222D02*
X10903515Y-11981984D01*
X11293991Y-11772460D02*
X11122563Y-12029603D01*
X11551134Y-11781984D02*
X11570182Y-11781984D01*
X11570182Y-11781984D02*
X11589229Y-11791508D01*
X11589229Y-11791508D02*
X11598753Y-11801031D01*
X11598753Y-11801031D02*
X11608277Y-11820079D01*
X11608277Y-11820079D02*
X11617801Y-11858174D01*
X11617801Y-11858174D02*
X11617801Y-11905793D01*
X11617801Y-11905793D02*
X11608277Y-11943888D01*
X11608277Y-11943888D02*
X11598753Y-11962936D01*
X11598753Y-11962936D02*
X11589229Y-11972460D01*
X11589229Y-11972460D02*
X11570182Y-11981984D01*
X11570182Y-11981984D02*
X11551134Y-11981984D01*
X11551134Y-11981984D02*
X11532086Y-11972460D01*
X11532086Y-11972460D02*
X11522563Y-11962936D01*
X11522563Y-11962936D02*
X11513039Y-11943888D01*
X11513039Y-11943888D02*
X11503515Y-11905793D01*
X11503515Y-11905793D02*
X11503515Y-11858174D01*
X11503515Y-11858174D02*
X11513039Y-11820079D01*
X11513039Y-11820079D02*
X11522563Y-11801031D01*
X11522563Y-11801031D02*
X11532086Y-11791508D01*
X11532086Y-11791508D02*
X11551134Y-11781984D01*
X11703515Y-11962936D02*
X11713039Y-11972460D01*
X11713039Y-11972460D02*
X11703515Y-11981984D01*
X11703515Y-11981984D02*
X11693991Y-11972460D01*
X11693991Y-11972460D02*
X11703515Y-11962936D01*
X11703515Y-11962936D02*
X11703515Y-11981984D01*
X11836848Y-11781984D02*
X11855896Y-11781984D01*
X11855896Y-11781984D02*
X11874944Y-11791508D01*
X11874944Y-11791508D02*
X11884467Y-11801031D01*
X11884467Y-11801031D02*
X11893991Y-11820079D01*
X11893991Y-11820079D02*
X11903515Y-11858174D01*
X11903515Y-11858174D02*
X11903515Y-11905793D01*
X11903515Y-11905793D02*
X11893991Y-11943888D01*
X11893991Y-11943888D02*
X11884467Y-11962936D01*
X11884467Y-11962936D02*
X11874944Y-11972460D01*
X11874944Y-11972460D02*
X11855896Y-11981984D01*
X11855896Y-11981984D02*
X11836848Y-11981984D01*
X11836848Y-11981984D02*
X11817801Y-11972460D01*
X11817801Y-11972460D02*
X11808277Y-11962936D01*
X11808277Y-11962936D02*
X11798753Y-11943888D01*
X11798753Y-11943888D02*
X11789229Y-11905793D01*
X11789229Y-11905793D02*
X11789229Y-11858174D01*
X11789229Y-11858174D02*
X11798753Y-11820079D01*
X11798753Y-11820079D02*
X11808277Y-11801031D01*
X11808277Y-11801031D02*
X11817801Y-11791508D01*
X11817801Y-11791508D02*
X11836848Y-11781984D01*
X11970182Y-11781984D02*
X12093991Y-11781984D01*
X12093991Y-11781984D02*
X12027325Y-11858174D01*
X12027325Y-11858174D02*
X12055896Y-11858174D01*
X12055896Y-11858174D02*
X12074944Y-11867698D01*
X12074944Y-11867698D02*
X12084467Y-11877222D01*
X12084467Y-11877222D02*
X12093991Y-11896269D01*
X12093991Y-11896269D02*
X12093991Y-11943888D01*
X12093991Y-11943888D02*
X12084467Y-11962936D01*
X12084467Y-11962936D02*
X12074944Y-11972460D01*
X12074944Y-11972460D02*
X12055896Y-11981984D01*
X12055896Y-11981984D02*
X11998753Y-11981984D01*
X11998753Y-11981984D02*
X11979706Y-11972460D01*
X11979706Y-11972460D02*
X11970182Y-11962936D01*
X12189229Y-11981984D02*
X12227325Y-11981984D01*
X12227325Y-11981984D02*
X12246372Y-11972460D01*
X12246372Y-11972460D02*
X12255896Y-11962936D01*
X12255896Y-11962936D02*
X12274944Y-11934365D01*
X12274944Y-11934365D02*
X12284467Y-11896269D01*
X12284467Y-11896269D02*
X12284467Y-11820079D01*
X12284467Y-11820079D02*
X12274944Y-11801031D01*
X12274944Y-11801031D02*
X12265420Y-11791508D01*
X12265420Y-11791508D02*
X12246372Y-11781984D01*
X12246372Y-11781984D02*
X12208277Y-11781984D01*
X12208277Y-11781984D02*
X12189229Y-11791508D01*
X12189229Y-11791508D02*
X12179706Y-11801031D01*
X12179706Y-11801031D02*
X12170182Y-11820079D01*
X12170182Y-11820079D02*
X12170182Y-11867698D01*
X12170182Y-11867698D02*
X12179706Y-11886746D01*
X12179706Y-11886746D02*
X12189229Y-11896269D01*
X12189229Y-11896269D02*
X12208277Y-11905793D01*
X12208277Y-11905793D02*
X12246372Y-11905793D01*
X12246372Y-11905793D02*
X12265420Y-11896269D01*
X12265420Y-11896269D02*
X12274944Y-11886746D01*
X12274944Y-11886746D02*
X12284467Y-11867698D01*
X12455896Y-11848650D02*
X12455896Y-11981984D01*
X12408277Y-11772460D02*
X12360658Y-11915317D01*
X12360658Y-11915317D02*
X12484467Y-11915317D01*
X12551134Y-11781984D02*
X12551134Y-11820079D01*
X12627325Y-11781984D02*
X12627325Y-11820079D01*
X12922563Y-12058174D02*
X12913039Y-12048650D01*
X12913039Y-12048650D02*
X12893991Y-12020079D01*
X12893991Y-12020079D02*
X12884468Y-12001031D01*
X12884468Y-12001031D02*
X12874944Y-11972460D01*
X12874944Y-11972460D02*
X12865420Y-11924841D01*
X12865420Y-11924841D02*
X12865420Y-11886746D01*
X12865420Y-11886746D02*
X12874944Y-11839127D01*
X12874944Y-11839127D02*
X12884468Y-11810555D01*
X12884468Y-11810555D02*
X12893991Y-11791508D01*
X12893991Y-11791508D02*
X12913039Y-11762936D01*
X12913039Y-11762936D02*
X12922563Y-11753412D01*
X13103515Y-11981984D02*
X12989229Y-11981984D01*
X13046372Y-11981984D02*
X13046372Y-11781984D01*
X13046372Y-11781984D02*
X13027325Y-11810555D01*
X13027325Y-11810555D02*
X13008277Y-11829603D01*
X13008277Y-11829603D02*
X12989229Y-11839127D01*
X13284468Y-11781984D02*
X13189229Y-11781984D01*
X13189229Y-11781984D02*
X13179706Y-11877222D01*
X13179706Y-11877222D02*
X13189229Y-11867698D01*
X13189229Y-11867698D02*
X13208277Y-11858174D01*
X13208277Y-11858174D02*
X13255896Y-11858174D01*
X13255896Y-11858174D02*
X13274944Y-11867698D01*
X13274944Y-11867698D02*
X13284468Y-11877222D01*
X13284468Y-11877222D02*
X13293991Y-11896269D01*
X13293991Y-11896269D02*
X13293991Y-11943888D01*
X13293991Y-11943888D02*
X13284468Y-11962936D01*
X13284468Y-11962936D02*
X13274944Y-11972460D01*
X13274944Y-11972460D02*
X13255896Y-11981984D01*
X13255896Y-11981984D02*
X13208277Y-11981984D01*
X13208277Y-11981984D02*
X13189229Y-11972460D01*
X13189229Y-11972460D02*
X13179706Y-11962936D01*
X13532087Y-11981984D02*
X13532087Y-11781984D01*
X13617801Y-11981984D02*
X13617801Y-11877222D01*
X13617801Y-11877222D02*
X13608277Y-11858174D01*
X13608277Y-11858174D02*
X13589230Y-11848650D01*
X13589230Y-11848650D02*
X13560658Y-11848650D01*
X13560658Y-11848650D02*
X13541610Y-11858174D01*
X13541610Y-11858174D02*
X13532087Y-11867698D01*
X13741610Y-11981984D02*
X13722563Y-11972460D01*
X13722563Y-11972460D02*
X13713039Y-11962936D01*
X13713039Y-11962936D02*
X13703515Y-11943888D01*
X13703515Y-11943888D02*
X13703515Y-11886746D01*
X13703515Y-11886746D02*
X13713039Y-11867698D01*
X13713039Y-11867698D02*
X13722563Y-11858174D01*
X13722563Y-11858174D02*
X13741610Y-11848650D01*
X13741610Y-11848650D02*
X13770182Y-11848650D01*
X13770182Y-11848650D02*
X13789230Y-11858174D01*
X13789230Y-11858174D02*
X13798753Y-11867698D01*
X13798753Y-11867698D02*
X13808277Y-11886746D01*
X13808277Y-11886746D02*
X13808277Y-11943888D01*
X13808277Y-11943888D02*
X13798753Y-11962936D01*
X13798753Y-11962936D02*
X13789230Y-11972460D01*
X13789230Y-11972460D02*
X13770182Y-11981984D01*
X13770182Y-11981984D02*
X13741610Y-11981984D01*
X13922563Y-11981984D02*
X13903515Y-11972460D01*
X13903515Y-11972460D02*
X13893991Y-11953412D01*
X13893991Y-11953412D02*
X13893991Y-11781984D01*
X14074944Y-11972460D02*
X14055896Y-11981984D01*
X14055896Y-11981984D02*
X14017801Y-11981984D01*
X14017801Y-11981984D02*
X13998753Y-11972460D01*
X13998753Y-11972460D02*
X13989230Y-11953412D01*
X13989230Y-11953412D02*
X13989230Y-11877222D01*
X13989230Y-11877222D02*
X13998753Y-11858174D01*
X13998753Y-11858174D02*
X14017801Y-11848650D01*
X14017801Y-11848650D02*
X14055896Y-11848650D01*
X14055896Y-11848650D02*
X14074944Y-11858174D01*
X14074944Y-11858174D02*
X14084468Y-11877222D01*
X14084468Y-11877222D02*
X14084468Y-11896269D01*
X14084468Y-11896269D02*
X13989230Y-11915317D01*
X14160658Y-11972460D02*
X14179706Y-11981984D01*
X14179706Y-11981984D02*
X14217801Y-11981984D01*
X14217801Y-11981984D02*
X14236849Y-11972460D01*
X14236849Y-11972460D02*
X14246372Y-11953412D01*
X14246372Y-11953412D02*
X14246372Y-11943888D01*
X14246372Y-11943888D02*
X14236849Y-11924841D01*
X14236849Y-11924841D02*
X14217801Y-11915317D01*
X14217801Y-11915317D02*
X14189230Y-11915317D01*
X14189230Y-11915317D02*
X14170182Y-11905793D01*
X14170182Y-11905793D02*
X14160658Y-11886746D01*
X14160658Y-11886746D02*
X14160658Y-11877222D01*
X14160658Y-11877222D02*
X14170182Y-11858174D01*
X14170182Y-11858174D02*
X14189230Y-11848650D01*
X14189230Y-11848650D02*
X14217801Y-11848650D01*
X14217801Y-11848650D02*
X14236849Y-11858174D01*
X14313039Y-12058174D02*
X14322563Y-12048650D01*
X14322563Y-12048650D02*
X14341611Y-12020079D01*
X14341611Y-12020079D02*
X14351134Y-12001031D01*
X14351134Y-12001031D02*
X14360658Y-11972460D01*
X14360658Y-11972460D02*
X14370182Y-11924841D01*
X14370182Y-11924841D02*
X14370182Y-11886746D01*
X14370182Y-11886746D02*
X14360658Y-11839127D01*
X14360658Y-11839127D02*
X14351134Y-11810555D01*
X14351134Y-11810555D02*
X14341611Y-11791508D01*
X14341611Y-11791508D02*
X14322563Y-11762936D01*
X14322563Y-11762936D02*
X14313039Y-11753412D01*
D13*
X9227500Y-12094500D02*
X9347500Y-12214500D01*
X9347500Y-12094500D02*
X9227500Y-12214500D01*
X9287500Y-12214500D02*
X9347500Y-12154500D01*
X9287500Y-12094500D01*
X9227500Y-12154500D01*
X9287500Y-12214500D01*
D11*
X9713039Y-12245984D02*
X9598753Y-12245984D01*
X9655896Y-12245984D02*
X9655896Y-12045984D01*
X9655896Y-12045984D02*
X9636848Y-12074555D01*
X9636848Y-12074555D02*
X9617801Y-12093603D01*
X9617801Y-12093603D02*
X9598753Y-12103127D01*
X9798753Y-12226936D02*
X9808277Y-12236460D01*
X9808277Y-12236460D02*
X9798753Y-12245984D01*
X9798753Y-12245984D02*
X9789229Y-12236460D01*
X9789229Y-12236460D02*
X9798753Y-12226936D01*
X9798753Y-12226936D02*
X9798753Y-12245984D01*
X9884467Y-12065031D02*
X9893991Y-12055508D01*
X9893991Y-12055508D02*
X9913039Y-12045984D01*
X9913039Y-12045984D02*
X9960658Y-12045984D01*
X9960658Y-12045984D02*
X9979705Y-12055508D01*
X9979705Y-12055508D02*
X9989229Y-12065031D01*
X9989229Y-12065031D02*
X9998753Y-12084079D01*
X9998753Y-12084079D02*
X9998753Y-12103127D01*
X9998753Y-12103127D02*
X9989229Y-12131698D01*
X9989229Y-12131698D02*
X9874944Y-12245984D01*
X9874944Y-12245984D02*
X9998753Y-12245984D01*
X10122563Y-12045984D02*
X10141610Y-12045984D01*
X10141610Y-12045984D02*
X10160658Y-12055508D01*
X10160658Y-12055508D02*
X10170182Y-12065031D01*
X10170182Y-12065031D02*
X10179705Y-12084079D01*
X10179705Y-12084079D02*
X10189229Y-12122174D01*
X10189229Y-12122174D02*
X10189229Y-12169793D01*
X10189229Y-12169793D02*
X10179705Y-12207888D01*
X10179705Y-12207888D02*
X10170182Y-12226936D01*
X10170182Y-12226936D02*
X10160658Y-12236460D01*
X10160658Y-12236460D02*
X10141610Y-12245984D01*
X10141610Y-12245984D02*
X10122563Y-12245984D01*
X10122563Y-12245984D02*
X10103515Y-12236460D01*
X10103515Y-12236460D02*
X10093991Y-12226936D01*
X10093991Y-12226936D02*
X10084467Y-12207888D01*
X10084467Y-12207888D02*
X10074944Y-12169793D01*
X10074944Y-12169793D02*
X10074944Y-12122174D01*
X10074944Y-12122174D02*
X10084467Y-12084079D01*
X10084467Y-12084079D02*
X10093991Y-12065031D01*
X10093991Y-12065031D02*
X10103515Y-12055508D01*
X10103515Y-12055508D02*
X10122563Y-12045984D01*
X10313039Y-12045984D02*
X10332086Y-12045984D01*
X10332086Y-12045984D02*
X10351134Y-12055508D01*
X10351134Y-12055508D02*
X10360658Y-12065031D01*
X10360658Y-12065031D02*
X10370182Y-12084079D01*
X10370182Y-12084079D02*
X10379705Y-12122174D01*
X10379705Y-12122174D02*
X10379705Y-12169793D01*
X10379705Y-12169793D02*
X10370182Y-12207888D01*
X10370182Y-12207888D02*
X10360658Y-12226936D01*
X10360658Y-12226936D02*
X10351134Y-12236460D01*
X10351134Y-12236460D02*
X10332086Y-12245984D01*
X10332086Y-12245984D02*
X10313039Y-12245984D01*
X10313039Y-12245984D02*
X10293991Y-12236460D01*
X10293991Y-12236460D02*
X10284467Y-12226936D01*
X10284467Y-12226936D02*
X10274944Y-12207888D01*
X10274944Y-12207888D02*
X10265420Y-12169793D01*
X10265420Y-12169793D02*
X10265420Y-12122174D01*
X10265420Y-12122174D02*
X10274944Y-12084079D01*
X10274944Y-12084079D02*
X10284467Y-12065031D01*
X10284467Y-12065031D02*
X10293991Y-12055508D01*
X10293991Y-12055508D02*
X10313039Y-12045984D01*
X10465420Y-12245984D02*
X10465420Y-12112650D01*
X10465420Y-12131698D02*
X10474944Y-12122174D01*
X10474944Y-12122174D02*
X10493991Y-12112650D01*
X10493991Y-12112650D02*
X10522563Y-12112650D01*
X10522563Y-12112650D02*
X10541610Y-12122174D01*
X10541610Y-12122174D02*
X10551134Y-12141222D01*
X10551134Y-12141222D02*
X10551134Y-12245984D01*
X10551134Y-12141222D02*
X10560658Y-12122174D01*
X10560658Y-12122174D02*
X10579705Y-12112650D01*
X10579705Y-12112650D02*
X10608277Y-12112650D01*
X10608277Y-12112650D02*
X10627325Y-12122174D01*
X10627325Y-12122174D02*
X10636848Y-12141222D01*
X10636848Y-12141222D02*
X10636848Y-12245984D01*
X10732086Y-12245984D02*
X10732086Y-12112650D01*
X10732086Y-12131698D02*
X10741610Y-12122174D01*
X10741610Y-12122174D02*
X10760658Y-12112650D01*
X10760658Y-12112650D02*
X10789229Y-12112650D01*
X10789229Y-12112650D02*
X10808277Y-12122174D01*
X10808277Y-12122174D02*
X10817801Y-12141222D01*
X10817801Y-12141222D02*
X10817801Y-12245984D01*
X10817801Y-12141222D02*
X10827325Y-12122174D01*
X10827325Y-12122174D02*
X10846372Y-12112650D01*
X10846372Y-12112650D02*
X10874944Y-12112650D01*
X10874944Y-12112650D02*
X10893991Y-12122174D01*
X10893991Y-12122174D02*
X10903515Y-12141222D01*
X10903515Y-12141222D02*
X10903515Y-12245984D01*
X11293991Y-12036460D02*
X11122563Y-12293603D01*
X11551134Y-12045984D02*
X11570182Y-12045984D01*
X11570182Y-12045984D02*
X11589229Y-12055508D01*
X11589229Y-12055508D02*
X11598753Y-12065031D01*
X11598753Y-12065031D02*
X11608277Y-12084079D01*
X11608277Y-12084079D02*
X11617801Y-12122174D01*
X11617801Y-12122174D02*
X11617801Y-12169793D01*
X11617801Y-12169793D02*
X11608277Y-12207888D01*
X11608277Y-12207888D02*
X11598753Y-12226936D01*
X11598753Y-12226936D02*
X11589229Y-12236460D01*
X11589229Y-12236460D02*
X11570182Y-12245984D01*
X11570182Y-12245984D02*
X11551134Y-12245984D01*
X11551134Y-12245984D02*
X11532086Y-12236460D01*
X11532086Y-12236460D02*
X11522563Y-12226936D01*
X11522563Y-12226936D02*
X11513039Y-12207888D01*
X11513039Y-12207888D02*
X11503515Y-12169793D01*
X11503515Y-12169793D02*
X11503515Y-12122174D01*
X11503515Y-12122174D02*
X11513039Y-12084079D01*
X11513039Y-12084079D02*
X11522563Y-12065031D01*
X11522563Y-12065031D02*
X11532086Y-12055508D01*
X11532086Y-12055508D02*
X11551134Y-12045984D01*
X11703515Y-12226936D02*
X11713039Y-12236460D01*
X11713039Y-12236460D02*
X11703515Y-12245984D01*
X11703515Y-12245984D02*
X11693991Y-12236460D01*
X11693991Y-12236460D02*
X11703515Y-12226936D01*
X11703515Y-12226936D02*
X11703515Y-12245984D01*
X11836848Y-12045984D02*
X11855896Y-12045984D01*
X11855896Y-12045984D02*
X11874944Y-12055508D01*
X11874944Y-12055508D02*
X11884467Y-12065031D01*
X11884467Y-12065031D02*
X11893991Y-12084079D01*
X11893991Y-12084079D02*
X11903515Y-12122174D01*
X11903515Y-12122174D02*
X11903515Y-12169793D01*
X11903515Y-12169793D02*
X11893991Y-12207888D01*
X11893991Y-12207888D02*
X11884467Y-12226936D01*
X11884467Y-12226936D02*
X11874944Y-12236460D01*
X11874944Y-12236460D02*
X11855896Y-12245984D01*
X11855896Y-12245984D02*
X11836848Y-12245984D01*
X11836848Y-12245984D02*
X11817801Y-12236460D01*
X11817801Y-12236460D02*
X11808277Y-12226936D01*
X11808277Y-12226936D02*
X11798753Y-12207888D01*
X11798753Y-12207888D02*
X11789229Y-12169793D01*
X11789229Y-12169793D02*
X11789229Y-12122174D01*
X11789229Y-12122174D02*
X11798753Y-12084079D01*
X11798753Y-12084079D02*
X11808277Y-12065031D01*
X11808277Y-12065031D02*
X11817801Y-12055508D01*
X11817801Y-12055508D02*
X11836848Y-12045984D01*
X12074944Y-12112650D02*
X12074944Y-12245984D01*
X12027325Y-12036460D02*
X11979706Y-12179317D01*
X11979706Y-12179317D02*
X12103515Y-12179317D01*
X12160658Y-12045984D02*
X12293991Y-12045984D01*
X12293991Y-12045984D02*
X12208277Y-12245984D01*
X12360658Y-12065031D02*
X12370182Y-12055508D01*
X12370182Y-12055508D02*
X12389229Y-12045984D01*
X12389229Y-12045984D02*
X12436848Y-12045984D01*
X12436848Y-12045984D02*
X12455896Y-12055508D01*
X12455896Y-12055508D02*
X12465420Y-12065031D01*
X12465420Y-12065031D02*
X12474944Y-12084079D01*
X12474944Y-12084079D02*
X12474944Y-12103127D01*
X12474944Y-12103127D02*
X12465420Y-12131698D01*
X12465420Y-12131698D02*
X12351134Y-12245984D01*
X12351134Y-12245984D02*
X12474944Y-12245984D01*
X12551134Y-12045984D02*
X12551134Y-12084079D01*
X12627325Y-12045984D02*
X12627325Y-12084079D01*
X12922563Y-12322174D02*
X12913039Y-12312650D01*
X12913039Y-12312650D02*
X12893991Y-12284079D01*
X12893991Y-12284079D02*
X12884468Y-12265031D01*
X12884468Y-12265031D02*
X12874944Y-12236460D01*
X12874944Y-12236460D02*
X12865420Y-12188841D01*
X12865420Y-12188841D02*
X12865420Y-12150746D01*
X12865420Y-12150746D02*
X12874944Y-12103127D01*
X12874944Y-12103127D02*
X12884468Y-12074555D01*
X12884468Y-12074555D02*
X12893991Y-12055508D01*
X12893991Y-12055508D02*
X12913039Y-12026936D01*
X12913039Y-12026936D02*
X12922563Y-12017412D01*
X13084468Y-12045984D02*
X13046372Y-12045984D01*
X13046372Y-12045984D02*
X13027325Y-12055508D01*
X13027325Y-12055508D02*
X13017801Y-12065031D01*
X13017801Y-12065031D02*
X12998753Y-12093603D01*
X12998753Y-12093603D02*
X12989229Y-12131698D01*
X12989229Y-12131698D02*
X12989229Y-12207888D01*
X12989229Y-12207888D02*
X12998753Y-12226936D01*
X12998753Y-12226936D02*
X13008277Y-12236460D01*
X13008277Y-12236460D02*
X13027325Y-12245984D01*
X13027325Y-12245984D02*
X13065420Y-12245984D01*
X13065420Y-12245984D02*
X13084468Y-12236460D01*
X13084468Y-12236460D02*
X13093991Y-12226936D01*
X13093991Y-12226936D02*
X13103515Y-12207888D01*
X13103515Y-12207888D02*
X13103515Y-12160269D01*
X13103515Y-12160269D02*
X13093991Y-12141222D01*
X13093991Y-12141222D02*
X13084468Y-12131698D01*
X13084468Y-12131698D02*
X13065420Y-12122174D01*
X13065420Y-12122174D02*
X13027325Y-12122174D01*
X13027325Y-12122174D02*
X13008277Y-12131698D01*
X13008277Y-12131698D02*
X12998753Y-12141222D01*
X12998753Y-12141222D02*
X12989229Y-12160269D01*
X13341610Y-12245984D02*
X13341610Y-12045984D01*
X13427325Y-12245984D02*
X13427325Y-12141222D01*
X13427325Y-12141222D02*
X13417801Y-12122174D01*
X13417801Y-12122174D02*
X13398753Y-12112650D01*
X13398753Y-12112650D02*
X13370182Y-12112650D01*
X13370182Y-12112650D02*
X13351134Y-12122174D01*
X13351134Y-12122174D02*
X13341610Y-12131698D01*
X13551134Y-12245984D02*
X13532087Y-12236460D01*
X13532087Y-12236460D02*
X13522563Y-12226936D01*
X13522563Y-12226936D02*
X13513039Y-12207888D01*
X13513039Y-12207888D02*
X13513039Y-12150746D01*
X13513039Y-12150746D02*
X13522563Y-12131698D01*
X13522563Y-12131698D02*
X13532087Y-12122174D01*
X13532087Y-12122174D02*
X13551134Y-12112650D01*
X13551134Y-12112650D02*
X13579706Y-12112650D01*
X13579706Y-12112650D02*
X13598753Y-12122174D01*
X13598753Y-12122174D02*
X13608277Y-12131698D01*
X13608277Y-12131698D02*
X13617801Y-12150746D01*
X13617801Y-12150746D02*
X13617801Y-12207888D01*
X13617801Y-12207888D02*
X13608277Y-12226936D01*
X13608277Y-12226936D02*
X13598753Y-12236460D01*
X13598753Y-12236460D02*
X13579706Y-12245984D01*
X13579706Y-12245984D02*
X13551134Y-12245984D01*
X13732087Y-12245984D02*
X13713039Y-12236460D01*
X13713039Y-12236460D02*
X13703515Y-12217412D01*
X13703515Y-12217412D02*
X13703515Y-12045984D01*
X13884468Y-12236460D02*
X13865420Y-12245984D01*
X13865420Y-12245984D02*
X13827325Y-12245984D01*
X13827325Y-12245984D02*
X13808277Y-12236460D01*
X13808277Y-12236460D02*
X13798753Y-12217412D01*
X13798753Y-12217412D02*
X13798753Y-12141222D01*
X13798753Y-12141222D02*
X13808277Y-12122174D01*
X13808277Y-12122174D02*
X13827325Y-12112650D01*
X13827325Y-12112650D02*
X13865420Y-12112650D01*
X13865420Y-12112650D02*
X13884468Y-12122174D01*
X13884468Y-12122174D02*
X13893991Y-12141222D01*
X13893991Y-12141222D02*
X13893991Y-12160269D01*
X13893991Y-12160269D02*
X13798753Y-12179317D01*
X13970182Y-12236460D02*
X13989230Y-12245984D01*
X13989230Y-12245984D02*
X14027325Y-12245984D01*
X14027325Y-12245984D02*
X14046372Y-12236460D01*
X14046372Y-12236460D02*
X14055896Y-12217412D01*
X14055896Y-12217412D02*
X14055896Y-12207888D01*
X14055896Y-12207888D02*
X14046372Y-12188841D01*
X14046372Y-12188841D02*
X14027325Y-12179317D01*
X14027325Y-12179317D02*
X13998753Y-12179317D01*
X13998753Y-12179317D02*
X13979706Y-12169793D01*
X13979706Y-12169793D02*
X13970182Y-12150746D01*
X13970182Y-12150746D02*
X13970182Y-12141222D01*
X13970182Y-12141222D02*
X13979706Y-12122174D01*
X13979706Y-12122174D02*
X13998753Y-12112650D01*
X13998753Y-12112650D02*
X14027325Y-12112650D01*
X14027325Y-12112650D02*
X14046372Y-12122174D01*
X14122563Y-12322174D02*
X14132087Y-12312650D01*
X14132087Y-12312650D02*
X14151134Y-12284079D01*
X14151134Y-12284079D02*
X14160658Y-12265031D01*
X14160658Y-12265031D02*
X14170182Y-12236460D01*
X14170182Y-12236460D02*
X14179706Y-12188841D01*
X14179706Y-12188841D02*
X14179706Y-12150746D01*
X14179706Y-12150746D02*
X14170182Y-12103127D01*
X14170182Y-12103127D02*
X14160658Y-12074555D01*
X14160658Y-12074555D02*
X14151134Y-12055508D01*
X14151134Y-12055508D02*
X14132087Y-12026936D01*
X14132087Y-12026936D02*
X14122563Y-12017412D01*
D14*
X9282500Y-12353500D02*
X9282500Y-12483500D01*
X9217500Y-12418500D02*
X9347500Y-12418500D01*
X9347500Y-12418500D02*
G75*
G02*
X9217500Y-12418500I-65000J0D01*
G01*
X9217500Y-12418500D02*
G75*
G02*
X9347500Y-12418500I65000J0D01*
G01*
D11*
X9713039Y-12509984D02*
X9598753Y-12509984D01*
X9655896Y-12509984D02*
X9655896Y-12309984D01*
X9655896Y-12309984D02*
X9636848Y-12338555D01*
X9636848Y-12338555D02*
X9617801Y-12357603D01*
X9617801Y-12357603D02*
X9598753Y-12367127D01*
X9798753Y-12490936D02*
X9808277Y-12500460D01*
X9808277Y-12500460D02*
X9798753Y-12509984D01*
X9798753Y-12509984D02*
X9789229Y-12500460D01*
X9789229Y-12500460D02*
X9798753Y-12490936D01*
X9798753Y-12490936D02*
X9798753Y-12509984D01*
X9874944Y-12309984D02*
X9998753Y-12309984D01*
X9998753Y-12309984D02*
X9932086Y-12386174D01*
X9932086Y-12386174D02*
X9960658Y-12386174D01*
X9960658Y-12386174D02*
X9979705Y-12395698D01*
X9979705Y-12395698D02*
X9989229Y-12405222D01*
X9989229Y-12405222D02*
X9998753Y-12424269D01*
X9998753Y-12424269D02*
X9998753Y-12471888D01*
X9998753Y-12471888D02*
X9989229Y-12490936D01*
X9989229Y-12490936D02*
X9979705Y-12500460D01*
X9979705Y-12500460D02*
X9960658Y-12509984D01*
X9960658Y-12509984D02*
X9903515Y-12509984D01*
X9903515Y-12509984D02*
X9884467Y-12500460D01*
X9884467Y-12500460D02*
X9874944Y-12490936D01*
X10122563Y-12309984D02*
X10141610Y-12309984D01*
X10141610Y-12309984D02*
X10160658Y-12319508D01*
X10160658Y-12319508D02*
X10170182Y-12329031D01*
X10170182Y-12329031D02*
X10179705Y-12348079D01*
X10179705Y-12348079D02*
X10189229Y-12386174D01*
X10189229Y-12386174D02*
X10189229Y-12433793D01*
X10189229Y-12433793D02*
X10179705Y-12471888D01*
X10179705Y-12471888D02*
X10170182Y-12490936D01*
X10170182Y-12490936D02*
X10160658Y-12500460D01*
X10160658Y-12500460D02*
X10141610Y-12509984D01*
X10141610Y-12509984D02*
X10122563Y-12509984D01*
X10122563Y-12509984D02*
X10103515Y-12500460D01*
X10103515Y-12500460D02*
X10093991Y-12490936D01*
X10093991Y-12490936D02*
X10084467Y-12471888D01*
X10084467Y-12471888D02*
X10074944Y-12433793D01*
X10074944Y-12433793D02*
X10074944Y-12386174D01*
X10074944Y-12386174D02*
X10084467Y-12348079D01*
X10084467Y-12348079D02*
X10093991Y-12329031D01*
X10093991Y-12329031D02*
X10103515Y-12319508D01*
X10103515Y-12319508D02*
X10122563Y-12309984D01*
X10313039Y-12309984D02*
X10332086Y-12309984D01*
X10332086Y-12309984D02*
X10351134Y-12319508D01*
X10351134Y-12319508D02*
X10360658Y-12329031D01*
X10360658Y-12329031D02*
X10370182Y-12348079D01*
X10370182Y-12348079D02*
X10379705Y-12386174D01*
X10379705Y-12386174D02*
X10379705Y-12433793D01*
X10379705Y-12433793D02*
X10370182Y-12471888D01*
X10370182Y-12471888D02*
X10360658Y-12490936D01*
X10360658Y-12490936D02*
X10351134Y-12500460D01*
X10351134Y-12500460D02*
X10332086Y-12509984D01*
X10332086Y-12509984D02*
X10313039Y-12509984D01*
X10313039Y-12509984D02*
X10293991Y-12500460D01*
X10293991Y-12500460D02*
X10284467Y-12490936D01*
X10284467Y-12490936D02*
X10274944Y-12471888D01*
X10274944Y-12471888D02*
X10265420Y-12433793D01*
X10265420Y-12433793D02*
X10265420Y-12386174D01*
X10265420Y-12386174D02*
X10274944Y-12348079D01*
X10274944Y-12348079D02*
X10284467Y-12329031D01*
X10284467Y-12329031D02*
X10293991Y-12319508D01*
X10293991Y-12319508D02*
X10313039Y-12309984D01*
X10465420Y-12509984D02*
X10465420Y-12376650D01*
X10465420Y-12395698D02*
X10474944Y-12386174D01*
X10474944Y-12386174D02*
X10493991Y-12376650D01*
X10493991Y-12376650D02*
X10522563Y-12376650D01*
X10522563Y-12376650D02*
X10541610Y-12386174D01*
X10541610Y-12386174D02*
X10551134Y-12405222D01*
X10551134Y-12405222D02*
X10551134Y-12509984D01*
X10551134Y-12405222D02*
X10560658Y-12386174D01*
X10560658Y-12386174D02*
X10579705Y-12376650D01*
X10579705Y-12376650D02*
X10608277Y-12376650D01*
X10608277Y-12376650D02*
X10627325Y-12386174D01*
X10627325Y-12386174D02*
X10636848Y-12405222D01*
X10636848Y-12405222D02*
X10636848Y-12509984D01*
X10732086Y-12509984D02*
X10732086Y-12376650D01*
X10732086Y-12395698D02*
X10741610Y-12386174D01*
X10741610Y-12386174D02*
X10760658Y-12376650D01*
X10760658Y-12376650D02*
X10789229Y-12376650D01*
X10789229Y-12376650D02*
X10808277Y-12386174D01*
X10808277Y-12386174D02*
X10817801Y-12405222D01*
X10817801Y-12405222D02*
X10817801Y-12509984D01*
X10817801Y-12405222D02*
X10827325Y-12386174D01*
X10827325Y-12386174D02*
X10846372Y-12376650D01*
X10846372Y-12376650D02*
X10874944Y-12376650D01*
X10874944Y-12376650D02*
X10893991Y-12386174D01*
X10893991Y-12386174D02*
X10903515Y-12405222D01*
X10903515Y-12405222D02*
X10903515Y-12509984D01*
X11293991Y-12300460D02*
X11122563Y-12557603D01*
X11551134Y-12309984D02*
X11570182Y-12309984D01*
X11570182Y-12309984D02*
X11589229Y-12319508D01*
X11589229Y-12319508D02*
X11598753Y-12329031D01*
X11598753Y-12329031D02*
X11608277Y-12348079D01*
X11608277Y-12348079D02*
X11617801Y-12386174D01*
X11617801Y-12386174D02*
X11617801Y-12433793D01*
X11617801Y-12433793D02*
X11608277Y-12471888D01*
X11608277Y-12471888D02*
X11598753Y-12490936D01*
X11598753Y-12490936D02*
X11589229Y-12500460D01*
X11589229Y-12500460D02*
X11570182Y-12509984D01*
X11570182Y-12509984D02*
X11551134Y-12509984D01*
X11551134Y-12509984D02*
X11532086Y-12500460D01*
X11532086Y-12500460D02*
X11522563Y-12490936D01*
X11522563Y-12490936D02*
X11513039Y-12471888D01*
X11513039Y-12471888D02*
X11503515Y-12433793D01*
X11503515Y-12433793D02*
X11503515Y-12386174D01*
X11503515Y-12386174D02*
X11513039Y-12348079D01*
X11513039Y-12348079D02*
X11522563Y-12329031D01*
X11522563Y-12329031D02*
X11532086Y-12319508D01*
X11532086Y-12319508D02*
X11551134Y-12309984D01*
X11703515Y-12490936D02*
X11713039Y-12500460D01*
X11713039Y-12500460D02*
X11703515Y-12509984D01*
X11703515Y-12509984D02*
X11693991Y-12500460D01*
X11693991Y-12500460D02*
X11703515Y-12490936D01*
X11703515Y-12490936D02*
X11703515Y-12509984D01*
X11836848Y-12309984D02*
X11855896Y-12309984D01*
X11855896Y-12309984D02*
X11874944Y-12319508D01*
X11874944Y-12319508D02*
X11884467Y-12329031D01*
X11884467Y-12329031D02*
X11893991Y-12348079D01*
X11893991Y-12348079D02*
X11903515Y-12386174D01*
X11903515Y-12386174D02*
X11903515Y-12433793D01*
X11903515Y-12433793D02*
X11893991Y-12471888D01*
X11893991Y-12471888D02*
X11884467Y-12490936D01*
X11884467Y-12490936D02*
X11874944Y-12500460D01*
X11874944Y-12500460D02*
X11855896Y-12509984D01*
X11855896Y-12509984D02*
X11836848Y-12509984D01*
X11836848Y-12509984D02*
X11817801Y-12500460D01*
X11817801Y-12500460D02*
X11808277Y-12490936D01*
X11808277Y-12490936D02*
X11798753Y-12471888D01*
X11798753Y-12471888D02*
X11789229Y-12433793D01*
X11789229Y-12433793D02*
X11789229Y-12386174D01*
X11789229Y-12386174D02*
X11798753Y-12348079D01*
X11798753Y-12348079D02*
X11808277Y-12329031D01*
X11808277Y-12329031D02*
X11817801Y-12319508D01*
X11817801Y-12319508D02*
X11836848Y-12309984D01*
X12084467Y-12309984D02*
X11989229Y-12309984D01*
X11989229Y-12309984D02*
X11979706Y-12405222D01*
X11979706Y-12405222D02*
X11989229Y-12395698D01*
X11989229Y-12395698D02*
X12008277Y-12386174D01*
X12008277Y-12386174D02*
X12055896Y-12386174D01*
X12055896Y-12386174D02*
X12074944Y-12395698D01*
X12074944Y-12395698D02*
X12084467Y-12405222D01*
X12084467Y-12405222D02*
X12093991Y-12424269D01*
X12093991Y-12424269D02*
X12093991Y-12471888D01*
X12093991Y-12471888D02*
X12084467Y-12490936D01*
X12084467Y-12490936D02*
X12074944Y-12500460D01*
X12074944Y-12500460D02*
X12055896Y-12509984D01*
X12055896Y-12509984D02*
X12008277Y-12509984D01*
X12008277Y-12509984D02*
X11989229Y-12500460D01*
X11989229Y-12500460D02*
X11979706Y-12490936D01*
X12284467Y-12509984D02*
X12170182Y-12509984D01*
X12227325Y-12509984D02*
X12227325Y-12309984D01*
X12227325Y-12309984D02*
X12208277Y-12338555D01*
X12208277Y-12338555D02*
X12189229Y-12357603D01*
X12189229Y-12357603D02*
X12170182Y-12367127D01*
X12360658Y-12329031D02*
X12370182Y-12319508D01*
X12370182Y-12319508D02*
X12389229Y-12309984D01*
X12389229Y-12309984D02*
X12436848Y-12309984D01*
X12436848Y-12309984D02*
X12455896Y-12319508D01*
X12455896Y-12319508D02*
X12465420Y-12329031D01*
X12465420Y-12329031D02*
X12474944Y-12348079D01*
X12474944Y-12348079D02*
X12474944Y-12367127D01*
X12474944Y-12367127D02*
X12465420Y-12395698D01*
X12465420Y-12395698D02*
X12351134Y-12509984D01*
X12351134Y-12509984D02*
X12474944Y-12509984D01*
X12551134Y-12309984D02*
X12551134Y-12348079D01*
X12627325Y-12309984D02*
X12627325Y-12348079D01*
X12922563Y-12586174D02*
X12913039Y-12576650D01*
X12913039Y-12576650D02*
X12893991Y-12548079D01*
X12893991Y-12548079D02*
X12884468Y-12529031D01*
X12884468Y-12529031D02*
X12874944Y-12500460D01*
X12874944Y-12500460D02*
X12865420Y-12452841D01*
X12865420Y-12452841D02*
X12865420Y-12414746D01*
X12865420Y-12414746D02*
X12874944Y-12367127D01*
X12874944Y-12367127D02*
X12884468Y-12338555D01*
X12884468Y-12338555D02*
X12893991Y-12319508D01*
X12893991Y-12319508D02*
X12913039Y-12290936D01*
X12913039Y-12290936D02*
X12922563Y-12281412D01*
X12989229Y-12329031D02*
X12998753Y-12319508D01*
X12998753Y-12319508D02*
X13017801Y-12309984D01*
X13017801Y-12309984D02*
X13065420Y-12309984D01*
X13065420Y-12309984D02*
X13084468Y-12319508D01*
X13084468Y-12319508D02*
X13093991Y-12329031D01*
X13093991Y-12329031D02*
X13103515Y-12348079D01*
X13103515Y-12348079D02*
X13103515Y-12367127D01*
X13103515Y-12367127D02*
X13093991Y-12395698D01*
X13093991Y-12395698D02*
X12979706Y-12509984D01*
X12979706Y-12509984D02*
X13103515Y-12509984D01*
X13341610Y-12509984D02*
X13341610Y-12309984D01*
X13427325Y-12509984D02*
X13427325Y-12405222D01*
X13427325Y-12405222D02*
X13417801Y-12386174D01*
X13417801Y-12386174D02*
X13398753Y-12376650D01*
X13398753Y-12376650D02*
X13370182Y-12376650D01*
X13370182Y-12376650D02*
X13351134Y-12386174D01*
X13351134Y-12386174D02*
X13341610Y-12395698D01*
X13551134Y-12509984D02*
X13532087Y-12500460D01*
X13532087Y-12500460D02*
X13522563Y-12490936D01*
X13522563Y-12490936D02*
X13513039Y-12471888D01*
X13513039Y-12471888D02*
X13513039Y-12414746D01*
X13513039Y-12414746D02*
X13522563Y-12395698D01*
X13522563Y-12395698D02*
X13532087Y-12386174D01*
X13532087Y-12386174D02*
X13551134Y-12376650D01*
X13551134Y-12376650D02*
X13579706Y-12376650D01*
X13579706Y-12376650D02*
X13598753Y-12386174D01*
X13598753Y-12386174D02*
X13608277Y-12395698D01*
X13608277Y-12395698D02*
X13617801Y-12414746D01*
X13617801Y-12414746D02*
X13617801Y-12471888D01*
X13617801Y-12471888D02*
X13608277Y-12490936D01*
X13608277Y-12490936D02*
X13598753Y-12500460D01*
X13598753Y-12500460D02*
X13579706Y-12509984D01*
X13579706Y-12509984D02*
X13551134Y-12509984D01*
X13732087Y-12509984D02*
X13713039Y-12500460D01*
X13713039Y-12500460D02*
X13703515Y-12481412D01*
X13703515Y-12481412D02*
X13703515Y-12309984D01*
X13884468Y-12500460D02*
X13865420Y-12509984D01*
X13865420Y-12509984D02*
X13827325Y-12509984D01*
X13827325Y-12509984D02*
X13808277Y-12500460D01*
X13808277Y-12500460D02*
X13798753Y-12481412D01*
X13798753Y-12481412D02*
X13798753Y-12405222D01*
X13798753Y-12405222D02*
X13808277Y-12386174D01*
X13808277Y-12386174D02*
X13827325Y-12376650D01*
X13827325Y-12376650D02*
X13865420Y-12376650D01*
X13865420Y-12376650D02*
X13884468Y-12386174D01*
X13884468Y-12386174D02*
X13893991Y-12405222D01*
X13893991Y-12405222D02*
X13893991Y-12424269D01*
X13893991Y-12424269D02*
X13798753Y-12443317D01*
X13970182Y-12500460D02*
X13989230Y-12509984D01*
X13989230Y-12509984D02*
X14027325Y-12509984D01*
X14027325Y-12509984D02*
X14046372Y-12500460D01*
X14046372Y-12500460D02*
X14055896Y-12481412D01*
X14055896Y-12481412D02*
X14055896Y-12471888D01*
X14055896Y-12471888D02*
X14046372Y-12452841D01*
X14046372Y-12452841D02*
X14027325Y-12443317D01*
X14027325Y-12443317D02*
X13998753Y-12443317D01*
X13998753Y-12443317D02*
X13979706Y-12433793D01*
X13979706Y-12433793D02*
X13970182Y-12414746D01*
X13970182Y-12414746D02*
X13970182Y-12405222D01*
X13970182Y-12405222D02*
X13979706Y-12386174D01*
X13979706Y-12386174D02*
X13998753Y-12376650D01*
X13998753Y-12376650D02*
X14027325Y-12376650D01*
X14027325Y-12376650D02*
X14046372Y-12386174D01*
X14122563Y-12586174D02*
X14132087Y-12576650D01*
X14132087Y-12576650D02*
X14151134Y-12548079D01*
X14151134Y-12548079D02*
X14160658Y-12529031D01*
X14160658Y-12529031D02*
X14170182Y-12500460D01*
X14170182Y-12500460D02*
X14179706Y-12452841D01*
X14179706Y-12452841D02*
X14179706Y-12414746D01*
X14179706Y-12414746D02*
X14170182Y-12367127D01*
X14170182Y-12367127D02*
X14160658Y-12338555D01*
X14160658Y-12338555D02*
X14151134Y-12319508D01*
X14151134Y-12319508D02*
X14132087Y-12290936D01*
X14132087Y-12290936D02*
X14122563Y-12281412D01*
D15*
X9326998Y-12731998D02*
X9326998Y-12633002D01*
X9228002Y-12633002D01*
X9228002Y-12731998D01*
X9326998Y-12731998D01*
X9347500Y-12682500D02*
G75*
G02*
X9207500Y-12682500I-70000J0D01*
G01*
X9207500Y-12682500D02*
G75*
G02*
X9347500Y-12682500I70000J0D01*
G01*
D11*
X9713039Y-12773984D02*
X9598753Y-12773984D01*
X9655896Y-12773984D02*
X9655896Y-12573984D01*
X9655896Y-12573984D02*
X9636848Y-12602555D01*
X9636848Y-12602555D02*
X9617801Y-12621603D01*
X9617801Y-12621603D02*
X9598753Y-12631127D01*
X9798753Y-12754936D02*
X9808277Y-12764460D01*
X9808277Y-12764460D02*
X9798753Y-12773984D01*
X9798753Y-12773984D02*
X9789229Y-12764460D01*
X9789229Y-12764460D02*
X9798753Y-12754936D01*
X9798753Y-12754936D02*
X9798753Y-12773984D01*
X9979705Y-12640650D02*
X9979705Y-12773984D01*
X9932086Y-12564460D02*
X9884467Y-12707317D01*
X9884467Y-12707317D02*
X10008277Y-12707317D01*
X10122563Y-12573984D02*
X10141610Y-12573984D01*
X10141610Y-12573984D02*
X10160658Y-12583508D01*
X10160658Y-12583508D02*
X10170182Y-12593031D01*
X10170182Y-12593031D02*
X10179705Y-12612079D01*
X10179705Y-12612079D02*
X10189229Y-12650174D01*
X10189229Y-12650174D02*
X10189229Y-12697793D01*
X10189229Y-12697793D02*
X10179705Y-12735888D01*
X10179705Y-12735888D02*
X10170182Y-12754936D01*
X10170182Y-12754936D02*
X10160658Y-12764460D01*
X10160658Y-12764460D02*
X10141610Y-12773984D01*
X10141610Y-12773984D02*
X10122563Y-12773984D01*
X10122563Y-12773984D02*
X10103515Y-12764460D01*
X10103515Y-12764460D02*
X10093991Y-12754936D01*
X10093991Y-12754936D02*
X10084467Y-12735888D01*
X10084467Y-12735888D02*
X10074944Y-12697793D01*
X10074944Y-12697793D02*
X10074944Y-12650174D01*
X10074944Y-12650174D02*
X10084467Y-12612079D01*
X10084467Y-12612079D02*
X10093991Y-12593031D01*
X10093991Y-12593031D02*
X10103515Y-12583508D01*
X10103515Y-12583508D02*
X10122563Y-12573984D01*
X10313039Y-12573984D02*
X10332086Y-12573984D01*
X10332086Y-12573984D02*
X10351134Y-12583508D01*
X10351134Y-12583508D02*
X10360658Y-12593031D01*
X10360658Y-12593031D02*
X10370182Y-12612079D01*
X10370182Y-12612079D02*
X10379705Y-12650174D01*
X10379705Y-12650174D02*
X10379705Y-12697793D01*
X10379705Y-12697793D02*
X10370182Y-12735888D01*
X10370182Y-12735888D02*
X10360658Y-12754936D01*
X10360658Y-12754936D02*
X10351134Y-12764460D01*
X10351134Y-12764460D02*
X10332086Y-12773984D01*
X10332086Y-12773984D02*
X10313039Y-12773984D01*
X10313039Y-12773984D02*
X10293991Y-12764460D01*
X10293991Y-12764460D02*
X10284467Y-12754936D01*
X10284467Y-12754936D02*
X10274944Y-12735888D01*
X10274944Y-12735888D02*
X10265420Y-12697793D01*
X10265420Y-12697793D02*
X10265420Y-12650174D01*
X10265420Y-12650174D02*
X10274944Y-12612079D01*
X10274944Y-12612079D02*
X10284467Y-12593031D01*
X10284467Y-12593031D02*
X10293991Y-12583508D01*
X10293991Y-12583508D02*
X10313039Y-12573984D01*
X10465420Y-12773984D02*
X10465420Y-12640650D01*
X10465420Y-12659698D02*
X10474944Y-12650174D01*
X10474944Y-12650174D02*
X10493991Y-12640650D01*
X10493991Y-12640650D02*
X10522563Y-12640650D01*
X10522563Y-12640650D02*
X10541610Y-12650174D01*
X10541610Y-12650174D02*
X10551134Y-12669222D01*
X10551134Y-12669222D02*
X10551134Y-12773984D01*
X10551134Y-12669222D02*
X10560658Y-12650174D01*
X10560658Y-12650174D02*
X10579705Y-12640650D01*
X10579705Y-12640650D02*
X10608277Y-12640650D01*
X10608277Y-12640650D02*
X10627325Y-12650174D01*
X10627325Y-12650174D02*
X10636848Y-12669222D01*
X10636848Y-12669222D02*
X10636848Y-12773984D01*
X10732086Y-12773984D02*
X10732086Y-12640650D01*
X10732086Y-12659698D02*
X10741610Y-12650174D01*
X10741610Y-12650174D02*
X10760658Y-12640650D01*
X10760658Y-12640650D02*
X10789229Y-12640650D01*
X10789229Y-12640650D02*
X10808277Y-12650174D01*
X10808277Y-12650174D02*
X10817801Y-12669222D01*
X10817801Y-12669222D02*
X10817801Y-12773984D01*
X10817801Y-12669222D02*
X10827325Y-12650174D01*
X10827325Y-12650174D02*
X10846372Y-12640650D01*
X10846372Y-12640650D02*
X10874944Y-12640650D01*
X10874944Y-12640650D02*
X10893991Y-12650174D01*
X10893991Y-12650174D02*
X10903515Y-12669222D01*
X10903515Y-12669222D02*
X10903515Y-12773984D01*
X11293991Y-12564460D02*
X11122563Y-12821603D01*
X11551134Y-12573984D02*
X11570182Y-12573984D01*
X11570182Y-12573984D02*
X11589229Y-12583508D01*
X11589229Y-12583508D02*
X11598753Y-12593031D01*
X11598753Y-12593031D02*
X11608277Y-12612079D01*
X11608277Y-12612079D02*
X11617801Y-12650174D01*
X11617801Y-12650174D02*
X11617801Y-12697793D01*
X11617801Y-12697793D02*
X11608277Y-12735888D01*
X11608277Y-12735888D02*
X11598753Y-12754936D01*
X11598753Y-12754936D02*
X11589229Y-12764460D01*
X11589229Y-12764460D02*
X11570182Y-12773984D01*
X11570182Y-12773984D02*
X11551134Y-12773984D01*
X11551134Y-12773984D02*
X11532086Y-12764460D01*
X11532086Y-12764460D02*
X11522563Y-12754936D01*
X11522563Y-12754936D02*
X11513039Y-12735888D01*
X11513039Y-12735888D02*
X11503515Y-12697793D01*
X11503515Y-12697793D02*
X11503515Y-12650174D01*
X11503515Y-12650174D02*
X11513039Y-12612079D01*
X11513039Y-12612079D02*
X11522563Y-12593031D01*
X11522563Y-12593031D02*
X11532086Y-12583508D01*
X11532086Y-12583508D02*
X11551134Y-12573984D01*
X11703515Y-12754936D02*
X11713039Y-12764460D01*
X11713039Y-12764460D02*
X11703515Y-12773984D01*
X11703515Y-12773984D02*
X11693991Y-12764460D01*
X11693991Y-12764460D02*
X11703515Y-12754936D01*
X11703515Y-12754936D02*
X11703515Y-12773984D01*
X11836848Y-12573984D02*
X11855896Y-12573984D01*
X11855896Y-12573984D02*
X11874944Y-12583508D01*
X11874944Y-12583508D02*
X11884467Y-12593031D01*
X11884467Y-12593031D02*
X11893991Y-12612079D01*
X11893991Y-12612079D02*
X11903515Y-12650174D01*
X11903515Y-12650174D02*
X11903515Y-12697793D01*
X11903515Y-12697793D02*
X11893991Y-12735888D01*
X11893991Y-12735888D02*
X11884467Y-12754936D01*
X11884467Y-12754936D02*
X11874944Y-12764460D01*
X11874944Y-12764460D02*
X11855896Y-12773984D01*
X11855896Y-12773984D02*
X11836848Y-12773984D01*
X11836848Y-12773984D02*
X11817801Y-12764460D01*
X11817801Y-12764460D02*
X11808277Y-12754936D01*
X11808277Y-12754936D02*
X11798753Y-12735888D01*
X11798753Y-12735888D02*
X11789229Y-12697793D01*
X11789229Y-12697793D02*
X11789229Y-12650174D01*
X11789229Y-12650174D02*
X11798753Y-12612079D01*
X11798753Y-12612079D02*
X11808277Y-12593031D01*
X11808277Y-12593031D02*
X11817801Y-12583508D01*
X11817801Y-12583508D02*
X11836848Y-12573984D01*
X12084467Y-12573984D02*
X11989229Y-12573984D01*
X11989229Y-12573984D02*
X11979706Y-12669222D01*
X11979706Y-12669222D02*
X11989229Y-12659698D01*
X11989229Y-12659698D02*
X12008277Y-12650174D01*
X12008277Y-12650174D02*
X12055896Y-12650174D01*
X12055896Y-12650174D02*
X12074944Y-12659698D01*
X12074944Y-12659698D02*
X12084467Y-12669222D01*
X12084467Y-12669222D02*
X12093991Y-12688269D01*
X12093991Y-12688269D02*
X12093991Y-12735888D01*
X12093991Y-12735888D02*
X12084467Y-12754936D01*
X12084467Y-12754936D02*
X12074944Y-12764460D01*
X12074944Y-12764460D02*
X12055896Y-12773984D01*
X12055896Y-12773984D02*
X12008277Y-12773984D01*
X12008277Y-12773984D02*
X11989229Y-12764460D01*
X11989229Y-12764460D02*
X11979706Y-12754936D01*
X12274944Y-12573984D02*
X12179706Y-12573984D01*
X12179706Y-12573984D02*
X12170182Y-12669222D01*
X12170182Y-12669222D02*
X12179706Y-12659698D01*
X12179706Y-12659698D02*
X12198753Y-12650174D01*
X12198753Y-12650174D02*
X12246372Y-12650174D01*
X12246372Y-12650174D02*
X12265420Y-12659698D01*
X12265420Y-12659698D02*
X12274944Y-12669222D01*
X12274944Y-12669222D02*
X12284467Y-12688269D01*
X12284467Y-12688269D02*
X12284467Y-12735888D01*
X12284467Y-12735888D02*
X12274944Y-12754936D01*
X12274944Y-12754936D02*
X12265420Y-12764460D01*
X12265420Y-12764460D02*
X12246372Y-12773984D01*
X12246372Y-12773984D02*
X12198753Y-12773984D01*
X12198753Y-12773984D02*
X12179706Y-12764460D01*
X12179706Y-12764460D02*
X12170182Y-12754936D01*
X12474944Y-12773984D02*
X12360658Y-12773984D01*
X12417801Y-12773984D02*
X12417801Y-12573984D01*
X12417801Y-12573984D02*
X12398753Y-12602555D01*
X12398753Y-12602555D02*
X12379706Y-12621603D01*
X12379706Y-12621603D02*
X12360658Y-12631127D01*
X12551134Y-12573984D02*
X12551134Y-12612079D01*
X12627325Y-12573984D02*
X12627325Y-12612079D01*
X12922563Y-12850174D02*
X12913039Y-12840650D01*
X12913039Y-12840650D02*
X12893991Y-12812079D01*
X12893991Y-12812079D02*
X12884468Y-12793031D01*
X12884468Y-12793031D02*
X12874944Y-12764460D01*
X12874944Y-12764460D02*
X12865420Y-12716841D01*
X12865420Y-12716841D02*
X12865420Y-12678746D01*
X12865420Y-12678746D02*
X12874944Y-12631127D01*
X12874944Y-12631127D02*
X12884468Y-12602555D01*
X12884468Y-12602555D02*
X12893991Y-12583508D01*
X12893991Y-12583508D02*
X12913039Y-12554936D01*
X12913039Y-12554936D02*
X12922563Y-12545412D01*
X13103515Y-12773984D02*
X12989229Y-12773984D01*
X13046372Y-12773984D02*
X13046372Y-12573984D01*
X13046372Y-12573984D02*
X13027325Y-12602555D01*
X13027325Y-12602555D02*
X13008277Y-12621603D01*
X13008277Y-12621603D02*
X12989229Y-12631127D01*
X13274944Y-12573984D02*
X13236848Y-12573984D01*
X13236848Y-12573984D02*
X13217801Y-12583508D01*
X13217801Y-12583508D02*
X13208277Y-12593031D01*
X13208277Y-12593031D02*
X13189229Y-12621603D01*
X13189229Y-12621603D02*
X13179706Y-12659698D01*
X13179706Y-12659698D02*
X13179706Y-12735888D01*
X13179706Y-12735888D02*
X13189229Y-12754936D01*
X13189229Y-12754936D02*
X13198753Y-12764460D01*
X13198753Y-12764460D02*
X13217801Y-12773984D01*
X13217801Y-12773984D02*
X13255896Y-12773984D01*
X13255896Y-12773984D02*
X13274944Y-12764460D01*
X13274944Y-12764460D02*
X13284468Y-12754936D01*
X13284468Y-12754936D02*
X13293991Y-12735888D01*
X13293991Y-12735888D02*
X13293991Y-12688269D01*
X13293991Y-12688269D02*
X13284468Y-12669222D01*
X13284468Y-12669222D02*
X13274944Y-12659698D01*
X13274944Y-12659698D02*
X13255896Y-12650174D01*
X13255896Y-12650174D02*
X13217801Y-12650174D01*
X13217801Y-12650174D02*
X13198753Y-12659698D01*
X13198753Y-12659698D02*
X13189229Y-12669222D01*
X13189229Y-12669222D02*
X13179706Y-12688269D01*
X13532087Y-12773984D02*
X13532087Y-12573984D01*
X13617801Y-12773984D02*
X13617801Y-12669222D01*
X13617801Y-12669222D02*
X13608277Y-12650174D01*
X13608277Y-12650174D02*
X13589230Y-12640650D01*
X13589230Y-12640650D02*
X13560658Y-12640650D01*
X13560658Y-12640650D02*
X13541610Y-12650174D01*
X13541610Y-12650174D02*
X13532087Y-12659698D01*
X13741610Y-12773984D02*
X13722563Y-12764460D01*
X13722563Y-12764460D02*
X13713039Y-12754936D01*
X13713039Y-12754936D02*
X13703515Y-12735888D01*
X13703515Y-12735888D02*
X13703515Y-12678746D01*
X13703515Y-12678746D02*
X13713039Y-12659698D01*
X13713039Y-12659698D02*
X13722563Y-12650174D01*
X13722563Y-12650174D02*
X13741610Y-12640650D01*
X13741610Y-12640650D02*
X13770182Y-12640650D01*
X13770182Y-12640650D02*
X13789230Y-12650174D01*
X13789230Y-12650174D02*
X13798753Y-12659698D01*
X13798753Y-12659698D02*
X13808277Y-12678746D01*
X13808277Y-12678746D02*
X13808277Y-12735888D01*
X13808277Y-12735888D02*
X13798753Y-12754936D01*
X13798753Y-12754936D02*
X13789230Y-12764460D01*
X13789230Y-12764460D02*
X13770182Y-12773984D01*
X13770182Y-12773984D02*
X13741610Y-12773984D01*
X13922563Y-12773984D02*
X13903515Y-12764460D01*
X13903515Y-12764460D02*
X13893991Y-12745412D01*
X13893991Y-12745412D02*
X13893991Y-12573984D01*
X14074944Y-12764460D02*
X14055896Y-12773984D01*
X14055896Y-12773984D02*
X14017801Y-12773984D01*
X14017801Y-12773984D02*
X13998753Y-12764460D01*
X13998753Y-12764460D02*
X13989230Y-12745412D01*
X13989230Y-12745412D02*
X13989230Y-12669222D01*
X13989230Y-12669222D02*
X13998753Y-12650174D01*
X13998753Y-12650174D02*
X14017801Y-12640650D01*
X14017801Y-12640650D02*
X14055896Y-12640650D01*
X14055896Y-12640650D02*
X14074944Y-12650174D01*
X14074944Y-12650174D02*
X14084468Y-12669222D01*
X14084468Y-12669222D02*
X14084468Y-12688269D01*
X14084468Y-12688269D02*
X13989230Y-12707317D01*
X14160658Y-12764460D02*
X14179706Y-12773984D01*
X14179706Y-12773984D02*
X14217801Y-12773984D01*
X14217801Y-12773984D02*
X14236849Y-12764460D01*
X14236849Y-12764460D02*
X14246372Y-12745412D01*
X14246372Y-12745412D02*
X14246372Y-12735888D01*
X14246372Y-12735888D02*
X14236849Y-12716841D01*
X14236849Y-12716841D02*
X14217801Y-12707317D01*
X14217801Y-12707317D02*
X14189230Y-12707317D01*
X14189230Y-12707317D02*
X14170182Y-12697793D01*
X14170182Y-12697793D02*
X14160658Y-12678746D01*
X14160658Y-12678746D02*
X14160658Y-12669222D01*
X14160658Y-12669222D02*
X14170182Y-12650174D01*
X14170182Y-12650174D02*
X14189230Y-12640650D01*
X14189230Y-12640650D02*
X14217801Y-12640650D01*
X14217801Y-12640650D02*
X14236849Y-12650174D01*
X14313039Y-12850174D02*
X14322563Y-12840650D01*
X14322563Y-12840650D02*
X14341611Y-12812079D01*
X14341611Y-12812079D02*
X14351134Y-12793031D01*
X14351134Y-12793031D02*
X14360658Y-12764460D01*
X14360658Y-12764460D02*
X14370182Y-12716841D01*
X14370182Y-12716841D02*
X14370182Y-12678746D01*
X14370182Y-12678746D02*
X14360658Y-12631127D01*
X14360658Y-12631127D02*
X14351134Y-12602555D01*
X14351134Y-12602555D02*
X14341611Y-12583508D01*
X14341611Y-12583508D02*
X14322563Y-12554936D01*
X14322563Y-12554936D02*
X14313039Y-12545412D01*
X9247500Y-13046500D02*
X9347500Y-12946500D01*
X9247500Y-12846500D01*
X9147500Y-12946500D01*
X9247500Y-13046500D01*
X9347500Y-12946500D02*
G75*
G02*
X9147500Y-12946500I-100000J0D01*
G01*
X9147500Y-12946500D02*
G75*
G02*
X9347500Y-12946500I100000J0D01*
G01*
X9598753Y-12857031D02*
X9608277Y-12847508D01*
X9608277Y-12847508D02*
X9627324Y-12837984D01*
X9627324Y-12837984D02*
X9674944Y-12837984D01*
X9674944Y-12837984D02*
X9693991Y-12847508D01*
X9693991Y-12847508D02*
X9703515Y-12857031D01*
X9703515Y-12857031D02*
X9713039Y-12876079D01*
X9713039Y-12876079D02*
X9713039Y-12895127D01*
X9713039Y-12895127D02*
X9703515Y-12923698D01*
X9703515Y-12923698D02*
X9589229Y-13037984D01*
X9589229Y-13037984D02*
X9713039Y-13037984D01*
X9798753Y-13018936D02*
X9808277Y-13028460D01*
X9808277Y-13028460D02*
X9798753Y-13037984D01*
X9798753Y-13037984D02*
X9789229Y-13028460D01*
X9789229Y-13028460D02*
X9798753Y-13018936D01*
X9798753Y-13018936D02*
X9798753Y-13037984D01*
X9884467Y-12857031D02*
X9893991Y-12847508D01*
X9893991Y-12847508D02*
X9913039Y-12837984D01*
X9913039Y-12837984D02*
X9960658Y-12837984D01*
X9960658Y-12837984D02*
X9979705Y-12847508D01*
X9979705Y-12847508D02*
X9989229Y-12857031D01*
X9989229Y-12857031D02*
X9998753Y-12876079D01*
X9998753Y-12876079D02*
X9998753Y-12895127D01*
X9998753Y-12895127D02*
X9989229Y-12923698D01*
X9989229Y-12923698D02*
X9874944Y-13037984D01*
X9874944Y-13037984D02*
X9998753Y-13037984D01*
X10122563Y-12837984D02*
X10141610Y-12837984D01*
X10141610Y-12837984D02*
X10160658Y-12847508D01*
X10160658Y-12847508D02*
X10170182Y-12857031D01*
X10170182Y-12857031D02*
X10179705Y-12876079D01*
X10179705Y-12876079D02*
X10189229Y-12914174D01*
X10189229Y-12914174D02*
X10189229Y-12961793D01*
X10189229Y-12961793D02*
X10179705Y-12999888D01*
X10179705Y-12999888D02*
X10170182Y-13018936D01*
X10170182Y-13018936D02*
X10160658Y-13028460D01*
X10160658Y-13028460D02*
X10141610Y-13037984D01*
X10141610Y-13037984D02*
X10122563Y-13037984D01*
X10122563Y-13037984D02*
X10103515Y-13028460D01*
X10103515Y-13028460D02*
X10093991Y-13018936D01*
X10093991Y-13018936D02*
X10084467Y-12999888D01*
X10084467Y-12999888D02*
X10074944Y-12961793D01*
X10074944Y-12961793D02*
X10074944Y-12914174D01*
X10074944Y-12914174D02*
X10084467Y-12876079D01*
X10084467Y-12876079D02*
X10093991Y-12857031D01*
X10093991Y-12857031D02*
X10103515Y-12847508D01*
X10103515Y-12847508D02*
X10122563Y-12837984D01*
X10313039Y-12837984D02*
X10332086Y-12837984D01*
X10332086Y-12837984D02*
X10351134Y-12847508D01*
X10351134Y-12847508D02*
X10360658Y-12857031D01*
X10360658Y-12857031D02*
X10370182Y-12876079D01*
X10370182Y-12876079D02*
X10379705Y-12914174D01*
X10379705Y-12914174D02*
X10379705Y-12961793D01*
X10379705Y-12961793D02*
X10370182Y-12999888D01*
X10370182Y-12999888D02*
X10360658Y-13018936D01*
X10360658Y-13018936D02*
X10351134Y-13028460D01*
X10351134Y-13028460D02*
X10332086Y-13037984D01*
X10332086Y-13037984D02*
X10313039Y-13037984D01*
X10313039Y-13037984D02*
X10293991Y-13028460D01*
X10293991Y-13028460D02*
X10284467Y-13018936D01*
X10284467Y-13018936D02*
X10274944Y-12999888D01*
X10274944Y-12999888D02*
X10265420Y-12961793D01*
X10265420Y-12961793D02*
X10265420Y-12914174D01*
X10265420Y-12914174D02*
X10274944Y-12876079D01*
X10274944Y-12876079D02*
X10284467Y-12857031D01*
X10284467Y-12857031D02*
X10293991Y-12847508D01*
X10293991Y-12847508D02*
X10313039Y-12837984D01*
X10465420Y-13037984D02*
X10465420Y-12904650D01*
X10465420Y-12923698D02*
X10474944Y-12914174D01*
X10474944Y-12914174D02*
X10493991Y-12904650D01*
X10493991Y-12904650D02*
X10522563Y-12904650D01*
X10522563Y-12904650D02*
X10541610Y-12914174D01*
X10541610Y-12914174D02*
X10551134Y-12933222D01*
X10551134Y-12933222D02*
X10551134Y-13037984D01*
X10551134Y-12933222D02*
X10560658Y-12914174D01*
X10560658Y-12914174D02*
X10579705Y-12904650D01*
X10579705Y-12904650D02*
X10608277Y-12904650D01*
X10608277Y-12904650D02*
X10627325Y-12914174D01*
X10627325Y-12914174D02*
X10636848Y-12933222D01*
X10636848Y-12933222D02*
X10636848Y-13037984D01*
X10732086Y-13037984D02*
X10732086Y-12904650D01*
X10732086Y-12923698D02*
X10741610Y-12914174D01*
X10741610Y-12914174D02*
X10760658Y-12904650D01*
X10760658Y-12904650D02*
X10789229Y-12904650D01*
X10789229Y-12904650D02*
X10808277Y-12914174D01*
X10808277Y-12914174D02*
X10817801Y-12933222D01*
X10817801Y-12933222D02*
X10817801Y-13037984D01*
X10817801Y-12933222D02*
X10827325Y-12914174D01*
X10827325Y-12914174D02*
X10846372Y-12904650D01*
X10846372Y-12904650D02*
X10874944Y-12904650D01*
X10874944Y-12904650D02*
X10893991Y-12914174D01*
X10893991Y-12914174D02*
X10903515Y-12933222D01*
X10903515Y-12933222D02*
X10903515Y-13037984D01*
X11293991Y-12828460D02*
X11122563Y-13085603D01*
X11551134Y-12837984D02*
X11570182Y-12837984D01*
X11570182Y-12837984D02*
X11589229Y-12847508D01*
X11589229Y-12847508D02*
X11598753Y-12857031D01*
X11598753Y-12857031D02*
X11608277Y-12876079D01*
X11608277Y-12876079D02*
X11617801Y-12914174D01*
X11617801Y-12914174D02*
X11617801Y-12961793D01*
X11617801Y-12961793D02*
X11608277Y-12999888D01*
X11608277Y-12999888D02*
X11598753Y-13018936D01*
X11598753Y-13018936D02*
X11589229Y-13028460D01*
X11589229Y-13028460D02*
X11570182Y-13037984D01*
X11570182Y-13037984D02*
X11551134Y-13037984D01*
X11551134Y-13037984D02*
X11532086Y-13028460D01*
X11532086Y-13028460D02*
X11522563Y-13018936D01*
X11522563Y-13018936D02*
X11513039Y-12999888D01*
X11513039Y-12999888D02*
X11503515Y-12961793D01*
X11503515Y-12961793D02*
X11503515Y-12914174D01*
X11503515Y-12914174D02*
X11513039Y-12876079D01*
X11513039Y-12876079D02*
X11522563Y-12857031D01*
X11522563Y-12857031D02*
X11532086Y-12847508D01*
X11532086Y-12847508D02*
X11551134Y-12837984D01*
X11703515Y-13018936D02*
X11713039Y-13028460D01*
X11713039Y-13028460D02*
X11703515Y-13037984D01*
X11703515Y-13037984D02*
X11693991Y-13028460D01*
X11693991Y-13028460D02*
X11703515Y-13018936D01*
X11703515Y-13018936D02*
X11703515Y-13037984D01*
X11836848Y-12837984D02*
X11855896Y-12837984D01*
X11855896Y-12837984D02*
X11874944Y-12847508D01*
X11874944Y-12847508D02*
X11884467Y-12857031D01*
X11884467Y-12857031D02*
X11893991Y-12876079D01*
X11893991Y-12876079D02*
X11903515Y-12914174D01*
X11903515Y-12914174D02*
X11903515Y-12961793D01*
X11903515Y-12961793D02*
X11893991Y-12999888D01*
X11893991Y-12999888D02*
X11884467Y-13018936D01*
X11884467Y-13018936D02*
X11874944Y-13028460D01*
X11874944Y-13028460D02*
X11855896Y-13037984D01*
X11855896Y-13037984D02*
X11836848Y-13037984D01*
X11836848Y-13037984D02*
X11817801Y-13028460D01*
X11817801Y-13028460D02*
X11808277Y-13018936D01*
X11808277Y-13018936D02*
X11798753Y-12999888D01*
X11798753Y-12999888D02*
X11789229Y-12961793D01*
X11789229Y-12961793D02*
X11789229Y-12914174D01*
X11789229Y-12914174D02*
X11798753Y-12876079D01*
X11798753Y-12876079D02*
X11808277Y-12857031D01*
X11808277Y-12857031D02*
X11817801Y-12847508D01*
X11817801Y-12847508D02*
X11836848Y-12837984D01*
X12017801Y-12923698D02*
X11998753Y-12914174D01*
X11998753Y-12914174D02*
X11989229Y-12904650D01*
X11989229Y-12904650D02*
X11979706Y-12885603D01*
X11979706Y-12885603D02*
X11979706Y-12876079D01*
X11979706Y-12876079D02*
X11989229Y-12857031D01*
X11989229Y-12857031D02*
X11998753Y-12847508D01*
X11998753Y-12847508D02*
X12017801Y-12837984D01*
X12017801Y-12837984D02*
X12055896Y-12837984D01*
X12055896Y-12837984D02*
X12074944Y-12847508D01*
X12074944Y-12847508D02*
X12084467Y-12857031D01*
X12084467Y-12857031D02*
X12093991Y-12876079D01*
X12093991Y-12876079D02*
X12093991Y-12885603D01*
X12093991Y-12885603D02*
X12084467Y-12904650D01*
X12084467Y-12904650D02*
X12074944Y-12914174D01*
X12074944Y-12914174D02*
X12055896Y-12923698D01*
X12055896Y-12923698D02*
X12017801Y-12923698D01*
X12017801Y-12923698D02*
X11998753Y-12933222D01*
X11998753Y-12933222D02*
X11989229Y-12942746D01*
X11989229Y-12942746D02*
X11979706Y-12961793D01*
X11979706Y-12961793D02*
X11979706Y-12999888D01*
X11979706Y-12999888D02*
X11989229Y-13018936D01*
X11989229Y-13018936D02*
X11998753Y-13028460D01*
X11998753Y-13028460D02*
X12017801Y-13037984D01*
X12017801Y-13037984D02*
X12055896Y-13037984D01*
X12055896Y-13037984D02*
X12074944Y-13028460D01*
X12074944Y-13028460D02*
X12084467Y-13018936D01*
X12084467Y-13018936D02*
X12093991Y-12999888D01*
X12093991Y-12999888D02*
X12093991Y-12961793D01*
X12093991Y-12961793D02*
X12084467Y-12942746D01*
X12084467Y-12942746D02*
X12074944Y-12933222D01*
X12074944Y-12933222D02*
X12055896Y-12923698D01*
X12265420Y-12837984D02*
X12227325Y-12837984D01*
X12227325Y-12837984D02*
X12208277Y-12847508D01*
X12208277Y-12847508D02*
X12198753Y-12857031D01*
X12198753Y-12857031D02*
X12179706Y-12885603D01*
X12179706Y-12885603D02*
X12170182Y-12923698D01*
X12170182Y-12923698D02*
X12170182Y-12999888D01*
X12170182Y-12999888D02*
X12179706Y-13018936D01*
X12179706Y-13018936D02*
X12189229Y-13028460D01*
X12189229Y-13028460D02*
X12208277Y-13037984D01*
X12208277Y-13037984D02*
X12246372Y-13037984D01*
X12246372Y-13037984D02*
X12265420Y-13028460D01*
X12265420Y-13028460D02*
X12274944Y-13018936D01*
X12274944Y-13018936D02*
X12284467Y-12999888D01*
X12284467Y-12999888D02*
X12284467Y-12952269D01*
X12284467Y-12952269D02*
X12274944Y-12933222D01*
X12274944Y-12933222D02*
X12265420Y-12923698D01*
X12265420Y-12923698D02*
X12246372Y-12914174D01*
X12246372Y-12914174D02*
X12208277Y-12914174D01*
X12208277Y-12914174D02*
X12189229Y-12923698D01*
X12189229Y-12923698D02*
X12179706Y-12933222D01*
X12179706Y-12933222D02*
X12170182Y-12952269D01*
X12455896Y-12837984D02*
X12417801Y-12837984D01*
X12417801Y-12837984D02*
X12398753Y-12847508D01*
X12398753Y-12847508D02*
X12389229Y-12857031D01*
X12389229Y-12857031D02*
X12370182Y-12885603D01*
X12370182Y-12885603D02*
X12360658Y-12923698D01*
X12360658Y-12923698D02*
X12360658Y-12999888D01*
X12360658Y-12999888D02*
X12370182Y-13018936D01*
X12370182Y-13018936D02*
X12379706Y-13028460D01*
X12379706Y-13028460D02*
X12398753Y-13037984D01*
X12398753Y-13037984D02*
X12436848Y-13037984D01*
X12436848Y-13037984D02*
X12455896Y-13028460D01*
X12455896Y-13028460D02*
X12465420Y-13018936D01*
X12465420Y-13018936D02*
X12474944Y-12999888D01*
X12474944Y-12999888D02*
X12474944Y-12952269D01*
X12474944Y-12952269D02*
X12465420Y-12933222D01*
X12465420Y-12933222D02*
X12455896Y-12923698D01*
X12455896Y-12923698D02*
X12436848Y-12914174D01*
X12436848Y-12914174D02*
X12398753Y-12914174D01*
X12398753Y-12914174D02*
X12379706Y-12923698D01*
X12379706Y-12923698D02*
X12370182Y-12933222D01*
X12370182Y-12933222D02*
X12360658Y-12952269D01*
X12551134Y-12837984D02*
X12551134Y-12876079D01*
X12627325Y-12837984D02*
X12627325Y-12876079D01*
X12922563Y-13114174D02*
X12913039Y-13104650D01*
X12913039Y-13104650D02*
X12893991Y-13076079D01*
X12893991Y-13076079D02*
X12884468Y-13057031D01*
X12884468Y-13057031D02*
X12874944Y-13028460D01*
X12874944Y-13028460D02*
X12865420Y-12980841D01*
X12865420Y-12980841D02*
X12865420Y-12942746D01*
X12865420Y-12942746D02*
X12874944Y-12895127D01*
X12874944Y-12895127D02*
X12884468Y-12866555D01*
X12884468Y-12866555D02*
X12893991Y-12847508D01*
X12893991Y-12847508D02*
X12913039Y-12818936D01*
X12913039Y-12818936D02*
X12922563Y-12809412D01*
X13084468Y-12904650D02*
X13084468Y-13037984D01*
X13036848Y-12828460D02*
X12989229Y-12971317D01*
X12989229Y-12971317D02*
X13113039Y-12971317D01*
X13341610Y-13037984D02*
X13341610Y-12837984D01*
X13427325Y-13037984D02*
X13427325Y-12933222D01*
X13427325Y-12933222D02*
X13417801Y-12914174D01*
X13417801Y-12914174D02*
X13398753Y-12904650D01*
X13398753Y-12904650D02*
X13370182Y-12904650D01*
X13370182Y-12904650D02*
X13351134Y-12914174D01*
X13351134Y-12914174D02*
X13341610Y-12923698D01*
X13551134Y-13037984D02*
X13532087Y-13028460D01*
X13532087Y-13028460D02*
X13522563Y-13018936D01*
X13522563Y-13018936D02*
X13513039Y-12999888D01*
X13513039Y-12999888D02*
X13513039Y-12942746D01*
X13513039Y-12942746D02*
X13522563Y-12923698D01*
X13522563Y-12923698D02*
X13532087Y-12914174D01*
X13532087Y-12914174D02*
X13551134Y-12904650D01*
X13551134Y-12904650D02*
X13579706Y-12904650D01*
X13579706Y-12904650D02*
X13598753Y-12914174D01*
X13598753Y-12914174D02*
X13608277Y-12923698D01*
X13608277Y-12923698D02*
X13617801Y-12942746D01*
X13617801Y-12942746D02*
X13617801Y-12999888D01*
X13617801Y-12999888D02*
X13608277Y-13018936D01*
X13608277Y-13018936D02*
X13598753Y-13028460D01*
X13598753Y-13028460D02*
X13579706Y-13037984D01*
X13579706Y-13037984D02*
X13551134Y-13037984D01*
X13732087Y-13037984D02*
X13713039Y-13028460D01*
X13713039Y-13028460D02*
X13703515Y-13009412D01*
X13703515Y-13009412D02*
X13703515Y-12837984D01*
X13884468Y-13028460D02*
X13865420Y-13037984D01*
X13865420Y-13037984D02*
X13827325Y-13037984D01*
X13827325Y-13037984D02*
X13808277Y-13028460D01*
X13808277Y-13028460D02*
X13798753Y-13009412D01*
X13798753Y-13009412D02*
X13798753Y-12933222D01*
X13798753Y-12933222D02*
X13808277Y-12914174D01*
X13808277Y-12914174D02*
X13827325Y-12904650D01*
X13827325Y-12904650D02*
X13865420Y-12904650D01*
X13865420Y-12904650D02*
X13884468Y-12914174D01*
X13884468Y-12914174D02*
X13893991Y-12933222D01*
X13893991Y-12933222D02*
X13893991Y-12952269D01*
X13893991Y-12952269D02*
X13798753Y-12971317D01*
X13970182Y-13028460D02*
X13989230Y-13037984D01*
X13989230Y-13037984D02*
X14027325Y-13037984D01*
X14027325Y-13037984D02*
X14046372Y-13028460D01*
X14046372Y-13028460D02*
X14055896Y-13009412D01*
X14055896Y-13009412D02*
X14055896Y-12999888D01*
X14055896Y-12999888D02*
X14046372Y-12980841D01*
X14046372Y-12980841D02*
X14027325Y-12971317D01*
X14027325Y-12971317D02*
X13998753Y-12971317D01*
X13998753Y-12971317D02*
X13979706Y-12961793D01*
X13979706Y-12961793D02*
X13970182Y-12942746D01*
X13970182Y-12942746D02*
X13970182Y-12933222D01*
X13970182Y-12933222D02*
X13979706Y-12914174D01*
X13979706Y-12914174D02*
X13998753Y-12904650D01*
X13998753Y-12904650D02*
X14027325Y-12904650D01*
X14027325Y-12904650D02*
X14046372Y-12914174D01*
X14122563Y-13114174D02*
X14132087Y-13104650D01*
X14132087Y-13104650D02*
X14151134Y-13076079D01*
X14151134Y-13076079D02*
X14160658Y-13057031D01*
X14160658Y-13057031D02*
X14170182Y-13028460D01*
X14170182Y-13028460D02*
X14179706Y-12980841D01*
X14179706Y-12980841D02*
X14179706Y-12942746D01*
X14179706Y-12942746D02*
X14170182Y-12895127D01*
X14170182Y-12895127D02*
X14160658Y-12866555D01*
X14160658Y-12866555D02*
X14151134Y-12847508D01*
X14151134Y-12847508D02*
X14132087Y-12818936D01*
X14132087Y-12818936D02*
X14122563Y-12809412D01*
M02*
