M48
; DRILL file {KiCad 8.0.2-8.0.2-0~ubuntu22.04.1} date 2024-05-22T14:57:45+0700
; FORMAT={-:-/ absolute / metric / decimal}
; #@! TF.CreationDate,2024-05-22T14:57:45+07:00
; #@! TF.GenerationSoftware,Kicad,Pcbnew,8.0.2-8.0.2-0~ubuntu22.04.1
; #@! TF.FileFunction,Plated,1,2,PTH
FMAT,2
METRIC
; #@! TA.AperFunction,Plated,PTH,ViaDrill
T1C0.300
; #@! TA.AperFunction,Plated,PTH,ComponentDrill
T2C0.400
; #@! TA.AperFunction,Plated,PTH,ViaDrill
T3C0.500
; #@! TA.AperFunction,Plated,PTH,ComponentDrill
T4C0.500
; #@! TA.AperFunction,Plated,PTH,ComponentDrill
T5C0.650
; #@! TA.AperFunction,Plated,PTH,ComponentDrill
T6C0.800
; #@! TA.AperFunction,Plated,PTH,ComponentDrill
T7C0.950
; #@! TA.AperFunction,Plated,PTH,ComponentDrill
T8C1.000
; #@! TA.AperFunction,Plated,PTH,ComponentDrill
T9C1.200
; #@! TA.AperFunction,Plated,PTH,ComponentDrill
T10C1.300
; #@! TA.AperFunction,Plated,PTH,ComponentDrill
T11C1.400
; #@! TA.AperFunction,Plated,PTH,ComponentDrill
T12C2.200
; #@! TA.AperFunction,Plated,PTH,ComponentDrill
T13C2.350
%
G90
G05
T1
X110.7Y-45.95
X111.4Y-104.2
X112.45Y-42.2
X112.975Y-62.425
X113.4Y-82.65
X119.25Y-96.1
X123.5Y-96.75
X124.15Y-78.3
X125.25Y-91.05
X127.475Y-53.475
X127.7Y-58.05
X129.0Y-80.2
X129.0Y-85.05
X137.35Y-43.85
X139.65Y-58.0
X141.1Y-43.85
X144.45Y-44.8
X146.85Y-49.9
X146.85Y-53.8
X146.85Y-57.05
X146.85Y-62.95
X146.85Y-65.6
X146.85Y-68.45
X146.85Y-71.65
X146.85Y-78.3
X146.85Y-80.75
X146.85Y-83.35
X146.85Y-86.3
X146.85Y-92.4
X146.85Y-97.45
X146.85Y-101.05
X146.9Y-46.85
X149.45Y-44.6
X150.75Y-40.3
X150.75Y-42.4
X154.4Y-81.75
X154.45Y-52.75
X154.5Y-67.25
X154.5Y-96.5
T2
X98.783Y-104.617
X99.267Y-103.45
X99.267Y-105.783
X100.433Y-102.967
X100.433Y-106.267
X101.6Y-103.45
X101.6Y-105.783
X102.083Y-104.617
X113.883Y-32.533
X114.367Y-31.367
X114.367Y-33.7
X115.533Y-30.883
X115.533Y-34.183
X116.7Y-31.367
X116.7Y-33.7
X117.183Y-32.533
X156.217Y-43.033
X156.7Y-41.867
X156.7Y-44.2
X157.4Y-104.65
X157.867Y-41.383
X157.867Y-44.683
X157.883Y-103.483
X157.883Y-105.817
X159.033Y-41.867
X159.033Y-44.2
X159.05Y-103.0
X159.05Y-106.3
X159.517Y-43.033
X160.217Y-103.483
X160.217Y-105.817
X160.7Y-104.65
T3
X105.9Y-55.95
X109.55Y-66.138
X115.55Y-81.15
X115.55Y-85.4
X121.25Y-85.4
X131.8Y-83.55
X131.8Y-92.65
X131.8Y-102.35
X132.3Y-58.7
T4
X131.9Y-33.3
X133.1Y-33.3
X134.3Y-33.3
X138.5Y-33.3
X139.7Y-33.3
X140.9Y-33.3
X149.55Y-33.4
X150.75Y-33.4
X151.95Y-33.4
X161.3Y-66.1
X161.3Y-67.3
X161.3Y-68.5
X161.3Y-80.6
X161.3Y-81.8
X161.3Y-83.0
X161.3Y-95.3
X161.3Y-96.5
X161.3Y-97.7
X161.5Y-51.6
X161.5Y-52.8
X161.5Y-54.0
T5
X124.6Y-33.85
X124.6Y-43.85
T6
X104.35Y-44.65
X104.35Y-48.15
X108.8Y-78.35
X111.15Y-95.047
X111.15Y-98.547
X112.3Y-78.35
T7
X129.05Y-43.85
X134.05Y-43.85
T8
X100.66Y-90.93
X100.66Y-93.47
X100.66Y-96.01
X100.66Y-98.55
X103.2Y-90.93
X103.2Y-93.47
X103.2Y-96.01
X103.2Y-98.55
T9
X121.1Y-60.55
X121.1Y-63.05
X121.1Y-68.05
X121.1Y-70.55
X129.6Y-60.55
X129.6Y-70.55
T10
X104.312Y-35.4
X107.812Y-35.4
T11
X136.025Y-52.75
X136.025Y-60.35
X136.15Y-67.25
X136.15Y-74.85
X136.15Y-81.75
X136.15Y-89.35
X136.15Y-96.5
X136.15Y-104.1
X148.725Y-60.35
X148.85Y-74.85
X148.85Y-89.35
X148.85Y-104.1
X151.265Y-52.75
X151.39Y-67.25
X151.39Y-81.75
X151.39Y-96.5
T12
X100.433Y-104.617
X115.533Y-32.533
X157.867Y-43.033
X159.05Y-104.65
T13
X133.1Y-37.55G85X133.1Y-35.05
G05
X139.7Y-37.55G85X139.7Y-35.05
G05
X150.75Y-37.65G85X150.75Y-35.15
G05
X157.05Y-67.3G85X159.55Y-67.3
G05
X157.05Y-81.8G85X159.55Y-81.8
G05
X157.05Y-96.5G85X159.55Y-96.5
G05
X157.25Y-52.8G85X159.75Y-52.8
G05
M30
