G04 #@! TF.GenerationSoftware,KiCad,Pcbnew,8.0.2-8.0.2-0~ubuntu22.04.1*
G04 #@! TF.CreationDate,2024-05-22T14:55:44+07:00*
G04 #@! TF.ProjectId,PCB_design,5043425f-6465-4736-9967-6e2e6b696361,rev?*
G04 #@! TF.SameCoordinates,Original*
G04 #@! TF.FileFunction,Copper,L2,Bot*
G04 #@! TF.FilePolarity,Positive*
%FSLAX46Y46*%
G04 Gerber Fmt 4.6, Leading zero omitted, Abs format (unit mm)*
G04 Created by KiCad (PCBNEW 8.0.2-8.0.2-0~ubuntu22.04.1) date 2024-05-22 14:55:44*
%MOMM*%
%LPD*%
G01*
G04 APERTURE LIST*
G04 Aperture macros list*
%AMRoundRect*
0 Rectangle with rounded corners*
0 $1 Rounding radius*
0 $2 $3 $4 $5 $6 $7 $8 $9 X,Y pos of 4 corners*
0 Add a 4 corners polygon primitive as box body*
4,1,4,$2,$3,$4,$5,$6,$7,$8,$9,$2,$3,0*
0 Add four circle primitives for the rounded corners*
1,1,$1+$1,$2,$3*
1,1,$1+$1,$4,$5*
1,1,$1+$1,$6,$7*
1,1,$1+$1,$8,$9*
0 Add four rect primitives between the rounded corners*
20,1,$1+$1,$2,$3,$4,$5,0*
20,1,$1+$1,$4,$5,$6,$7,0*
20,1,$1+$1,$6,$7,$8,$9,0*
20,1,$1+$1,$8,$9,$2,$3,0*%
G04 Aperture macros list end*
G04 #@! TA.AperFunction,ComponentPad*
%ADD10C,0.700000*%
G04 #@! TD*
G04 #@! TA.AperFunction,ComponentPad*
%ADD11RoundRect,1.500000X1.000000X2.000000X-1.000000X2.000000X-1.000000X-2.000000X1.000000X-2.000000X0*%
G04 #@! TD*
G04 #@! TA.AperFunction,ComponentPad*
%ADD12C,4.400000*%
G04 #@! TD*
G04 #@! TA.AperFunction,ComponentPad*
%ADD13R,1.600000X1.600000*%
G04 #@! TD*
G04 #@! TA.AperFunction,ComponentPad*
%ADD14C,1.600000*%
G04 #@! TD*
G04 #@! TA.AperFunction,ComponentPad*
%ADD15C,1.524000*%
G04 #@! TD*
G04 #@! TA.AperFunction,ComponentPad*
%ADD16C,2.000000*%
G04 #@! TD*
G04 #@! TA.AperFunction,ComponentPad*
%ADD17C,4.000000*%
G04 #@! TD*
G04 #@! TA.AperFunction,ComponentPad*
%ADD18R,1.700000X1.700000*%
G04 #@! TD*
G04 #@! TA.AperFunction,ComponentPad*
%ADD19O,1.700000X1.700000*%
G04 #@! TD*
G04 #@! TA.AperFunction,ComponentPad*
%ADD20C,2.600000*%
G04 #@! TD*
G04 #@! TA.AperFunction,ComponentPad*
%ADD21RoundRect,1.500000X2.000000X-1.000000X2.000000X1.000000X-2.000000X1.000000X-2.000000X-1.000000X0*%
G04 #@! TD*
G04 #@! TA.AperFunction,ComponentPad*
%ADD22C,1.800000*%
G04 #@! TD*
G04 #@! TA.AperFunction,ViaPad*
%ADD23C,0.600000*%
G04 #@! TD*
G04 #@! TA.AperFunction,ViaPad*
%ADD24C,1.000000*%
G04 #@! TD*
G04 #@! TA.AperFunction,Conductor*
%ADD25C,0.500000*%
G04 #@! TD*
G04 #@! TA.AperFunction,Conductor*
%ADD26C,1.000000*%
G04 #@! TD*
G04 #@! TA.AperFunction,Conductor*
%ADD27C,2.000000*%
G04 #@! TD*
G04 APERTURE END LIST*
D10*
X134300000Y-33300000D03*
D11*
X133100000Y-35550000D03*
D10*
X133100000Y-33300000D03*
X131900000Y-33300000D03*
X156216726Y-43033274D03*
X156700000Y-41866548D03*
X156700000Y-44200000D03*
X157866726Y-41383274D03*
D12*
X157866726Y-43033274D03*
D10*
X157866726Y-44683274D03*
X159033452Y-41866548D03*
X159033452Y-44200000D03*
X159516726Y-43033274D03*
D13*
X104350000Y-44650000D03*
D14*
X104350000Y-48150000D03*
D15*
X124600000Y-43850000D03*
X124600000Y-33850000D03*
D16*
X134050000Y-43850000D03*
X129050000Y-43850000D03*
D17*
X148725000Y-60350000D03*
X151265000Y-52750000D03*
X136025000Y-60350000D03*
X136025000Y-52750000D03*
X148850000Y-104100000D03*
X151390000Y-96500000D03*
X136150000Y-104100000D03*
X136150000Y-96500000D03*
D18*
X103200000Y-90930000D03*
D19*
X100660000Y-90930000D03*
X103200000Y-93470000D03*
X100660000Y-93470000D03*
X103200000Y-96010000D03*
X100660000Y-96010000D03*
X103200000Y-98550000D03*
X100660000Y-98550000D03*
D17*
X148850000Y-74850000D03*
X151390000Y-67250000D03*
X136150000Y-74850000D03*
X136150000Y-67250000D03*
D20*
X107812500Y-35400000D03*
X104312500Y-35400000D03*
D10*
X140900000Y-33300000D03*
D11*
X139700000Y-35550000D03*
D10*
X139700000Y-33300000D03*
X138500000Y-33300000D03*
X113883274Y-32533274D03*
X114366548Y-31366548D03*
X114366548Y-33700000D03*
X115533274Y-30883274D03*
D12*
X115533274Y-32533274D03*
D10*
X115533274Y-34183274D03*
X116700000Y-31366548D03*
X116700000Y-33700000D03*
X117183274Y-32533274D03*
X161300000Y-83000000D03*
D21*
X159050000Y-81800000D03*
D10*
X161300000Y-81800000D03*
X161300000Y-80600000D03*
D17*
X148850000Y-89350000D03*
X151390000Y-81750000D03*
X136150000Y-89350000D03*
X136150000Y-81750000D03*
D13*
X111150000Y-95047349D03*
D14*
X111150000Y-98547349D03*
D10*
X161500000Y-54000000D03*
D21*
X159250000Y-52800000D03*
D10*
X161500000Y-52800000D03*
X161500000Y-51600000D03*
X157400000Y-104650000D03*
X157883274Y-103483274D03*
X157883274Y-105816726D03*
X159050000Y-103000000D03*
D12*
X159050000Y-104650000D03*
D10*
X159050000Y-106300000D03*
X160216726Y-103483274D03*
X160216726Y-105816726D03*
X160700000Y-104650000D03*
X98783274Y-104616726D03*
X99266548Y-103450000D03*
X99266548Y-105783452D03*
X100433274Y-102966726D03*
D12*
X100433274Y-104616726D03*
D10*
X100433274Y-106266726D03*
X101600000Y-103450000D03*
X101600000Y-105783452D03*
X102083274Y-104616726D03*
X151950000Y-33400000D03*
D11*
X150750000Y-35650000D03*
D10*
X150750000Y-33400000D03*
X149550000Y-33400000D03*
X161300000Y-97700000D03*
D21*
X159050000Y-96500000D03*
D10*
X161300000Y-96500000D03*
X161300000Y-95300000D03*
D22*
X121100000Y-68050000D03*
X121100000Y-70550000D03*
X129600000Y-70550000D03*
X129600000Y-60550000D03*
X121100000Y-63050000D03*
X121100000Y-60550000D03*
D10*
X161300000Y-68500000D03*
D21*
X159050000Y-67300000D03*
D10*
X161300000Y-67300000D03*
X161300000Y-66100000D03*
D13*
X108800000Y-78350000D03*
D14*
X112300000Y-78350000D03*
D23*
X139650000Y-58000000D03*
X127700000Y-58050000D03*
X127475000Y-53475000D03*
X112450000Y-42200000D03*
X110700000Y-45950000D03*
X112975000Y-62425000D03*
D24*
X132300000Y-58700000D03*
X115550000Y-85400000D03*
X121250000Y-85400000D03*
X131800000Y-102350000D03*
X131800000Y-92650000D03*
X115550000Y-81150000D03*
X131800000Y-83550000D03*
D23*
X146900000Y-46850000D03*
X146850000Y-101050000D03*
X146850000Y-49900000D03*
X141100000Y-43850000D03*
X137350000Y-43850000D03*
X146850000Y-86300000D03*
X146850000Y-53800000D03*
X146850000Y-62950000D03*
X144450000Y-44800000D03*
X146850000Y-80750000D03*
X146850000Y-78300000D03*
X149450000Y-44600000D03*
X146850000Y-65600000D03*
X150750000Y-40300000D03*
X146850000Y-57050000D03*
X146850000Y-92400000D03*
X146850000Y-83350000D03*
X146850000Y-68450000D03*
X150750000Y-42400000D03*
X146850000Y-97450000D03*
X146850000Y-71650000D03*
X111400000Y-104200000D03*
X129000000Y-85050000D03*
X125250000Y-91050000D03*
X124150000Y-78300000D03*
X129000000Y-80200000D03*
X119250000Y-96100000D03*
X113400000Y-82650000D03*
X123500000Y-96750000D03*
X154450000Y-52750000D03*
X154500000Y-67250000D03*
X154400000Y-81750000D03*
X154500000Y-96500000D03*
D24*
X109550000Y-66137500D03*
X105900000Y-55950000D03*
D25*
X127475000Y-53475000D02*
X127450000Y-53500000D01*
X127450000Y-57800000D02*
X127700000Y-58050000D01*
X121100000Y-50850000D02*
X121100000Y-60550000D01*
X102650000Y-42200000D02*
X101800000Y-43050000D01*
X102750000Y-48150000D02*
X104350000Y-48150000D01*
X101800000Y-47200000D02*
X102750000Y-48150000D01*
X112450000Y-42200000D02*
X102650000Y-42200000D01*
X112450000Y-42200000D02*
X121100000Y-50850000D01*
X101800000Y-43050000D02*
X101800000Y-47200000D01*
X112975000Y-46775000D02*
X112975000Y-62425000D01*
X112150000Y-45950000D02*
X112975000Y-46775000D01*
X110700000Y-45950000D02*
X112150000Y-45950000D01*
D26*
X123100000Y-83550000D02*
X131800000Y-83550000D01*
X115550000Y-81150000D02*
X115550000Y-85400000D01*
X131800000Y-92650000D02*
X131800000Y-102350000D01*
X131800000Y-83550000D02*
X131800000Y-92650000D01*
X132300000Y-58700000D02*
X133050000Y-59450000D01*
X131800000Y-80500000D02*
X131800000Y-83550000D01*
X133050000Y-59450000D02*
X133050000Y-79250000D01*
X121250000Y-85400000D02*
X123100000Y-83550000D01*
X133050000Y-79250000D02*
X131800000Y-80500000D01*
D27*
X146900000Y-46850000D02*
X146900000Y-47150000D01*
X146850000Y-57050000D02*
X146850000Y-62225000D01*
X146850000Y-101050000D02*
X146850000Y-102100000D01*
X146850000Y-71650000D02*
X146850000Y-79750000D01*
X147200000Y-46850000D02*
X146900000Y-46850000D01*
X146850000Y-80750000D02*
X146850000Y-83350000D01*
X150750000Y-42400000D02*
X150750000Y-40300000D01*
X141100000Y-43850000D02*
X143500000Y-43850000D01*
X146850000Y-86300000D02*
X146850000Y-93100000D01*
X146850000Y-92400000D02*
X146850000Y-91350000D01*
X146850000Y-72850000D02*
X148850000Y-74850000D01*
X144450000Y-44800000D02*
X146850000Y-47200000D01*
X146850000Y-78300000D02*
X146850000Y-76850000D01*
X146850000Y-87350000D02*
X148850000Y-89350000D01*
X148725000Y-60275000D02*
X146850000Y-58400000D01*
X137350000Y-43850000D02*
X141100000Y-43850000D01*
X146850000Y-71650000D02*
X146850000Y-70750000D01*
X146850000Y-101050000D02*
X146850000Y-97450000D01*
X148725000Y-60350000D02*
X148725000Y-60275000D01*
X150750000Y-40300000D02*
X150750000Y-36400000D01*
X146850000Y-83350000D02*
X146850000Y-87350000D01*
X146850000Y-97450000D02*
X146850000Y-93100000D01*
X146850000Y-57050000D02*
X146850000Y-53800000D01*
X146850000Y-49900000D02*
X146850000Y-53800000D01*
X137350000Y-43850000D02*
X134050000Y-43850000D01*
X146850000Y-68450000D02*
X146850000Y-70750000D01*
X146900000Y-47150000D02*
X146850000Y-47200000D01*
X146850000Y-49900000D02*
X146850000Y-47200000D01*
X146850000Y-80750000D02*
X146850000Y-79750000D01*
X146850000Y-62950000D02*
X146850000Y-62225000D01*
X146850000Y-70750000D02*
X146850000Y-72850000D01*
X150750000Y-43300000D02*
X149450000Y-44600000D01*
X150750000Y-42400000D02*
X150750000Y-43300000D01*
X146850000Y-92400000D02*
X146850000Y-93100000D01*
X146850000Y-78300000D02*
X146850000Y-79750000D01*
X146850000Y-91350000D02*
X148850000Y-89350000D01*
X146850000Y-68450000D02*
X146850000Y-65600000D01*
X143500000Y-43850000D02*
X144450000Y-44800000D01*
X146850000Y-102100000D02*
X148850000Y-104100000D01*
X149450000Y-44600000D02*
X147200000Y-46850000D01*
X146850000Y-76850000D02*
X148850000Y-74850000D01*
X148725000Y-60350000D02*
X146850000Y-62225000D01*
X146850000Y-86300000D02*
X146850000Y-83350000D01*
X146850000Y-62950000D02*
X146850000Y-65600000D01*
D25*
X106050000Y-98860000D02*
X103200000Y-96010000D01*
X111400000Y-104200000D02*
X106060000Y-98860000D01*
X106060000Y-98860000D02*
X106050000Y-98860000D01*
X125780000Y-93470000D02*
X103200000Y-93470000D01*
X129000000Y-90250000D02*
X125780000Y-93470000D01*
X129000000Y-85050000D02*
X129000000Y-90250000D01*
X125250000Y-91050000D02*
X125250000Y-89300000D01*
X100660000Y-89240000D02*
X100660000Y-90930000D01*
X124400000Y-88450000D02*
X101450000Y-88450000D01*
X101450000Y-88450000D02*
X100660000Y-89240000D01*
X125250000Y-89300000D02*
X124400000Y-88450000D01*
X124150000Y-78300000D02*
X115400000Y-87050000D01*
X98850000Y-89150000D02*
X98850000Y-92900000D01*
X99420000Y-93470000D02*
X100660000Y-93470000D01*
X100950000Y-87050000D02*
X98850000Y-89150000D01*
X98850000Y-92900000D02*
X99420000Y-93470000D01*
X115400000Y-87050000D02*
X100950000Y-87050000D01*
X129000000Y-80200000D02*
X130950000Y-78250000D01*
X130950000Y-78250000D02*
X130950000Y-61900000D01*
X113400000Y-81400000D02*
X112300000Y-80300000D01*
X130950000Y-61900000D02*
X129600000Y-60550000D01*
X119250000Y-96100000D02*
X122850000Y-96100000D01*
X112300000Y-80300000D02*
X112300000Y-78350000D01*
X122850000Y-96100000D02*
X123500000Y-96750000D01*
X113400000Y-82650000D02*
X113400000Y-81400000D01*
D27*
X154450000Y-52750000D02*
X158450000Y-52750000D01*
X151265000Y-52750000D02*
X154450000Y-52750000D01*
X158450000Y-52750000D02*
X158500000Y-52800000D01*
X151390000Y-67250000D02*
X154500000Y-67250000D01*
X154500000Y-67250000D02*
X158250000Y-67250000D01*
X158250000Y-67250000D02*
X158300000Y-67300000D01*
X154400000Y-81750000D02*
X158250000Y-81750000D01*
X158250000Y-81750000D02*
X158300000Y-81800000D01*
X151390000Y-81750000D02*
X154400000Y-81750000D01*
X154500000Y-96500000D02*
X158300000Y-96500000D01*
X151390000Y-96500000D02*
X154500000Y-96500000D01*
D26*
X109550000Y-52300000D02*
X109550000Y-49850000D01*
X109550000Y-66137500D02*
X119187500Y-66137500D01*
X119187500Y-66137500D02*
X121100000Y-68050000D01*
X109550000Y-49850000D02*
X104350000Y-44650000D01*
X105900000Y-55950000D02*
X109550000Y-52300000D01*
X105900000Y-55950000D02*
X109550000Y-59600000D01*
X109550000Y-59600000D02*
X109550000Y-66137500D01*
D25*
X127450000Y-53500000D02*
X127450000Y-57800000D01*
X138000000Y-56350000D02*
X139650000Y-58000000D01*
X130350000Y-56350000D02*
X138000000Y-56350000D01*
X127475000Y-53475000D02*
X130350000Y-56350000D01*
M02*
