G04 #@! TF.GenerationSoftware,KiCad,Pcbnew,8.0.2-8.0.2-0~ubuntu22.04.1*
G04 #@! TF.CreationDate,2024-05-20T16:02:00+07:00*
G04 #@! TF.ProjectId,PCB_design,5043425f-6465-4736-9967-6e2e6b696361,rev?*
G04 #@! TF.SameCoordinates,Original*
G04 #@! TF.FileFunction,Soldermask,Bot*
G04 #@! TF.FilePolarity,Negative*
%FSLAX46Y46*%
G04 Gerber Fmt 4.6, Leading zero omitted, Abs format (unit mm)*
G04 Created by KiCad (PCBNEW 8.0.2-8.0.2-0~ubuntu22.04.1) date 2024-05-20 16:02:00*
%MOMM*%
%LPD*%
G01*
G04 APERTURE LIST*
%ADD10C,0.700000*%
%ADD11C,4.400000*%
%ADD12C,1.800000*%
%ADD13C,4.000000*%
%ADD14R,1.700000X1.700000*%
%ADD15O,1.700000X1.700000*%
%ADD16R,1.600000X1.600000*%
%ADD17C,1.600000*%
%ADD18C,1.524000*%
%ADD19C,2.000000*%
%ADD20C,2.600000*%
G04 APERTURE END LIST*
D10*
X95450000Y-90500000D03*
X95933274Y-89333274D03*
X95933274Y-91666726D03*
X97100000Y-88850000D03*
D11*
X97100000Y-90500000D03*
D10*
X97100000Y-92150000D03*
X98266726Y-89333274D03*
X98266726Y-91666726D03*
X98750000Y-90500000D03*
X106200000Y-31916726D03*
X106683274Y-30750000D03*
X106683274Y-33083452D03*
X107850000Y-30266726D03*
D11*
X107850000Y-31916726D03*
D10*
X107850000Y-33566726D03*
X109016726Y-30750000D03*
X109016726Y-33083452D03*
X109500000Y-31916726D03*
X154100000Y-85350000D03*
X154583274Y-84183274D03*
X154583274Y-86516726D03*
X155750000Y-83700000D03*
D11*
X155750000Y-85350000D03*
D10*
X155750000Y-87000000D03*
X156916726Y-84183274D03*
X156916726Y-86516726D03*
X157400000Y-85350000D03*
X153600000Y-41750000D03*
X154083274Y-40583274D03*
X154083274Y-42916726D03*
X155250000Y-40100000D03*
D11*
X155250000Y-41750000D03*
D10*
X155250000Y-43400000D03*
X156416726Y-40583274D03*
X156416726Y-42916726D03*
X156900000Y-41750000D03*
D12*
X100500000Y-71500000D03*
X98000000Y-71500000D03*
X98000000Y-80000000D03*
X108000000Y-80000000D03*
X105500000Y-71500000D03*
X108000000Y-71500000D03*
D13*
X146750000Y-85500000D03*
X149290000Y-77900000D03*
X134050000Y-85500000D03*
X134050000Y-77900000D03*
X146750000Y-70750000D03*
X149290000Y-63150000D03*
X134050000Y-70750000D03*
X134050000Y-63150000D03*
X146750000Y-56250000D03*
X149290000Y-48650000D03*
X134050000Y-56250000D03*
X134050000Y-48650000D03*
X146625000Y-41750000D03*
X149165000Y-34150000D03*
X133925000Y-41750000D03*
X133925000Y-34150000D03*
D14*
X155250000Y-78000000D03*
X100500000Y-58775000D03*
D15*
X100500000Y-56235000D03*
X100500000Y-53695000D03*
D16*
X114650000Y-36252651D03*
D17*
X114650000Y-32752651D03*
D18*
X100500000Y-40250000D03*
X100500000Y-50250000D03*
D19*
X100500000Y-64250000D03*
X105500000Y-64250000D03*
D14*
X155750000Y-48500000D03*
X155900000Y-34250000D03*
D20*
X109180000Y-42470000D03*
X105680000Y-42470000D03*
D17*
X120750000Y-68152651D03*
D16*
X120750000Y-71652651D03*
D15*
X112620000Y-80240000D03*
X112620000Y-77700000D03*
X115160000Y-80240000D03*
X115160000Y-77700000D03*
X117700000Y-80240000D03*
X117700000Y-77700000D03*
X120240000Y-80240000D03*
D14*
X120240000Y-77700000D03*
X155250000Y-63000000D03*
D16*
X114487500Y-84762500D03*
D17*
X114487500Y-88262500D03*
M02*
