G04 #@! TF.GenerationSoftware,KiCad,Pcbnew,8.0.2-8.0.2-0~ubuntu22.04.1*
G04 #@! TF.CreationDate,2024-05-22T14:55:43+07:00*
G04 #@! TF.ProjectId,PCB_design,5043425f-6465-4736-9967-6e2e6b696361,rev?*
G04 #@! TF.SameCoordinates,Original*
G04 #@! TF.FileFunction,Copper,L1,Top*
G04 #@! TF.FilePolarity,Positive*
%FSLAX46Y46*%
G04 Gerber Fmt 4.6, Leading zero omitted, Abs format (unit mm)*
G04 Created by KiCad (PCBNEW 8.0.2-8.0.2-0~ubuntu22.04.1) date 2024-05-22 14:55:43*
%MOMM*%
%LPD*%
G01*
G04 APERTURE LIST*
G04 Aperture macros list*
%AMRoundRect*
0 Rectangle with rounded corners*
0 $1 Rounding radius*
0 $2 $3 $4 $5 $6 $7 $8 $9 X,Y pos of 4 corners*
0 Add a 4 corners polygon primitive as box body*
4,1,4,$2,$3,$4,$5,$6,$7,$8,$9,$2,$3,0*
0 Add four circle primitives for the rounded corners*
1,1,$1+$1,$2,$3*
1,1,$1+$1,$4,$5*
1,1,$1+$1,$6,$7*
1,1,$1+$1,$8,$9*
0 Add four rect primitives between the rounded corners*
20,1,$1+$1,$2,$3,$4,$5,0*
20,1,$1+$1,$4,$5,$6,$7,0*
20,1,$1+$1,$6,$7,$8,$9,0*
20,1,$1+$1,$8,$9,$2,$3,0*%
G04 Aperture macros list end*
G04 #@! TA.AperFunction,SMDPad,CuDef*
%ADD10RoundRect,0.250000X-0.450000X0.262500X-0.450000X-0.262500X0.450000X-0.262500X0.450000X0.262500X0*%
G04 #@! TD*
G04 #@! TA.AperFunction,SMDPad,CuDef*
%ADD11RoundRect,0.225000X0.375000X-0.225000X0.375000X0.225000X-0.375000X0.225000X-0.375000X-0.225000X0*%
G04 #@! TD*
G04 #@! TA.AperFunction,SMDPad,CuDef*
%ADD12RoundRect,0.250000X0.475000X-0.250000X0.475000X0.250000X-0.475000X0.250000X-0.475000X-0.250000X0*%
G04 #@! TD*
G04 #@! TA.AperFunction,SMDPad,CuDef*
%ADD13RoundRect,0.250000X0.625000X-0.312500X0.625000X0.312500X-0.625000X0.312500X-0.625000X-0.312500X0*%
G04 #@! TD*
G04 #@! TA.AperFunction,ComponentPad*
%ADD14C,0.700000*%
G04 #@! TD*
G04 #@! TA.AperFunction,ComponentPad*
%ADD15RoundRect,1.500000X1.000000X2.000000X-1.000000X2.000000X-1.000000X-2.000000X1.000000X-2.000000X0*%
G04 #@! TD*
G04 #@! TA.AperFunction,SMDPad,CuDef*
%ADD16RoundRect,0.250000X0.450000X-0.262500X0.450000X0.262500X-0.450000X0.262500X-0.450000X-0.262500X0*%
G04 #@! TD*
G04 #@! TA.AperFunction,ComponentPad*
%ADD17C,4.400000*%
G04 #@! TD*
G04 #@! TA.AperFunction,ComponentPad*
%ADD18R,1.600000X1.600000*%
G04 #@! TD*
G04 #@! TA.AperFunction,ComponentPad*
%ADD19C,1.600000*%
G04 #@! TD*
G04 #@! TA.AperFunction,SMDPad,CuDef*
%ADD20RoundRect,0.150000X0.675000X0.150000X-0.675000X0.150000X-0.675000X-0.150000X0.675000X-0.150000X0*%
G04 #@! TD*
G04 #@! TA.AperFunction,ComponentPad*
%ADD21C,1.524000*%
G04 #@! TD*
G04 #@! TA.AperFunction,SMDPad,CuDef*
%ADD22RoundRect,0.250000X-1.000000X-0.650000X1.000000X-0.650000X1.000000X0.650000X-1.000000X0.650000X0*%
G04 #@! TD*
G04 #@! TA.AperFunction,ComponentPad*
%ADD23C,2.000000*%
G04 #@! TD*
G04 #@! TA.AperFunction,ComponentPad*
%ADD24C,4.000000*%
G04 #@! TD*
G04 #@! TA.AperFunction,SMDPad,CuDef*
%ADD25RoundRect,0.150000X-0.587500X-0.150000X0.587500X-0.150000X0.587500X0.150000X-0.587500X0.150000X0*%
G04 #@! TD*
G04 #@! TA.AperFunction,ComponentPad*
%ADD26R,1.700000X1.700000*%
G04 #@! TD*
G04 #@! TA.AperFunction,ComponentPad*
%ADD27O,1.700000X1.700000*%
G04 #@! TD*
G04 #@! TA.AperFunction,ComponentPad*
%ADD28C,2.600000*%
G04 #@! TD*
G04 #@! TA.AperFunction,ComponentPad*
%ADD29RoundRect,1.500000X2.000000X-1.000000X2.000000X1.000000X-2.000000X1.000000X-2.000000X-1.000000X0*%
G04 #@! TD*
G04 #@! TA.AperFunction,SMDPad,CuDef*
%ADD30RoundRect,0.375000X-0.375000X0.625000X-0.375000X-0.625000X0.375000X-0.625000X0.375000X0.625000X0*%
G04 #@! TD*
G04 #@! TA.AperFunction,SMDPad,CuDef*
%ADD31RoundRect,0.500000X-1.400000X0.500000X-1.400000X-0.500000X1.400000X-0.500000X1.400000X0.500000X0*%
G04 #@! TD*
G04 #@! TA.AperFunction,SMDPad,CuDef*
%ADD32RoundRect,0.250000X0.312500X0.625000X-0.312500X0.625000X-0.312500X-0.625000X0.312500X-0.625000X0*%
G04 #@! TD*
G04 #@! TA.AperFunction,SMDPad,CuDef*
%ADD33RoundRect,0.250000X0.262500X0.450000X-0.262500X0.450000X-0.262500X-0.450000X0.262500X-0.450000X0*%
G04 #@! TD*
G04 #@! TA.AperFunction,SMDPad,CuDef*
%ADD34RoundRect,0.250000X-0.625000X0.312500X-0.625000X-0.312500X0.625000X-0.312500X0.625000X0.312500X0*%
G04 #@! TD*
G04 #@! TA.AperFunction,SMDPad,CuDef*
%ADD35RoundRect,0.250000X0.650000X-0.325000X0.650000X0.325000X-0.650000X0.325000X-0.650000X-0.325000X0*%
G04 #@! TD*
G04 #@! TA.AperFunction,ComponentPad*
%ADD36C,1.800000*%
G04 #@! TD*
G04 #@! TA.AperFunction,SMDPad,CuDef*
%ADD37R,1.000000X0.700000*%
G04 #@! TD*
G04 #@! TA.AperFunction,SMDPad,CuDef*
%ADD38RoundRect,0.250000X0.250000X0.475000X-0.250000X0.475000X-0.250000X-0.475000X0.250000X-0.475000X0*%
G04 #@! TD*
G04 #@! TA.AperFunction,ViaPad*
%ADD39C,0.600000*%
G04 #@! TD*
G04 #@! TA.AperFunction,ViaPad*
%ADD40C,1.000000*%
G04 #@! TD*
G04 #@! TA.AperFunction,Conductor*
%ADD41C,0.500000*%
G04 #@! TD*
G04 #@! TA.AperFunction,Conductor*
%ADD42C,2.000000*%
G04 #@! TD*
G04 #@! TA.AperFunction,Conductor*
%ADD43C,1.000000*%
G04 #@! TD*
G04 APERTURE END LIST*
D10*
X106900000Y-51437500D03*
X106900000Y-53262500D03*
D11*
X131900000Y-89300000D03*
X131900000Y-86000000D03*
D12*
X117050000Y-93712500D03*
X117050000Y-91812500D03*
D13*
X100800000Y-61462500D03*
X100800000Y-58537500D03*
D14*
X134300000Y-33300000D03*
D15*
X133100000Y-35550000D03*
D14*
X133100000Y-33300000D03*
X131900000Y-33300000D03*
D16*
X125500000Y-86862500D03*
X125500000Y-85037500D03*
D14*
X156216726Y-43033274D03*
X156700000Y-41866548D03*
X156700000Y-44200000D03*
X157866726Y-41383274D03*
D17*
X157866726Y-43033274D03*
D14*
X157866726Y-44683274D03*
X159033452Y-41866548D03*
X159033452Y-44200000D03*
X159516726Y-43033274D03*
D11*
X131700000Y-56900000D03*
X131700000Y-53600000D03*
D16*
X125250000Y-97362500D03*
X125250000Y-95537500D03*
D18*
X104350000Y-44650000D03*
D19*
X104350000Y-48150000D03*
D20*
X115925000Y-51055000D03*
X115925000Y-49785000D03*
X115925000Y-48515000D03*
X115925000Y-47245000D03*
X110675000Y-47245000D03*
X110675000Y-48515000D03*
X110675000Y-49785000D03*
X110675000Y-51055000D03*
D21*
X124600000Y-43850000D03*
X124600000Y-33850000D03*
D22*
X103950000Y-59000000D03*
X107950000Y-59000000D03*
D13*
X105600000Y-66137500D03*
X105600000Y-63212500D03*
D23*
X134050000Y-43850000D03*
X129050000Y-43850000D03*
D22*
X112000000Y-57200000D03*
X116000000Y-57200000D03*
D11*
X131800000Y-99800000D03*
X131800000Y-96500000D03*
D24*
X148725000Y-60350000D03*
X151265000Y-52750000D03*
X136025000Y-60350000D03*
X136025000Y-52750000D03*
D25*
X127575000Y-85050000D03*
X127575000Y-86950000D03*
X129450000Y-86000000D03*
D24*
X148850000Y-104100000D03*
X151390000Y-96500000D03*
X136150000Y-104100000D03*
X136150000Y-96500000D03*
D26*
X103200000Y-90930000D03*
D27*
X100660000Y-90930000D03*
X103200000Y-93470000D03*
X100660000Y-93470000D03*
X103200000Y-96010000D03*
X100660000Y-96010000D03*
X103200000Y-98550000D03*
X100660000Y-98550000D03*
D13*
X103150000Y-66200000D03*
X103150000Y-63275000D03*
D24*
X148850000Y-74850000D03*
X151390000Y-67250000D03*
X136150000Y-74850000D03*
X136150000Y-67250000D03*
D16*
X125500000Y-80112500D03*
X125500000Y-78287500D03*
D28*
X107812500Y-35400000D03*
X104312500Y-35400000D03*
D14*
X140900000Y-33300000D03*
D15*
X139700000Y-35550000D03*
D14*
X139700000Y-33300000D03*
X138500000Y-33300000D03*
D25*
X127675000Y-78300000D03*
X127675000Y-80200000D03*
X129550000Y-79250000D03*
D13*
X118700000Y-54712500D03*
X118700000Y-51787500D03*
D14*
X113883274Y-32533274D03*
X114366548Y-31366548D03*
X114366548Y-33700000D03*
X115533274Y-30883274D03*
D17*
X115533274Y-32533274D03*
D14*
X115533274Y-34183274D03*
X116700000Y-31366548D03*
X116700000Y-33700000D03*
X117183274Y-32533274D03*
D25*
X127462500Y-95537500D03*
X127462500Y-97437500D03*
X129337500Y-96487500D03*
D14*
X161300000Y-83000000D03*
D29*
X159050000Y-81800000D03*
D14*
X161300000Y-81800000D03*
X161300000Y-80600000D03*
D24*
X148850000Y-89350000D03*
X151390000Y-81750000D03*
X136150000Y-89350000D03*
X136150000Y-81750000D03*
D13*
X102100000Y-56162500D03*
X102100000Y-53237500D03*
D30*
X113400000Y-84350000D03*
X111100000Y-84350000D03*
D31*
X111100000Y-90650000D03*
D30*
X108800000Y-84350000D03*
D32*
X107375000Y-55950000D03*
X104450000Y-55950000D03*
D33*
X129512500Y-56650000D03*
X127687500Y-56650000D03*
D25*
X127475000Y-52650000D03*
X127475000Y-54550000D03*
X129350000Y-53600000D03*
D18*
X111150000Y-95047349D03*
D19*
X111150000Y-98547349D03*
D34*
X118700000Y-46837500D03*
X118700000Y-49762500D03*
D14*
X161500000Y-54000000D03*
D29*
X159250000Y-52800000D03*
D14*
X161500000Y-52800000D03*
X161500000Y-51600000D03*
D32*
X116962500Y-44750000D03*
X114037500Y-44750000D03*
D16*
X119250000Y-93675000D03*
X119250000Y-91850000D03*
D14*
X157400000Y-104650000D03*
X157883274Y-103483274D03*
X157883274Y-105816726D03*
X159050000Y-103000000D03*
D17*
X159050000Y-104650000D03*
D14*
X159050000Y-106300000D03*
X160216726Y-103483274D03*
X160216726Y-105816726D03*
X160700000Y-104650000D03*
D35*
X100800000Y-66225000D03*
X100800000Y-63275000D03*
D32*
X107262500Y-40650000D03*
X104337500Y-40650000D03*
D14*
X98783274Y-104616726D03*
X99266548Y-103450000D03*
X99266548Y-105783452D03*
X100433274Y-102966726D03*
D17*
X100433274Y-104616726D03*
D14*
X100433274Y-106266726D03*
X101600000Y-103450000D03*
X101600000Y-105783452D03*
X102083274Y-104616726D03*
D22*
X117850000Y-81150000D03*
X121850000Y-81150000D03*
D14*
X151950000Y-33400000D03*
D15*
X150750000Y-35650000D03*
D14*
X150750000Y-33400000D03*
X149550000Y-33400000D03*
X161300000Y-97700000D03*
D29*
X159050000Y-96500000D03*
D14*
X161300000Y-96500000D03*
X161300000Y-95300000D03*
D36*
X121100000Y-68050000D03*
X121100000Y-70550000D03*
X129600000Y-70550000D03*
X129600000Y-60550000D03*
X121100000Y-63050000D03*
X121100000Y-60550000D03*
D11*
X131850000Y-81400000D03*
X131850000Y-78100000D03*
D37*
X111400000Y-35950000D03*
X111400000Y-39950000D03*
X117350000Y-39950000D03*
X117350000Y-35950000D03*
D14*
X161300000Y-68500000D03*
D29*
X159050000Y-67300000D03*
D14*
X161300000Y-67300000D03*
X161300000Y-66100000D03*
D38*
X114450000Y-53100000D03*
X112550000Y-53100000D03*
D18*
X108800000Y-78350000D03*
D19*
X112300000Y-78350000D03*
D39*
X139650000Y-58000000D03*
X127700000Y-58050000D03*
X127475000Y-53475000D03*
X112450000Y-42200000D03*
X110700000Y-45950000D03*
X112975000Y-62425000D03*
D40*
X132300000Y-58700000D03*
X115550000Y-85400000D03*
X121250000Y-85400000D03*
X131800000Y-102350000D03*
X131800000Y-92650000D03*
X115550000Y-81150000D03*
X131800000Y-83550000D03*
D39*
X146900000Y-46850000D03*
X146850000Y-101050000D03*
X146850000Y-49900000D03*
X141100000Y-43850000D03*
X137350000Y-43850000D03*
X146850000Y-86300000D03*
X146850000Y-53800000D03*
X146850000Y-62950000D03*
X144450000Y-44800000D03*
X146850000Y-80750000D03*
X146850000Y-78300000D03*
X149450000Y-44600000D03*
X146850000Y-65600000D03*
X150750000Y-40300000D03*
X146850000Y-57050000D03*
X146850000Y-92400000D03*
X146850000Y-83350000D03*
X146850000Y-68450000D03*
X150750000Y-42400000D03*
X146850000Y-97450000D03*
X146850000Y-71650000D03*
X111400000Y-104200000D03*
X129000000Y-85050000D03*
X125250000Y-91050000D03*
X124150000Y-78300000D03*
X129000000Y-80200000D03*
X119250000Y-96100000D03*
X113400000Y-82650000D03*
X123500000Y-96750000D03*
X154450000Y-52750000D03*
X154500000Y-67250000D03*
X154400000Y-81750000D03*
X154500000Y-96500000D03*
D40*
X109550000Y-66137500D03*
X105900000Y-55950000D03*
D41*
X139650000Y-58000000D02*
X139650000Y-105650000D01*
X127475000Y-53475000D02*
X127475000Y-52650000D01*
X114300000Y-107100000D02*
X111400000Y-104200000D01*
X139650000Y-105650000D02*
X138200000Y-107100000D01*
X138200000Y-107100000D02*
X114300000Y-107100000D01*
X127687500Y-58037500D02*
X127700000Y-58050000D01*
X127687500Y-56650000D02*
X127687500Y-58037500D01*
X115750000Y-42200000D02*
X116962500Y-43412500D01*
X112205000Y-51055000D02*
X112550000Y-51400000D01*
X108631002Y-50137500D02*
X108587500Y-50137500D01*
X112450000Y-42200000D02*
X111400000Y-41150000D01*
X118050000Y-44750000D02*
X116962500Y-44750000D01*
X116962500Y-43412500D02*
X116962500Y-44750000D01*
X111400000Y-41150000D02*
X111400000Y-39950000D01*
X118700000Y-45400000D02*
X118050000Y-44750000D01*
X118700000Y-46837500D02*
X118700000Y-45400000D01*
X112450000Y-42200000D02*
X115750000Y-42200000D01*
X108587500Y-50137500D02*
X106600000Y-48150000D01*
X110675000Y-51055000D02*
X112205000Y-51055000D01*
X109548502Y-51055000D02*
X108631002Y-50137500D01*
X112550000Y-51400000D02*
X112550000Y-53100000D01*
X106600000Y-48150000D02*
X104350000Y-48150000D01*
X110675000Y-51055000D02*
X109548502Y-51055000D01*
D42*
X133100000Y-36300000D02*
X127050000Y-36300000D01*
X122500000Y-35950000D02*
X117350000Y-35950000D01*
X139700000Y-36300000D02*
X133100000Y-36300000D01*
X127050000Y-36300000D02*
X124600000Y-33850000D01*
X124600000Y-33850000D02*
X122500000Y-35950000D01*
X120700000Y-39950000D02*
X124600000Y-43850000D01*
X129050000Y-43850000D02*
X124600000Y-43850000D01*
X117350000Y-39950000D02*
X120700000Y-39950000D01*
D43*
X115350000Y-53100000D02*
X115925000Y-52525000D01*
X108587500Y-51437500D02*
X106900000Y-51437500D01*
X113800000Y-54650000D02*
X111800000Y-54650000D01*
X104012500Y-53237500D02*
X102100000Y-53237500D01*
X114450000Y-53100000D02*
X115350000Y-53100000D01*
X114450000Y-53100000D02*
X114450000Y-54000000D01*
X115925000Y-52525000D02*
X115925000Y-51055000D01*
X111800000Y-54650000D02*
X108587500Y-51437500D01*
X105812500Y-51437500D02*
X104012500Y-53237500D01*
X114450000Y-54000000D02*
X113800000Y-54650000D01*
X106900000Y-51437500D02*
X105812500Y-51437500D01*
X109650000Y-35400000D02*
X110200000Y-35950000D01*
X110200000Y-35950000D02*
X111400000Y-35950000D01*
X107300000Y-38500000D02*
X107812500Y-37987500D01*
X107262500Y-40650000D02*
X107300000Y-40612500D01*
X107812500Y-35400000D02*
X109650000Y-35400000D01*
X107300000Y-40612500D02*
X107300000Y-38500000D01*
X107812500Y-37987500D02*
X107812500Y-35400000D01*
D41*
X103487500Y-58537500D02*
X103950000Y-59000000D01*
X100800000Y-58537500D02*
X103487500Y-58537500D01*
X110675000Y-47245000D02*
X110675000Y-48515000D01*
X107950000Y-59000000D02*
X109550000Y-59000000D01*
X112975000Y-62425000D02*
X121100000Y-70550000D01*
X110675000Y-45975000D02*
X110700000Y-45950000D01*
X110675000Y-47245000D02*
X110675000Y-45975000D01*
X109550000Y-59000000D02*
X112975000Y-62425000D01*
X112000000Y-57200000D02*
X108062500Y-53262500D01*
X108062500Y-53262500D02*
X106900000Y-53262500D01*
D43*
X118850000Y-60800000D02*
X118850000Y-58100000D01*
X121100000Y-63050000D02*
X118850000Y-60800000D01*
X118700000Y-54712500D02*
X118700000Y-56450000D01*
X117950000Y-57200000D02*
X116000000Y-57200000D01*
X118850000Y-58100000D02*
X117950000Y-57200000D01*
X118700000Y-56450000D02*
X117950000Y-57200000D01*
X129600000Y-75900000D02*
X128550000Y-76950000D01*
X121850000Y-78800000D02*
X121850000Y-81150000D01*
X128550000Y-76950000D02*
X123700000Y-76950000D01*
X123700000Y-76950000D02*
X121850000Y-78800000D01*
X129600000Y-70550000D02*
X129600000Y-75900000D01*
X136150000Y-101050000D02*
X136150000Y-104100000D01*
X117850000Y-81150000D02*
X111600000Y-81150000D01*
X131850000Y-81400000D02*
X131850000Y-80450000D01*
X136010000Y-89310000D02*
X136110000Y-89410000D01*
X134900000Y-99800000D02*
X136150000Y-101050000D01*
X131700000Y-58100000D02*
X131700000Y-56900000D01*
X136025000Y-58025000D02*
X136025000Y-60350000D01*
X131700000Y-56900000D02*
X134900000Y-56900000D01*
X134900000Y-56900000D02*
X136025000Y-58025000D01*
X131800000Y-83550000D02*
X131800000Y-81450000D01*
X136060000Y-104060000D02*
X136110000Y-104110000D01*
X115550000Y-85400000D02*
X121250000Y-85400000D01*
X132300000Y-58700000D02*
X131700000Y-58100000D01*
X136100000Y-89300000D02*
X136150000Y-89350000D01*
X111600000Y-81150000D02*
X108800000Y-78350000D01*
X136150000Y-76150000D02*
X136150000Y-74850000D01*
X131800000Y-89400000D02*
X131900000Y-89300000D01*
X108800000Y-84350000D02*
X108800000Y-78350000D01*
X131800000Y-102350000D02*
X131800000Y-99800000D01*
X131900000Y-89300000D02*
X136100000Y-89300000D01*
X131850000Y-80450000D02*
X136150000Y-76150000D01*
X131800000Y-92650000D02*
X131800000Y-89400000D01*
X131800000Y-99800000D02*
X134900000Y-99800000D01*
X131800000Y-81450000D02*
X131850000Y-81400000D01*
X135175000Y-53600000D02*
X136025000Y-52750000D01*
X131700000Y-53600000D02*
X135175000Y-53600000D01*
X129350000Y-53600000D02*
X131700000Y-53600000D01*
X131850000Y-78100000D02*
X130000000Y-78100000D01*
X129550000Y-78550000D02*
X129550000Y-79250000D01*
X130000000Y-78100000D02*
X129550000Y-78550000D01*
X131850000Y-78100000D02*
X131850000Y-71550000D01*
X131850000Y-71550000D02*
X136150000Y-67250000D01*
X134950000Y-86000000D02*
X136150000Y-84800000D01*
X131900000Y-86000000D02*
X129450000Y-86000000D01*
X136150000Y-84800000D02*
X136150000Y-81750000D01*
X131900000Y-86000000D02*
X134950000Y-86000000D01*
X131800000Y-96500000D02*
X129350000Y-96500000D01*
X129350000Y-96500000D02*
X129337500Y-96487500D01*
X131800000Y-96500000D02*
X136150000Y-96500000D01*
D42*
X146850000Y-58400000D02*
X146850000Y-47200000D01*
D43*
X148910000Y-74850000D02*
X148860000Y-74800000D01*
D42*
X148725000Y-60350000D02*
X148725000Y-60275000D01*
D43*
X148815000Y-104110000D02*
X148775000Y-104150000D01*
D42*
X146850000Y-86150000D02*
X146850000Y-93950000D01*
X146850000Y-86150000D02*
X146850000Y-76850000D01*
X146850000Y-47200000D02*
X143500000Y-43850000D01*
X146850000Y-68150000D02*
X146850000Y-66050000D01*
X143500000Y-43850000D02*
X134050000Y-43850000D01*
X148725000Y-60275000D02*
X146850000Y-58400000D01*
X146850000Y-93950000D02*
X146850000Y-91350000D01*
D43*
X148915000Y-89410000D02*
X148875000Y-89450000D01*
D42*
X146850000Y-66050000D02*
X146850000Y-58400000D01*
X146850000Y-76850000D02*
X148850000Y-74850000D01*
X146850000Y-91350000D02*
X148850000Y-89350000D01*
X148850000Y-104100000D02*
X146850000Y-102100000D01*
X146850000Y-102100000D02*
X146850000Y-93950000D01*
X146850000Y-66050000D02*
X146850000Y-62225000D01*
X146850000Y-68150000D02*
X146850000Y-76850000D01*
X146850000Y-47200000D02*
X150750000Y-43300000D01*
X146850000Y-72850000D02*
X146850000Y-68150000D01*
X146850000Y-87350000D02*
X146850000Y-86150000D01*
X148850000Y-74850000D02*
X146850000Y-72850000D01*
X148850000Y-89350000D02*
X146850000Y-87350000D01*
X150750000Y-43300000D02*
X150750000Y-36400000D01*
X146850000Y-62225000D02*
X148725000Y-60350000D01*
D41*
X127575000Y-85050000D02*
X129000000Y-85050000D01*
X127575000Y-85050000D02*
X125512500Y-85050000D01*
X125512500Y-85050000D02*
X125500000Y-85037500D01*
D43*
X114662500Y-91812500D02*
X117050000Y-91812500D01*
X121950000Y-99100000D02*
X119750000Y-101300000D01*
X103410000Y-101300000D02*
X100660000Y-98550000D01*
X119212500Y-91812500D02*
X119250000Y-91850000D01*
X119750000Y-101300000D02*
X103410000Y-101300000D01*
X121950000Y-92950000D02*
X121950000Y-99100000D01*
X111100000Y-94997349D02*
X111150000Y-95047349D01*
X120850000Y-91850000D02*
X121950000Y-92950000D01*
X119250000Y-91850000D02*
X120850000Y-91850000D01*
X117050000Y-91812500D02*
X119212500Y-91812500D01*
X111100000Y-90650000D02*
X113500000Y-90650000D01*
X111100000Y-84350000D02*
X111100000Y-90650000D01*
X111100000Y-90650000D02*
X111100000Y-94997349D01*
X113500000Y-90650000D02*
X114662500Y-91812500D01*
D41*
X127462500Y-95537500D02*
X125250000Y-95537500D01*
X125250000Y-95537500D02*
X125250000Y-91050000D01*
X127675000Y-78300000D02*
X125512500Y-78300000D01*
X125500000Y-78287500D02*
X124162500Y-78287500D01*
X125512500Y-78300000D02*
X125500000Y-78287500D01*
X124162500Y-78287500D02*
X124150000Y-78300000D01*
X103202651Y-98547349D02*
X103200000Y-98550000D01*
X117050000Y-93712500D02*
X117050000Y-97400000D01*
X125587500Y-86950000D02*
X125500000Y-86862500D01*
X125500000Y-80625000D02*
X121775000Y-84350000D01*
X127675000Y-80200000D02*
X129000000Y-80200000D01*
X111150000Y-98547349D02*
X103202651Y-98547349D01*
X129600000Y-60550000D02*
X129600000Y-56737500D01*
X129512500Y-55162500D02*
X129512500Y-56650000D01*
X129600000Y-56737500D02*
X129512500Y-56650000D01*
X117050000Y-97400000D02*
X115902651Y-98547349D01*
X127575000Y-86950000D02*
X125587500Y-86950000D01*
X125500000Y-80112500D02*
X125500000Y-80625000D01*
X113400000Y-84350000D02*
X119650000Y-84350000D01*
X127475000Y-54550000D02*
X128900000Y-54550000D01*
X119250000Y-93675000D02*
X119250000Y-96100000D01*
X123500000Y-96750000D02*
X123500000Y-87650000D01*
X121775000Y-84350000D02*
X124287500Y-86862500D01*
X121775000Y-84350000D02*
X119650000Y-84350000D01*
X127462500Y-97437500D02*
X125325000Y-97437500D01*
X124287500Y-86862500D02*
X125500000Y-86862500D01*
X125587500Y-80200000D02*
X125500000Y-80112500D01*
X127675000Y-80200000D02*
X125587500Y-80200000D01*
X125250000Y-97362500D02*
X124112500Y-97362500D01*
X119250000Y-93675000D02*
X117087500Y-93675000D01*
X115902651Y-98547349D02*
X111150000Y-98547349D01*
X123500000Y-87650000D02*
X124287500Y-86862500D01*
X124112500Y-97362500D02*
X123500000Y-96750000D01*
X113400000Y-82650000D02*
X113400000Y-84350000D01*
X117087500Y-93675000D02*
X117050000Y-93712500D01*
X128900000Y-54550000D02*
X129512500Y-55162500D01*
D42*
X159500000Y-52750000D02*
X159600000Y-52850000D01*
X158450000Y-52750000D02*
X158500000Y-52800000D01*
X158150000Y-52750000D02*
X158200000Y-52800000D01*
X151265000Y-52750000D02*
X154000000Y-52750000D01*
X157900000Y-52750000D02*
X158000000Y-52850000D01*
X154000000Y-52750000D02*
X158150000Y-52750000D01*
X151265000Y-52750000D02*
X150850000Y-52750000D01*
X154000000Y-52750000D02*
X159500000Y-52750000D01*
X154000000Y-52750000D02*
X158450000Y-52750000D01*
X158250000Y-67250000D02*
X158300000Y-67300000D01*
X151390000Y-67250000D02*
X158250000Y-67250000D01*
X158250000Y-81750000D02*
X158300000Y-81800000D01*
X151390000Y-81750000D02*
X158250000Y-81750000D01*
X151390000Y-96500000D02*
X158300000Y-96500000D01*
D43*
X104337500Y-35425000D02*
X104312500Y-35400000D01*
X104337500Y-40650000D02*
X104337500Y-35425000D01*
X105600000Y-66137500D02*
X109550000Y-66137500D01*
X103150000Y-66200000D02*
X105537500Y-66200000D01*
X103125000Y-66225000D02*
X103150000Y-66200000D01*
X105900000Y-55950000D02*
X107375000Y-55950000D01*
X104350000Y-44650000D02*
X104350000Y-40662500D01*
X105537500Y-66200000D02*
X105600000Y-66137500D01*
X100800000Y-66225000D02*
X103125000Y-66225000D01*
X104350000Y-40662500D02*
X104337500Y-40650000D01*
D41*
X103212500Y-63212500D02*
X103150000Y-63275000D01*
X100800000Y-63275000D02*
X100800000Y-61462500D01*
X103150000Y-63275000D02*
X100800000Y-63275000D01*
X105600000Y-63212500D02*
X103212500Y-63212500D01*
X102100000Y-56162500D02*
X104237500Y-56162500D01*
X104237500Y-56162500D02*
X104450000Y-55950000D01*
X115925000Y-45475000D02*
X115925000Y-47245000D01*
X114037500Y-44750000D02*
X115200000Y-44750000D01*
X115200000Y-44750000D02*
X115925000Y-45475000D01*
X118700000Y-49762500D02*
X118700000Y-51787500D01*
X118700000Y-49762500D02*
X118677500Y-49785000D01*
X118677500Y-49785000D02*
X115925000Y-49785000D01*
M02*
