G04 #@! TF.GenerationSoftware,KiCad,Pcbnew,8.0.2-8.0.2-0~ubuntu22.04.1*
G04 #@! TF.CreationDate,2024-05-20T13:55:08+07:00*
G04 #@! TF.ProjectId,PCB_design,5043425f-6465-4736-9967-6e2e6b696361,rev?*
G04 #@! TF.SameCoordinates,Original*
G04 #@! TF.FileFunction,Paste,Top*
G04 #@! TF.FilePolarity,Positive*
%FSLAX46Y46*%
G04 Gerber Fmt 4.6, Leading zero omitted, Abs format (unit mm)*
G04 Created by KiCad (PCBNEW 8.0.2-8.0.2-0~ubuntu22.04.1) date 2024-05-20 13:55:08*
%MOMM*%
%LPD*%
G01*
G04 APERTURE LIST*
G04 Aperture macros list*
%AMRoundRect*
0 Rectangle with rounded corners*
0 $1 Rounding radius*
0 $2 $3 $4 $5 $6 $7 $8 $9 X,Y pos of 4 corners*
0 Add a 4 corners polygon primitive as box body*
4,1,4,$2,$3,$4,$5,$6,$7,$8,$9,$2,$3,0*
0 Add four circle primitives for the rounded corners*
1,1,$1+$1,$2,$3*
1,1,$1+$1,$4,$5*
1,1,$1+$1,$6,$7*
1,1,$1+$1,$8,$9*
0 Add four rect primitives between the rounded corners*
20,1,$1+$1,$2,$3,$4,$5,0*
20,1,$1+$1,$4,$5,$6,$7,0*
20,1,$1+$1,$6,$7,$8,$9,0*
20,1,$1+$1,$8,$9,$2,$3,0*%
G04 Aperture macros list end*
%ADD10RoundRect,0.150000X-0.675000X-0.150000X0.675000X-0.150000X0.675000X0.150000X-0.675000X0.150000X0*%
%ADD11RoundRect,0.250000X0.450000X-0.262500X0.450000X0.262500X-0.450000X0.262500X-0.450000X-0.262500X0*%
%ADD12RoundRect,0.225000X0.375000X-0.225000X0.375000X0.225000X-0.375000X0.225000X-0.375000X-0.225000X0*%
%ADD13RoundRect,0.250000X-0.475000X0.250000X-0.475000X-0.250000X0.475000X-0.250000X0.475000X0.250000X0*%
%ADD14RoundRect,0.250000X-0.625000X0.312500X-0.625000X-0.312500X0.625000X-0.312500X0.625000X0.312500X0*%
%ADD15RoundRect,0.250000X-0.650000X1.000000X-0.650000X-1.000000X0.650000X-1.000000X0.650000X1.000000X0*%
%ADD16RoundRect,0.250000X1.000000X0.650000X-1.000000X0.650000X-1.000000X-0.650000X1.000000X-0.650000X0*%
%ADD17RoundRect,0.150000X-0.587500X-0.150000X0.587500X-0.150000X0.587500X0.150000X-0.587500X0.150000X0*%
%ADD18RoundRect,0.375000X0.625000X0.375000X-0.625000X0.375000X-0.625000X-0.375000X0.625000X-0.375000X0*%
%ADD19RoundRect,0.500000X0.500000X1.400000X-0.500000X1.400000X-0.500000X-1.400000X0.500000X-1.400000X0*%
%ADD20RoundRect,0.250000X-0.312500X-0.625000X0.312500X-0.625000X0.312500X0.625000X-0.312500X0.625000X0*%
%ADD21RoundRect,0.250000X-0.450000X0.262500X-0.450000X-0.262500X0.450000X-0.262500X0.450000X0.262500X0*%
%ADD22R,1.000000X0.700000*%
%ADD23RoundRect,0.250000X-0.250000X-0.475000X0.250000X-0.475000X0.250000X0.475000X-0.250000X0.475000X0*%
G04 APERTURE END LIST*
D10*
X120125000Y-60345000D03*
X120125000Y-61615000D03*
X120125000Y-62885000D03*
X120125000Y-64155000D03*
X114875000Y-64155000D03*
X114875000Y-62885000D03*
X114875000Y-61615000D03*
X114875000Y-60345000D03*
D11*
X112250000Y-54087500D03*
X112250000Y-55912500D03*
D12*
X129460000Y-67410000D03*
X129460000Y-70710000D03*
D13*
X115250000Y-69800000D03*
X115250000Y-71700000D03*
D14*
X121750000Y-46537500D03*
X121750000Y-49462500D03*
D11*
X125210000Y-62410000D03*
X125210000Y-64235000D03*
D12*
X129450000Y-38400000D03*
X129450000Y-41700000D03*
D11*
X125210000Y-76910000D03*
X125210000Y-78735000D03*
D15*
X124000000Y-54750000D03*
X124000000Y-58750000D03*
D14*
X117140000Y-40530000D03*
X117140000Y-43455000D03*
D16*
X108250000Y-51250000D03*
X112250000Y-51250000D03*
D12*
X129460000Y-82160000D03*
X129460000Y-85460000D03*
D17*
X129460000Y-63160000D03*
X127585000Y-64110000D03*
X127585000Y-62210000D03*
D13*
X119640000Y-40555000D03*
X119640000Y-42455000D03*
D14*
X114640000Y-40530000D03*
X114640000Y-43455000D03*
D11*
X125200000Y-47700000D03*
X125200000Y-49525000D03*
D17*
X129450000Y-48700000D03*
X127575000Y-49650000D03*
X127575000Y-47750000D03*
D14*
X108250000Y-57212500D03*
X108250000Y-54287500D03*
D17*
X129460000Y-77910000D03*
X127585000Y-78860000D03*
X127585000Y-76960000D03*
D14*
X115250000Y-55962500D03*
X115250000Y-53037500D03*
D18*
X108617500Y-89362500D03*
X108617500Y-87062500D03*
D19*
X102317500Y-87062500D03*
D18*
X108617500Y-84762500D03*
D14*
X115250000Y-51212500D03*
X115250000Y-48287500D03*
D11*
X125200000Y-33125000D03*
X125200000Y-34950000D03*
D17*
X129450000Y-34050000D03*
X127575000Y-35000000D03*
X127575000Y-33100000D03*
D20*
X112462500Y-61500000D03*
X109537500Y-61500000D03*
X112462500Y-64250000D03*
X109537500Y-64250000D03*
D21*
X112980000Y-69887500D03*
X112980000Y-71712500D03*
D20*
X106275000Y-36240000D03*
X109200000Y-36240000D03*
D15*
X121207500Y-84772500D03*
X121207500Y-88772500D03*
D12*
X129450000Y-52950000D03*
X129450000Y-56250000D03*
D22*
X103775000Y-36240000D03*
X103775000Y-32240000D03*
X97825000Y-32240000D03*
X97825000Y-36240000D03*
D23*
X117000000Y-58000000D03*
X115100000Y-58000000D03*
M02*
