G04 #@! TF.GenerationSoftware,KiCad,Pcbnew,8.0.2-8.0.2-0~ubuntu22.04.1*
G04 #@! TF.CreationDate,2024-05-20T15:25:14+07:00*
G04 #@! TF.ProjectId,PCB_design,5043425f-6465-4736-9967-6e2e6b696361,rev?*
G04 #@! TF.SameCoordinates,Original*
G04 #@! TF.FileFunction,Legend,Bot*
G04 #@! TF.FilePolarity,Positive*
%FSLAX46Y46*%
G04 Gerber Fmt 4.6, Leading zero omitted, Abs format (unit mm)*
G04 Created by KiCad (PCBNEW 8.0.2-8.0.2-0~ubuntu22.04.1) date 2024-05-20 15:25:14*
%MOMM*%
%LPD*%
G01*
G04 APERTURE LIST*
%ADD10C,1.800000*%
%ADD11C,4.000000*%
%ADD12R,1.700000X1.700000*%
%ADD13O,1.700000X1.700000*%
%ADD14R,1.600000X1.600000*%
%ADD15C,1.600000*%
%ADD16C,1.524000*%
%ADD17C,2.000000*%
%ADD18C,2.600000*%
G04 APERTURE END LIST*
%LPC*%
D10*
X100500000Y-71500000D03*
X98000000Y-71500000D03*
X98000000Y-80000000D03*
X108000000Y-80000000D03*
X105500000Y-71500000D03*
X108000000Y-71500000D03*
D11*
X146750000Y-85500000D03*
X149290000Y-77900000D03*
X134050000Y-85500000D03*
X134050000Y-77900000D03*
X146750000Y-70750000D03*
X149290000Y-63150000D03*
X134050000Y-70750000D03*
X134050000Y-63150000D03*
X146750000Y-56250000D03*
X149290000Y-48650000D03*
X134050000Y-56250000D03*
X134050000Y-48650000D03*
X146625000Y-41750000D03*
X149165000Y-34150000D03*
X133925000Y-41750000D03*
X133925000Y-34150000D03*
D12*
X155250000Y-78000000D03*
X100500000Y-58775000D03*
D13*
X100500000Y-56235000D03*
X100500000Y-53695000D03*
D14*
X114650000Y-36252651D03*
D15*
X114650000Y-32752651D03*
D16*
X100500000Y-40250000D03*
X100500000Y-50250000D03*
D17*
X100500000Y-64250000D03*
X105500000Y-64250000D03*
D12*
X155750000Y-48500000D03*
X155900000Y-34250000D03*
D18*
X109180000Y-42470000D03*
X105680000Y-42470000D03*
D15*
X120750000Y-68152651D03*
D14*
X120750000Y-71652651D03*
D13*
X112620000Y-80240000D03*
X112620000Y-77700000D03*
X115160000Y-80240000D03*
X115160000Y-77700000D03*
X117700000Y-80240000D03*
X117700000Y-77700000D03*
X120240000Y-80240000D03*
D12*
X120240000Y-77700000D03*
X155250000Y-63000000D03*
D14*
X114487500Y-84762500D03*
D15*
X114487500Y-88262500D03*
%LPD*%
M02*
