G04 #@! TF.GenerationSoftware,KiCad,Pcbnew,8.0.2-8.0.2-0~ubuntu22.04.1*
G04 #@! TF.CreationDate,2024-05-22T14:56:02+07:00*
G04 #@! TF.ProjectId,PCB_design,5043425f-6465-4736-9967-6e2e6b696361,rev?*
G04 #@! TF.SameCoordinates,Original*
G04 #@! TF.FileFunction,Soldermask,Bot*
G04 #@! TF.FilePolarity,Negative*
%FSLAX46Y46*%
G04 Gerber Fmt 4.6, Leading zero omitted, Abs format (unit mm)*
G04 Created by KiCad (PCBNEW 8.0.2-8.0.2-0~ubuntu22.04.1) date 2024-05-22 14:56:02*
%MOMM*%
%LPD*%
G01*
G04 APERTURE LIST*
G04 Aperture macros list*
%AMRoundRect*
0 Rectangle with rounded corners*
0 $1 Rounding radius*
0 $2 $3 $4 $5 $6 $7 $8 $9 X,Y pos of 4 corners*
0 Add a 4 corners polygon primitive as box body*
4,1,4,$2,$3,$4,$5,$6,$7,$8,$9,$2,$3,0*
0 Add four circle primitives for the rounded corners*
1,1,$1+$1,$2,$3*
1,1,$1+$1,$4,$5*
1,1,$1+$1,$6,$7*
1,1,$1+$1,$8,$9*
0 Add four rect primitives between the rounded corners*
20,1,$1+$1,$2,$3,$4,$5,0*
20,1,$1+$1,$4,$5,$6,$7,0*
20,1,$1+$1,$6,$7,$8,$9,0*
20,1,$1+$1,$8,$9,$2,$3,0*%
G04 Aperture macros list end*
%ADD10C,0.700000*%
%ADD11RoundRect,1.500000X1.000000X2.000000X-1.000000X2.000000X-1.000000X-2.000000X1.000000X-2.000000X0*%
%ADD12C,4.400000*%
%ADD13R,1.600000X1.600000*%
%ADD14C,1.600000*%
%ADD15C,1.524000*%
%ADD16C,2.000000*%
%ADD17C,4.000000*%
%ADD18R,1.700000X1.700000*%
%ADD19O,1.700000X1.700000*%
%ADD20C,2.600000*%
%ADD21RoundRect,1.500000X2.000000X-1.000000X2.000000X1.000000X-2.000000X1.000000X-2.000000X-1.000000X0*%
%ADD22C,1.800000*%
G04 APERTURE END LIST*
D10*
X134300000Y-33300000D03*
D11*
X133100000Y-35550000D03*
D10*
X133100000Y-33300000D03*
X131900000Y-33300000D03*
X156216726Y-43033274D03*
X156700000Y-41866548D03*
X156700000Y-44200000D03*
X157866726Y-41383274D03*
D12*
X157866726Y-43033274D03*
D10*
X157866726Y-44683274D03*
X159033452Y-41866548D03*
X159033452Y-44200000D03*
X159516726Y-43033274D03*
D13*
X104350000Y-44650000D03*
D14*
X104350000Y-48150000D03*
D15*
X124600000Y-43850000D03*
X124600000Y-33850000D03*
D16*
X134050000Y-43850000D03*
X129050000Y-43850000D03*
D17*
X148725000Y-60350000D03*
X151265000Y-52750000D03*
X136025000Y-60350000D03*
X136025000Y-52750000D03*
X148850000Y-104100000D03*
X151390000Y-96500000D03*
X136150000Y-104100000D03*
X136150000Y-96500000D03*
D18*
X103200000Y-90930000D03*
D19*
X100660000Y-90930000D03*
X103200000Y-93470000D03*
X100660000Y-93470000D03*
X103200000Y-96010000D03*
X100660000Y-96010000D03*
X103200000Y-98550000D03*
X100660000Y-98550000D03*
D17*
X148850000Y-74850000D03*
X151390000Y-67250000D03*
X136150000Y-74850000D03*
X136150000Y-67250000D03*
D20*
X107812500Y-35400000D03*
X104312500Y-35400000D03*
D10*
X140900000Y-33300000D03*
D11*
X139700000Y-35550000D03*
D10*
X139700000Y-33300000D03*
X138500000Y-33300000D03*
X113883274Y-32533274D03*
X114366548Y-31366548D03*
X114366548Y-33700000D03*
X115533274Y-30883274D03*
D12*
X115533274Y-32533274D03*
D10*
X115533274Y-34183274D03*
X116700000Y-31366548D03*
X116700000Y-33700000D03*
X117183274Y-32533274D03*
X161300000Y-83000000D03*
D21*
X159050000Y-81800000D03*
D10*
X161300000Y-81800000D03*
X161300000Y-80600000D03*
D17*
X148850000Y-89350000D03*
X151390000Y-81750000D03*
X136150000Y-89350000D03*
X136150000Y-81750000D03*
D13*
X111150000Y-95047349D03*
D14*
X111150000Y-98547349D03*
D10*
X161500000Y-54000000D03*
D21*
X159250000Y-52800000D03*
D10*
X161500000Y-52800000D03*
X161500000Y-51600000D03*
X157400000Y-104650000D03*
X157883274Y-103483274D03*
X157883274Y-105816726D03*
X159050000Y-103000000D03*
D12*
X159050000Y-104650000D03*
D10*
X159050000Y-106300000D03*
X160216726Y-103483274D03*
X160216726Y-105816726D03*
X160700000Y-104650000D03*
X98783274Y-104616726D03*
X99266548Y-103450000D03*
X99266548Y-105783452D03*
X100433274Y-102966726D03*
D12*
X100433274Y-104616726D03*
D10*
X100433274Y-106266726D03*
X101600000Y-103450000D03*
X101600000Y-105783452D03*
X102083274Y-104616726D03*
X151950000Y-33400000D03*
D11*
X150750000Y-35650000D03*
D10*
X150750000Y-33400000D03*
X149550000Y-33400000D03*
X161300000Y-97700000D03*
D21*
X159050000Y-96500000D03*
D10*
X161300000Y-96500000D03*
X161300000Y-95300000D03*
D22*
X121100000Y-68050000D03*
X121100000Y-70550000D03*
X129600000Y-70550000D03*
X129600000Y-60550000D03*
X121100000Y-63050000D03*
X121100000Y-60550000D03*
D10*
X161300000Y-68500000D03*
D21*
X159050000Y-67300000D03*
D10*
X161300000Y-67300000D03*
X161300000Y-66100000D03*
D13*
X108800000Y-78350000D03*
D14*
X112300000Y-78350000D03*
M02*
