G04 #@! TF.GenerationSoftware,KiCad,Pcbnew,8.0.2-8.0.2-0~ubuntu22.04.1*
G04 #@! TF.CreationDate,2024-05-20T13:55:05+07:00*
G04 #@! TF.ProjectId,PCB_design,5043425f-6465-4736-9967-6e2e6b696361,rev?*
G04 #@! TF.SameCoordinates,Original*
G04 #@! TF.FileFunction,Copper,L1,Top*
G04 #@! TF.FilePolarity,Positive*
%FSLAX46Y46*%
G04 Gerber Fmt 4.6, Leading zero omitted, Abs format (unit mm)*
G04 Created by KiCad (PCBNEW 8.0.2-8.0.2-0~ubuntu22.04.1) date 2024-05-20 13:55:05*
%MOMM*%
%LPD*%
G01*
G04 APERTURE LIST*
G04 Aperture macros list*
%AMRoundRect*
0 Rectangle with rounded corners*
0 $1 Rounding radius*
0 $2 $3 $4 $5 $6 $7 $8 $9 X,Y pos of 4 corners*
0 Add a 4 corners polygon primitive as box body*
4,1,4,$2,$3,$4,$5,$6,$7,$8,$9,$2,$3,0*
0 Add four circle primitives for the rounded corners*
1,1,$1+$1,$2,$3*
1,1,$1+$1,$4,$5*
1,1,$1+$1,$6,$7*
1,1,$1+$1,$8,$9*
0 Add four rect primitives between the rounded corners*
20,1,$1+$1,$2,$3,$4,$5,0*
20,1,$1+$1,$4,$5,$6,$7,0*
20,1,$1+$1,$6,$7,$8,$9,0*
20,1,$1+$1,$8,$9,$2,$3,0*%
G04 Aperture macros list end*
G04 #@! TA.AperFunction,SMDPad,CuDef*
%ADD10RoundRect,0.150000X-0.675000X-0.150000X0.675000X-0.150000X0.675000X0.150000X-0.675000X0.150000X0*%
G04 #@! TD*
G04 #@! TA.AperFunction,SMDPad,CuDef*
%ADD11RoundRect,0.250000X0.450000X-0.262500X0.450000X0.262500X-0.450000X0.262500X-0.450000X-0.262500X0*%
G04 #@! TD*
G04 #@! TA.AperFunction,SMDPad,CuDef*
%ADD12RoundRect,0.225000X0.375000X-0.225000X0.375000X0.225000X-0.375000X0.225000X-0.375000X-0.225000X0*%
G04 #@! TD*
G04 #@! TA.AperFunction,SMDPad,CuDef*
%ADD13RoundRect,0.250000X-0.475000X0.250000X-0.475000X-0.250000X0.475000X-0.250000X0.475000X0.250000X0*%
G04 #@! TD*
G04 #@! TA.AperFunction,ComponentPad*
%ADD14R,1.700000X1.700000*%
G04 #@! TD*
G04 #@! TA.AperFunction,ComponentPad*
%ADD15O,1.700000X1.700000*%
G04 #@! TD*
G04 #@! TA.AperFunction,SMDPad,CuDef*
%ADD16RoundRect,0.250000X-0.625000X0.312500X-0.625000X-0.312500X0.625000X-0.312500X0.625000X0.312500X0*%
G04 #@! TD*
G04 #@! TA.AperFunction,ComponentPad*
%ADD17C,4.000000*%
G04 #@! TD*
G04 #@! TA.AperFunction,ComponentPad*
%ADD18R,1.600000X1.600000*%
G04 #@! TD*
G04 #@! TA.AperFunction,ComponentPad*
%ADD19C,1.600000*%
G04 #@! TD*
G04 #@! TA.AperFunction,ComponentPad*
%ADD20C,1.524000*%
G04 #@! TD*
G04 #@! TA.AperFunction,SMDPad,CuDef*
%ADD21RoundRect,0.250000X-0.650000X1.000000X-0.650000X-1.000000X0.650000X-1.000000X0.650000X1.000000X0*%
G04 #@! TD*
G04 #@! TA.AperFunction,ComponentPad*
%ADD22C,2.000000*%
G04 #@! TD*
G04 #@! TA.AperFunction,SMDPad,CuDef*
%ADD23RoundRect,0.250000X1.000000X0.650000X-1.000000X0.650000X-1.000000X-0.650000X1.000000X-0.650000X0*%
G04 #@! TD*
G04 #@! TA.AperFunction,SMDPad,CuDef*
%ADD24RoundRect,0.150000X-0.587500X-0.150000X0.587500X-0.150000X0.587500X0.150000X-0.587500X0.150000X0*%
G04 #@! TD*
G04 #@! TA.AperFunction,ComponentPad*
%ADD25C,2.600000*%
G04 #@! TD*
G04 #@! TA.AperFunction,SMDPad,CuDef*
%ADD26RoundRect,0.375000X0.625000X0.375000X-0.625000X0.375000X-0.625000X-0.375000X0.625000X-0.375000X0*%
G04 #@! TD*
G04 #@! TA.AperFunction,SMDPad,CuDef*
%ADD27RoundRect,0.500000X0.500000X1.400000X-0.500000X1.400000X-0.500000X-1.400000X0.500000X-1.400000X0*%
G04 #@! TD*
G04 #@! TA.AperFunction,SMDPad,CuDef*
%ADD28RoundRect,0.250000X-0.312500X-0.625000X0.312500X-0.625000X0.312500X0.625000X-0.312500X0.625000X0*%
G04 #@! TD*
G04 #@! TA.AperFunction,SMDPad,CuDef*
%ADD29RoundRect,0.250000X-0.450000X0.262500X-0.450000X-0.262500X0.450000X-0.262500X0.450000X0.262500X0*%
G04 #@! TD*
G04 #@! TA.AperFunction,ComponentPad*
%ADD30C,1.800000*%
G04 #@! TD*
G04 #@! TA.AperFunction,SMDPad,CuDef*
%ADD31R,1.000000X0.700000*%
G04 #@! TD*
G04 #@! TA.AperFunction,SMDPad,CuDef*
%ADD32RoundRect,0.250000X-0.250000X-0.475000X0.250000X-0.475000X0.250000X0.475000X-0.250000X0.475000X0*%
G04 #@! TD*
G04 #@! TA.AperFunction,ViaPad*
%ADD33C,0.600000*%
G04 #@! TD*
G04 #@! TA.AperFunction,ViaPad*
%ADD34C,1.000000*%
G04 #@! TD*
G04 #@! TA.AperFunction,ViaPad*
%ADD35C,2.000000*%
G04 #@! TD*
G04 #@! TA.AperFunction,Conductor*
%ADD36C,1.000000*%
G04 #@! TD*
G04 #@! TA.AperFunction,Conductor*
%ADD37C,0.500000*%
G04 #@! TD*
G04 #@! TA.AperFunction,Conductor*
%ADD38C,2.000000*%
G04 #@! TD*
G04 APERTURE END LIST*
D10*
X120125000Y-60345000D03*
X120125000Y-61615000D03*
X120125000Y-62885000D03*
X120125000Y-64155000D03*
X114875000Y-64155000D03*
X114875000Y-62885000D03*
X114875000Y-61615000D03*
X114875000Y-60345000D03*
D11*
X112250000Y-54087500D03*
X112250000Y-55912500D03*
D12*
X129460000Y-67410000D03*
X129460000Y-70710000D03*
D13*
X115250000Y-69800000D03*
X115250000Y-71700000D03*
D14*
X155710000Y-85410000D03*
X100500000Y-58775000D03*
D15*
X100500000Y-56235000D03*
X100500000Y-53695000D03*
D16*
X121750000Y-46537500D03*
X121750000Y-49462500D03*
D17*
X134010000Y-77910000D03*
X134010000Y-85510000D03*
X149250000Y-85510000D03*
X146710000Y-77910000D03*
D11*
X125210000Y-62410000D03*
X125210000Y-64235000D03*
D12*
X129450000Y-38400000D03*
X129450000Y-41700000D03*
D11*
X125210000Y-76910000D03*
X125210000Y-78735000D03*
D18*
X114650000Y-36252651D03*
D19*
X114650000Y-32752651D03*
D20*
X100500000Y-40250000D03*
X100500000Y-50250000D03*
D21*
X124000000Y-54750000D03*
X124000000Y-58750000D03*
D16*
X117140000Y-40530000D03*
X117140000Y-43455000D03*
D22*
X100500000Y-64250000D03*
X105500000Y-64250000D03*
D23*
X108250000Y-51250000D03*
X112250000Y-51250000D03*
D12*
X129460000Y-82160000D03*
X129460000Y-85460000D03*
D24*
X129460000Y-63160000D03*
X127585000Y-64110000D03*
X127585000Y-62210000D03*
D13*
X119640000Y-40555000D03*
X119640000Y-42455000D03*
D14*
X155700000Y-56250000D03*
X155900000Y-41750000D03*
D16*
X114640000Y-40530000D03*
X114640000Y-43455000D03*
D11*
X125200000Y-47700000D03*
X125200000Y-49525000D03*
D17*
X134000000Y-34150000D03*
X134000000Y-41750000D03*
X149240000Y-41750000D03*
X146700000Y-34150000D03*
D25*
X109180000Y-42470000D03*
X105680000Y-42470000D03*
D24*
X129450000Y-48700000D03*
X127575000Y-49650000D03*
X127575000Y-47750000D03*
D16*
X108250000Y-57212500D03*
X108250000Y-54287500D03*
D24*
X129460000Y-77910000D03*
X127585000Y-78860000D03*
X127585000Y-76960000D03*
D16*
X115250000Y-55962500D03*
X115250000Y-53037500D03*
D26*
X108617500Y-89362500D03*
X108617500Y-87062500D03*
D27*
X102317500Y-87062500D03*
D26*
X108617500Y-84762500D03*
D16*
X115250000Y-51212500D03*
X115250000Y-48287500D03*
D11*
X125200000Y-33125000D03*
X125200000Y-34950000D03*
D24*
X129450000Y-34050000D03*
X127575000Y-35000000D03*
X127575000Y-33100000D03*
D19*
X120750000Y-68152651D03*
D18*
X120750000Y-71652651D03*
D28*
X112462500Y-61500000D03*
X109537500Y-61500000D03*
X112462500Y-64250000D03*
X109537500Y-64250000D03*
D29*
X112980000Y-69887500D03*
X112980000Y-71712500D03*
D28*
X106275000Y-36240000D03*
X109200000Y-36240000D03*
D17*
X134000000Y-48650000D03*
X134000000Y-56250000D03*
X149240000Y-56250000D03*
X146700000Y-48650000D03*
D21*
X121207500Y-84772500D03*
X121207500Y-88772500D03*
D30*
X105500000Y-71500000D03*
X108000000Y-71500000D03*
X98000000Y-80000000D03*
X108000000Y-80000000D03*
X100500000Y-71500000D03*
X98000000Y-71500000D03*
D12*
X129450000Y-52950000D03*
X129450000Y-56250000D03*
D15*
X112620000Y-80240000D03*
X112620000Y-77700000D03*
X115160000Y-80240000D03*
X115160000Y-77700000D03*
X117700000Y-80240000D03*
X117700000Y-77700000D03*
X120240000Y-80240000D03*
D14*
X120240000Y-77700000D03*
D31*
X103775000Y-36240000D03*
X103775000Y-32240000D03*
X97825000Y-32240000D03*
X97825000Y-36240000D03*
D17*
X134010000Y-63210000D03*
X134010000Y-70810000D03*
X149250000Y-70810000D03*
X146710000Y-63210000D03*
D14*
X155710000Y-70910000D03*
D32*
X117000000Y-58000000D03*
X115100000Y-58000000D03*
D18*
X114487500Y-84762500D03*
D19*
X114487500Y-88262500D03*
D33*
X130600000Y-32600000D03*
X126400000Y-36300000D03*
X107000000Y-83500000D03*
X124500000Y-66000000D03*
X128500000Y-59000000D03*
X125500000Y-60500000D03*
X128500000Y-54500000D03*
X125000000Y-46000000D03*
X125000000Y-51500000D03*
X129000000Y-44500000D03*
X131500000Y-46500000D03*
X147000000Y-72500000D03*
X142500000Y-67500000D03*
X147000000Y-67500000D03*
X147000000Y-58500000D03*
X142500000Y-52000000D03*
X147000000Y-52000000D03*
X147000000Y-44000000D03*
X141500000Y-40000000D03*
X141500000Y-36000000D03*
X136000000Y-29000000D03*
X136700000Y-32500000D03*
X138000000Y-44000000D03*
X141500000Y-44000000D03*
X138000000Y-58500000D03*
X141500000Y-58500000D03*
X138000000Y-72500000D03*
X141500000Y-72500000D03*
X124500000Y-83500000D03*
X126500000Y-81500000D03*
X127000000Y-88000000D03*
X127000000Y-90500000D03*
X138000000Y-83500000D03*
X141500000Y-83500000D03*
X121000000Y-92500000D03*
X119000000Y-90000000D03*
X117000000Y-86500000D03*
X117000000Y-83000000D03*
X104000000Y-80500000D03*
X104500000Y-85000000D03*
X98500000Y-93000000D03*
X104000000Y-91000000D03*
X96500000Y-82500000D03*
X99500000Y-82500000D03*
X103000000Y-73500000D03*
X104200000Y-67900000D03*
X109000000Y-68500000D03*
X112000000Y-68500000D03*
X116000000Y-67500000D03*
X117500000Y-62000000D03*
X118500000Y-59000000D03*
X119500000Y-53500000D03*
X115500000Y-46000000D03*
X118500000Y-49000000D03*
X111000000Y-46000000D03*
X106000000Y-49500000D03*
X104000000Y-52000000D03*
X102500000Y-57500000D03*
X96000000Y-60000000D03*
X107000000Y-60000000D03*
X95500000Y-43000000D03*
X102000000Y-43000000D03*
D34*
X105500000Y-47750000D03*
D35*
X136250000Y-38000000D03*
D33*
X123700000Y-31200000D03*
X125200000Y-31200000D03*
D36*
X106000000Y-80262742D02*
X102317500Y-83945242D01*
X102317500Y-83945242D02*
X102317500Y-87062500D01*
X112980000Y-71712500D02*
X111537500Y-71712500D01*
X111537500Y-71712500D02*
X106000000Y-77250000D01*
X106000000Y-77250000D02*
X106000000Y-80262742D01*
X106000000Y-80262742D02*
X108237258Y-82500000D01*
X108237258Y-82500000D02*
X110360000Y-82500000D01*
D37*
X98000000Y-80000000D02*
X98000000Y-90250000D01*
X98000000Y-90250000D02*
X100250000Y-92500000D01*
X100250000Y-92500000D02*
X119000000Y-92500000D01*
X121207500Y-90292500D02*
X121207500Y-88772500D01*
X119000000Y-92500000D02*
X121207500Y-90292500D01*
D36*
X105500000Y-47750000D02*
X107250000Y-47750000D01*
X108250000Y-48750000D02*
X108250000Y-51250000D01*
X107250000Y-47750000D02*
X108250000Y-48750000D01*
X115250000Y-48287500D02*
X110787500Y-48287500D01*
X110787500Y-48287500D02*
X109180000Y-46680000D01*
X109180000Y-46680000D02*
X109180000Y-42470000D01*
X115250000Y-53037500D02*
X115250000Y-51212500D01*
D37*
X121750000Y-49462500D02*
X121750000Y-50500000D01*
X121750000Y-50500000D02*
X124000000Y-52750000D01*
X124000000Y-52750000D02*
X124000000Y-54750000D01*
X121750000Y-46537500D02*
X121750000Y-45750000D01*
X121750000Y-45750000D02*
X119455000Y-43455000D01*
X119455000Y-43455000D02*
X119350000Y-43455000D01*
D36*
X115250000Y-71700000D02*
X112992500Y-71700000D01*
X112992500Y-71700000D02*
X112980000Y-71712500D01*
X120750000Y-71652651D02*
X115297349Y-71652651D01*
X115297349Y-71652651D02*
X115250000Y-71700000D01*
D37*
X120125000Y-64155000D02*
X120125000Y-65375000D01*
X120125000Y-65375000D02*
X119500000Y-66000000D01*
X119500000Y-66000000D02*
X108750000Y-66000000D01*
X108750000Y-66000000D02*
X108000000Y-66750000D01*
X108000000Y-66750000D02*
X108000000Y-71500000D01*
X124000000Y-58750000D02*
X124000000Y-60750000D01*
X124000000Y-60750000D02*
X121865000Y-62885000D01*
X121865000Y-62885000D02*
X120125000Y-62885000D01*
X120125000Y-64155000D02*
X120125000Y-62885000D01*
X114875000Y-64155000D02*
X112557500Y-64155000D01*
X112557500Y-64155000D02*
X112462500Y-64250000D01*
D36*
X112462500Y-61500000D02*
X112577500Y-61615000D01*
X112577500Y-61615000D02*
X114875000Y-61615000D01*
X108250000Y-57212500D02*
X110712500Y-57212500D01*
X110712500Y-57212500D02*
X112462500Y-58962500D01*
X112462500Y-58962500D02*
X112462500Y-61500000D01*
X112250000Y-54087500D02*
X112250000Y-51250000D01*
X115100000Y-58000000D02*
X115100000Y-60120000D01*
X115100000Y-60120000D02*
X114875000Y-60345000D01*
X115250000Y-55962500D02*
X112300000Y-55962500D01*
X112300000Y-55962500D02*
X112250000Y-55912500D01*
X115100000Y-58000000D02*
X115100000Y-56112500D01*
X115100000Y-56112500D02*
X115250000Y-55962500D01*
X108250000Y-54287500D02*
X108250000Y-51250000D01*
X112620000Y-80240000D02*
X110360000Y-82500000D01*
D38*
X146700000Y-48650000D02*
X144750000Y-46700000D01*
X144750000Y-40000000D02*
X142750000Y-38000000D01*
X144750000Y-46700000D02*
X144750000Y-40000000D01*
X136250000Y-38000000D02*
X142750000Y-38000000D01*
X142750000Y-38000000D02*
X146600000Y-34150000D01*
X146600000Y-34150000D02*
X146700000Y-34150000D01*
D36*
X100500000Y-40250000D02*
X100500000Y-33250000D01*
X100500000Y-33250000D02*
X99490000Y-32240000D01*
X99490000Y-32240000D02*
X97825000Y-32240000D01*
X100500000Y-40250000D02*
X100500000Y-46250000D01*
X100500000Y-46250000D02*
X105500000Y-51250000D01*
X105500000Y-51250000D02*
X105500000Y-64250000D01*
D38*
X100500000Y-64250000D02*
X100500000Y-58775000D01*
X100500000Y-50250000D02*
X97825000Y-47575000D01*
X97825000Y-47575000D02*
X97825000Y-36240000D01*
X100500000Y-53695000D02*
X100500000Y-50250000D01*
X100500000Y-56235000D02*
X100500000Y-53695000D01*
D37*
X125210000Y-62410000D02*
X124090000Y-62410000D01*
X124090000Y-62410000D02*
X122500000Y-64000000D01*
X122500000Y-64000000D02*
X122500000Y-72900000D01*
X122500000Y-72900000D02*
X117700000Y-77700000D01*
X123700000Y-31200000D02*
X123700000Y-47200000D01*
X123700000Y-47200000D02*
X124200000Y-47700000D01*
X124200000Y-47700000D02*
X125200000Y-47700000D01*
X125200000Y-31200000D02*
X125200000Y-33125000D01*
X125210000Y-76910000D02*
X124490000Y-76910000D01*
X124490000Y-76910000D02*
X121160000Y-80240000D01*
X121160000Y-80240000D02*
X120240000Y-80240000D01*
D36*
X106275000Y-39325000D02*
X105680000Y-39920000D01*
X106275000Y-36240000D02*
X103775000Y-36240000D01*
X106275000Y-36240000D02*
X106275000Y-39325000D01*
X105680000Y-39920000D02*
X105680000Y-42470000D01*
X129460000Y-85460000D02*
X133960000Y-85460000D01*
X133910000Y-70710000D02*
X134010000Y-70810000D01*
X121207500Y-84772500D02*
X114497500Y-84772500D01*
X114497500Y-84772500D02*
X114487500Y-84762500D01*
X133950000Y-41700000D02*
X134000000Y-41750000D01*
X129450000Y-56250000D02*
X134000000Y-56250000D01*
X114487500Y-84762500D02*
X108617500Y-84762500D01*
X133960000Y-85460000D02*
X134010000Y-85510000D01*
X129460000Y-70710000D02*
X133910000Y-70710000D01*
X129450000Y-41700000D02*
X133950000Y-41700000D01*
X129450000Y-38400000D02*
X132662500Y-38400000D01*
X129450000Y-38400000D02*
X129450000Y-34050000D01*
X132662500Y-38400000D02*
X134000000Y-37062500D01*
X134000000Y-37062500D02*
X134000000Y-34150000D01*
X132972500Y-52950000D02*
X134000000Y-51922500D01*
X129450000Y-52950000D02*
X129450000Y-48700000D01*
X129450000Y-52950000D02*
X132972500Y-52950000D01*
X134000000Y-51922500D02*
X134000000Y-48650000D01*
X134010000Y-66032500D02*
X134010000Y-63210000D01*
X129460000Y-67410000D02*
X132632500Y-67410000D01*
X132632500Y-67410000D02*
X134010000Y-66032500D01*
X129460000Y-67410000D02*
X129460000Y-63160000D01*
X134010000Y-80722500D02*
X134010000Y-77910000D01*
X129460000Y-82160000D02*
X132572500Y-82160000D01*
X129460000Y-82160000D02*
X129460000Y-77910000D01*
X132572500Y-82160000D02*
X134010000Y-80722500D01*
D38*
X144700000Y-50650000D02*
X144700000Y-61200000D01*
X144710000Y-65210000D02*
X146710000Y-63210000D01*
X146700000Y-48650000D02*
X144700000Y-50650000D01*
X144710000Y-75910000D02*
X144710000Y-65210000D01*
X146710000Y-77910000D02*
X144710000Y-75910000D01*
X144700000Y-61200000D02*
X146710000Y-63210000D01*
D37*
X125225000Y-33100000D02*
X125200000Y-33125000D01*
X127575000Y-33100000D02*
X125225000Y-33100000D01*
X125410000Y-62210000D02*
X125210000Y-62410000D01*
X127585000Y-62210000D02*
X125410000Y-62210000D01*
D36*
X108617500Y-87062500D02*
X102317500Y-87062500D01*
D37*
X127585000Y-76960000D02*
X125260000Y-76960000D01*
X125260000Y-76960000D02*
X125210000Y-76910000D01*
X127575000Y-47750000D02*
X125250000Y-47750000D01*
X125250000Y-47750000D02*
X125200000Y-47700000D01*
D36*
X149240000Y-41750000D02*
X155900000Y-41750000D01*
X149240000Y-56250000D02*
X155700000Y-56250000D01*
X155610000Y-70810000D02*
X155710000Y-70910000D01*
X149250000Y-70810000D02*
X155610000Y-70810000D01*
X149250000Y-85510000D02*
X155610000Y-85510000D01*
X155610000Y-85510000D02*
X155710000Y-85410000D01*
X109212651Y-36252651D02*
X109200000Y-36240000D01*
X109200000Y-42450000D02*
X109180000Y-42470000D01*
X114650000Y-40520000D02*
X114640000Y-40530000D01*
X114640000Y-40530000D02*
X117140000Y-40530000D01*
X114650000Y-36252651D02*
X114650000Y-40520000D01*
X117165000Y-40555000D02*
X117140000Y-40530000D01*
X119640000Y-40555000D02*
X117165000Y-40555000D01*
X109200000Y-36240000D02*
X109200000Y-42450000D01*
X114650000Y-36252651D02*
X109212651Y-36252651D01*
D37*
X119640000Y-43165000D02*
X119350000Y-43455000D01*
X119640000Y-42455000D02*
X119640000Y-43165000D01*
X114640000Y-43455000D02*
X117140000Y-43455000D01*
X119350000Y-43455000D02*
X117140000Y-43455000D01*
G04 #@! TA.AperFunction,Conductor*
G36*
X122443039Y-28520185D02*
G01*
X122488794Y-28572989D01*
X122500000Y-28624500D01*
X122500000Y-45139270D01*
X122480315Y-45206309D01*
X122427511Y-45252064D01*
X122358353Y-45262008D01*
X122294797Y-45232983D01*
X122288319Y-45226952D01*
X122267676Y-45206309D01*
X122228416Y-45167049D01*
X121421577Y-44360210D01*
X120555646Y-43494278D01*
X120522161Y-43432955D01*
X120527145Y-43363263D01*
X120569017Y-43307330D01*
X120578235Y-43301056D01*
X120579835Y-43300068D01*
X120583656Y-43297712D01*
X120707712Y-43173656D01*
X120799814Y-43024334D01*
X120854999Y-42857797D01*
X120865500Y-42755009D01*
X120865499Y-42154992D01*
X120854999Y-42052203D01*
X120799814Y-41885666D01*
X120707712Y-41736344D01*
X120583656Y-41612288D01*
X120580819Y-41610538D01*
X120579283Y-41608830D01*
X120577989Y-41607807D01*
X120578163Y-41607585D01*
X120534096Y-41558594D01*
X120522872Y-41489632D01*
X120550713Y-41425549D01*
X120580817Y-41399462D01*
X120583656Y-41397712D01*
X120707712Y-41273656D01*
X120799814Y-41124334D01*
X120854999Y-40957797D01*
X120865500Y-40855009D01*
X120865499Y-40254992D01*
X120854999Y-40152203D01*
X120799814Y-39985666D01*
X120707712Y-39836344D01*
X120583656Y-39712288D01*
X120447270Y-39628165D01*
X120434336Y-39620187D01*
X120434331Y-39620185D01*
X120424200Y-39616828D01*
X120267797Y-39565001D01*
X120267795Y-39565000D01*
X120165016Y-39554500D01*
X120165009Y-39554500D01*
X119738543Y-39554500D01*
X119738541Y-39554500D01*
X118154866Y-39554500D01*
X118089768Y-39536038D01*
X118084338Y-39532688D01*
X118084335Y-39532686D01*
X118084334Y-39532686D01*
X117917797Y-39477501D01*
X117917795Y-39477500D01*
X117815010Y-39467000D01*
X116464998Y-39467000D01*
X116464981Y-39467001D01*
X116362203Y-39477500D01*
X116362200Y-39477501D01*
X116224275Y-39523206D01*
X116185271Y-39529500D01*
X115774500Y-39529500D01*
X115707461Y-39509815D01*
X115661706Y-39457011D01*
X115650500Y-39405500D01*
X115650500Y-37589831D01*
X115670185Y-37522792D01*
X115700187Y-37490565D01*
X115807546Y-37410197D01*
X115893796Y-37294982D01*
X115944091Y-37160134D01*
X115950500Y-37100524D01*
X115950499Y-35404779D01*
X115945299Y-35356408D01*
X115944091Y-35345167D01*
X115893797Y-35210322D01*
X115893793Y-35210315D01*
X115807547Y-35095106D01*
X115807544Y-35095103D01*
X115692335Y-35008857D01*
X115692328Y-35008853D01*
X115557482Y-34958559D01*
X115557483Y-34958559D01*
X115497883Y-34952152D01*
X115497881Y-34952151D01*
X115497873Y-34952151D01*
X115497864Y-34952151D01*
X113802129Y-34952151D01*
X113802123Y-34952152D01*
X113742516Y-34958559D01*
X113607671Y-35008853D01*
X113607664Y-35008857D01*
X113492456Y-35095103D01*
X113492455Y-35095104D01*
X113492454Y-35095105D01*
X113412087Y-35202462D01*
X113356153Y-35244333D01*
X113312820Y-35252151D01*
X110239681Y-35252151D01*
X110172642Y-35232466D01*
X110134142Y-35193248D01*
X110126339Y-35180597D01*
X110105212Y-35146344D01*
X109981156Y-35022288D01*
X109831834Y-34930186D01*
X109665297Y-34875001D01*
X109665295Y-34875000D01*
X109562510Y-34864500D01*
X108837498Y-34864500D01*
X108837480Y-34864501D01*
X108734703Y-34875000D01*
X108734700Y-34875001D01*
X108568168Y-34930185D01*
X108568163Y-34930187D01*
X108418842Y-35022289D01*
X108294789Y-35146342D01*
X108202687Y-35295663D01*
X108202685Y-35295668D01*
X108183566Y-35353366D01*
X108147501Y-35462203D01*
X108147501Y-35462204D01*
X108147500Y-35462204D01*
X108137000Y-35564983D01*
X108137000Y-36915001D01*
X108137001Y-36915018D01*
X108147500Y-37017796D01*
X108147501Y-37017799D01*
X108193206Y-37155725D01*
X108199500Y-37194729D01*
X108199500Y-40893805D01*
X108179815Y-40960844D01*
X108145352Y-40996258D01*
X108054262Y-41058362D01*
X107856442Y-41241910D01*
X107688185Y-41452898D01*
X107553258Y-41686599D01*
X107545428Y-41706550D01*
X107502611Y-41761763D01*
X107436741Y-41785063D01*
X107368731Y-41769052D01*
X107320173Y-41718813D01*
X107314572Y-41706550D01*
X107306743Y-41686602D01*
X107171815Y-41452898D01*
X107003561Y-41241915D01*
X107003560Y-41241914D01*
X107003557Y-41241910D01*
X106876107Y-41123655D01*
X106805741Y-41058365D01*
X106805737Y-41058362D01*
X106805730Y-41058356D01*
X106734648Y-41009893D01*
X106690346Y-40955864D01*
X106680500Y-40907440D01*
X106680500Y-40385781D01*
X106700185Y-40318742D01*
X106716815Y-40298104D01*
X106912778Y-40102141D01*
X106912782Y-40102139D01*
X107052139Y-39962782D01*
X107161632Y-39798914D01*
X107214961Y-39670165D01*
X107237051Y-39616836D01*
X107256621Y-39518452D01*
X107266855Y-39467001D01*
X107275500Y-39423543D01*
X107275500Y-37194728D01*
X107281794Y-37155724D01*
X107327499Y-37017797D01*
X107338000Y-36915009D01*
X107337999Y-35564992D01*
X107327499Y-35462203D01*
X107272314Y-35295666D01*
X107180212Y-35146344D01*
X107056156Y-35022288D01*
X106906834Y-34930186D01*
X106740297Y-34875001D01*
X106740295Y-34875000D01*
X106637510Y-34864500D01*
X105912498Y-34864500D01*
X105912480Y-34864501D01*
X105809703Y-34875000D01*
X105809700Y-34875001D01*
X105643168Y-34930185D01*
X105643163Y-34930187D01*
X105493842Y-35022289D01*
X105369789Y-35146342D01*
X105348661Y-35180597D01*
X105296713Y-35227321D01*
X105243122Y-35239500D01*
X103676457Y-35239500D01*
X103483170Y-35277947D01*
X103483160Y-35277950D01*
X103301088Y-35353366D01*
X103301085Y-35353368D01*
X103276153Y-35370026D01*
X103220521Y-35390211D01*
X103167516Y-35395909D01*
X103032671Y-35446202D01*
X103032664Y-35446206D01*
X102917455Y-35532452D01*
X102917452Y-35532455D01*
X102831206Y-35647664D01*
X102831202Y-35647671D01*
X102780908Y-35782517D01*
X102774501Y-35842116D01*
X102774500Y-35842135D01*
X102774500Y-36637869D01*
X102774501Y-36637876D01*
X102780908Y-36697483D01*
X102831202Y-36832328D01*
X102831206Y-36832335D01*
X102917452Y-36947544D01*
X102917455Y-36947547D01*
X103032664Y-37033793D01*
X103032671Y-37033797D01*
X103167517Y-37084091D01*
X103167516Y-37084091D01*
X103220527Y-37089791D01*
X103276161Y-37109977D01*
X103301086Y-37126632D01*
X103301087Y-37126632D01*
X103301088Y-37126633D01*
X103301090Y-37126634D01*
X103465488Y-37194729D01*
X103483165Y-37202051D01*
X103483169Y-37202051D01*
X103483170Y-37202052D01*
X103676456Y-37240500D01*
X103676459Y-37240500D01*
X105150500Y-37240500D01*
X105217539Y-37260185D01*
X105263294Y-37312989D01*
X105274500Y-37364500D01*
X105274500Y-38859217D01*
X105254815Y-38926256D01*
X105238181Y-38946898D01*
X105042221Y-39142858D01*
X105042218Y-39142861D01*
X104972538Y-39212540D01*
X104902859Y-39282219D01*
X104793371Y-39446079D01*
X104793364Y-39446092D01*
X104757497Y-39532686D01*
X104747033Y-39557949D01*
X104744112Y-39565001D01*
X104719350Y-39624782D01*
X104719349Y-39624784D01*
X104717950Y-39628159D01*
X104717946Y-39628174D01*
X104679500Y-39821454D01*
X104679500Y-40907440D01*
X104659815Y-40974479D01*
X104625353Y-41009893D01*
X104554260Y-41058364D01*
X104356442Y-41241910D01*
X104188185Y-41452898D01*
X104053258Y-41686599D01*
X104053256Y-41686603D01*
X103954666Y-41937804D01*
X103954664Y-41937811D01*
X103894616Y-42200898D01*
X103874451Y-42469995D01*
X103874451Y-42470004D01*
X103894616Y-42739101D01*
X103954664Y-43002188D01*
X103954666Y-43002195D01*
X104053254Y-43253392D01*
X104053257Y-43253398D01*
X104188185Y-43487102D01*
X104193908Y-43494278D01*
X104356442Y-43698089D01*
X104485139Y-43817501D01*
X104554259Y-43881635D01*
X104777226Y-44033651D01*
X105020359Y-44150738D01*
X105278228Y-44230280D01*
X105278229Y-44230280D01*
X105278232Y-44230281D01*
X105545063Y-44270499D01*
X105545068Y-44270499D01*
X105545071Y-44270500D01*
X105545072Y-44270500D01*
X105814928Y-44270500D01*
X105814929Y-44270500D01*
X105814936Y-44270499D01*
X106081767Y-44230281D01*
X106081768Y-44230280D01*
X106081772Y-44230280D01*
X106339641Y-44150738D01*
X106582775Y-44033651D01*
X106805741Y-43881635D01*
X107003561Y-43698085D01*
X107171815Y-43487102D01*
X107306743Y-43253398D01*
X107314572Y-43233451D01*
X107357387Y-43178237D01*
X107423257Y-43154936D01*
X107491268Y-43170947D01*
X107539826Y-43221184D01*
X107545428Y-43233451D01*
X107553254Y-43253392D01*
X107553256Y-43253396D01*
X107553257Y-43253398D01*
X107688185Y-43487102D01*
X107693908Y-43494278D01*
X107856442Y-43698089D01*
X107972567Y-43805836D01*
X108054259Y-43881635D01*
X108125351Y-43930104D01*
X108169653Y-43984133D01*
X108179500Y-44032558D01*
X108179500Y-46778541D01*
X108181494Y-46788566D01*
X108217948Y-46971836D01*
X108218461Y-46973526D01*
X108218469Y-46974453D01*
X108219137Y-46977811D01*
X108218500Y-46977937D01*
X108219082Y-47043393D01*
X108181831Y-47102504D01*
X108118536Y-47132092D01*
X108049291Y-47122763D01*
X108012120Y-47097199D01*
X107887782Y-46972861D01*
X107887781Y-46972860D01*
X107887780Y-46972859D01*
X107723920Y-46863371D01*
X107723911Y-46863366D01*
X107622078Y-46821186D01*
X107595165Y-46810038D01*
X107568500Y-46798993D01*
X107541837Y-46787949D01*
X107541833Y-46787948D01*
X107421316Y-46763976D01*
X107396974Y-46759134D01*
X107348543Y-46749500D01*
X107348541Y-46749500D01*
X105555244Y-46749500D01*
X105543090Y-46748903D01*
X105500000Y-46744659D01*
X105456910Y-46748903D01*
X105444756Y-46749500D01*
X105401453Y-46749500D01*
X105358991Y-46757945D01*
X105346963Y-46759730D01*
X105303867Y-46763976D01*
X105262427Y-46776546D01*
X105250626Y-46779502D01*
X105208166Y-46787948D01*
X105208161Y-46787949D01*
X105168159Y-46804518D01*
X105156707Y-46808616D01*
X105115272Y-46821186D01*
X105077091Y-46841594D01*
X105066093Y-46846795D01*
X105026091Y-46863364D01*
X104990080Y-46887426D01*
X104979645Y-46893680D01*
X104941465Y-46914087D01*
X104941460Y-46914091D01*
X104907990Y-46941557D01*
X104898225Y-46948799D01*
X104862225Y-46972855D01*
X104862219Y-46972860D01*
X104831595Y-47003483D01*
X104822584Y-47011650D01*
X104789117Y-47039117D01*
X104761650Y-47072584D01*
X104753483Y-47081595D01*
X104722860Y-47112219D01*
X104722855Y-47112225D01*
X104698799Y-47148225D01*
X104691557Y-47157990D01*
X104664091Y-47191460D01*
X104664087Y-47191465D01*
X104643680Y-47229645D01*
X104637426Y-47240080D01*
X104613364Y-47276091D01*
X104596795Y-47316093D01*
X104591594Y-47327091D01*
X104571186Y-47365272D01*
X104558616Y-47406707D01*
X104554518Y-47418159D01*
X104537949Y-47458161D01*
X104537948Y-47458166D01*
X104529502Y-47500626D01*
X104526546Y-47512427D01*
X104513976Y-47553867D01*
X104509730Y-47596963D01*
X104507945Y-47608991D01*
X104499500Y-47651453D01*
X104499500Y-47694754D01*
X104498903Y-47706907D01*
X104494659Y-47749999D01*
X104498903Y-47793090D01*
X104499500Y-47805244D01*
X104499500Y-47848544D01*
X104507945Y-47891006D01*
X104509730Y-47903035D01*
X104513975Y-47946130D01*
X104513976Y-47946134D01*
X104526547Y-47987575D01*
X104529503Y-47999378D01*
X104537946Y-48041827D01*
X104537948Y-48041834D01*
X104554517Y-48081834D01*
X104558612Y-48093277D01*
X104571186Y-48134727D01*
X104571187Y-48134729D01*
X104591597Y-48172913D01*
X104596800Y-48183915D01*
X104613368Y-48223914D01*
X104613370Y-48223918D01*
X104637425Y-48259918D01*
X104643678Y-48270350D01*
X104654948Y-48291436D01*
X104664088Y-48308535D01*
X104664094Y-48308543D01*
X104691552Y-48342002D01*
X104698799Y-48351772D01*
X104722079Y-48386612D01*
X104722862Y-48387783D01*
X104722865Y-48387787D01*
X104753479Y-48418401D01*
X104761651Y-48427416D01*
X104786886Y-48458165D01*
X104789118Y-48460884D01*
X104822581Y-48488346D01*
X104831599Y-48496520D01*
X104862214Y-48527136D01*
X104862219Y-48527140D01*
X104898219Y-48551194D01*
X104907988Y-48558438D01*
X104941462Y-48585910D01*
X104941464Y-48585911D01*
X104979640Y-48606316D01*
X104990078Y-48612572D01*
X105026086Y-48636632D01*
X105066095Y-48653203D01*
X105077091Y-48658404D01*
X105115273Y-48678814D01*
X105156710Y-48691383D01*
X105168160Y-48695480D01*
X105208165Y-48712051D01*
X105250640Y-48720499D01*
X105262414Y-48723448D01*
X105303868Y-48736024D01*
X105346964Y-48740268D01*
X105358990Y-48742052D01*
X105389480Y-48748117D01*
X105401458Y-48750500D01*
X105401459Y-48750500D01*
X105444756Y-48750500D01*
X105456909Y-48751096D01*
X105500000Y-48755341D01*
X105543090Y-48751096D01*
X105555244Y-48750500D01*
X106784218Y-48750500D01*
X106851257Y-48770185D01*
X106871899Y-48786819D01*
X107213181Y-49128101D01*
X107246666Y-49189424D01*
X107249500Y-49215782D01*
X107249500Y-49732465D01*
X107229815Y-49799504D01*
X107177011Y-49845259D01*
X107138102Y-49855823D01*
X107097202Y-49860001D01*
X107097200Y-49860001D01*
X106930668Y-49915185D01*
X106930663Y-49915187D01*
X106781342Y-50007289D01*
X106657289Y-50131342D01*
X106565187Y-50280663D01*
X106565185Y-50280668D01*
X106510001Y-50447204D01*
X106510000Y-50447205D01*
X106499499Y-50549993D01*
X106473102Y-50614685D01*
X106415921Y-50654836D01*
X106346110Y-50657699D01*
X106285834Y-50622364D01*
X106280285Y-50616051D01*
X106277137Y-50612215D01*
X106134686Y-50469764D01*
X106134655Y-50469735D01*
X101536819Y-45871899D01*
X101503334Y-45810576D01*
X101500500Y-45784218D01*
X101500500Y-41061337D01*
X101520185Y-40994298D01*
X101522896Y-40990254D01*
X101597534Y-40883662D01*
X101690894Y-40683450D01*
X101748070Y-40470068D01*
X101767323Y-40250000D01*
X101748070Y-40029932D01*
X101690894Y-39816550D01*
X101597534Y-39616339D01*
X101541307Y-39536038D01*
X101522925Y-39509785D01*
X101500598Y-39443578D01*
X101500500Y-39438662D01*
X101500500Y-33151458D01*
X101500499Y-33151457D01*
X101494121Y-33119389D01*
X101462052Y-32958165D01*
X101386632Y-32776086D01*
X101386631Y-32776085D01*
X101386628Y-32776079D01*
X101294262Y-32637844D01*
X102775000Y-32637844D01*
X102781401Y-32697372D01*
X102781403Y-32697379D01*
X102831645Y-32832086D01*
X102831649Y-32832093D01*
X102917809Y-32947187D01*
X102917812Y-32947190D01*
X103032906Y-33033350D01*
X103032913Y-33033354D01*
X103167620Y-33083596D01*
X103167627Y-33083598D01*
X103227155Y-33089999D01*
X103227172Y-33090000D01*
X103525000Y-33090000D01*
X104025000Y-33090000D01*
X104322828Y-33090000D01*
X104322844Y-33089999D01*
X104382372Y-33083598D01*
X104382379Y-33083596D01*
X104517086Y-33033354D01*
X104517093Y-33033350D01*
X104632187Y-32947190D01*
X104632190Y-32947187D01*
X104718350Y-32832093D01*
X104718354Y-32832086D01*
X104747982Y-32752648D01*
X113345034Y-32752648D01*
X113345034Y-32752653D01*
X113364858Y-32979250D01*
X113364860Y-32979261D01*
X113423730Y-33198968D01*
X113423735Y-33198982D01*
X113519863Y-33405129D01*
X113570974Y-33478123D01*
X114250000Y-32799097D01*
X114250000Y-32805312D01*
X114277259Y-32907045D01*
X114329920Y-32998257D01*
X114404394Y-33072731D01*
X114495606Y-33125392D01*
X114597339Y-33152651D01*
X114603553Y-33152651D01*
X113924526Y-33831676D01*
X113997513Y-33882783D01*
X113997521Y-33882787D01*
X114203668Y-33978915D01*
X114203682Y-33978920D01*
X114423389Y-34037790D01*
X114423400Y-34037792D01*
X114649998Y-34057617D01*
X114650002Y-34057617D01*
X114876599Y-34037792D01*
X114876610Y-34037790D01*
X115096317Y-33978920D01*
X115096331Y-33978915D01*
X115302478Y-33882787D01*
X115375471Y-33831675D01*
X114696447Y-33152651D01*
X114702661Y-33152651D01*
X114804394Y-33125392D01*
X114895606Y-33072731D01*
X114970080Y-32998257D01*
X115022741Y-32907045D01*
X115050000Y-32805312D01*
X115050000Y-32799098D01*
X115729024Y-33478122D01*
X115780136Y-33405129D01*
X115876264Y-33198982D01*
X115876269Y-33198968D01*
X115935139Y-32979261D01*
X115935141Y-32979250D01*
X115954966Y-32752653D01*
X115954966Y-32752648D01*
X115935141Y-32526051D01*
X115935139Y-32526040D01*
X115876269Y-32306333D01*
X115876264Y-32306319D01*
X115780136Y-32100172D01*
X115780132Y-32100164D01*
X115729025Y-32027177D01*
X115050000Y-32706202D01*
X115050000Y-32699990D01*
X115022741Y-32598257D01*
X114970080Y-32507045D01*
X114895606Y-32432571D01*
X114804394Y-32379910D01*
X114702661Y-32352651D01*
X114696448Y-32352651D01*
X115375472Y-31673625D01*
X115302478Y-31622514D01*
X115096331Y-31526386D01*
X115096317Y-31526381D01*
X114876610Y-31467511D01*
X114876599Y-31467509D01*
X114650002Y-31447685D01*
X114649998Y-31447685D01*
X114423400Y-31467509D01*
X114423389Y-31467511D01*
X114203682Y-31526381D01*
X114203673Y-31526385D01*
X113997516Y-31622517D01*
X113997512Y-31622519D01*
X113924526Y-31673624D01*
X113924526Y-31673625D01*
X114603553Y-32352651D01*
X114597339Y-32352651D01*
X114495606Y-32379910D01*
X114404394Y-32432571D01*
X114329920Y-32507045D01*
X114277259Y-32598257D01*
X114250000Y-32699990D01*
X114250000Y-32706203D01*
X113570974Y-32027177D01*
X113570973Y-32027177D01*
X113519868Y-32100163D01*
X113519866Y-32100167D01*
X113423734Y-32306324D01*
X113423730Y-32306333D01*
X113364860Y-32526040D01*
X113364858Y-32526051D01*
X113345034Y-32752648D01*
X104747982Y-32752648D01*
X104768596Y-32697379D01*
X104768598Y-32697372D01*
X104774999Y-32637844D01*
X104775000Y-32637827D01*
X104775000Y-32490000D01*
X104025000Y-32490000D01*
X104025000Y-33090000D01*
X103525000Y-33090000D01*
X103525000Y-32490000D01*
X102775000Y-32490000D01*
X102775000Y-32637844D01*
X101294262Y-32637844D01*
X101277140Y-32612219D01*
X101277137Y-32612215D01*
X100507075Y-31842155D01*
X102775000Y-31842155D01*
X102775000Y-31990000D01*
X103525000Y-31990000D01*
X104025000Y-31990000D01*
X104775000Y-31990000D01*
X104775000Y-31842172D01*
X104774999Y-31842155D01*
X104768598Y-31782627D01*
X104768596Y-31782620D01*
X104718354Y-31647913D01*
X104718350Y-31647906D01*
X104632190Y-31532812D01*
X104632187Y-31532809D01*
X104517093Y-31446649D01*
X104517086Y-31446645D01*
X104382379Y-31396403D01*
X104382372Y-31396401D01*
X104322844Y-31390000D01*
X104025000Y-31390000D01*
X104025000Y-31990000D01*
X103525000Y-31990000D01*
X103525000Y-31390000D01*
X103227155Y-31390000D01*
X103167627Y-31396401D01*
X103167620Y-31396403D01*
X103032913Y-31446645D01*
X103032906Y-31446649D01*
X102917812Y-31532809D01*
X102917809Y-31532812D01*
X102831649Y-31647906D01*
X102831645Y-31647913D01*
X102781403Y-31782620D01*
X102781401Y-31782627D01*
X102775000Y-31842155D01*
X100507075Y-31842155D01*
X100274209Y-31609289D01*
X100274206Y-31609285D01*
X100274206Y-31609286D01*
X100267139Y-31602219D01*
X100267139Y-31602218D01*
X100127782Y-31462861D01*
X100127781Y-31462860D01*
X100127780Y-31462859D01*
X99963920Y-31353371D01*
X99963911Y-31353366D01*
X99891315Y-31323296D01*
X99835165Y-31300038D01*
X99781836Y-31277949D01*
X99781832Y-31277948D01*
X99781828Y-31277946D01*
X99685188Y-31258724D01*
X99588544Y-31239500D01*
X99588541Y-31239500D01*
X97726459Y-31239500D01*
X97726457Y-31239500D01*
X97533170Y-31277947D01*
X97533160Y-31277950D01*
X97351088Y-31353366D01*
X97351085Y-31353368D01*
X97326153Y-31370026D01*
X97270521Y-31390211D01*
X97217516Y-31395909D01*
X97082671Y-31446202D01*
X97082664Y-31446206D01*
X96967455Y-31532452D01*
X96967452Y-31532455D01*
X96881206Y-31647664D01*
X96881202Y-31647671D01*
X96830908Y-31782517D01*
X96824501Y-31842116D01*
X96824500Y-31842135D01*
X96824500Y-32637869D01*
X96824501Y-32637876D01*
X96830908Y-32697483D01*
X96881202Y-32832328D01*
X96881206Y-32832335D01*
X96967452Y-32947544D01*
X96967455Y-32947547D01*
X97082664Y-33033793D01*
X97082671Y-33033797D01*
X97217517Y-33084091D01*
X97217516Y-33084091D01*
X97270527Y-33089791D01*
X97326161Y-33109977D01*
X97351086Y-33126632D01*
X97351087Y-33126632D01*
X97351088Y-33126633D01*
X97351090Y-33126634D01*
X97525722Y-33198968D01*
X97533165Y-33202051D01*
X97533169Y-33202051D01*
X97533170Y-33202052D01*
X97726456Y-33240500D01*
X97726459Y-33240500D01*
X99024218Y-33240500D01*
X99091257Y-33260185D01*
X99111899Y-33276819D01*
X99463181Y-33628101D01*
X99496666Y-33689424D01*
X99499500Y-33715782D01*
X99499500Y-35754954D01*
X99479815Y-35821993D01*
X99427011Y-35867748D01*
X99357853Y-35877692D01*
X99294297Y-35848667D01*
X99257569Y-35793273D01*
X99215566Y-35664003D01*
X99148537Y-35532452D01*
X99108343Y-35453567D01*
X98969517Y-35262490D01*
X98802510Y-35095483D01*
X98611433Y-34956657D01*
X98400996Y-34849433D01*
X98176368Y-34776446D01*
X97943097Y-34739500D01*
X97943092Y-34739500D01*
X97706908Y-34739500D01*
X97706903Y-34739500D01*
X97473631Y-34776446D01*
X97249003Y-34849433D01*
X97038566Y-34956657D01*
X96929550Y-35035862D01*
X96847490Y-35095483D01*
X96847488Y-35095485D01*
X96847487Y-35095485D01*
X96680485Y-35262487D01*
X96680485Y-35262488D01*
X96680483Y-35262490D01*
X96656379Y-35295666D01*
X96541657Y-35453566D01*
X96434433Y-35664003D01*
X96361446Y-35888631D01*
X96324500Y-36121902D01*
X96324500Y-47693097D01*
X96361446Y-47926368D01*
X96434433Y-48150996D01*
X96534156Y-48346713D01*
X96541657Y-48361434D01*
X96662050Y-48527140D01*
X96680484Y-48552511D01*
X98963181Y-50835208D01*
X98996666Y-50896531D01*
X98999500Y-50922889D01*
X98999500Y-56353097D01*
X99036446Y-56586368D01*
X99109433Y-56810996D01*
X99185531Y-56960345D01*
X99216657Y-57021433D01*
X99355483Y-57212510D01*
X99355485Y-57212512D01*
X99430580Y-57287607D01*
X99464065Y-57348930D01*
X99459081Y-57418622D01*
X99417209Y-57474555D01*
X99412538Y-57477557D01*
X99292455Y-57567452D01*
X99292452Y-57567455D01*
X99206206Y-57682664D01*
X99206202Y-57682671D01*
X99155908Y-57817517D01*
X99149501Y-57877116D01*
X99149501Y-57877123D01*
X99149500Y-57877135D01*
X99149500Y-58090599D01*
X99135985Y-58146893D01*
X99109430Y-58199009D01*
X99109430Y-58199011D01*
X99036447Y-58423627D01*
X99036447Y-58423630D01*
X98999500Y-58656902D01*
X98999500Y-64182809D01*
X98999076Y-64193050D01*
X98994357Y-64249995D01*
X98994357Y-64250004D01*
X98999076Y-64306948D01*
X98999500Y-64317189D01*
X98999500Y-64368096D01*
X99008514Y-64425005D01*
X99009615Y-64434147D01*
X99013462Y-64480572D01*
X99014892Y-64497824D01*
X99027270Y-64546703D01*
X99029537Y-64557743D01*
X99036447Y-64601369D01*
X99056332Y-64662569D01*
X99058606Y-64670446D01*
X99075935Y-64738874D01*
X99075939Y-64738887D01*
X99093487Y-64778892D01*
X99097862Y-64790384D01*
X99109430Y-64825989D01*
X99109432Y-64825992D01*
X99141696Y-64889314D01*
X99144767Y-64895798D01*
X99175826Y-64966606D01*
X99175829Y-64966610D01*
X99196038Y-64997542D01*
X99202711Y-65009062D01*
X99212256Y-65027796D01*
X99216658Y-65036434D01*
X99216664Y-65036443D01*
X99262379Y-65099365D01*
X99265870Y-65104429D01*
X99283923Y-65132061D01*
X99311836Y-65174785D01*
X99332309Y-65197025D01*
X99341391Y-65208115D01*
X99346859Y-65215640D01*
X99355481Y-65227508D01*
X99415216Y-65287243D01*
X99418764Y-65290941D01*
X99480252Y-65357734D01*
X99480256Y-65357738D01*
X99498791Y-65372164D01*
X99510310Y-65382337D01*
X99522490Y-65394517D01*
X99589275Y-65443039D01*
X99596263Y-65448116D01*
X99599527Y-65450570D01*
X99676491Y-65510474D01*
X99691214Y-65518442D01*
X99705079Y-65527176D01*
X99713567Y-65533343D01*
X99800815Y-65577798D01*
X99803503Y-65579209D01*
X99895190Y-65628828D01*
X99904643Y-65632073D01*
X99920673Y-65638869D01*
X99924008Y-65640568D01*
X99924013Y-65640569D01*
X99924014Y-65640570D01*
X100023517Y-65672900D01*
X100025381Y-65673522D01*
X100130386Y-65709571D01*
X100131166Y-65709701D01*
X100133583Y-65710105D01*
X100143842Y-65712612D01*
X100143890Y-65712415D01*
X100148623Y-65713550D01*
X100148632Y-65713553D01*
X100215387Y-65724125D01*
X100258639Y-65730976D01*
X100259562Y-65731125D01*
X100375665Y-65750500D01*
X100375666Y-65750500D01*
X100624333Y-65750500D01*
X100624335Y-65750500D01*
X100740532Y-65731109D01*
X100741217Y-65730997D01*
X100851368Y-65713553D01*
X100851379Y-65713549D01*
X100856110Y-65712414D01*
X100856157Y-65712612D01*
X100866414Y-65710104D01*
X100869614Y-65709571D01*
X100974688Y-65673497D01*
X100976360Y-65672939D01*
X101075992Y-65640568D01*
X101079321Y-65638871D01*
X101095355Y-65632074D01*
X101097269Y-65631416D01*
X101104810Y-65628828D01*
X101196524Y-65579194D01*
X101199117Y-65577831D01*
X101286433Y-65533343D01*
X101294916Y-65527178D01*
X101308780Y-65518444D01*
X101323509Y-65510474D01*
X101400465Y-65450575D01*
X101403680Y-65448156D01*
X101477510Y-65394517D01*
X101489699Y-65382327D01*
X101501210Y-65372162D01*
X101519744Y-65357738D01*
X101581234Y-65290940D01*
X101584734Y-65287291D01*
X101644517Y-65227510D01*
X101658604Y-65208119D01*
X101667695Y-65197019D01*
X101670167Y-65194334D01*
X101688164Y-65174785D01*
X101734139Y-65104412D01*
X101737611Y-65099374D01*
X101783343Y-65036433D01*
X101797285Y-65009066D01*
X101803962Y-64997541D01*
X101824171Y-64966610D01*
X101824173Y-64966607D01*
X101855240Y-64895777D01*
X101858286Y-64889345D01*
X101890568Y-64825992D01*
X101902136Y-64790383D01*
X101906513Y-64778890D01*
X101924060Y-64738887D01*
X101924063Y-64738881D01*
X101941397Y-64670428D01*
X101943667Y-64662569D01*
X101963553Y-64601368D01*
X101970465Y-64557718D01*
X101972724Y-64546720D01*
X101985108Y-64497821D01*
X101990382Y-64434152D01*
X101991486Y-64424998D01*
X101994247Y-64407567D01*
X102000500Y-64368092D01*
X102000500Y-64317189D01*
X102000924Y-64306948D01*
X102005643Y-64250004D01*
X102005643Y-64249995D01*
X102000924Y-64193050D01*
X102000500Y-64182809D01*
X102000500Y-58656902D01*
X101963553Y-58423631D01*
X101915422Y-58275500D01*
X101890568Y-58199008D01*
X101890566Y-58199005D01*
X101890565Y-58199000D01*
X101864014Y-58146891D01*
X101850499Y-58090597D01*
X101850499Y-57877129D01*
X101850498Y-57877123D01*
X101850497Y-57877116D01*
X101844091Y-57817517D01*
X101793796Y-57682669D01*
X101793795Y-57682668D01*
X101793793Y-57682664D01*
X101707547Y-57567455D01*
X101707544Y-57567452D01*
X101585231Y-57475888D01*
X101587031Y-57473483D01*
X101548257Y-57434695D01*
X101533418Y-57366420D01*
X101557846Y-57300960D01*
X101569406Y-57287620D01*
X101644517Y-57212510D01*
X101783343Y-57021433D01*
X101890568Y-56810992D01*
X101963553Y-56586368D01*
X101964457Y-56580663D01*
X102000500Y-56353097D01*
X102000500Y-50131902D01*
X101963553Y-49898631D01*
X101909562Y-49732465D01*
X101890568Y-49674008D01*
X101890566Y-49674005D01*
X101890566Y-49674003D01*
X101815735Y-49527140D01*
X101815734Y-49527139D01*
X101783344Y-49463568D01*
X101783340Y-49463562D01*
X101701194Y-49350499D01*
X101644517Y-49272490D01*
X99361819Y-46989792D01*
X99328334Y-46928469D01*
X99325500Y-46902111D01*
X99325500Y-46652328D01*
X99345185Y-46585289D01*
X99397989Y-46539534D01*
X99467147Y-46529590D01*
X99530703Y-46558615D01*
X99564061Y-46604876D01*
X99613364Y-46723907D01*
X99613371Y-46723920D01*
X99722860Y-46887781D01*
X99722863Y-46887785D01*
X99866537Y-47031459D01*
X99866559Y-47031479D01*
X104463181Y-51628101D01*
X104496666Y-51689424D01*
X104499500Y-51715782D01*
X104499500Y-63072971D01*
X104479815Y-63140010D01*
X104466730Y-63156953D01*
X104311836Y-63325214D01*
X104175826Y-63533393D01*
X104075936Y-63761118D01*
X104014892Y-64002175D01*
X104014890Y-64002187D01*
X103994357Y-64249994D01*
X103994357Y-64250005D01*
X104014890Y-64497812D01*
X104014892Y-64497824D01*
X104075936Y-64738881D01*
X104175826Y-64966606D01*
X104311833Y-65174782D01*
X104311836Y-65174785D01*
X104480256Y-65357738D01*
X104676491Y-65510474D01*
X104895190Y-65628828D01*
X104916262Y-65636062D01*
X104973277Y-65676446D01*
X104999408Y-65741245D01*
X105000000Y-65753343D01*
X105000000Y-70104268D01*
X104980315Y-70171307D01*
X104935018Y-70213323D01*
X104731371Y-70323531D01*
X104731365Y-70323535D01*
X104548222Y-70466081D01*
X104548219Y-70466084D01*
X104391016Y-70636852D01*
X104264075Y-70831151D01*
X104170842Y-71043699D01*
X104113866Y-71268691D01*
X104113864Y-71268702D01*
X104094700Y-71499993D01*
X104094700Y-71500006D01*
X104113864Y-71731297D01*
X104113866Y-71731308D01*
X104170842Y-71956300D01*
X104264075Y-72168848D01*
X104391016Y-72363147D01*
X104391019Y-72363151D01*
X104391021Y-72363153D01*
X104548216Y-72533913D01*
X104548219Y-72533915D01*
X104548222Y-72533918D01*
X104731365Y-72676464D01*
X104731372Y-72676468D01*
X104731374Y-72676470D01*
X104821973Y-72725500D01*
X104935017Y-72786676D01*
X104984608Y-72835895D01*
X105000000Y-72895731D01*
X105000000Y-77140291D01*
X104999500Y-77150469D01*
X104999500Y-79796959D01*
X104979815Y-79863998D01*
X104963181Y-79884640D01*
X101679720Y-83168101D01*
X101679718Y-83168103D01*
X101610038Y-83237782D01*
X101540359Y-83307461D01*
X101430871Y-83471321D01*
X101430866Y-83471331D01*
X101411244Y-83518704D01*
X101393783Y-83560859D01*
X101377538Y-83600077D01*
X101355450Y-83653400D01*
X101355447Y-83653408D01*
X101350307Y-83679254D01*
X101317000Y-83846697D01*
X101317000Y-84721148D01*
X101297315Y-84788187D01*
X101268090Y-84817752D01*
X101268967Y-84818828D01*
X101106390Y-84951390D01*
X100977804Y-85109090D01*
X100883589Y-85289454D01*
X100827614Y-85485083D01*
X100827613Y-85485086D01*
X100817000Y-85604466D01*
X100817000Y-88520528D01*
X100817001Y-88520534D01*
X100827613Y-88639915D01*
X100883589Y-88835545D01*
X100883590Y-88835548D01*
X100883591Y-88835549D01*
X100977802Y-89015907D01*
X100977804Y-89015909D01*
X101106390Y-89173609D01*
X101200303Y-89250184D01*
X101264093Y-89302198D01*
X101444451Y-89396409D01*
X101640082Y-89452386D01*
X101759463Y-89463000D01*
X102875536Y-89462999D01*
X102994918Y-89452386D01*
X103190549Y-89396409D01*
X103370907Y-89302198D01*
X103528609Y-89173609D01*
X103657198Y-89015907D01*
X103751409Y-88835549D01*
X103807386Y-88639918D01*
X103818000Y-88520537D01*
X103818000Y-88187000D01*
X103837685Y-88119961D01*
X103890489Y-88074206D01*
X103942000Y-88063000D01*
X104876000Y-88063000D01*
X104943039Y-88082685D01*
X104988794Y-88135489D01*
X105000000Y-88187000D01*
X105000000Y-91625500D01*
X104980315Y-91692539D01*
X104927511Y-91738294D01*
X104876000Y-91749500D01*
X100612229Y-91749500D01*
X100545190Y-91729815D01*
X100524548Y-91713181D01*
X98786819Y-89975451D01*
X98753334Y-89914128D01*
X98750500Y-89887770D01*
X98750500Y-81251198D01*
X98770185Y-81184159D01*
X98798338Y-81153344D01*
X98951784Y-81033913D01*
X99108979Y-80863153D01*
X99235924Y-80668849D01*
X99329157Y-80456300D01*
X99386134Y-80231305D01*
X99405300Y-80000000D01*
X99405300Y-79999993D01*
X99386135Y-79768702D01*
X99386133Y-79768691D01*
X99329157Y-79543699D01*
X99235924Y-79331151D01*
X99108983Y-79136852D01*
X99108980Y-79136849D01*
X99108979Y-79136847D01*
X98951784Y-78966087D01*
X98951779Y-78966083D01*
X98951777Y-78966081D01*
X98768634Y-78823535D01*
X98768628Y-78823531D01*
X98564504Y-78713064D01*
X98564495Y-78713061D01*
X98344984Y-78637702D01*
X98173282Y-78609050D01*
X98116049Y-78599500D01*
X97883951Y-78599500D01*
X97838164Y-78607140D01*
X97655015Y-78637702D01*
X97435504Y-78713061D01*
X97435495Y-78713064D01*
X97231371Y-78823531D01*
X97231365Y-78823535D01*
X97048222Y-78966081D01*
X97048219Y-78966084D01*
X96891016Y-79136852D01*
X96764075Y-79331151D01*
X96670842Y-79543699D01*
X96613866Y-79768691D01*
X96613864Y-79768702D01*
X96594700Y-79999993D01*
X96594700Y-80000006D01*
X96613864Y-80231297D01*
X96613866Y-80231308D01*
X96670842Y-80456300D01*
X96764075Y-80668848D01*
X96891016Y-80863147D01*
X96891019Y-80863151D01*
X96891021Y-80863153D01*
X97048216Y-81033913D01*
X97201662Y-81153344D01*
X97242475Y-81210055D01*
X97249500Y-81251198D01*
X97249500Y-90323918D01*
X97249500Y-90323920D01*
X97249499Y-90323920D01*
X97278340Y-90468907D01*
X97278343Y-90468917D01*
X97334912Y-90605490D01*
X97339928Y-90612995D01*
X97339929Y-90613000D01*
X97339931Y-90613000D01*
X97363313Y-90647995D01*
X97417051Y-90728420D01*
X97417052Y-90728421D01*
X99667049Y-92978416D01*
X99771584Y-93082951D01*
X99771587Y-93082953D01*
X99771588Y-93082954D01*
X99894503Y-93165083D01*
X99894506Y-93165085D01*
X99951079Y-93188518D01*
X99951080Y-93188518D01*
X100031088Y-93221659D01*
X100147241Y-93244763D01*
X100166468Y-93248587D01*
X100176081Y-93250500D01*
X104876000Y-93250500D01*
X104943039Y-93270185D01*
X104988794Y-93322989D01*
X105000000Y-93374500D01*
X105000000Y-93375500D01*
X104980315Y-93442539D01*
X104927511Y-93488294D01*
X104876000Y-93499500D01*
X94124500Y-93499500D01*
X94057461Y-93479815D01*
X94011706Y-93427011D01*
X94000500Y-93375500D01*
X94000500Y-71499994D01*
X96595202Y-71499994D01*
X96595202Y-71500005D01*
X96614361Y-71731218D01*
X96671317Y-71956135D01*
X96764515Y-72168606D01*
X96848812Y-72297633D01*
X97435387Y-71711058D01*
X97440889Y-71731591D01*
X97519881Y-71868408D01*
X97631592Y-71980119D01*
X97768409Y-72059111D01*
X97788940Y-72064612D01*
X97201201Y-72652351D01*
X97231649Y-72676050D01*
X97435697Y-72786476D01*
X97435706Y-72786479D01*
X97655139Y-72861811D01*
X97883993Y-72900000D01*
X98116007Y-72900000D01*
X98344860Y-72861811D01*
X98564293Y-72786479D01*
X98564301Y-72786476D01*
X98768355Y-72676047D01*
X98798797Y-72652351D01*
X98798798Y-72652350D01*
X98211060Y-72064612D01*
X98231591Y-72059111D01*
X98368408Y-71980119D01*
X98480119Y-71868408D01*
X98559111Y-71731591D01*
X98564612Y-71711059D01*
X99151186Y-72297633D01*
X99155967Y-72297137D01*
X99199036Y-72260380D01*
X99268268Y-72250956D01*
X99331604Y-72280457D01*
X99353509Y-72305737D01*
X99391016Y-72363147D01*
X99391019Y-72363151D01*
X99391021Y-72363153D01*
X99548216Y-72533913D01*
X99548219Y-72533915D01*
X99548222Y-72533918D01*
X99731365Y-72676464D01*
X99731371Y-72676468D01*
X99731374Y-72676470D01*
X99898860Y-72767109D01*
X99935016Y-72786676D01*
X99935497Y-72786936D01*
X100003254Y-72810197D01*
X100155015Y-72862297D01*
X100155017Y-72862297D01*
X100155019Y-72862298D01*
X100383951Y-72900500D01*
X100383952Y-72900500D01*
X100616048Y-72900500D01*
X100616049Y-72900500D01*
X100844981Y-72862298D01*
X101064503Y-72786936D01*
X101268626Y-72676470D01*
X101269170Y-72676047D01*
X101330129Y-72628600D01*
X101451784Y-72533913D01*
X101608979Y-72363153D01*
X101735924Y-72168849D01*
X101829157Y-71956300D01*
X101886134Y-71731305D01*
X101886135Y-71731297D01*
X101905300Y-71500006D01*
X101905300Y-71499993D01*
X101886135Y-71268702D01*
X101886133Y-71268691D01*
X101829157Y-71043699D01*
X101735924Y-70831151D01*
X101608983Y-70636852D01*
X101608980Y-70636849D01*
X101608979Y-70636847D01*
X101451784Y-70466087D01*
X101451779Y-70466083D01*
X101451777Y-70466081D01*
X101268634Y-70323535D01*
X101268628Y-70323531D01*
X101064504Y-70213064D01*
X101064495Y-70213061D01*
X100844984Y-70137702D01*
X100644622Y-70104268D01*
X100616049Y-70099500D01*
X100383951Y-70099500D01*
X100355378Y-70104268D01*
X100155015Y-70137702D01*
X99935504Y-70213061D01*
X99935495Y-70213064D01*
X99731371Y-70323531D01*
X99731365Y-70323535D01*
X99548222Y-70466081D01*
X99548219Y-70466084D01*
X99391018Y-70636850D01*
X99353510Y-70694262D01*
X99300363Y-70739618D01*
X99231132Y-70749042D01*
X99167796Y-70719540D01*
X99153084Y-70702562D01*
X99151186Y-70702365D01*
X98564612Y-71288939D01*
X98559111Y-71268409D01*
X98480119Y-71131592D01*
X98368408Y-71019881D01*
X98231591Y-70940889D01*
X98211058Y-70935387D01*
X98798797Y-70347647D01*
X98798797Y-70347645D01*
X98768360Y-70323955D01*
X98768354Y-70323951D01*
X98564302Y-70213523D01*
X98564293Y-70213520D01*
X98344860Y-70138188D01*
X98116007Y-70100000D01*
X97883993Y-70100000D01*
X97655139Y-70138188D01*
X97435706Y-70213520D01*
X97435697Y-70213523D01*
X97231650Y-70323949D01*
X97201200Y-70347647D01*
X97788941Y-70935387D01*
X97768409Y-70940889D01*
X97631592Y-71019881D01*
X97519881Y-71131592D01*
X97440889Y-71268409D01*
X97435387Y-71288941D01*
X96848811Y-70702365D01*
X96764516Y-70831390D01*
X96671317Y-71043864D01*
X96614361Y-71268781D01*
X96595202Y-71499994D01*
X94000500Y-71499994D01*
X94000500Y-28624500D01*
X94020185Y-28557461D01*
X94072989Y-28511706D01*
X94124500Y-28500500D01*
X122376000Y-28500500D01*
X122443039Y-28520185D01*
G37*
G04 #@! TD.AperFunction*
G04 #@! TA.AperFunction,Conductor*
G36*
X104919334Y-82860842D02*
G01*
X104975267Y-82902714D01*
X104999684Y-82968178D01*
X105000000Y-82977024D01*
X105000000Y-85938000D01*
X104980315Y-86005039D01*
X104927511Y-86050794D01*
X104876000Y-86062000D01*
X103941999Y-86062000D01*
X103874960Y-86042315D01*
X103829205Y-85989511D01*
X103817999Y-85938000D01*
X103817999Y-85604471D01*
X103817999Y-85604464D01*
X103807386Y-85485082D01*
X103751409Y-85289451D01*
X103657198Y-85109093D01*
X103605184Y-85045303D01*
X103528609Y-84951390D01*
X103366033Y-84818828D01*
X103367392Y-84817160D01*
X103328617Y-84771350D01*
X103318000Y-84721148D01*
X103318000Y-84411024D01*
X103337685Y-84343985D01*
X103354319Y-84323343D01*
X104788319Y-82889343D01*
X104849642Y-82855858D01*
X104919334Y-82860842D01*
G37*
G04 #@! TD.AperFunction*
G04 #@! TA.AperFunction,Conductor*
G36*
X113379859Y-37272836D02*
G01*
X113412085Y-37302838D01*
X113492454Y-37410197D01*
X113599811Y-37490565D01*
X113641682Y-37546498D01*
X113649500Y-37589831D01*
X113649500Y-39491953D01*
X113629815Y-39558992D01*
X113590598Y-39597491D01*
X113546344Y-39624787D01*
X113422289Y-39748842D01*
X113330187Y-39898163D01*
X113330186Y-39898166D01*
X113275001Y-40064703D01*
X113275001Y-40064704D01*
X113275000Y-40064704D01*
X113264500Y-40167483D01*
X113264500Y-40892501D01*
X113264501Y-40892519D01*
X113275000Y-40995296D01*
X113275001Y-40995299D01*
X113317759Y-41124331D01*
X113330186Y-41161834D01*
X113422288Y-41311156D01*
X113546344Y-41435212D01*
X113695666Y-41527314D01*
X113862203Y-41582499D01*
X113964991Y-41593000D01*
X115315008Y-41592999D01*
X115417797Y-41582499D01*
X115555725Y-41536793D01*
X115594729Y-41530500D01*
X116185271Y-41530500D01*
X116224274Y-41536793D01*
X116362203Y-41582499D01*
X116464991Y-41593000D01*
X117815008Y-41592999D01*
X117917797Y-41582499D01*
X117980281Y-41561793D01*
X118019284Y-41555500D01*
X118461659Y-41555500D01*
X118528698Y-41575185D01*
X118574453Y-41627989D01*
X118584397Y-41697147D01*
X118567198Y-41744596D01*
X118480189Y-41885659D01*
X118480186Y-41885666D01*
X118425001Y-42052203D01*
X118425001Y-42052204D01*
X118425000Y-42052204D01*
X118414500Y-42154983D01*
X118414500Y-42439159D01*
X118394815Y-42506198D01*
X118342011Y-42551953D01*
X118272853Y-42561897D01*
X118225404Y-42544698D01*
X118084340Y-42457689D01*
X118084335Y-42457687D01*
X118084334Y-42457686D01*
X117917797Y-42402501D01*
X117917795Y-42402500D01*
X117815010Y-42392000D01*
X116464998Y-42392000D01*
X116464981Y-42392001D01*
X116362203Y-42402500D01*
X116362200Y-42402501D01*
X116195668Y-42457685D01*
X116195663Y-42457687D01*
X116046342Y-42549789D01*
X115977681Y-42618451D01*
X115916358Y-42651936D01*
X115846666Y-42646952D01*
X115802319Y-42618451D01*
X115733657Y-42549789D01*
X115733656Y-42549788D01*
X115604305Y-42470004D01*
X115584336Y-42457687D01*
X115584331Y-42457685D01*
X115528423Y-42439159D01*
X115417797Y-42402501D01*
X115417795Y-42402500D01*
X115315010Y-42392000D01*
X113964998Y-42392000D01*
X113964981Y-42392001D01*
X113862203Y-42402500D01*
X113862200Y-42402501D01*
X113695668Y-42457685D01*
X113695663Y-42457687D01*
X113546342Y-42549789D01*
X113422289Y-42673842D01*
X113330187Y-42823163D01*
X113330186Y-42823166D01*
X113275001Y-42989703D01*
X113275001Y-42989704D01*
X113275000Y-42989704D01*
X113264500Y-43092483D01*
X113264500Y-43817501D01*
X113264501Y-43817519D01*
X113275000Y-43920296D01*
X113275001Y-43920299D01*
X113312564Y-44033654D01*
X113330186Y-44086834D01*
X113422288Y-44236156D01*
X113546344Y-44360212D01*
X113695666Y-44452314D01*
X113862203Y-44507499D01*
X113964991Y-44518000D01*
X115315008Y-44517999D01*
X115417797Y-44507499D01*
X115584334Y-44452314D01*
X115733656Y-44360212D01*
X115802319Y-44291549D01*
X115863642Y-44258064D01*
X115933334Y-44263048D01*
X115977681Y-44291549D01*
X116046344Y-44360212D01*
X116195666Y-44452314D01*
X116362203Y-44507499D01*
X116464991Y-44518000D01*
X117815008Y-44517999D01*
X117917797Y-44507499D01*
X118084334Y-44452314D01*
X118233656Y-44360212D01*
X118352049Y-44241819D01*
X118413372Y-44208334D01*
X118439730Y-44205500D01*
X119092770Y-44205500D01*
X119159809Y-44225185D01*
X119180451Y-44241819D01*
X120526094Y-45587461D01*
X120559579Y-45648784D01*
X120554595Y-45718476D01*
X120535693Y-45752036D01*
X120532293Y-45756336D01*
X120440187Y-45905663D01*
X120440186Y-45905666D01*
X120385001Y-46072203D01*
X120385001Y-46072204D01*
X120385000Y-46072204D01*
X120374500Y-46174983D01*
X120374500Y-46900001D01*
X120374501Y-46900019D01*
X120385000Y-47002796D01*
X120385001Y-47002799D01*
X120440185Y-47169331D01*
X120440187Y-47169336D01*
X120453836Y-47191465D01*
X120532288Y-47318656D01*
X120656344Y-47442712D01*
X120805666Y-47534814D01*
X120972203Y-47589999D01*
X121074991Y-47600500D01*
X122376000Y-47600499D01*
X122443039Y-47620184D01*
X122488794Y-47672987D01*
X122500000Y-47724499D01*
X122500000Y-48275500D01*
X122480315Y-48342539D01*
X122427511Y-48388294D01*
X122376000Y-48399500D01*
X121074998Y-48399500D01*
X121074981Y-48399501D01*
X120972203Y-48410000D01*
X120972200Y-48410001D01*
X120805668Y-48465185D01*
X120805663Y-48465187D01*
X120656342Y-48557289D01*
X120532289Y-48681342D01*
X120440187Y-48830663D01*
X120440186Y-48830666D01*
X120385001Y-48997203D01*
X120385001Y-48997204D01*
X120385000Y-48997204D01*
X120374500Y-49099983D01*
X120374500Y-49825001D01*
X120374501Y-49825019D01*
X120385000Y-49927796D01*
X120385001Y-49927799D01*
X120411342Y-50007289D01*
X120440186Y-50094334D01*
X120532288Y-50243656D01*
X120656344Y-50367712D01*
X120805666Y-50459814D01*
X120920351Y-50497817D01*
X120977795Y-50537589D01*
X121002963Y-50591330D01*
X121028340Y-50718907D01*
X121028343Y-50718917D01*
X121084913Y-50855490D01*
X121084916Y-50855495D01*
X121103737Y-50883664D01*
X121103738Y-50883664D01*
X121167049Y-50978418D01*
X121763641Y-51575009D01*
X122339990Y-52151358D01*
X122463681Y-52275048D01*
X122497166Y-52336371D01*
X122500000Y-52362729D01*
X122500000Y-61137270D01*
X122480315Y-61204309D01*
X122463681Y-61224951D01*
X121636160Y-62052471D01*
X121574837Y-62085956D01*
X121505145Y-62080972D01*
X121449212Y-62039100D01*
X121424795Y-61973636D01*
X121429402Y-61930197D01*
X121447598Y-61867569D01*
X121450500Y-61830694D01*
X121450500Y-61399306D01*
X121447598Y-61362431D01*
X121401744Y-61204602D01*
X121318081Y-61063135D01*
X121318078Y-61063132D01*
X121313298Y-61056969D01*
X121315635Y-61055155D01*
X121288798Y-61006050D01*
X121293756Y-60936356D01*
X121314554Y-60903998D01*
X121312903Y-60902717D01*
X121317686Y-60896550D01*
X121401281Y-60755198D01*
X121447100Y-60597486D01*
X121447295Y-60595001D01*
X121447295Y-60595000D01*
X118802705Y-60595000D01*
X118802704Y-60595001D01*
X118802899Y-60597486D01*
X118848718Y-60755198D01*
X118932314Y-60896552D01*
X118937100Y-60902722D01*
X118934640Y-60904629D01*
X118961210Y-60953288D01*
X118956226Y-61022980D01*
X118935162Y-61055781D01*
X118936699Y-61056974D01*
X118931915Y-61063140D01*
X118848255Y-61204603D01*
X118848254Y-61204606D01*
X118802402Y-61362426D01*
X118802401Y-61362432D01*
X118799500Y-61399298D01*
X118799500Y-61830701D01*
X118802401Y-61867567D01*
X118802402Y-61867573D01*
X118848254Y-62025393D01*
X118848255Y-62025396D01*
X118931917Y-62166862D01*
X118936702Y-62173031D01*
X118934256Y-62174927D01*
X118960857Y-62223642D01*
X118955873Y-62293334D01*
X118935069Y-62325703D01*
X118936702Y-62326969D01*
X118931917Y-62333137D01*
X118848255Y-62474603D01*
X118848254Y-62474606D01*
X118802402Y-62632426D01*
X118802401Y-62632432D01*
X118799500Y-62669298D01*
X118799500Y-63100701D01*
X118802401Y-63137567D01*
X118802402Y-63137573D01*
X118848254Y-63295393D01*
X118848255Y-63295396D01*
X118848256Y-63295398D01*
X118854330Y-63305668D01*
X118931917Y-63436862D01*
X118936702Y-63443031D01*
X118934256Y-63444927D01*
X118960857Y-63493642D01*
X118955873Y-63563334D01*
X118935069Y-63595703D01*
X118936702Y-63596969D01*
X118931917Y-63603137D01*
X118848255Y-63744603D01*
X118848254Y-63744606D01*
X118802402Y-63902426D01*
X118802401Y-63902432D01*
X118799500Y-63939298D01*
X118799500Y-64370701D01*
X118802401Y-64407567D01*
X118802402Y-64407573D01*
X118848254Y-64565393D01*
X118848255Y-64565396D01*
X118931917Y-64706862D01*
X118931923Y-64706870D01*
X119048129Y-64823076D01*
X119048133Y-64823079D01*
X119048135Y-64823081D01*
X119189602Y-64906744D01*
X119202269Y-64910424D01*
X119253484Y-64925304D01*
X119312370Y-64962910D01*
X119341576Y-65026382D01*
X119331830Y-65095569D01*
X119306571Y-65132061D01*
X119225449Y-65213182D01*
X119164129Y-65246666D01*
X119137770Y-65249500D01*
X113613254Y-65249500D01*
X113546215Y-65229815D01*
X113500460Y-65177011D01*
X113490516Y-65107853D01*
X113495548Y-65086497D01*
X113514998Y-65027799D01*
X113514999Y-65027797D01*
X113516113Y-65016894D01*
X113542511Y-64952203D01*
X113599693Y-64912053D01*
X113639471Y-64905500D01*
X113917672Y-64905500D01*
X113952267Y-64910424D01*
X114097426Y-64952597D01*
X114097429Y-64952597D01*
X114097431Y-64952598D01*
X114134306Y-64955500D01*
X114134314Y-64955500D01*
X115615686Y-64955500D01*
X115615694Y-64955500D01*
X115652569Y-64952598D01*
X115652571Y-64952597D01*
X115652573Y-64952597D01*
X115714910Y-64934486D01*
X115810398Y-64906744D01*
X115951865Y-64823081D01*
X116068081Y-64706865D01*
X116151744Y-64565398D01*
X116197598Y-64407569D01*
X116200500Y-64370694D01*
X116200500Y-63939306D01*
X116197598Y-63902431D01*
X116151744Y-63744602D01*
X116068081Y-63603135D01*
X116068078Y-63603132D01*
X116063298Y-63596969D01*
X116065750Y-63595066D01*
X116039155Y-63546421D01*
X116044104Y-63476726D01*
X116064940Y-63444304D01*
X116063298Y-63443031D01*
X116068075Y-63436870D01*
X116068081Y-63436865D01*
X116151744Y-63295398D01*
X116197598Y-63137569D01*
X116200500Y-63100694D01*
X116200500Y-62669306D01*
X116197598Y-62632431D01*
X116193502Y-62618334D01*
X116151745Y-62474606D01*
X116151744Y-62474603D01*
X116151744Y-62474602D01*
X116068081Y-62333135D01*
X116068078Y-62333132D01*
X116063298Y-62326969D01*
X116065750Y-62325066D01*
X116039155Y-62276421D01*
X116044104Y-62206726D01*
X116064940Y-62174304D01*
X116063298Y-62173031D01*
X116068075Y-62166870D01*
X116068081Y-62166865D01*
X116151744Y-62025398D01*
X116197598Y-61867569D01*
X116200500Y-61830694D01*
X116200500Y-61399306D01*
X116197598Y-61362431D01*
X116151744Y-61204602D01*
X116068081Y-61063135D01*
X116068078Y-61063132D01*
X116063298Y-61056969D01*
X116065750Y-61055066D01*
X116039155Y-61006421D01*
X116044104Y-60936726D01*
X116064940Y-60904304D01*
X116063298Y-60903031D01*
X116068075Y-60896870D01*
X116068081Y-60896865D01*
X116151744Y-60755398D01*
X116197598Y-60597569D01*
X116200500Y-60560694D01*
X116200500Y-60129306D01*
X116197800Y-60094998D01*
X118802704Y-60094998D01*
X118802705Y-60095000D01*
X119875000Y-60095000D01*
X120375000Y-60095000D01*
X121447295Y-60095000D01*
X121447295Y-60094998D01*
X121447100Y-60092513D01*
X121401281Y-59934801D01*
X121317685Y-59793447D01*
X121317678Y-59793438D01*
X121201561Y-59677321D01*
X121201552Y-59677314D01*
X121060196Y-59593717D01*
X121060193Y-59593716D01*
X120902495Y-59547900D01*
X120902489Y-59547899D01*
X120865649Y-59545000D01*
X120375000Y-59545000D01*
X120375000Y-60095000D01*
X119875000Y-60095000D01*
X119875000Y-59545000D01*
X119384350Y-59545000D01*
X119347510Y-59547899D01*
X119347504Y-59547900D01*
X119189806Y-59593716D01*
X119189803Y-59593717D01*
X119048447Y-59677314D01*
X119048438Y-59677321D01*
X118932321Y-59793438D01*
X118932314Y-59793447D01*
X118848718Y-59934801D01*
X118802899Y-60092513D01*
X118802704Y-60094998D01*
X116197800Y-60094998D01*
X116197598Y-60092431D01*
X116151744Y-59934602D01*
X116142170Y-59918413D01*
X116117768Y-59877150D01*
X116100500Y-59814030D01*
X116100500Y-59177753D01*
X116120185Y-59110714D01*
X116172989Y-59064959D01*
X116242147Y-59055015D01*
X116289597Y-59072215D01*
X116430869Y-59159353D01*
X116430880Y-59159358D01*
X116597302Y-59214505D01*
X116597309Y-59214506D01*
X116700019Y-59224999D01*
X117250000Y-59224999D01*
X117299972Y-59224999D01*
X117299986Y-59224998D01*
X117402697Y-59214505D01*
X117569119Y-59159358D01*
X117569124Y-59159356D01*
X117718345Y-59067315D01*
X117842315Y-58943345D01*
X117934356Y-58794124D01*
X117934358Y-58794119D01*
X117989505Y-58627697D01*
X117989506Y-58627690D01*
X117999999Y-58524986D01*
X118000000Y-58524973D01*
X118000000Y-58250000D01*
X117250000Y-58250000D01*
X117250000Y-59224999D01*
X116700019Y-59224999D01*
X116749999Y-59224998D01*
X116750000Y-59224998D01*
X116750000Y-57750000D01*
X117250000Y-57750000D01*
X117999999Y-57750000D01*
X117999999Y-57475028D01*
X117999998Y-57475013D01*
X117989505Y-57372302D01*
X117934358Y-57205880D01*
X117934356Y-57205875D01*
X117842315Y-57056654D01*
X117718345Y-56932684D01*
X117569124Y-56840643D01*
X117569119Y-56840641D01*
X117402697Y-56785494D01*
X117402690Y-56785493D01*
X117299986Y-56775000D01*
X117250000Y-56775000D01*
X117250000Y-57750000D01*
X116750000Y-57750000D01*
X116750000Y-56775000D01*
X116749999Y-56774999D01*
X116700029Y-56775000D01*
X116700016Y-56775001D01*
X116681591Y-56776883D01*
X116612899Y-56764110D01*
X116562017Y-56716227D01*
X116545099Y-56648436D01*
X116559350Y-56602089D01*
X116556760Y-56600882D01*
X116559808Y-56594343D01*
X116559814Y-56594334D01*
X116614999Y-56427797D01*
X116625500Y-56325009D01*
X116625499Y-55599992D01*
X116614999Y-55497203D01*
X116559814Y-55330666D01*
X116467712Y-55181344D01*
X116343656Y-55057288D01*
X116250777Y-55000000D01*
X116194336Y-54965187D01*
X116194331Y-54965185D01*
X116165725Y-54955706D01*
X116027797Y-54910001D01*
X116027795Y-54910000D01*
X115925010Y-54899500D01*
X114574998Y-54899500D01*
X114574981Y-54899501D01*
X114472203Y-54910000D01*
X114472200Y-54910001D01*
X114334275Y-54955706D01*
X114295271Y-54962000D01*
X113426471Y-54962000D01*
X113359432Y-54942315D01*
X113313677Y-54889511D01*
X113303733Y-54820353D01*
X113320931Y-54772905D01*
X113384814Y-54669334D01*
X113439999Y-54502797D01*
X113450500Y-54400009D01*
X113450499Y-53774992D01*
X113439999Y-53672203D01*
X113384814Y-53505666D01*
X113292712Y-53356344D01*
X113286819Y-53350451D01*
X113253334Y-53289128D01*
X113250500Y-53262770D01*
X113250500Y-52767534D01*
X113270185Y-52700495D01*
X113322989Y-52654740D01*
X113361897Y-52644176D01*
X113402797Y-52639999D01*
X113569334Y-52584814D01*
X113690845Y-52509865D01*
X113758236Y-52491425D01*
X113824900Y-52512347D01*
X113869670Y-52565989D01*
X113879299Y-52628004D01*
X113874501Y-52674976D01*
X113874500Y-52674996D01*
X113874500Y-53400001D01*
X113874501Y-53400019D01*
X113885000Y-53502796D01*
X113885001Y-53502799D01*
X113940185Y-53669331D01*
X113940187Y-53669336D01*
X113941956Y-53672204D01*
X114032288Y-53818656D01*
X114156344Y-53942712D01*
X114305666Y-54034814D01*
X114472203Y-54089999D01*
X114574991Y-54100500D01*
X115925008Y-54100499D01*
X116027797Y-54089999D01*
X116194334Y-54034814D01*
X116343656Y-53942712D01*
X116467712Y-53818656D01*
X116559814Y-53669334D01*
X116614999Y-53502797D01*
X116625500Y-53400009D01*
X116625499Y-52674992D01*
X116625497Y-52674976D01*
X116614999Y-52572203D01*
X116614998Y-52572200D01*
X116601375Y-52531088D01*
X116559814Y-52405666D01*
X116467712Y-52256344D01*
X116424049Y-52212681D01*
X116390564Y-52151358D01*
X116395548Y-52081666D01*
X116424049Y-52037319D01*
X116467712Y-51993656D01*
X116559814Y-51844334D01*
X116614999Y-51677797D01*
X116625500Y-51575009D01*
X116625499Y-50849992D01*
X116614999Y-50747203D01*
X116559814Y-50580666D01*
X116467712Y-50431344D01*
X116343656Y-50307288D01*
X116240493Y-50243657D01*
X116194336Y-50215187D01*
X116194331Y-50215185D01*
X116192862Y-50214698D01*
X116027797Y-50160001D01*
X116027795Y-50160000D01*
X115925010Y-50149500D01*
X114574998Y-50149500D01*
X114574981Y-50149501D01*
X114472203Y-50160000D01*
X114472200Y-50160001D01*
X114305668Y-50215185D01*
X114305663Y-50215187D01*
X114156342Y-50307289D01*
X114138727Y-50324904D01*
X114077403Y-50358388D01*
X114007712Y-50353402D01*
X113951779Y-50311529D01*
X113938840Y-50286753D01*
X113937864Y-50287209D01*
X113934815Y-50280670D01*
X113934814Y-50280666D01*
X113842712Y-50131344D01*
X113718656Y-50007288D01*
X113569334Y-49915186D01*
X113402797Y-49860001D01*
X113402795Y-49860000D01*
X113300010Y-49849500D01*
X111199998Y-49849500D01*
X111199981Y-49849501D01*
X111097203Y-49860000D01*
X111097200Y-49860001D01*
X110930668Y-49915185D01*
X110930663Y-49915187D01*
X110781342Y-50007289D01*
X110657289Y-50131342D01*
X110565187Y-50280663D01*
X110565186Y-50280666D01*
X110510001Y-50447203D01*
X110510001Y-50447204D01*
X110510000Y-50447204D01*
X110499500Y-50549983D01*
X110499500Y-51950001D01*
X110499501Y-51950018D01*
X110510000Y-52052796D01*
X110510001Y-52052799D01*
X110542661Y-52151358D01*
X110565186Y-52219334D01*
X110657288Y-52368656D01*
X110781344Y-52492712D01*
X110930666Y-52584814D01*
X111097203Y-52639999D01*
X111138103Y-52644177D01*
X111202793Y-52670573D01*
X111242945Y-52727753D01*
X111249500Y-52767535D01*
X111249500Y-53262770D01*
X111229815Y-53329809D01*
X111213181Y-53350451D01*
X111207289Y-53356342D01*
X111115187Y-53505663D01*
X111115186Y-53505666D01*
X111060001Y-53672203D01*
X111060001Y-53672204D01*
X111060000Y-53672204D01*
X111049500Y-53774983D01*
X111049500Y-54400001D01*
X111049501Y-54400019D01*
X111060000Y-54502796D01*
X111060001Y-54502799D01*
X111108780Y-54650001D01*
X111115186Y-54669334D01*
X111179067Y-54772903D01*
X111207289Y-54818657D01*
X111300951Y-54912319D01*
X111334436Y-54973642D01*
X111329452Y-55043334D01*
X111300951Y-55087681D01*
X111207289Y-55181342D01*
X111115187Y-55330663D01*
X111115185Y-55330668D01*
X111087349Y-55414670D01*
X111060001Y-55497203D01*
X111060001Y-55497204D01*
X111060000Y-55497204D01*
X111049500Y-55599983D01*
X111049500Y-56108338D01*
X111029815Y-56175377D01*
X110977011Y-56221132D01*
X110907853Y-56231076D01*
X110901311Y-56229956D01*
X110876436Y-56225008D01*
X110827053Y-56215185D01*
X110811042Y-56212000D01*
X110811041Y-56212000D01*
X109204729Y-56212000D01*
X109165725Y-56205706D01*
X109027797Y-56160001D01*
X109027795Y-56160000D01*
X108925010Y-56149500D01*
X107574998Y-56149500D01*
X107574981Y-56149501D01*
X107472203Y-56160000D01*
X107472200Y-56160001D01*
X107305668Y-56215185D01*
X107305663Y-56215187D01*
X107156342Y-56307289D01*
X107032289Y-56431342D01*
X106940187Y-56580663D01*
X106940185Y-56580668D01*
X106935658Y-56594331D01*
X106885001Y-56747203D01*
X106885001Y-56747204D01*
X106885000Y-56747204D01*
X106874500Y-56849983D01*
X106874500Y-57575001D01*
X106874501Y-57575019D01*
X106885000Y-57677796D01*
X106885001Y-57677799D01*
X106931299Y-57817516D01*
X106940186Y-57844334D01*
X107032288Y-57993656D01*
X107156344Y-58117712D01*
X107305666Y-58209814D01*
X107472203Y-58264999D01*
X107574991Y-58275500D01*
X108925008Y-58275499D01*
X109027797Y-58264999D01*
X109165725Y-58219293D01*
X109204729Y-58213000D01*
X110246718Y-58213000D01*
X110313757Y-58232685D01*
X110334399Y-58249319D01*
X111425681Y-59340601D01*
X111459166Y-59401924D01*
X111462000Y-59428282D01*
X111462000Y-60545270D01*
X111455706Y-60584273D01*
X111410002Y-60722199D01*
X111410000Y-60722209D01*
X111399500Y-60824983D01*
X111399500Y-62175001D01*
X111399501Y-62175018D01*
X111410000Y-62277796D01*
X111410001Y-62277799D01*
X111465115Y-62444119D01*
X111465186Y-62444334D01*
X111557288Y-62593656D01*
X111681344Y-62717712D01*
X111765243Y-62769461D01*
X111811967Y-62821409D01*
X111823190Y-62890372D01*
X111795346Y-62954454D01*
X111765243Y-62980539D01*
X111681342Y-63032289D01*
X111557289Y-63156342D01*
X111465187Y-63305663D01*
X111465185Y-63305668D01*
X111465115Y-63305880D01*
X111410001Y-63472203D01*
X111410001Y-63472204D01*
X111410000Y-63472204D01*
X111399500Y-63574983D01*
X111399500Y-64925001D01*
X111399501Y-64925018D01*
X111410000Y-65027796D01*
X111429452Y-65086495D01*
X111431854Y-65156324D01*
X111396122Y-65216366D01*
X111333602Y-65247559D01*
X111311746Y-65249500D01*
X110687727Y-65249500D01*
X110620688Y-65229815D01*
X110574933Y-65177011D01*
X110564989Y-65107853D01*
X110570021Y-65086496D01*
X110589505Y-65027697D01*
X110589506Y-65027690D01*
X110599999Y-64924986D01*
X110600000Y-64924973D01*
X110600000Y-64500000D01*
X108475001Y-64500000D01*
X108475001Y-64924986D01*
X108485494Y-65027697D01*
X108527762Y-65155253D01*
X108530164Y-65225081D01*
X108494432Y-65285123D01*
X108457510Y-65308818D01*
X108394505Y-65334916D01*
X108394498Y-65334919D01*
X108271584Y-65417048D01*
X108271580Y-65417051D01*
X108224953Y-65463680D01*
X108163630Y-65497166D01*
X108137271Y-65500000D01*
X106671474Y-65500000D01*
X106604435Y-65480315D01*
X106558680Y-65427511D01*
X106548736Y-65358353D01*
X106577761Y-65294797D01*
X106580244Y-65292017D01*
X106584639Y-65287243D01*
X106688164Y-65174785D01*
X106824173Y-64966607D01*
X106924063Y-64738881D01*
X106985108Y-64497821D01*
X106991142Y-64425005D01*
X107005643Y-64250005D01*
X107005643Y-64249994D01*
X106985109Y-64002187D01*
X106985107Y-64002175D01*
X106924063Y-63761118D01*
X106842429Y-63575013D01*
X108475000Y-63575013D01*
X108475000Y-64000000D01*
X109287500Y-64000000D01*
X109787500Y-64000000D01*
X110599999Y-64000000D01*
X110599999Y-63575028D01*
X110599998Y-63575013D01*
X110589505Y-63472302D01*
X110534358Y-63305880D01*
X110534356Y-63305875D01*
X110442315Y-63156654D01*
X110318345Y-63032684D01*
X110233804Y-62980539D01*
X110187080Y-62928591D01*
X110175857Y-62859628D01*
X110203701Y-62795546D01*
X110233804Y-62769461D01*
X110318345Y-62717315D01*
X110442315Y-62593345D01*
X110534356Y-62444124D01*
X110534358Y-62444119D01*
X110589505Y-62277697D01*
X110589506Y-62277690D01*
X110599999Y-62174986D01*
X110600000Y-62174973D01*
X110600000Y-61750000D01*
X109787500Y-61750000D01*
X109787500Y-64000000D01*
X109287500Y-64000000D01*
X109287500Y-61750000D01*
X108475001Y-61750000D01*
X108475001Y-62174986D01*
X108485494Y-62277697D01*
X108540641Y-62444119D01*
X108540643Y-62444124D01*
X108632684Y-62593345D01*
X108756655Y-62717316D01*
X108756659Y-62717319D01*
X108841195Y-62769462D01*
X108887920Y-62821410D01*
X108899141Y-62890372D01*
X108871298Y-62954454D01*
X108841195Y-62980538D01*
X108756659Y-63032680D01*
X108756655Y-63032683D01*
X108632684Y-63156654D01*
X108540643Y-63305875D01*
X108540641Y-63305880D01*
X108485494Y-63472302D01*
X108485493Y-63472309D01*
X108475000Y-63575013D01*
X106842429Y-63575013D01*
X106824173Y-63533393D01*
X106688163Y-63325214D01*
X106533270Y-63156953D01*
X106502348Y-63094299D01*
X106500500Y-63072971D01*
X106500500Y-60825013D01*
X108475000Y-60825013D01*
X108475000Y-61250000D01*
X109287500Y-61250000D01*
X109787500Y-61250000D01*
X110599999Y-61250000D01*
X110599999Y-60825028D01*
X110599998Y-60825013D01*
X110589505Y-60722302D01*
X110534358Y-60555880D01*
X110534356Y-60555875D01*
X110442315Y-60406654D01*
X110318345Y-60282684D01*
X110169124Y-60190643D01*
X110169119Y-60190641D01*
X110002697Y-60135494D01*
X110002690Y-60135493D01*
X109899986Y-60125000D01*
X109787500Y-60125000D01*
X109787500Y-61250000D01*
X109287500Y-61250000D01*
X109287500Y-60125000D01*
X109175027Y-60125000D01*
X109175012Y-60125001D01*
X109072302Y-60135494D01*
X108905880Y-60190641D01*
X108905875Y-60190643D01*
X108756654Y-60282684D01*
X108632684Y-60406654D01*
X108540643Y-60555875D01*
X108540641Y-60555880D01*
X108485494Y-60722302D01*
X108485493Y-60722309D01*
X108475000Y-60825013D01*
X106500500Y-60825013D01*
X106500500Y-52511230D01*
X106520185Y-52444191D01*
X106572989Y-52398436D01*
X106642147Y-52388492D01*
X106705703Y-52417517D01*
X106712181Y-52423549D01*
X106781344Y-52492712D01*
X106930666Y-52584814D01*
X107097203Y-52639999D01*
X107138103Y-52644177D01*
X107202793Y-52670573D01*
X107242945Y-52727753D01*
X107249500Y-52767535D01*
X107249500Y-53255621D01*
X107229815Y-53322660D01*
X107190599Y-53361158D01*
X107156346Y-53382285D01*
X107032289Y-53506342D01*
X106940187Y-53655663D01*
X106940186Y-53655666D01*
X106885001Y-53822203D01*
X106885001Y-53822204D01*
X106885000Y-53822204D01*
X106874500Y-53924983D01*
X106874500Y-54650001D01*
X106874501Y-54650019D01*
X106885000Y-54752796D01*
X106885001Y-54752799D01*
X106940185Y-54919331D01*
X106940187Y-54919336D01*
X106962620Y-54955706D01*
X107032288Y-55068656D01*
X107156344Y-55192712D01*
X107305666Y-55284814D01*
X107472203Y-55339999D01*
X107574991Y-55350500D01*
X108925008Y-55350499D01*
X109027797Y-55339999D01*
X109194334Y-55284814D01*
X109343656Y-55192712D01*
X109467712Y-55068656D01*
X109559814Y-54919334D01*
X109614999Y-54752797D01*
X109625500Y-54650009D01*
X109625499Y-53924992D01*
X109614999Y-53822203D01*
X109559814Y-53655666D01*
X109467712Y-53506344D01*
X109343656Y-53382288D01*
X109343653Y-53382285D01*
X109309401Y-53361158D01*
X109262678Y-53309210D01*
X109250500Y-53255621D01*
X109250500Y-52767534D01*
X109270185Y-52700495D01*
X109322989Y-52654740D01*
X109361897Y-52644176D01*
X109402797Y-52639999D01*
X109569334Y-52584814D01*
X109718656Y-52492712D01*
X109842712Y-52368656D01*
X109934814Y-52219334D01*
X109989999Y-52052797D01*
X110000500Y-51950009D01*
X110000499Y-50549992D01*
X109996924Y-50514999D01*
X109989999Y-50447203D01*
X109989998Y-50447200D01*
X109963658Y-50367712D01*
X109934814Y-50280666D01*
X109842712Y-50131344D01*
X109718656Y-50007288D01*
X109569334Y-49915186D01*
X109402797Y-49860001D01*
X109402795Y-49860000D01*
X109361896Y-49855822D01*
X109297205Y-49829425D01*
X109257054Y-49772244D01*
X109250500Y-49732464D01*
X109250500Y-48854675D01*
X109250501Y-48854654D01*
X109250501Y-48651457D01*
X109250500Y-48651455D01*
X109230818Y-48552510D01*
X109212052Y-48458165D01*
X109211541Y-48456479D01*
X109211532Y-48455551D01*
X109210864Y-48452190D01*
X109211501Y-48452063D01*
X109210917Y-48386612D01*
X109248165Y-48327499D01*
X109311459Y-48297908D01*
X109380703Y-48307233D01*
X109417880Y-48332800D01*
X110010360Y-48925281D01*
X110010361Y-48925282D01*
X110082282Y-48997203D01*
X110149719Y-49064640D01*
X110299051Y-49164420D01*
X110313586Y-49174132D01*
X110313588Y-49174133D01*
X110313592Y-49174135D01*
X110369803Y-49197417D01*
X110433774Y-49223915D01*
X110495664Y-49249551D01*
X110592312Y-49268775D01*
X110610978Y-49272488D01*
X110688958Y-49288000D01*
X110688959Y-49288000D01*
X110688960Y-49288000D01*
X110886040Y-49288000D01*
X114295271Y-49288000D01*
X114334274Y-49294293D01*
X114472203Y-49339999D01*
X114574991Y-49350500D01*
X115925008Y-49350499D01*
X116027797Y-49339999D01*
X116194334Y-49284814D01*
X116343656Y-49192712D01*
X116467712Y-49068656D01*
X116559814Y-48919334D01*
X116614999Y-48752797D01*
X116625500Y-48650009D01*
X116625499Y-47924992D01*
X116622637Y-47896978D01*
X116614999Y-47822203D01*
X116614998Y-47822200D01*
X116582623Y-47724499D01*
X116559814Y-47655666D01*
X116467712Y-47506344D01*
X116343656Y-47382288D01*
X116240493Y-47318657D01*
X116194336Y-47290187D01*
X116194331Y-47290185D01*
X116151783Y-47276086D01*
X116027797Y-47235001D01*
X116027795Y-47235000D01*
X115925010Y-47224500D01*
X114574998Y-47224500D01*
X114574981Y-47224501D01*
X114472203Y-47235000D01*
X114472200Y-47235001D01*
X114334275Y-47280706D01*
X114295271Y-47287000D01*
X111253283Y-47287000D01*
X111186244Y-47267315D01*
X111165602Y-47250681D01*
X110216819Y-46301898D01*
X110183334Y-46240575D01*
X110180500Y-46214217D01*
X110180500Y-44032559D01*
X110200185Y-43965520D01*
X110234648Y-43930106D01*
X110264890Y-43909486D01*
X110305741Y-43881635D01*
X110503561Y-43698085D01*
X110671815Y-43487102D01*
X110806743Y-43253398D01*
X110905334Y-43002195D01*
X110965383Y-42739103D01*
X110974424Y-42618451D01*
X110985549Y-42470004D01*
X110985549Y-42469995D01*
X110965383Y-42200898D01*
X110954903Y-42154983D01*
X110905334Y-41937805D01*
X110806743Y-41686602D01*
X110671815Y-41452898D01*
X110503561Y-41241915D01*
X110503560Y-41241914D01*
X110503557Y-41241910D01*
X110376107Y-41123655D01*
X110305741Y-41058365D01*
X110305737Y-41058362D01*
X110305730Y-41058357D01*
X110254648Y-41023529D01*
X110210346Y-40969500D01*
X110200500Y-40921076D01*
X110200500Y-37377151D01*
X110220185Y-37310112D01*
X110272989Y-37264357D01*
X110324500Y-37253151D01*
X113312820Y-37253151D01*
X113379859Y-37272836D01*
G37*
G04 #@! TD.AperFunction*
G04 #@! TA.AperFunction,Conductor*
G36*
X159442539Y-28520185D02*
G01*
X159488294Y-28572989D01*
X159499500Y-28624500D01*
X159499500Y-93375500D01*
X159479815Y-93442539D01*
X159427011Y-93488294D01*
X159375500Y-93499500D01*
X106124000Y-93499500D01*
X106056961Y-93479815D01*
X106011206Y-93427011D01*
X106000000Y-93375500D01*
X106000000Y-93374500D01*
X106019685Y-93307461D01*
X106072489Y-93261706D01*
X106124000Y-93250500D01*
X119073920Y-93250500D01*
X119171462Y-93231096D01*
X119218913Y-93221658D01*
X119355495Y-93165084D01*
X119404729Y-93132186D01*
X119478416Y-93082952D01*
X121790451Y-90770916D01*
X121872584Y-90647995D01*
X121896778Y-90589582D01*
X121940616Y-90535182D01*
X121998738Y-90513679D01*
X122010297Y-90512499D01*
X122176834Y-90457314D01*
X122326156Y-90365212D01*
X122450212Y-90241156D01*
X122542314Y-90091834D01*
X122597499Y-89925297D01*
X122608000Y-89822509D01*
X122607999Y-87722492D01*
X122597499Y-87619703D01*
X122542314Y-87453166D01*
X122450212Y-87303844D01*
X122326156Y-87179788D01*
X122176834Y-87087686D01*
X122010297Y-87032501D01*
X122010295Y-87032500D01*
X121907510Y-87022000D01*
X120507498Y-87022000D01*
X120507481Y-87022001D01*
X120404703Y-87032500D01*
X120404700Y-87032501D01*
X120238168Y-87087685D01*
X120238163Y-87087687D01*
X120088842Y-87179789D01*
X119964789Y-87303842D01*
X119872687Y-87453163D01*
X119872686Y-87453166D01*
X119817501Y-87619703D01*
X119817501Y-87619704D01*
X119817500Y-87619704D01*
X119807000Y-87722483D01*
X119807000Y-89822501D01*
X119807001Y-89822518D01*
X119817500Y-89925296D01*
X119817501Y-89925299D01*
X119872685Y-90091831D01*
X119872687Y-90091836D01*
X119964789Y-90241157D01*
X119993451Y-90269819D01*
X120026936Y-90331142D01*
X120021952Y-90400834D01*
X119993451Y-90445181D01*
X118725451Y-91713181D01*
X118664128Y-91746666D01*
X118637770Y-91749500D01*
X106124000Y-91749500D01*
X106056961Y-91729815D01*
X106011206Y-91677011D01*
X106000000Y-91625500D01*
X106000000Y-89813596D01*
X107117500Y-89813596D01*
X107120397Y-89856324D01*
X107166331Y-90041023D01*
X107250890Y-90211522D01*
X107250892Y-90211525D01*
X107370132Y-90359866D01*
X107370133Y-90359867D01*
X107518474Y-90479107D01*
X107518477Y-90479109D01*
X107688976Y-90563668D01*
X107873675Y-90609602D01*
X107916403Y-90612500D01*
X108367500Y-90612500D01*
X108867500Y-90612500D01*
X109318597Y-90612500D01*
X109361324Y-90609602D01*
X109546023Y-90563668D01*
X109716522Y-90479109D01*
X109716525Y-90479107D01*
X109864866Y-90359867D01*
X109864867Y-90359866D01*
X109984107Y-90211525D01*
X109984109Y-90211522D01*
X110068668Y-90041023D01*
X110114602Y-89856324D01*
X110117500Y-89813596D01*
X110117500Y-89612500D01*
X108867500Y-89612500D01*
X108867500Y-90612500D01*
X108367500Y-90612500D01*
X108367500Y-89612500D01*
X107117500Y-89612500D01*
X107117500Y-89813596D01*
X106000000Y-89813596D01*
X106000000Y-88187000D01*
X106019685Y-88119961D01*
X106072489Y-88074206D01*
X106124000Y-88063000D01*
X107329576Y-88063000D01*
X107396615Y-88082685D01*
X107407251Y-88090344D01*
X107439385Y-88116174D01*
X107479303Y-88173517D01*
X107481883Y-88243339D01*
X107446304Y-88303472D01*
X107439385Y-88309467D01*
X107370131Y-88365135D01*
X107250892Y-88513474D01*
X107250890Y-88513477D01*
X107166331Y-88683976D01*
X107120397Y-88868675D01*
X107117500Y-88911403D01*
X107117500Y-89112500D01*
X110117500Y-89112500D01*
X110117500Y-88911403D01*
X110114602Y-88868675D01*
X110068668Y-88683976D01*
X109984109Y-88513477D01*
X109984107Y-88513474D01*
X109864867Y-88365133D01*
X109864866Y-88365132D01*
X109795615Y-88309467D01*
X109762917Y-88262497D01*
X113182534Y-88262497D01*
X113182534Y-88262502D01*
X113202358Y-88489099D01*
X113202360Y-88489110D01*
X113261230Y-88708817D01*
X113261235Y-88708831D01*
X113357363Y-88914978D01*
X113408474Y-88987972D01*
X114087500Y-88308946D01*
X114087500Y-88315161D01*
X114114759Y-88416894D01*
X114167420Y-88508106D01*
X114241894Y-88582580D01*
X114333106Y-88635241D01*
X114434839Y-88662500D01*
X114441053Y-88662500D01*
X113762026Y-89341525D01*
X113835013Y-89392632D01*
X113835021Y-89392636D01*
X114041168Y-89488764D01*
X114041182Y-89488769D01*
X114260889Y-89547639D01*
X114260900Y-89547641D01*
X114487498Y-89567466D01*
X114487502Y-89567466D01*
X114714099Y-89547641D01*
X114714110Y-89547639D01*
X114933817Y-89488769D01*
X114933831Y-89488764D01*
X115139978Y-89392636D01*
X115212971Y-89341524D01*
X114533947Y-88662500D01*
X114540161Y-88662500D01*
X114641894Y-88635241D01*
X114733106Y-88582580D01*
X114807580Y-88508106D01*
X114860241Y-88416894D01*
X114887500Y-88315161D01*
X114887500Y-88308947D01*
X115566524Y-88987971D01*
X115617636Y-88914978D01*
X115713764Y-88708831D01*
X115713769Y-88708817D01*
X115772639Y-88489110D01*
X115772641Y-88489099D01*
X115792466Y-88262502D01*
X115792466Y-88262497D01*
X115772641Y-88035900D01*
X115772639Y-88035889D01*
X115713769Y-87816182D01*
X115713764Y-87816168D01*
X115617636Y-87610021D01*
X115617632Y-87610013D01*
X115566525Y-87537026D01*
X114887500Y-88216051D01*
X114887500Y-88209839D01*
X114860241Y-88108106D01*
X114807580Y-88016894D01*
X114733106Y-87942420D01*
X114641894Y-87889759D01*
X114540161Y-87862500D01*
X114533948Y-87862500D01*
X115212972Y-87183474D01*
X115139978Y-87132363D01*
X114933831Y-87036235D01*
X114933817Y-87036230D01*
X114714110Y-86977360D01*
X114714099Y-86977358D01*
X114487502Y-86957534D01*
X114487498Y-86957534D01*
X114260900Y-86977358D01*
X114260889Y-86977360D01*
X114041182Y-87036230D01*
X114041173Y-87036234D01*
X113835016Y-87132366D01*
X113835012Y-87132368D01*
X113762026Y-87183473D01*
X113762026Y-87183474D01*
X114441053Y-87862500D01*
X114434839Y-87862500D01*
X114333106Y-87889759D01*
X114241894Y-87942420D01*
X114167420Y-88016894D01*
X114114759Y-88108106D01*
X114087500Y-88209839D01*
X114087500Y-88216052D01*
X113408474Y-87537026D01*
X113408473Y-87537026D01*
X113357368Y-87610012D01*
X113357366Y-87610016D01*
X113261234Y-87816173D01*
X113261230Y-87816182D01*
X113202360Y-88035889D01*
X113202358Y-88035900D01*
X113182534Y-88262497D01*
X109762917Y-88262497D01*
X109755696Y-88252124D01*
X109753116Y-88182302D01*
X109788694Y-88122169D01*
X109795589Y-88116194D01*
X109865222Y-88060222D01*
X109984530Y-87911796D01*
X110069141Y-87741193D01*
X110115100Y-87556389D01*
X110118000Y-87513623D01*
X110117999Y-86611378D01*
X110115100Y-86568611D01*
X110069141Y-86383807D01*
X110050888Y-86347003D01*
X109984532Y-86213207D01*
X109984530Y-86213204D01*
X109865222Y-86064778D01*
X109796013Y-86009146D01*
X109756095Y-85951802D01*
X109753515Y-85881980D01*
X109789094Y-85821847D01*
X109795997Y-85815865D01*
X109827739Y-85790351D01*
X109892322Y-85763694D01*
X109905424Y-85763000D01*
X113150320Y-85763000D01*
X113217359Y-85782685D01*
X113249585Y-85812687D01*
X113329954Y-85920046D01*
X113376143Y-85954623D01*
X113445164Y-86006293D01*
X113445171Y-86006297D01*
X113580017Y-86056591D01*
X113580016Y-86056591D01*
X113586944Y-86057335D01*
X113639627Y-86063000D01*
X115335372Y-86062999D01*
X115394983Y-86056591D01*
X115529831Y-86006296D01*
X115645046Y-85920046D01*
X115717928Y-85822688D01*
X115773861Y-85780818D01*
X115817194Y-85773000D01*
X119689965Y-85773000D01*
X119757004Y-85792685D01*
X119802759Y-85845489D01*
X119813323Y-85884398D01*
X119817501Y-85925297D01*
X119817501Y-85925299D01*
X119863721Y-86064780D01*
X119872686Y-86091834D01*
X119964788Y-86241156D01*
X120088844Y-86365212D01*
X120238166Y-86457314D01*
X120404703Y-86512499D01*
X120507491Y-86523000D01*
X121907508Y-86522999D01*
X122010297Y-86512499D01*
X122176834Y-86457314D01*
X122326156Y-86365212D01*
X122450212Y-86241156D01*
X122542314Y-86091834D01*
X122597499Y-85925297D01*
X122608000Y-85822509D01*
X122607999Y-83722492D01*
X122597499Y-83619703D01*
X122542314Y-83453166D01*
X122450212Y-83303844D01*
X122326156Y-83179788D01*
X122197364Y-83100349D01*
X122176836Y-83087687D01*
X122176831Y-83087685D01*
X122173318Y-83086521D01*
X122010297Y-83032501D01*
X122010295Y-83032500D01*
X121907510Y-83022000D01*
X120507498Y-83022000D01*
X120507481Y-83022001D01*
X120404703Y-83032500D01*
X120404700Y-83032501D01*
X120238168Y-83087685D01*
X120238163Y-83087687D01*
X120088842Y-83179789D01*
X119964789Y-83303842D01*
X119872687Y-83453163D01*
X119872685Y-83453168D01*
X119857001Y-83500500D01*
X119822389Y-83604954D01*
X119817501Y-83619704D01*
X119817500Y-83619705D01*
X119813323Y-83660602D01*
X119786927Y-83725293D01*
X119729747Y-83765445D01*
X119689965Y-83772000D01*
X115832166Y-83772000D01*
X115765127Y-83752315D01*
X115732899Y-83722311D01*
X115731296Y-83720170D01*
X115731296Y-83720169D01*
X115645046Y-83604954D01*
X115585789Y-83560594D01*
X115529835Y-83518706D01*
X115529828Y-83518702D01*
X115394982Y-83468408D01*
X115394983Y-83468408D01*
X115335383Y-83462001D01*
X115335381Y-83462000D01*
X115335373Y-83462000D01*
X115335364Y-83462000D01*
X113639629Y-83462000D01*
X113639623Y-83462001D01*
X113580016Y-83468408D01*
X113445171Y-83518702D01*
X113445164Y-83518706D01*
X113329956Y-83604952D01*
X113329955Y-83604953D01*
X113329954Y-83604954D01*
X113249587Y-83712311D01*
X113193653Y-83754182D01*
X113150320Y-83762000D01*
X109905424Y-83762000D01*
X109838385Y-83742315D01*
X109827745Y-83734653D01*
X109810940Y-83721145D01*
X109771023Y-83663801D01*
X109768445Y-83593979D01*
X109804025Y-83533847D01*
X109866466Y-83502497D01*
X109888630Y-83500500D01*
X110458543Y-83500500D01*
X110605197Y-83471328D01*
X110619872Y-83468409D01*
X110651836Y-83462051D01*
X110705165Y-83439961D01*
X110833914Y-83386632D01*
X110997782Y-83277139D01*
X111137139Y-83137782D01*
X111137139Y-83137780D01*
X111147347Y-83127573D01*
X111147348Y-83127570D01*
X112653031Y-81621888D01*
X112714352Y-81588405D01*
X112729896Y-81586044D01*
X112855408Y-81575063D01*
X113083663Y-81513903D01*
X113297830Y-81414035D01*
X113491401Y-81278495D01*
X113658495Y-81111401D01*
X113788425Y-80925842D01*
X113843002Y-80882217D01*
X113912500Y-80875023D01*
X113974855Y-80906546D01*
X113991575Y-80925842D01*
X114104426Y-81087011D01*
X114121505Y-81111401D01*
X114288599Y-81278495D01*
X114343831Y-81317169D01*
X114482165Y-81414032D01*
X114482167Y-81414033D01*
X114482170Y-81414035D01*
X114696337Y-81513903D01*
X114924592Y-81575063D01*
X115095056Y-81589977D01*
X115159999Y-81595659D01*
X115160000Y-81595659D01*
X115160001Y-81595659D01*
X115199234Y-81592226D01*
X115395408Y-81575063D01*
X115623663Y-81513903D01*
X115837830Y-81414035D01*
X116031401Y-81278495D01*
X116198495Y-81111401D01*
X116328425Y-80925842D01*
X116383002Y-80882217D01*
X116452500Y-80875023D01*
X116514855Y-80906546D01*
X116531575Y-80925842D01*
X116644426Y-81087011D01*
X116661505Y-81111401D01*
X116828599Y-81278495D01*
X116883831Y-81317169D01*
X117022165Y-81414032D01*
X117022167Y-81414033D01*
X117022170Y-81414035D01*
X117236337Y-81513903D01*
X117464592Y-81575063D01*
X117635056Y-81589977D01*
X117699999Y-81595659D01*
X117700000Y-81595659D01*
X117700001Y-81595659D01*
X117739234Y-81592226D01*
X117935408Y-81575063D01*
X118163663Y-81513903D01*
X118377830Y-81414035D01*
X118571401Y-81278495D01*
X118738495Y-81111401D01*
X118868425Y-80925842D01*
X118923002Y-80882217D01*
X118992500Y-80875023D01*
X119054855Y-80906546D01*
X119071575Y-80925842D01*
X119184426Y-81087011D01*
X119201505Y-81111401D01*
X119368599Y-81278495D01*
X119423831Y-81317169D01*
X119562165Y-81414032D01*
X119562167Y-81414033D01*
X119562170Y-81414035D01*
X119776337Y-81513903D01*
X120004592Y-81575063D01*
X120175056Y-81589977D01*
X120239999Y-81595659D01*
X120240000Y-81595659D01*
X120240001Y-81595659D01*
X120279234Y-81592226D01*
X120475408Y-81575063D01*
X120703663Y-81513903D01*
X120917830Y-81414035D01*
X121111401Y-81278495D01*
X121278495Y-81111401D01*
X121364427Y-80988675D01*
X121418546Y-80945240D01*
X121515495Y-80905084D01*
X121564729Y-80872186D01*
X121638416Y-80822952D01*
X123413880Y-79047486D01*
X124010001Y-79047486D01*
X124020494Y-79150197D01*
X124075641Y-79316619D01*
X124075643Y-79316624D01*
X124167684Y-79465845D01*
X124291654Y-79589815D01*
X124440875Y-79681856D01*
X124440880Y-79681858D01*
X124607302Y-79737005D01*
X124607309Y-79737006D01*
X124710019Y-79747499D01*
X124959999Y-79747499D01*
X125460000Y-79747499D01*
X125709972Y-79747499D01*
X125709986Y-79747498D01*
X125812697Y-79737005D01*
X125979119Y-79681858D01*
X125979124Y-79681856D01*
X126128345Y-79589815D01*
X126252315Y-79465845D01*
X126277844Y-79424456D01*
X126329791Y-79377730D01*
X126398754Y-79366507D01*
X126462836Y-79394350D01*
X126474206Y-79406133D01*
X126474300Y-79406040D01*
X126595938Y-79527678D01*
X126595947Y-79527685D01*
X126737303Y-79611282D01*
X126737306Y-79611283D01*
X126895004Y-79657099D01*
X126895010Y-79657100D01*
X126931850Y-79659999D01*
X126931866Y-79660000D01*
X127335000Y-79660000D01*
X127335000Y-79110000D01*
X126428500Y-79110000D01*
X126361461Y-79090315D01*
X126315706Y-79037511D01*
X126304500Y-78986000D01*
X126304500Y-78985000D01*
X125460000Y-78985000D01*
X125460000Y-79747499D01*
X124959999Y-79747499D01*
X124960000Y-79747498D01*
X124960000Y-78985000D01*
X124010001Y-78985000D01*
X124010001Y-79047486D01*
X123413880Y-79047486D01*
X123940047Y-78521318D01*
X124001370Y-78487834D01*
X124027728Y-78485000D01*
X126329000Y-78485000D01*
X126396039Y-78504685D01*
X126441794Y-78557489D01*
X126453000Y-78609000D01*
X126453000Y-78610000D01*
X127335000Y-78610000D01*
X127335000Y-78060000D01*
X126931850Y-78060000D01*
X126895010Y-78062899D01*
X126895004Y-78062900D01*
X126737306Y-78108716D01*
X126737303Y-78108717D01*
X126595947Y-78192314D01*
X126595937Y-78192322D01*
X126558818Y-78229441D01*
X126497495Y-78262926D01*
X126427803Y-78257940D01*
X126371870Y-78216068D01*
X126353432Y-78180763D01*
X126344358Y-78153380D01*
X126344356Y-78153375D01*
X126252315Y-78004154D01*
X126170342Y-77922181D01*
X126136857Y-77860858D01*
X126141841Y-77791166D01*
X126183713Y-77735233D01*
X126249177Y-77710816D01*
X126258023Y-77710500D01*
X126715172Y-77710500D01*
X126749767Y-77715424D01*
X126894926Y-77757597D01*
X126894929Y-77757597D01*
X126894931Y-77757598D01*
X126931806Y-77760500D01*
X128098000Y-77760500D01*
X128165039Y-77780185D01*
X128210794Y-77832989D01*
X128222000Y-77884500D01*
X128222000Y-77936000D01*
X128202315Y-78003039D01*
X128149511Y-78048794D01*
X128098000Y-78060000D01*
X127835000Y-78060000D01*
X127835000Y-79660000D01*
X128238134Y-79660000D01*
X128238149Y-79659999D01*
X128274989Y-79657100D01*
X128300903Y-79649571D01*
X128370772Y-79649769D01*
X128429443Y-79687710D01*
X128458287Y-79751348D01*
X128459500Y-79768647D01*
X128459500Y-81531955D01*
X128441040Y-81597050D01*
X128422999Y-81626298D01*
X128422996Y-81626305D01*
X128369651Y-81787290D01*
X128359500Y-81886647D01*
X128359500Y-82433337D01*
X128359501Y-82433355D01*
X128369650Y-82532707D01*
X128369651Y-82532710D01*
X128422996Y-82693694D01*
X128423001Y-82693705D01*
X128512029Y-82838040D01*
X128512032Y-82838044D01*
X128631955Y-82957967D01*
X128631959Y-82957970D01*
X128776294Y-83046998D01*
X128776297Y-83046999D01*
X128776303Y-83047003D01*
X128937292Y-83100349D01*
X129036655Y-83110500D01*
X129115610Y-83110499D01*
X129163065Y-83119938D01*
X129168165Y-83122051D01*
X129168167Y-83122051D01*
X129168169Y-83122052D01*
X129361456Y-83160500D01*
X132610365Y-83160500D01*
X132677404Y-83180185D01*
X132723159Y-83232989D01*
X132733103Y-83302147D01*
X132704078Y-83365703D01*
X132670101Y-83393163D01*
X132667516Y-83394583D01*
X132667504Y-83394591D01*
X132412978Y-83579515D01*
X132412968Y-83579523D01*
X132183608Y-83794907D01*
X132183606Y-83794909D01*
X131983054Y-84037334D01*
X131983051Y-84037338D01*
X131814464Y-84302990D01*
X131810517Y-84311379D01*
X131774321Y-84388297D01*
X131727968Y-84440574D01*
X131662124Y-84459500D01*
X129361457Y-84459500D01*
X129168167Y-84497948D01*
X129168165Y-84497948D01*
X129163056Y-84500065D01*
X129115614Y-84509500D01*
X129036663Y-84509500D01*
X129036644Y-84509501D01*
X128937292Y-84519650D01*
X128937289Y-84519651D01*
X128776305Y-84572996D01*
X128776294Y-84573001D01*
X128631959Y-84662029D01*
X128631955Y-84662032D01*
X128512032Y-84781955D01*
X128512029Y-84781959D01*
X128423001Y-84926294D01*
X128422996Y-84926305D01*
X128369651Y-85087290D01*
X128359500Y-85186647D01*
X128359500Y-85733337D01*
X128359501Y-85733355D01*
X128369650Y-85832707D01*
X128369651Y-85832710D01*
X128422996Y-85993694D01*
X128423001Y-85993705D01*
X128512029Y-86138040D01*
X128512032Y-86138044D01*
X128631955Y-86257967D01*
X128631959Y-86257970D01*
X128776294Y-86346998D01*
X128776297Y-86346999D01*
X128776303Y-86347003D01*
X128937292Y-86400349D01*
X129036655Y-86410500D01*
X129115610Y-86410499D01*
X129163065Y-86419938D01*
X129168165Y-86422051D01*
X129168167Y-86422051D01*
X129168169Y-86422052D01*
X129361456Y-86460500D01*
X129361459Y-86460500D01*
X131615067Y-86460500D01*
X131682106Y-86480185D01*
X131727265Y-86531703D01*
X131814461Y-86717003D01*
X131814464Y-86717009D01*
X131983051Y-86982661D01*
X131983054Y-86982665D01*
X132183606Y-87225090D01*
X132183608Y-87225092D01*
X132412968Y-87440476D01*
X132412978Y-87440484D01*
X132667504Y-87625408D01*
X132667509Y-87625410D01*
X132667516Y-87625416D01*
X132943234Y-87776994D01*
X132943239Y-87776996D01*
X132943241Y-87776997D01*
X132943242Y-87776998D01*
X133235771Y-87892818D01*
X133235774Y-87892819D01*
X133540523Y-87971065D01*
X133540527Y-87971066D01*
X133606010Y-87979338D01*
X133852670Y-88010499D01*
X133852679Y-88010499D01*
X133852682Y-88010500D01*
X133852684Y-88010500D01*
X134167316Y-88010500D01*
X134167318Y-88010500D01*
X134167321Y-88010499D01*
X134167329Y-88010499D01*
X134353593Y-87986968D01*
X134479473Y-87971066D01*
X134784225Y-87892819D01*
X134791954Y-87889759D01*
X135076757Y-87776998D01*
X135076758Y-87776997D01*
X135076756Y-87776997D01*
X135076766Y-87776994D01*
X135352484Y-87625416D01*
X135607030Y-87440478D01*
X135836390Y-87225094D01*
X136036947Y-86982663D01*
X136205537Y-86717007D01*
X136339503Y-86432315D01*
X136436731Y-86133079D01*
X136495688Y-85824015D01*
X136495689Y-85824004D01*
X136515444Y-85510005D01*
X136515444Y-85509994D01*
X146744556Y-85509994D01*
X146744556Y-85510005D01*
X146764310Y-85824004D01*
X146764311Y-85824011D01*
X146783633Y-85925299D01*
X146815401Y-86091836D01*
X146823270Y-86133083D01*
X146920497Y-86432316D01*
X146920499Y-86432321D01*
X147054461Y-86717003D01*
X147054464Y-86717009D01*
X147223051Y-86982661D01*
X147223054Y-86982665D01*
X147423606Y-87225090D01*
X147423608Y-87225092D01*
X147652968Y-87440476D01*
X147652978Y-87440484D01*
X147907504Y-87625408D01*
X147907509Y-87625410D01*
X147907516Y-87625416D01*
X148183234Y-87776994D01*
X148183239Y-87776996D01*
X148183241Y-87776997D01*
X148183242Y-87776998D01*
X148475771Y-87892818D01*
X148475774Y-87892819D01*
X148780523Y-87971065D01*
X148780527Y-87971066D01*
X148846010Y-87979338D01*
X149092670Y-88010499D01*
X149092679Y-88010499D01*
X149092682Y-88010500D01*
X149092684Y-88010500D01*
X149407316Y-88010500D01*
X149407318Y-88010500D01*
X149407321Y-88010499D01*
X149407329Y-88010499D01*
X149593593Y-87986968D01*
X149719473Y-87971066D01*
X150024225Y-87892819D01*
X150031954Y-87889759D01*
X150316757Y-87776998D01*
X150316758Y-87776997D01*
X150316756Y-87776997D01*
X150316766Y-87776994D01*
X150592484Y-87625416D01*
X150847030Y-87440478D01*
X151076390Y-87225094D01*
X151276947Y-86982663D01*
X151445537Y-86717007D01*
X151492339Y-86617548D01*
X151509207Y-86581703D01*
X151555562Y-86529425D01*
X151621405Y-86510500D01*
X154360249Y-86510500D01*
X154427288Y-86530185D01*
X154459515Y-86560188D01*
X154480774Y-86588586D01*
X154502454Y-86617546D01*
X154502457Y-86617548D01*
X154617664Y-86703793D01*
X154617671Y-86703797D01*
X154752517Y-86754091D01*
X154752516Y-86754091D01*
X154759444Y-86754835D01*
X154812127Y-86760500D01*
X156607872Y-86760499D01*
X156667483Y-86754091D01*
X156802331Y-86703796D01*
X156917546Y-86617546D01*
X157003796Y-86502331D01*
X157054091Y-86367483D01*
X157060500Y-86307873D01*
X157060499Y-84512128D01*
X157054091Y-84452517D01*
X157048787Y-84438297D01*
X157003797Y-84317671D01*
X157003793Y-84317664D01*
X156917547Y-84202455D01*
X156917544Y-84202452D01*
X156802335Y-84116206D01*
X156802328Y-84116202D01*
X156667482Y-84065908D01*
X156667483Y-84065908D01*
X156607883Y-84059501D01*
X156607881Y-84059500D01*
X156607873Y-84059500D01*
X156607864Y-84059500D01*
X154812129Y-84059500D01*
X154812123Y-84059501D01*
X154752516Y-84065908D01*
X154617671Y-84116202D01*
X154617664Y-84116206D01*
X154502455Y-84202452D01*
X154502452Y-84202455D01*
X154416206Y-84317664D01*
X154416202Y-84317671D01*
X154374742Y-84428833D01*
X154332871Y-84484767D01*
X154267407Y-84509184D01*
X154258560Y-84509500D01*
X151621405Y-84509500D01*
X151554366Y-84489815D01*
X151509207Y-84438297D01*
X151445539Y-84302996D01*
X151445535Y-84302990D01*
X151276948Y-84037338D01*
X151276945Y-84037334D01*
X151076393Y-83794909D01*
X151076391Y-83794907D01*
X150999284Y-83722498D01*
X150847030Y-83579522D01*
X150847027Y-83579520D01*
X150847021Y-83579515D01*
X150592495Y-83394591D01*
X150592488Y-83394586D01*
X150592484Y-83394584D01*
X150316766Y-83243006D01*
X150316763Y-83243004D01*
X150316758Y-83243002D01*
X150316757Y-83243001D01*
X150024228Y-83127181D01*
X150024225Y-83127180D01*
X149719476Y-83048934D01*
X149719463Y-83048932D01*
X149407329Y-83009500D01*
X149407318Y-83009500D01*
X149092682Y-83009500D01*
X149092670Y-83009500D01*
X148780536Y-83048932D01*
X148780523Y-83048934D01*
X148475774Y-83127180D01*
X148475771Y-83127181D01*
X148183242Y-83243001D01*
X148183241Y-83243002D01*
X147907516Y-83394584D01*
X147907504Y-83394591D01*
X147652978Y-83579515D01*
X147652968Y-83579523D01*
X147423608Y-83794907D01*
X147423606Y-83794909D01*
X147223054Y-84037334D01*
X147223051Y-84037338D01*
X147054464Y-84302990D01*
X147054461Y-84302996D01*
X146920499Y-84587678D01*
X146920497Y-84587683D01*
X146823270Y-84886916D01*
X146764311Y-85195988D01*
X146764310Y-85195995D01*
X146744556Y-85509994D01*
X136515444Y-85509994D01*
X136495689Y-85195995D01*
X136495688Y-85195988D01*
X136495688Y-85195985D01*
X136436731Y-84886921D01*
X136339503Y-84587685D01*
X136337309Y-84583023D01*
X136260199Y-84419156D01*
X136205537Y-84302993D01*
X136086999Y-84116206D01*
X136036948Y-84037338D01*
X136036945Y-84037334D01*
X135836393Y-83794909D01*
X135836391Y-83794907D01*
X135759284Y-83722498D01*
X135607030Y-83579522D01*
X135607027Y-83579520D01*
X135607021Y-83579515D01*
X135352495Y-83394591D01*
X135352488Y-83394586D01*
X135352484Y-83394584D01*
X135076766Y-83243006D01*
X135076763Y-83243004D01*
X135076758Y-83243002D01*
X135076757Y-83243001D01*
X134784228Y-83127181D01*
X134784225Y-83127180D01*
X134479476Y-83048934D01*
X134479463Y-83048932D01*
X134167329Y-83009500D01*
X134167318Y-83009500D01*
X133852682Y-83009500D01*
X133852670Y-83009500D01*
X133540536Y-83048932D01*
X133540523Y-83048934D01*
X133384809Y-83088915D01*
X133314980Y-83086521D01*
X133257531Y-83046755D01*
X133230701Y-82982242D01*
X133243009Y-82913464D01*
X133266291Y-82881130D01*
X133309381Y-82838040D01*
X133349639Y-82797782D01*
X133349639Y-82797780D01*
X133356700Y-82790720D01*
X133356706Y-82790713D01*
X134647778Y-81499641D01*
X134647782Y-81499639D01*
X134787139Y-81360282D01*
X134896632Y-81196414D01*
X134972051Y-81014335D01*
X135000326Y-80872189D01*
X135010500Y-80821043D01*
X135010500Y-80286757D01*
X135030185Y-80219718D01*
X135074762Y-80178095D01*
X135076761Y-80176995D01*
X135076766Y-80176994D01*
X135352484Y-80025416D01*
X135607030Y-79840478D01*
X135836390Y-79625094D01*
X136036947Y-79382663D01*
X136205537Y-79117007D01*
X136339503Y-78832315D01*
X136436731Y-78533079D01*
X136495688Y-78224015D01*
X136497682Y-78192322D01*
X136515444Y-77910005D01*
X136515444Y-77909994D01*
X136495689Y-77595995D01*
X136495688Y-77595988D01*
X136495688Y-77595985D01*
X136436731Y-77286921D01*
X136339503Y-76987685D01*
X136337730Y-76983918D01*
X136239932Y-76776086D01*
X136205537Y-76702993D01*
X136108193Y-76549603D01*
X136036948Y-76437338D01*
X136036945Y-76437334D01*
X135836393Y-76194909D01*
X135836391Y-76194907D01*
X135798687Y-76159500D01*
X135607030Y-75979522D01*
X135607027Y-75979520D01*
X135607021Y-75979515D01*
X135352495Y-75794591D01*
X135352488Y-75794586D01*
X135352484Y-75794584D01*
X135076766Y-75643006D01*
X135076763Y-75643004D01*
X135076758Y-75643002D01*
X135076757Y-75643001D01*
X134784228Y-75527181D01*
X134784225Y-75527180D01*
X134479476Y-75448934D01*
X134479463Y-75448932D01*
X134167329Y-75409500D01*
X134167318Y-75409500D01*
X133852682Y-75409500D01*
X133852670Y-75409500D01*
X133540536Y-75448932D01*
X133540523Y-75448934D01*
X133235774Y-75527180D01*
X133235771Y-75527181D01*
X132943242Y-75643001D01*
X132943241Y-75643002D01*
X132667516Y-75794584D01*
X132667504Y-75794591D01*
X132412978Y-75979515D01*
X132412968Y-75979523D01*
X132183608Y-76194907D01*
X132183606Y-76194909D01*
X131983054Y-76437334D01*
X131983051Y-76437338D01*
X131814464Y-76702990D01*
X131814461Y-76702996D01*
X131680499Y-76987678D01*
X131680497Y-76987683D01*
X131583270Y-77286916D01*
X131524311Y-77595988D01*
X131524310Y-77595995D01*
X131504556Y-77909994D01*
X131504556Y-77910005D01*
X131524310Y-78224004D01*
X131524311Y-78224011D01*
X131542697Y-78320393D01*
X131581361Y-78523079D01*
X131583270Y-78533083D01*
X131680497Y-78832316D01*
X131680499Y-78832321D01*
X131814461Y-79117003D01*
X131814464Y-79117009D01*
X131983051Y-79382661D01*
X131983054Y-79382665D01*
X132183606Y-79625090D01*
X132183608Y-79625092D01*
X132183610Y-79625094D01*
X132344675Y-79776344D01*
X132412968Y-79840476D01*
X132412978Y-79840484D01*
X132667504Y-80025408D01*
X132667509Y-80025410D01*
X132667516Y-80025416D01*
X132925854Y-80167439D01*
X132975118Y-80216985D01*
X132989774Y-80285300D01*
X132965170Y-80350695D01*
X132953797Y-80363782D01*
X132194399Y-81123181D01*
X132133076Y-81156666D01*
X132106718Y-81159500D01*
X130584500Y-81159500D01*
X130517461Y-81139815D01*
X130471706Y-81087011D01*
X130460500Y-81035500D01*
X130460500Y-78618308D01*
X130480185Y-78551269D01*
X130496814Y-78530631D01*
X130565581Y-78461865D01*
X130649244Y-78320398D01*
X130695098Y-78162569D01*
X130698000Y-78125694D01*
X130698000Y-77694306D01*
X130695098Y-77657431D01*
X130688341Y-77634174D01*
X130649245Y-77499606D01*
X130649244Y-77499603D01*
X130649244Y-77499602D01*
X130565581Y-77358135D01*
X130565579Y-77358133D01*
X130565576Y-77358129D01*
X130449370Y-77241923D01*
X130449362Y-77241917D01*
X130307896Y-77158255D01*
X130307893Y-77158254D01*
X130150073Y-77112402D01*
X130150067Y-77112401D01*
X130113201Y-77109500D01*
X130113194Y-77109500D01*
X130100435Y-77109500D01*
X130033396Y-77089815D01*
X130031544Y-77088602D01*
X129933911Y-77023366D01*
X129751839Y-76947950D01*
X129751829Y-76947947D01*
X129558543Y-76909500D01*
X129558541Y-76909500D01*
X129361459Y-76909500D01*
X129361457Y-76909500D01*
X129168170Y-76947947D01*
X129168160Y-76947950D01*
X128994452Y-77019902D01*
X128924983Y-77027371D01*
X128862504Y-76996095D01*
X128826852Y-76936006D01*
X128823000Y-76905341D01*
X128823000Y-76744313D01*
X128822999Y-76744298D01*
X128820098Y-76707432D01*
X128820097Y-76707426D01*
X128774245Y-76549606D01*
X128774244Y-76549603D01*
X128774244Y-76549602D01*
X128690581Y-76408135D01*
X128690579Y-76408133D01*
X128690576Y-76408129D01*
X128574370Y-76291923D01*
X128574362Y-76291917D01*
X128432896Y-76208255D01*
X128432893Y-76208254D01*
X128275073Y-76162402D01*
X128275067Y-76162401D01*
X128238201Y-76159500D01*
X128238194Y-76159500D01*
X126931806Y-76159500D01*
X126931798Y-76159500D01*
X126894932Y-76162401D01*
X126894926Y-76162402D01*
X126749767Y-76204576D01*
X126715172Y-76209500D01*
X126334730Y-76209500D01*
X126267691Y-76189815D01*
X126247049Y-76173181D01*
X126128657Y-76054789D01*
X126128656Y-76054788D01*
X126006630Y-75979522D01*
X125979336Y-75962687D01*
X125979331Y-75962685D01*
X125977862Y-75962198D01*
X125812797Y-75907501D01*
X125812795Y-75907500D01*
X125710010Y-75897000D01*
X124709998Y-75897000D01*
X124709980Y-75897001D01*
X124607203Y-75907500D01*
X124607200Y-75907501D01*
X124440668Y-75962685D01*
X124440663Y-75962687D01*
X124291342Y-76054789D01*
X124167287Y-76178844D01*
X124135129Y-76230981D01*
X124098482Y-76268985D01*
X124011584Y-76327048D01*
X124011580Y-76327051D01*
X121802180Y-78536450D01*
X121740857Y-78569935D01*
X121671165Y-78564951D01*
X121615232Y-78523079D01*
X121590815Y-78457615D01*
X121590499Y-78448794D01*
X121590499Y-76802128D01*
X121584283Y-76744306D01*
X121584091Y-76742516D01*
X121533797Y-76607671D01*
X121533793Y-76607664D01*
X121447547Y-76492455D01*
X121447544Y-76492452D01*
X121332335Y-76406206D01*
X121332328Y-76406202D01*
X121197482Y-76355908D01*
X121197483Y-76355908D01*
X121137883Y-76349501D01*
X121137881Y-76349500D01*
X121137873Y-76349500D01*
X121137865Y-76349500D01*
X120411229Y-76349500D01*
X120344190Y-76329815D01*
X120298435Y-76277011D01*
X120288491Y-76207853D01*
X120317516Y-76144297D01*
X120323548Y-76137819D01*
X123082948Y-73378419D01*
X123082951Y-73378416D01*
X123098283Y-73355469D01*
X123128331Y-73310501D01*
X123128331Y-73310500D01*
X123128332Y-73310499D01*
X123165084Y-73255495D01*
X123221658Y-73118913D01*
X123250500Y-72973918D01*
X123250500Y-66624000D01*
X123270185Y-66556961D01*
X123322989Y-66511206D01*
X123374500Y-66500000D01*
X123500000Y-66500000D01*
X123500000Y-64547486D01*
X124010001Y-64547486D01*
X124020494Y-64650197D01*
X124075641Y-64816619D01*
X124075643Y-64816624D01*
X124167684Y-64965845D01*
X124291654Y-65089815D01*
X124440875Y-65181856D01*
X124440880Y-65181858D01*
X124607302Y-65237005D01*
X124607309Y-65237006D01*
X124710019Y-65247499D01*
X124959999Y-65247499D01*
X124960000Y-65247498D01*
X124960000Y-64485000D01*
X125460000Y-64485000D01*
X125460000Y-65247499D01*
X125709972Y-65247499D01*
X125709986Y-65247498D01*
X125812697Y-65237005D01*
X125979119Y-65181858D01*
X125979124Y-65181856D01*
X126128345Y-65089815D01*
X126252315Y-64965845D01*
X126344356Y-64816624D01*
X126344359Y-64816617D01*
X126353432Y-64789237D01*
X126393204Y-64731792D01*
X126457719Y-64704968D01*
X126526495Y-64717282D01*
X126558819Y-64740559D01*
X126595938Y-64777678D01*
X126595947Y-64777685D01*
X126737303Y-64861282D01*
X126737306Y-64861283D01*
X126895004Y-64907099D01*
X126895010Y-64907100D01*
X126931850Y-64909999D01*
X126931866Y-64910000D01*
X127335000Y-64910000D01*
X127335000Y-64360000D01*
X126453000Y-64360000D01*
X126453000Y-64361000D01*
X126433315Y-64428039D01*
X126380511Y-64473794D01*
X126329000Y-64485000D01*
X125460000Y-64485000D01*
X124960000Y-64485000D01*
X124010001Y-64485000D01*
X124010001Y-64547486D01*
X123500000Y-64547486D01*
X123500000Y-64112728D01*
X123519685Y-64045689D01*
X123536315Y-64025050D01*
X123805772Y-63755594D01*
X123867092Y-63722111D01*
X123936783Y-63727095D01*
X123992717Y-63768966D01*
X124017134Y-63834431D01*
X124016808Y-63855879D01*
X124010000Y-63922511D01*
X124010000Y-63985000D01*
X126304500Y-63985000D01*
X126304500Y-63984000D01*
X126324185Y-63916961D01*
X126376989Y-63871206D01*
X126428500Y-63860000D01*
X127335000Y-63860000D01*
X127335000Y-63310000D01*
X126931850Y-63310000D01*
X126895010Y-63312899D01*
X126895004Y-63312900D01*
X126737306Y-63358716D01*
X126737303Y-63358717D01*
X126595947Y-63442314D01*
X126595938Y-63442321D01*
X126474300Y-63563960D01*
X126472903Y-63562563D01*
X126424700Y-63597363D01*
X126354932Y-63601140D01*
X126294198Y-63566598D01*
X126277845Y-63545544D01*
X126252317Y-63504156D01*
X126158695Y-63410534D01*
X126125210Y-63349211D01*
X126130194Y-63279519D01*
X126158691Y-63235176D01*
X126252712Y-63141156D01*
X126327809Y-63019402D01*
X126379757Y-62972679D01*
X126433348Y-62960500D01*
X126715172Y-62960500D01*
X126749767Y-62965424D01*
X126894926Y-63007597D01*
X126894929Y-63007597D01*
X126894931Y-63007598D01*
X126931806Y-63010500D01*
X128098000Y-63010500D01*
X128165039Y-63030185D01*
X128210794Y-63082989D01*
X128222000Y-63134500D01*
X128222000Y-63186000D01*
X128202315Y-63253039D01*
X128149511Y-63298794D01*
X128098000Y-63310000D01*
X127835000Y-63310000D01*
X127835000Y-64910000D01*
X128238134Y-64910000D01*
X128238149Y-64909999D01*
X128274989Y-64907100D01*
X128300903Y-64899571D01*
X128370772Y-64899769D01*
X128429443Y-64937710D01*
X128458287Y-65001348D01*
X128459500Y-65018647D01*
X128459500Y-66781955D01*
X128441040Y-66847050D01*
X128422999Y-66876298D01*
X128422996Y-66876305D01*
X128369651Y-67037290D01*
X128359500Y-67136647D01*
X128359500Y-67683337D01*
X128359501Y-67683355D01*
X128369650Y-67782707D01*
X128369651Y-67782710D01*
X128422996Y-67943694D01*
X128423001Y-67943705D01*
X128512029Y-68088040D01*
X128512032Y-68088044D01*
X128631955Y-68207967D01*
X128631959Y-68207970D01*
X128776294Y-68296998D01*
X128776297Y-68296999D01*
X128776303Y-68297003D01*
X128937292Y-68350349D01*
X129036655Y-68360500D01*
X129115610Y-68360499D01*
X129163065Y-68369938D01*
X129168165Y-68372051D01*
X129168167Y-68372051D01*
X129168169Y-68372052D01*
X129361456Y-68410500D01*
X132701314Y-68410500D01*
X132768353Y-68430185D01*
X132814108Y-68482989D01*
X132824052Y-68552147D01*
X132795027Y-68615703D01*
X132761052Y-68643162D01*
X132667516Y-68694584D01*
X132667504Y-68694591D01*
X132412978Y-68879515D01*
X132412968Y-68879523D01*
X132183608Y-69094907D01*
X132183606Y-69094909D01*
X131983054Y-69337334D01*
X131983051Y-69337338D01*
X131814467Y-69602985D01*
X131814464Y-69602990D01*
X131797850Y-69638298D01*
X131751494Y-69690575D01*
X131685652Y-69709500D01*
X129361457Y-69709500D01*
X129168167Y-69747948D01*
X129168165Y-69747948D01*
X129163056Y-69750065D01*
X129115614Y-69759500D01*
X129036663Y-69759500D01*
X129036644Y-69759501D01*
X128937292Y-69769650D01*
X128937289Y-69769651D01*
X128776305Y-69822996D01*
X128776294Y-69823001D01*
X128631959Y-69912029D01*
X128631955Y-69912032D01*
X128512032Y-70031955D01*
X128512029Y-70031959D01*
X128423001Y-70176294D01*
X128422996Y-70176305D01*
X128369651Y-70337290D01*
X128359500Y-70436647D01*
X128359500Y-70983337D01*
X128359501Y-70983355D01*
X128369650Y-71082707D01*
X128369651Y-71082710D01*
X128422996Y-71243694D01*
X128423001Y-71243705D01*
X128512029Y-71388040D01*
X128512032Y-71388044D01*
X128631955Y-71507967D01*
X128631959Y-71507970D01*
X128776294Y-71596998D01*
X128776297Y-71596999D01*
X128776303Y-71597003D01*
X128937292Y-71650349D01*
X129036655Y-71660500D01*
X129115610Y-71660499D01*
X129163065Y-71669938D01*
X129168165Y-71672051D01*
X129168167Y-71672051D01*
X129168169Y-71672052D01*
X129361456Y-71710500D01*
X129361459Y-71710500D01*
X131591539Y-71710500D01*
X131658578Y-71730185D01*
X131703736Y-71781701D01*
X131814463Y-72017007D01*
X131814465Y-72017010D01*
X131814466Y-72017012D01*
X131983051Y-72282661D01*
X131983054Y-72282665D01*
X132183606Y-72525090D01*
X132183608Y-72525092D01*
X132183610Y-72525094D01*
X132390561Y-72719434D01*
X132412968Y-72740476D01*
X132412978Y-72740484D01*
X132667504Y-72925408D01*
X132667509Y-72925410D01*
X132667516Y-72925416D01*
X132943234Y-73076994D01*
X132943239Y-73076996D01*
X132943241Y-73076997D01*
X132943242Y-73076998D01*
X133235771Y-73192818D01*
X133235774Y-73192819D01*
X133479870Y-73255492D01*
X133540527Y-73271066D01*
X133606010Y-73279338D01*
X133852670Y-73310499D01*
X133852679Y-73310499D01*
X133852682Y-73310500D01*
X133852684Y-73310500D01*
X134167316Y-73310500D01*
X134167318Y-73310500D01*
X134167321Y-73310499D01*
X134167329Y-73310499D01*
X134353593Y-73286968D01*
X134479473Y-73271066D01*
X134784225Y-73192819D01*
X134854915Y-73164831D01*
X135076757Y-73076998D01*
X135076758Y-73076997D01*
X135076756Y-73076997D01*
X135076766Y-73076994D01*
X135352484Y-72925416D01*
X135607030Y-72740478D01*
X135836390Y-72525094D01*
X136036947Y-72282663D01*
X136205537Y-72017007D01*
X136339503Y-71732315D01*
X136436731Y-71433079D01*
X136495688Y-71124015D01*
X136504538Y-70983355D01*
X136515444Y-70810005D01*
X136515444Y-70809994D01*
X136495689Y-70495995D01*
X136495688Y-70495988D01*
X136495688Y-70495985D01*
X136436731Y-70186921D01*
X136339503Y-69887685D01*
X136205537Y-69602993D01*
X136075002Y-69397302D01*
X136036948Y-69337338D01*
X136036945Y-69337334D01*
X135836393Y-69094909D01*
X135836391Y-69094907D01*
X135835168Y-69093758D01*
X135607030Y-68879522D01*
X135607027Y-68879520D01*
X135607021Y-68879515D01*
X135352495Y-68694591D01*
X135352488Y-68694586D01*
X135352484Y-68694584D01*
X135076766Y-68543006D01*
X135076763Y-68543004D01*
X135076758Y-68543002D01*
X135076757Y-68543001D01*
X134784228Y-68427181D01*
X134784225Y-68427180D01*
X134479476Y-68348934D01*
X134479463Y-68348932D01*
X134167329Y-68309500D01*
X134167318Y-68309500D01*
X133852682Y-68309500D01*
X133852670Y-68309500D01*
X133540536Y-68348932D01*
X133540523Y-68348934D01*
X133398264Y-68385460D01*
X133328435Y-68383066D01*
X133270986Y-68343299D01*
X133244156Y-68278786D01*
X133256464Y-68210009D01*
X133279746Y-68177675D01*
X133331129Y-68126292D01*
X133409639Y-68047782D01*
X133409639Y-68047780D01*
X133416700Y-68040720D01*
X133416706Y-68040713D01*
X134647778Y-66809641D01*
X134647782Y-66809639D01*
X134787139Y-66670282D01*
X134896632Y-66506414D01*
X134972051Y-66324335D01*
X135010500Y-66131041D01*
X135010500Y-65586757D01*
X135030185Y-65519718D01*
X135074762Y-65478095D01*
X135076761Y-65476995D01*
X135076766Y-65476994D01*
X135352484Y-65325416D01*
X135607030Y-65140478D01*
X135836390Y-64925094D01*
X136036947Y-64682663D01*
X136205537Y-64417007D01*
X136339503Y-64132315D01*
X136436731Y-63833079D01*
X136495688Y-63524015D01*
X136496265Y-63514844D01*
X136515444Y-63210005D01*
X136515444Y-63209994D01*
X136495689Y-62895995D01*
X136495688Y-62895988D01*
X136495688Y-62895985D01*
X136436731Y-62586921D01*
X136339503Y-62287685D01*
X136297275Y-62197947D01*
X136277227Y-62155341D01*
X136205537Y-62002993D01*
X136076462Y-61799603D01*
X136036948Y-61737338D01*
X136036945Y-61737334D01*
X135836393Y-61494909D01*
X135836391Y-61494907D01*
X135798687Y-61459500D01*
X135607030Y-61279522D01*
X135607027Y-61279520D01*
X135607021Y-61279515D01*
X135352495Y-61094591D01*
X135352488Y-61094586D01*
X135352484Y-61094584D01*
X135076766Y-60943006D01*
X135076763Y-60943004D01*
X135076758Y-60943002D01*
X135076757Y-60943001D01*
X134784228Y-60827181D01*
X134784225Y-60827180D01*
X134479476Y-60748934D01*
X134479463Y-60748932D01*
X134167329Y-60709500D01*
X134167318Y-60709500D01*
X133852682Y-60709500D01*
X133852670Y-60709500D01*
X133540536Y-60748932D01*
X133540523Y-60748934D01*
X133235774Y-60827180D01*
X133235771Y-60827181D01*
X132943242Y-60943001D01*
X132943241Y-60943002D01*
X132667516Y-61094584D01*
X132667504Y-61094591D01*
X132412978Y-61279515D01*
X132412968Y-61279523D01*
X132183608Y-61494907D01*
X132183606Y-61494909D01*
X131983054Y-61737334D01*
X131983051Y-61737338D01*
X131814464Y-62002990D01*
X131814461Y-62002996D01*
X131680499Y-62287678D01*
X131680497Y-62287683D01*
X131583270Y-62586916D01*
X131524311Y-62895988D01*
X131524310Y-62895995D01*
X131504556Y-63209994D01*
X131504556Y-63210005D01*
X131524310Y-63524004D01*
X131524311Y-63524011D01*
X131533160Y-63570398D01*
X131580191Y-63816946D01*
X131583270Y-63833083D01*
X131680497Y-64132316D01*
X131680499Y-64132321D01*
X131814461Y-64417003D01*
X131814464Y-64417009D01*
X131983051Y-64682661D01*
X131983054Y-64682665D01*
X132183606Y-64925090D01*
X132183608Y-64925092D01*
X132412968Y-65140476D01*
X132412978Y-65140484D01*
X132667504Y-65325408D01*
X132667522Y-65325420D01*
X132932306Y-65470986D01*
X132981570Y-65520532D01*
X132996227Y-65588847D01*
X132971623Y-65654242D01*
X132960250Y-65667329D01*
X132254399Y-66373181D01*
X132193076Y-66406666D01*
X132166718Y-66409500D01*
X130584500Y-66409500D01*
X130517461Y-66389815D01*
X130471706Y-66337011D01*
X130460500Y-66285500D01*
X130460500Y-63868308D01*
X130480185Y-63801269D01*
X130496814Y-63780631D01*
X130565581Y-63711865D01*
X130649244Y-63570398D01*
X130688039Y-63436865D01*
X130695097Y-63412573D01*
X130695098Y-63412567D01*
X130698000Y-63375694D01*
X130698000Y-62944306D01*
X130695098Y-62907431D01*
X130694436Y-62905154D01*
X130649245Y-62749606D01*
X130649244Y-62749603D01*
X130649244Y-62749602D01*
X130565581Y-62608135D01*
X130565579Y-62608133D01*
X130565576Y-62608129D01*
X130449370Y-62491923D01*
X130449362Y-62491917D01*
X130307896Y-62408255D01*
X130307893Y-62408254D01*
X130150073Y-62362402D01*
X130150067Y-62362401D01*
X130113201Y-62359500D01*
X130113194Y-62359500D01*
X130100435Y-62359500D01*
X130033396Y-62339815D01*
X130031544Y-62338602D01*
X129933911Y-62273366D01*
X129751839Y-62197950D01*
X129751829Y-62197947D01*
X129558543Y-62159500D01*
X129558541Y-62159500D01*
X129361459Y-62159500D01*
X129361457Y-62159500D01*
X129168170Y-62197947D01*
X129168160Y-62197950D01*
X128994452Y-62269902D01*
X128924983Y-62277371D01*
X128862504Y-62246095D01*
X128826852Y-62186006D01*
X128823000Y-62155341D01*
X128823000Y-61994313D01*
X128822999Y-61994298D01*
X128820098Y-61957432D01*
X128820097Y-61957426D01*
X128774245Y-61799606D01*
X128774244Y-61799603D01*
X128774244Y-61799602D01*
X128690581Y-61658135D01*
X128690579Y-61658133D01*
X128690576Y-61658129D01*
X128574370Y-61541923D01*
X128574362Y-61541917D01*
X128494870Y-61494906D01*
X128432898Y-61458256D01*
X128432897Y-61458255D01*
X128432896Y-61458255D01*
X128432893Y-61458254D01*
X128275073Y-61412402D01*
X128275067Y-61412401D01*
X128238201Y-61409500D01*
X128238194Y-61409500D01*
X126931806Y-61409500D01*
X126931798Y-61409500D01*
X126894932Y-61412401D01*
X126894926Y-61412402D01*
X126749767Y-61454576D01*
X126715172Y-61459500D01*
X125989729Y-61459500D01*
X125950725Y-61453206D01*
X125812797Y-61407501D01*
X125812795Y-61407500D01*
X125710010Y-61397000D01*
X124709983Y-61397000D01*
X124708430Y-61397080D01*
X124708099Y-61397000D01*
X124706835Y-61397001D01*
X124706835Y-61396698D01*
X124640478Y-61380825D01*
X124592101Y-61330412D01*
X124578658Y-61261848D01*
X124599030Y-61204352D01*
X124632186Y-61154729D01*
X124665084Y-61105495D01*
X124721658Y-60968913D01*
X124749851Y-60827181D01*
X124750500Y-60823920D01*
X124750500Y-60596869D01*
X124770185Y-60529830D01*
X124822989Y-60484075D01*
X124835486Y-60479166D01*
X124969334Y-60434814D01*
X125118656Y-60342712D01*
X125242712Y-60218656D01*
X125334814Y-60069334D01*
X125389999Y-59902797D01*
X125400500Y-59800009D01*
X125400499Y-57699992D01*
X125389999Y-57597203D01*
X125334814Y-57430666D01*
X125242712Y-57281344D01*
X125118656Y-57157288D01*
X124969334Y-57065186D01*
X124802797Y-57010001D01*
X124802795Y-57010000D01*
X124700016Y-56999500D01*
X123624000Y-56999500D01*
X123556961Y-56979815D01*
X123511206Y-56927011D01*
X123500000Y-56875500D01*
X123500000Y-56624499D01*
X123519685Y-56557460D01*
X123572489Y-56511705D01*
X123623996Y-56500499D01*
X124700008Y-56500499D01*
X124802797Y-56489999D01*
X124969334Y-56434814D01*
X125118656Y-56342712D01*
X125242712Y-56218656D01*
X125334814Y-56069334D01*
X125389999Y-55902797D01*
X125400500Y-55800009D01*
X125400499Y-53699992D01*
X125398151Y-53677011D01*
X125389999Y-53597203D01*
X125389998Y-53597200D01*
X125386876Y-53587779D01*
X125334814Y-53430666D01*
X125242712Y-53281344D01*
X125118656Y-53157288D01*
X124969334Y-53065186D01*
X124835495Y-53020836D01*
X124778051Y-52981063D01*
X124751228Y-52916547D01*
X124750500Y-52903130D01*
X124750500Y-52676081D01*
X124744763Y-52647242D01*
X124744763Y-52647240D01*
X124729837Y-52572203D01*
X124721659Y-52531088D01*
X124665875Y-52396415D01*
X124665084Y-52394505D01*
X124616608Y-52321955D01*
X124582952Y-52271585D01*
X124530701Y-52219334D01*
X124478416Y-52167049D01*
X124135327Y-51823960D01*
X123536319Y-51224951D01*
X123502834Y-51163628D01*
X123500000Y-51137270D01*
X123500000Y-49837486D01*
X124000001Y-49837486D01*
X124010494Y-49940197D01*
X124065641Y-50106619D01*
X124065643Y-50106624D01*
X124157684Y-50255845D01*
X124281654Y-50379815D01*
X124430875Y-50471856D01*
X124430880Y-50471858D01*
X124597302Y-50527005D01*
X124597309Y-50527006D01*
X124700019Y-50537499D01*
X124949999Y-50537499D01*
X125450000Y-50537499D01*
X125699972Y-50537499D01*
X125699986Y-50537498D01*
X125802697Y-50527005D01*
X125969119Y-50471858D01*
X125969124Y-50471856D01*
X126118345Y-50379815D01*
X126242315Y-50255845D01*
X126267844Y-50214456D01*
X126319791Y-50167730D01*
X126388754Y-50156507D01*
X126452836Y-50184350D01*
X126464206Y-50196133D01*
X126464300Y-50196040D01*
X126585938Y-50317678D01*
X126585947Y-50317685D01*
X126727303Y-50401282D01*
X126727306Y-50401283D01*
X126885004Y-50447099D01*
X126885010Y-50447100D01*
X126921850Y-50449999D01*
X126921866Y-50450000D01*
X127325000Y-50450000D01*
X127325000Y-49900000D01*
X126418500Y-49900000D01*
X126351461Y-49880315D01*
X126305706Y-49827511D01*
X126294500Y-49776000D01*
X126294500Y-49775000D01*
X125450000Y-49775000D01*
X125450000Y-50537499D01*
X124949999Y-50537499D01*
X124950000Y-50537498D01*
X124950000Y-49775000D01*
X124000001Y-49775000D01*
X124000001Y-49837486D01*
X123500000Y-49837486D01*
X123500000Y-48360730D01*
X123519685Y-48293691D01*
X123572489Y-48247936D01*
X123641647Y-48237992D01*
X123705203Y-48267017D01*
X123711681Y-48273049D01*
X123721586Y-48282954D01*
X123738556Y-48294292D01*
X123795270Y-48332186D01*
X123844505Y-48365084D01*
X123844506Y-48365084D01*
X123844507Y-48365085D01*
X123844509Y-48365086D01*
X123927595Y-48399501D01*
X123981087Y-48421658D01*
X123981091Y-48421658D01*
X123981092Y-48421659D01*
X124126079Y-48450500D01*
X124132142Y-48451097D01*
X124132006Y-48452477D01*
X124192309Y-48470185D01*
X124212951Y-48486819D01*
X124251304Y-48525172D01*
X124284789Y-48586495D01*
X124279805Y-48656187D01*
X124251305Y-48700534D01*
X124157682Y-48794157D01*
X124065643Y-48943375D01*
X124065641Y-48943380D01*
X124010494Y-49109802D01*
X124010493Y-49109809D01*
X124000000Y-49212513D01*
X124000000Y-49275000D01*
X126319000Y-49275000D01*
X126386039Y-49294685D01*
X126431794Y-49347489D01*
X126443000Y-49399000D01*
X126443000Y-49400000D01*
X127325000Y-49400000D01*
X127325000Y-48850000D01*
X126921850Y-48850000D01*
X126885010Y-48852899D01*
X126885004Y-48852900D01*
X126727306Y-48898716D01*
X126727303Y-48898717D01*
X126585947Y-48982314D01*
X126585937Y-48982322D01*
X126548818Y-49019441D01*
X126487495Y-49052926D01*
X126417803Y-49047940D01*
X126361870Y-49006068D01*
X126343432Y-48970763D01*
X126334358Y-48943380D01*
X126334356Y-48943375D01*
X126242315Y-48794154D01*
X126160342Y-48712181D01*
X126126857Y-48650858D01*
X126131841Y-48581166D01*
X126173713Y-48525233D01*
X126239177Y-48500816D01*
X126248023Y-48500500D01*
X126705172Y-48500500D01*
X126739767Y-48505424D01*
X126884926Y-48547597D01*
X126884929Y-48547597D01*
X126884931Y-48547598D01*
X126921806Y-48550500D01*
X128088000Y-48550500D01*
X128155039Y-48570185D01*
X128200794Y-48622989D01*
X128212000Y-48674500D01*
X128212000Y-48726000D01*
X128192315Y-48793039D01*
X128139511Y-48838794D01*
X128088000Y-48850000D01*
X127825000Y-48850000D01*
X127825000Y-50450000D01*
X128228134Y-50450000D01*
X128228149Y-50449999D01*
X128264989Y-50447100D01*
X128290903Y-50439571D01*
X128360772Y-50439769D01*
X128419443Y-50477710D01*
X128448287Y-50541348D01*
X128449500Y-50558647D01*
X128449500Y-52321955D01*
X128431040Y-52387050D01*
X128412999Y-52416298D01*
X128412996Y-52416305D01*
X128359651Y-52577290D01*
X128349500Y-52676647D01*
X128349500Y-53223337D01*
X128349501Y-53223355D01*
X128359650Y-53322707D01*
X128359651Y-53322710D01*
X128412996Y-53483694D01*
X128413001Y-53483705D01*
X128502029Y-53628040D01*
X128502032Y-53628044D01*
X128621955Y-53747967D01*
X128621959Y-53747970D01*
X128766294Y-53836998D01*
X128766297Y-53836999D01*
X128766303Y-53837003D01*
X128927292Y-53890349D01*
X129026655Y-53900500D01*
X129105610Y-53900499D01*
X129153065Y-53909938D01*
X129158165Y-53912051D01*
X129158167Y-53912051D01*
X129158169Y-53912052D01*
X129351456Y-53950500D01*
X129351459Y-53950500D01*
X132529252Y-53950500D01*
X132596291Y-53970185D01*
X132642046Y-54022989D01*
X132651990Y-54092147D01*
X132622965Y-54155703D01*
X132602137Y-54174818D01*
X132402978Y-54319515D01*
X132402968Y-54319523D01*
X132173608Y-54534907D01*
X132173606Y-54534909D01*
X131973054Y-54777334D01*
X131973051Y-54777338D01*
X131804464Y-55042990D01*
X131804460Y-55042996D01*
X131740793Y-55178297D01*
X131694438Y-55230575D01*
X131628595Y-55249500D01*
X129351457Y-55249500D01*
X129158167Y-55287948D01*
X129158165Y-55287948D01*
X129153056Y-55290065D01*
X129105614Y-55299500D01*
X129026663Y-55299500D01*
X129026644Y-55299501D01*
X128927292Y-55309650D01*
X128927289Y-55309651D01*
X128766305Y-55362996D01*
X128766294Y-55363001D01*
X128621959Y-55452029D01*
X128621955Y-55452032D01*
X128502032Y-55571955D01*
X128502029Y-55571959D01*
X128413001Y-55716294D01*
X128412996Y-55716305D01*
X128359651Y-55877290D01*
X128349500Y-55976647D01*
X128349500Y-56523337D01*
X128349501Y-56523355D01*
X128359650Y-56622707D01*
X128359651Y-56622710D01*
X128412996Y-56783694D01*
X128413001Y-56783705D01*
X128502029Y-56928040D01*
X128502032Y-56928044D01*
X128621955Y-57047967D01*
X128621959Y-57047970D01*
X128766294Y-57136998D01*
X128766297Y-57136999D01*
X128766303Y-57137003D01*
X128927292Y-57190349D01*
X129026655Y-57200500D01*
X129105610Y-57200499D01*
X129153065Y-57209938D01*
X129158165Y-57212051D01*
X129158167Y-57212051D01*
X129158169Y-57212052D01*
X129351456Y-57250500D01*
X129351459Y-57250500D01*
X131628595Y-57250500D01*
X131695634Y-57270185D01*
X131740793Y-57321703D01*
X131804460Y-57457003D01*
X131804464Y-57457009D01*
X131973051Y-57722661D01*
X131973054Y-57722665D01*
X132173606Y-57965090D01*
X132173608Y-57965092D01*
X132402968Y-58180476D01*
X132402978Y-58180484D01*
X132657504Y-58365408D01*
X132657509Y-58365410D01*
X132657516Y-58365416D01*
X132933234Y-58516994D01*
X132933239Y-58516996D01*
X132933241Y-58516997D01*
X132933242Y-58516998D01*
X133225771Y-58632818D01*
X133225774Y-58632819D01*
X133530523Y-58711065D01*
X133530527Y-58711066D01*
X133596010Y-58719338D01*
X133842670Y-58750499D01*
X133842679Y-58750499D01*
X133842682Y-58750500D01*
X133842684Y-58750500D01*
X134157316Y-58750500D01*
X134157318Y-58750500D01*
X134157321Y-58750499D01*
X134157329Y-58750499D01*
X134343593Y-58726968D01*
X134469473Y-58711066D01*
X134774225Y-58632819D01*
X134774228Y-58632818D01*
X135066757Y-58516998D01*
X135066758Y-58516997D01*
X135066756Y-58516997D01*
X135066766Y-58516994D01*
X135342484Y-58365416D01*
X135597030Y-58180478D01*
X135826390Y-57965094D01*
X136026947Y-57722663D01*
X136195537Y-57457007D01*
X136329503Y-57172315D01*
X136426731Y-56873079D01*
X136485688Y-56564015D01*
X136485689Y-56564004D01*
X136505444Y-56250005D01*
X136505444Y-56249994D01*
X136485689Y-55935995D01*
X136485688Y-55935988D01*
X136485688Y-55935985D01*
X136426731Y-55626921D01*
X136329503Y-55327685D01*
X136321016Y-55309650D01*
X136207613Y-55068656D01*
X136195537Y-55042993D01*
X136108541Y-54905909D01*
X136026948Y-54777338D01*
X136026945Y-54777334D01*
X135826393Y-54534909D01*
X135826391Y-54534907D01*
X135597031Y-54319523D01*
X135597021Y-54319515D01*
X135342495Y-54134591D01*
X135342488Y-54134586D01*
X135342484Y-54134584D01*
X135066766Y-53983006D01*
X135066763Y-53983004D01*
X135066758Y-53983002D01*
X135066757Y-53983001D01*
X134774228Y-53867181D01*
X134774225Y-53867180D01*
X134469476Y-53788934D01*
X134469463Y-53788932D01*
X134157329Y-53749500D01*
X134157318Y-53749500D01*
X133887281Y-53749500D01*
X133820242Y-53729815D01*
X133774487Y-53677011D01*
X133764543Y-53607853D01*
X133793568Y-53544297D01*
X133799600Y-53537819D01*
X134012591Y-53324829D01*
X134777139Y-52560282D01*
X134822288Y-52492712D01*
X134833397Y-52476087D01*
X134833397Y-52476086D01*
X134873341Y-52416305D01*
X134886632Y-52396414D01*
X134938184Y-52271956D01*
X134962051Y-52214336D01*
X135000500Y-52021041D01*
X135000500Y-51823960D01*
X135000500Y-51026757D01*
X135020185Y-50959718D01*
X135064762Y-50918095D01*
X135066761Y-50916995D01*
X135066766Y-50916994D01*
X135342484Y-50765416D01*
X135597030Y-50580478D01*
X135826390Y-50365094D01*
X136026947Y-50122663D01*
X136195537Y-49857007D01*
X136329503Y-49572315D01*
X136426731Y-49273079D01*
X136485688Y-48964015D01*
X136486408Y-48952569D01*
X136505444Y-48650005D01*
X136505444Y-48649994D01*
X136485689Y-48335995D01*
X136485688Y-48335988D01*
X136485688Y-48335985D01*
X136426731Y-48026921D01*
X136329503Y-47727685D01*
X136305892Y-47677510D01*
X136238509Y-47534313D01*
X136195537Y-47442993D01*
X136056878Y-47224501D01*
X136026948Y-47177338D01*
X136026945Y-47177334D01*
X135826393Y-46934909D01*
X135826391Y-46934907D01*
X135789228Y-46900008D01*
X135597030Y-46719522D01*
X135597027Y-46719520D01*
X135597021Y-46719515D01*
X135342495Y-46534591D01*
X135342488Y-46534586D01*
X135342484Y-46534584D01*
X135066766Y-46383006D01*
X135066763Y-46383004D01*
X135066758Y-46383002D01*
X135066757Y-46383001D01*
X134774228Y-46267181D01*
X134774225Y-46267180D01*
X134469476Y-46188934D01*
X134469463Y-46188932D01*
X134157329Y-46149500D01*
X134157318Y-46149500D01*
X133842682Y-46149500D01*
X133842670Y-46149500D01*
X133530536Y-46188932D01*
X133530523Y-46188934D01*
X133225774Y-46267180D01*
X133225771Y-46267181D01*
X132933242Y-46383001D01*
X132933241Y-46383002D01*
X132657516Y-46534584D01*
X132657504Y-46534591D01*
X132402978Y-46719515D01*
X132402968Y-46719523D01*
X132173608Y-46934907D01*
X132173606Y-46934909D01*
X131973054Y-47177334D01*
X131973051Y-47177338D01*
X131804464Y-47442990D01*
X131804461Y-47442996D01*
X131670499Y-47727678D01*
X131670497Y-47727683D01*
X131573270Y-48026916D01*
X131514311Y-48335988D01*
X131514310Y-48335995D01*
X131494556Y-48649994D01*
X131494556Y-48650005D01*
X131514310Y-48964004D01*
X131514311Y-48964011D01*
X131530774Y-49050311D01*
X131569222Y-49251866D01*
X131573270Y-49273083D01*
X131670497Y-49572316D01*
X131670499Y-49572321D01*
X131804461Y-49857003D01*
X131804464Y-49857009D01*
X131973051Y-50122661D01*
X131973054Y-50122665D01*
X132173606Y-50365090D01*
X132173608Y-50365092D01*
X132173610Y-50365094D01*
X132379723Y-50558647D01*
X132402968Y-50580476D01*
X132402978Y-50580484D01*
X132657504Y-50765408D01*
X132657509Y-50765410D01*
X132657516Y-50765416D01*
X132933234Y-50916994D01*
X132933238Y-50916995D01*
X132935238Y-50918095D01*
X132984502Y-50967641D01*
X132999500Y-51026757D01*
X132999500Y-51456717D01*
X132979815Y-51523756D01*
X132963181Y-51544398D01*
X132594399Y-51913181D01*
X132533076Y-51946666D01*
X132506718Y-51949500D01*
X130574500Y-51949500D01*
X130507461Y-51929815D01*
X130461706Y-51877011D01*
X130450500Y-51825500D01*
X130450500Y-49408308D01*
X130470185Y-49341269D01*
X130486814Y-49320631D01*
X130555581Y-49251865D01*
X130639244Y-49110398D01*
X130685098Y-48952569D01*
X130688000Y-48915694D01*
X130688000Y-48484306D01*
X130685098Y-48447431D01*
X130677610Y-48421659D01*
X130644745Y-48308538D01*
X130639244Y-48289602D01*
X130555581Y-48148135D01*
X130555579Y-48148133D01*
X130555576Y-48148129D01*
X130439370Y-48031923D01*
X130439362Y-48031917D01*
X130297896Y-47948255D01*
X130297893Y-47948254D01*
X130140073Y-47902402D01*
X130140067Y-47902401D01*
X130103201Y-47899500D01*
X130103194Y-47899500D01*
X130090435Y-47899500D01*
X130023396Y-47879815D01*
X130021544Y-47878602D01*
X129923911Y-47813366D01*
X129741839Y-47737950D01*
X129741829Y-47737947D01*
X129548543Y-47699500D01*
X129548541Y-47699500D01*
X129351459Y-47699500D01*
X129351457Y-47699500D01*
X129158170Y-47737947D01*
X129158160Y-47737950D01*
X128984452Y-47809902D01*
X128914983Y-47817371D01*
X128852504Y-47786095D01*
X128816852Y-47726006D01*
X128813000Y-47695341D01*
X128813000Y-47534313D01*
X128812999Y-47534298D01*
X128810819Y-47506600D01*
X128810098Y-47497431D01*
X128798392Y-47457140D01*
X128764245Y-47339606D01*
X128764244Y-47339603D01*
X128764244Y-47339602D01*
X128680581Y-47198135D01*
X128680579Y-47198133D01*
X128680576Y-47198129D01*
X128564370Y-47081923D01*
X128564362Y-47081917D01*
X128486181Y-47035681D01*
X128422898Y-46998256D01*
X128422897Y-46998255D01*
X128422896Y-46998255D01*
X128422893Y-46998254D01*
X128265073Y-46952402D01*
X128265067Y-46952401D01*
X128228201Y-46949500D01*
X128228194Y-46949500D01*
X126921806Y-46949500D01*
X126921798Y-46949500D01*
X126884932Y-46952401D01*
X126884926Y-46952402D01*
X126739767Y-46994576D01*
X126705172Y-46999500D01*
X126324730Y-46999500D01*
X126257691Y-46979815D01*
X126237049Y-46963181D01*
X126118657Y-46844789D01*
X126118656Y-46844788D01*
X125969334Y-46752686D01*
X125802797Y-46697501D01*
X125802795Y-46697500D01*
X125700010Y-46687000D01*
X124699998Y-46687000D01*
X124699980Y-46687001D01*
X124590468Y-46698189D01*
X124590249Y-46696045D01*
X124530756Y-46691579D01*
X124474971Y-46649510D01*
X124450785Y-46583960D01*
X124450500Y-46575551D01*
X124450500Y-36073933D01*
X124470185Y-36006894D01*
X124522989Y-35961139D01*
X124590558Y-35951423D01*
X124590569Y-35951318D01*
X124590991Y-35951361D01*
X124592147Y-35951195D01*
X124595849Y-35951857D01*
X124700019Y-35962499D01*
X124949999Y-35962499D01*
X125450000Y-35962499D01*
X125699972Y-35962499D01*
X125699986Y-35962498D01*
X125802697Y-35952005D01*
X125969119Y-35896858D01*
X125969124Y-35896856D01*
X126118345Y-35804815D01*
X126242315Y-35680845D01*
X126296101Y-35593645D01*
X126348049Y-35546921D01*
X126417011Y-35535698D01*
X126481094Y-35563542D01*
X126489321Y-35571061D01*
X126585938Y-35667678D01*
X126585947Y-35667685D01*
X126727303Y-35751282D01*
X126727306Y-35751283D01*
X126885004Y-35797099D01*
X126885010Y-35797100D01*
X126921850Y-35799999D01*
X126921866Y-35800000D01*
X127325000Y-35800000D01*
X127325000Y-35250000D01*
X126395862Y-35250000D01*
X126328823Y-35230315D01*
X126308181Y-35213681D01*
X126294500Y-35200000D01*
X125450000Y-35200000D01*
X125450000Y-35962499D01*
X124949999Y-35962499D01*
X124950000Y-35962498D01*
X124950000Y-34824000D01*
X124969685Y-34756961D01*
X125022489Y-34711206D01*
X125074000Y-34700000D01*
X126341638Y-34700000D01*
X126408677Y-34719685D01*
X126429319Y-34736319D01*
X126443000Y-34750000D01*
X127325000Y-34750000D01*
X127325000Y-34200000D01*
X126921850Y-34200000D01*
X126885010Y-34202899D01*
X126885004Y-34202900D01*
X126727306Y-34248716D01*
X126727303Y-34248717D01*
X126585947Y-34332314D01*
X126585942Y-34332318D01*
X126527470Y-34390790D01*
X126466146Y-34424274D01*
X126396455Y-34419289D01*
X126340521Y-34377418D01*
X126334250Y-34368204D01*
X126242317Y-34219156D01*
X126148695Y-34125534D01*
X126115210Y-34064211D01*
X126120194Y-33994519D01*
X126148691Y-33950176D01*
X126212051Y-33886816D01*
X126273373Y-33853334D01*
X126299730Y-33850500D01*
X126705172Y-33850500D01*
X126739767Y-33855424D01*
X126884926Y-33897597D01*
X126884929Y-33897597D01*
X126884931Y-33897598D01*
X126921806Y-33900500D01*
X128088000Y-33900500D01*
X128155039Y-33920185D01*
X128200794Y-33972989D01*
X128212000Y-34024500D01*
X128212000Y-34076000D01*
X128192315Y-34143039D01*
X128139511Y-34188794D01*
X128088000Y-34200000D01*
X127825000Y-34200000D01*
X127825000Y-35800000D01*
X128228134Y-35800000D01*
X128228149Y-35799999D01*
X128264989Y-35797100D01*
X128290903Y-35789571D01*
X128360772Y-35789769D01*
X128419443Y-35827710D01*
X128448287Y-35891348D01*
X128449500Y-35908647D01*
X128449500Y-37771955D01*
X128431040Y-37837050D01*
X128412999Y-37866298D01*
X128412996Y-37866305D01*
X128359651Y-38027290D01*
X128349500Y-38126647D01*
X128349500Y-38673337D01*
X128349501Y-38673355D01*
X128359650Y-38772707D01*
X128359651Y-38772710D01*
X128412996Y-38933694D01*
X128413001Y-38933705D01*
X128502029Y-39078040D01*
X128502032Y-39078044D01*
X128621955Y-39197967D01*
X128621959Y-39197970D01*
X128766294Y-39286998D01*
X128766297Y-39286999D01*
X128766303Y-39287003D01*
X128927292Y-39340349D01*
X129026655Y-39350500D01*
X129105610Y-39350499D01*
X129153065Y-39359938D01*
X129158165Y-39362051D01*
X129158167Y-39362051D01*
X129158169Y-39362052D01*
X129351456Y-39400500D01*
X132600365Y-39400500D01*
X132667404Y-39420185D01*
X132713159Y-39472989D01*
X132723103Y-39542147D01*
X132694078Y-39605703D01*
X132660101Y-39633163D01*
X132657516Y-39634583D01*
X132657504Y-39634591D01*
X132402978Y-39819515D01*
X132402968Y-39819523D01*
X132173608Y-40034907D01*
X132173606Y-40034909D01*
X131973054Y-40277334D01*
X131973051Y-40277338D01*
X131804464Y-40542990D01*
X131790368Y-40572945D01*
X131764321Y-40628297D01*
X131717968Y-40680574D01*
X131652124Y-40699500D01*
X129351457Y-40699500D01*
X129158167Y-40737948D01*
X129158165Y-40737948D01*
X129153056Y-40740065D01*
X129105614Y-40749500D01*
X129026663Y-40749500D01*
X129026644Y-40749501D01*
X128927292Y-40759650D01*
X128927289Y-40759651D01*
X128766305Y-40812996D01*
X128766294Y-40813001D01*
X128621959Y-40902029D01*
X128621955Y-40902032D01*
X128502032Y-41021955D01*
X128502029Y-41021959D01*
X128413001Y-41166294D01*
X128412996Y-41166305D01*
X128359651Y-41327290D01*
X128349500Y-41426647D01*
X128349500Y-41973337D01*
X128349501Y-41973355D01*
X128359650Y-42072707D01*
X128359651Y-42072710D01*
X128412996Y-42233694D01*
X128413001Y-42233705D01*
X128502029Y-42378040D01*
X128502032Y-42378044D01*
X128621955Y-42497967D01*
X128621959Y-42497970D01*
X128766294Y-42586998D01*
X128766297Y-42586999D01*
X128766303Y-42587003D01*
X128927292Y-42640349D01*
X129026655Y-42650500D01*
X129105610Y-42650499D01*
X129153065Y-42659938D01*
X129158165Y-42662051D01*
X129158167Y-42662051D01*
X129158169Y-42662052D01*
X129351456Y-42700500D01*
X129351459Y-42700500D01*
X131605067Y-42700500D01*
X131672106Y-42720185D01*
X131717265Y-42771703D01*
X131804461Y-42957003D01*
X131804464Y-42957009D01*
X131973051Y-43222661D01*
X131973054Y-43222665D01*
X132173606Y-43465090D01*
X132173608Y-43465092D01*
X132402968Y-43680476D01*
X132402978Y-43680484D01*
X132657504Y-43865408D01*
X132657509Y-43865410D01*
X132657516Y-43865416D01*
X132933234Y-44016994D01*
X132933239Y-44016996D01*
X132933241Y-44016997D01*
X132933242Y-44016998D01*
X133225771Y-44132818D01*
X133225774Y-44132819D01*
X133508849Y-44205500D01*
X133530527Y-44211066D01*
X133596010Y-44219338D01*
X133842670Y-44250499D01*
X133842679Y-44250499D01*
X133842682Y-44250500D01*
X133842684Y-44250500D01*
X134157316Y-44250500D01*
X134157318Y-44250500D01*
X134157321Y-44250499D01*
X134157329Y-44250499D01*
X134343593Y-44226968D01*
X134469473Y-44211066D01*
X134774225Y-44132819D01*
X134774228Y-44132818D01*
X135066757Y-44016998D01*
X135066758Y-44016997D01*
X135066756Y-44016997D01*
X135066766Y-44016994D01*
X135342484Y-43865416D01*
X135597030Y-43680478D01*
X135826390Y-43465094D01*
X136026947Y-43222663D01*
X136195537Y-42957007D01*
X136329503Y-42672315D01*
X136426731Y-42373079D01*
X136485688Y-42064015D01*
X136486431Y-42052203D01*
X136505444Y-41750005D01*
X136505444Y-41749994D01*
X136485689Y-41435995D01*
X136485688Y-41435988D01*
X136485688Y-41435985D01*
X136426731Y-41126921D01*
X136329503Y-40827685D01*
X136322591Y-40812997D01*
X136244258Y-40646531D01*
X136195537Y-40542993D01*
X136108541Y-40405909D01*
X136026948Y-40277338D01*
X136026945Y-40277334D01*
X135826393Y-40034909D01*
X135826391Y-40034907D01*
X135614944Y-39836344D01*
X135597030Y-39819522D01*
X135597027Y-39819520D01*
X135597021Y-39819515D01*
X135342495Y-39634591D01*
X135342488Y-39634586D01*
X135342484Y-39634584D01*
X135066766Y-39483006D01*
X135066763Y-39483004D01*
X135066758Y-39483002D01*
X135066757Y-39483001D01*
X134774228Y-39367181D01*
X134774225Y-39367180D01*
X134469476Y-39288934D01*
X134469463Y-39288932D01*
X134157329Y-39249500D01*
X134157318Y-39249500D01*
X133842682Y-39249500D01*
X133842670Y-39249500D01*
X133530536Y-39288932D01*
X133530534Y-39288932D01*
X133523872Y-39290642D01*
X133509351Y-39294370D01*
X133439525Y-39291976D01*
X133382076Y-39252209D01*
X133355246Y-39187696D01*
X133367555Y-39118919D01*
X133390836Y-39086585D01*
X133399381Y-39078040D01*
X133439639Y-39037782D01*
X133439639Y-39037780D01*
X133449843Y-39027577D01*
X133449846Y-39027572D01*
X134350773Y-38126647D01*
X134534765Y-37942656D01*
X134596088Y-37909171D01*
X134665780Y-37914155D01*
X134721713Y-37956027D01*
X134746022Y-38020096D01*
X134749076Y-38056948D01*
X134749500Y-38067189D01*
X134749500Y-38118096D01*
X134758514Y-38175005D01*
X134759615Y-38184147D01*
X134763462Y-38230572D01*
X134764892Y-38247824D01*
X134777270Y-38296703D01*
X134779537Y-38307743D01*
X134786447Y-38351369D01*
X134806332Y-38412569D01*
X134808606Y-38420446D01*
X134825935Y-38488874D01*
X134825939Y-38488887D01*
X134843487Y-38528892D01*
X134847862Y-38540384D01*
X134859430Y-38575989D01*
X134859432Y-38575992D01*
X134891696Y-38639314D01*
X134894767Y-38645798D01*
X134925826Y-38716606D01*
X134925829Y-38716610D01*
X134946038Y-38747542D01*
X134952711Y-38759062D01*
X134959663Y-38772707D01*
X134966658Y-38786434D01*
X134966664Y-38786443D01*
X135012379Y-38849365D01*
X135015870Y-38854429D01*
X135061834Y-38924782D01*
X135061836Y-38924785D01*
X135082309Y-38947025D01*
X135091395Y-38958119D01*
X135105481Y-38977508D01*
X135165216Y-39037243D01*
X135168764Y-39040941D01*
X135210783Y-39086585D01*
X135230256Y-39107738D01*
X135244621Y-39118919D01*
X135248791Y-39122164D01*
X135260310Y-39132337D01*
X135272490Y-39144517D01*
X135331921Y-39187696D01*
X135346263Y-39198116D01*
X135349527Y-39200570D01*
X135426491Y-39260474D01*
X135441214Y-39268442D01*
X135455079Y-39277176D01*
X135463567Y-39283343D01*
X135550825Y-39327803D01*
X135553503Y-39329209D01*
X135645190Y-39378828D01*
X135654643Y-39382073D01*
X135670673Y-39388869D01*
X135674008Y-39390568D01*
X135674013Y-39390569D01*
X135674014Y-39390570D01*
X135773517Y-39422900D01*
X135775381Y-39423522D01*
X135880386Y-39459571D01*
X135881166Y-39459701D01*
X135883583Y-39460105D01*
X135893842Y-39462612D01*
X135893890Y-39462415D01*
X135898623Y-39463550D01*
X135898632Y-39463553D01*
X135958212Y-39472989D01*
X136008639Y-39480976D01*
X136009562Y-39481125D01*
X136125665Y-39500500D01*
X136131908Y-39500500D01*
X142077111Y-39500500D01*
X142144150Y-39520185D01*
X142164792Y-39536819D01*
X143213181Y-40585208D01*
X143246666Y-40646531D01*
X143249500Y-40672889D01*
X143249500Y-46818097D01*
X143286446Y-47051368D01*
X143359433Y-47275996D01*
X143451731Y-47457140D01*
X143466657Y-47486434D01*
X143589612Y-47655666D01*
X143605484Y-47677511D01*
X144177660Y-48249687D01*
X144211145Y-48311010D01*
X144213734Y-48345154D01*
X144194556Y-48649994D01*
X144194556Y-48650005D01*
X144213734Y-48954844D01*
X144198298Y-49022987D01*
X144177660Y-49050311D01*
X143555485Y-49672486D01*
X143555484Y-49672488D01*
X143416657Y-49863565D01*
X143309433Y-50074003D01*
X143236446Y-50298631D01*
X143199500Y-50531902D01*
X143199500Y-61318097D01*
X143236446Y-61551368D01*
X143309433Y-61775996D01*
X143416657Y-61986434D01*
X143555484Y-62177511D01*
X144187660Y-62809687D01*
X144221145Y-62871010D01*
X144223734Y-62905154D01*
X144204556Y-63209994D01*
X144204556Y-63210005D01*
X144223734Y-63514844D01*
X144208298Y-63582987D01*
X144187660Y-63610311D01*
X143565485Y-64232486D01*
X143565484Y-64232488D01*
X143426655Y-64423567D01*
X143333962Y-64605492D01*
X143333961Y-64605494D01*
X143319434Y-64634002D01*
X143319433Y-64634006D01*
X143246446Y-64858631D01*
X143209500Y-65091902D01*
X143209500Y-76028097D01*
X143246446Y-76261368D01*
X143319433Y-76485996D01*
X143426657Y-76696434D01*
X143565484Y-76887511D01*
X144187660Y-77509687D01*
X144221145Y-77571010D01*
X144223734Y-77605154D01*
X144204556Y-77909994D01*
X144204556Y-77910005D01*
X144224310Y-78224004D01*
X144224311Y-78224011D01*
X144242697Y-78320393D01*
X144281361Y-78523079D01*
X144283270Y-78533083D01*
X144380497Y-78832316D01*
X144380499Y-78832321D01*
X144514461Y-79117003D01*
X144514464Y-79117009D01*
X144683051Y-79382661D01*
X144683054Y-79382665D01*
X144883606Y-79625090D01*
X144883608Y-79625092D01*
X144883610Y-79625094D01*
X145044675Y-79776344D01*
X145112968Y-79840476D01*
X145112978Y-79840484D01*
X145367504Y-80025408D01*
X145367509Y-80025410D01*
X145367516Y-80025416D01*
X145643234Y-80176994D01*
X145643239Y-80176996D01*
X145643241Y-80176997D01*
X145643242Y-80176998D01*
X145935771Y-80292818D01*
X145935774Y-80292819D01*
X146230175Y-80368408D01*
X146240527Y-80371066D01*
X146306010Y-80379338D01*
X146552670Y-80410499D01*
X146552679Y-80410499D01*
X146552682Y-80410500D01*
X146552684Y-80410500D01*
X146867316Y-80410500D01*
X146867318Y-80410500D01*
X146867321Y-80410499D01*
X146867329Y-80410499D01*
X147053593Y-80386968D01*
X147179473Y-80371066D01*
X147484225Y-80292819D01*
X147639812Y-80231218D01*
X147776757Y-80176998D01*
X147776758Y-80176997D01*
X147776756Y-80176997D01*
X147776766Y-80176994D01*
X148052484Y-80025416D01*
X148307030Y-79840478D01*
X148536390Y-79625094D01*
X148736947Y-79382663D01*
X148905537Y-79117007D01*
X149039503Y-78832315D01*
X149136731Y-78533079D01*
X149195688Y-78224015D01*
X149197682Y-78192322D01*
X149215444Y-77910005D01*
X149215444Y-77909994D01*
X149195689Y-77595995D01*
X149195688Y-77595988D01*
X149195688Y-77595985D01*
X149136731Y-77286921D01*
X149039503Y-76987685D01*
X149037730Y-76983918D01*
X148939932Y-76776086D01*
X148905537Y-76702993D01*
X148808193Y-76549603D01*
X148736948Y-76437338D01*
X148736945Y-76437334D01*
X148536393Y-76194909D01*
X148536391Y-76194907D01*
X148498687Y-76159500D01*
X148307030Y-75979522D01*
X148307027Y-75979520D01*
X148307021Y-75979515D01*
X148052495Y-75794591D01*
X148052488Y-75794586D01*
X148052484Y-75794584D01*
X147776766Y-75643006D01*
X147776763Y-75643004D01*
X147776758Y-75643002D01*
X147776757Y-75643001D01*
X147484228Y-75527181D01*
X147484225Y-75527180D01*
X147179476Y-75448934D01*
X147179463Y-75448932D01*
X146867329Y-75409500D01*
X146867318Y-75409500D01*
X146552682Y-75409500D01*
X146552670Y-75409500D01*
X146416598Y-75426690D01*
X146347620Y-75415563D01*
X146313376Y-75391349D01*
X146246819Y-75324792D01*
X146213334Y-75263469D01*
X146210500Y-75237111D01*
X146210500Y-70809994D01*
X146744556Y-70809994D01*
X146744556Y-70810005D01*
X146764310Y-71124004D01*
X146764311Y-71124011D01*
X146787144Y-71243705D01*
X146814677Y-71388040D01*
X146823270Y-71433083D01*
X146920497Y-71732316D01*
X146920499Y-71732321D01*
X147054461Y-72017003D01*
X147054464Y-72017009D01*
X147223051Y-72282661D01*
X147223054Y-72282665D01*
X147423606Y-72525090D01*
X147423608Y-72525092D01*
X147423610Y-72525094D01*
X147630561Y-72719434D01*
X147652968Y-72740476D01*
X147652978Y-72740484D01*
X147907504Y-72925408D01*
X147907509Y-72925410D01*
X147907516Y-72925416D01*
X148183234Y-73076994D01*
X148183239Y-73076996D01*
X148183241Y-73076997D01*
X148183242Y-73076998D01*
X148475771Y-73192818D01*
X148475774Y-73192819D01*
X148719870Y-73255492D01*
X148780527Y-73271066D01*
X148846010Y-73279338D01*
X149092670Y-73310499D01*
X149092679Y-73310499D01*
X149092682Y-73310500D01*
X149092684Y-73310500D01*
X149407316Y-73310500D01*
X149407318Y-73310500D01*
X149407321Y-73310499D01*
X149407329Y-73310499D01*
X149593593Y-73286968D01*
X149719473Y-73271066D01*
X150024225Y-73192819D01*
X150094915Y-73164831D01*
X150316757Y-73076998D01*
X150316758Y-73076997D01*
X150316756Y-73076997D01*
X150316766Y-73076994D01*
X150592484Y-72925416D01*
X150847030Y-72740478D01*
X151076390Y-72525094D01*
X151276947Y-72282663D01*
X151445537Y-72017007D01*
X151452443Y-72002331D01*
X151509207Y-71881703D01*
X151555562Y-71829425D01*
X151621405Y-71810500D01*
X154258560Y-71810500D01*
X154325599Y-71830185D01*
X154371354Y-71882989D01*
X154374742Y-71891167D01*
X154416202Y-72002328D01*
X154416206Y-72002335D01*
X154502452Y-72117544D01*
X154502455Y-72117547D01*
X154617664Y-72203793D01*
X154617671Y-72203797D01*
X154752517Y-72254091D01*
X154752516Y-72254091D01*
X154759444Y-72254835D01*
X154812127Y-72260500D01*
X156607872Y-72260499D01*
X156667483Y-72254091D01*
X156802331Y-72203796D01*
X156917546Y-72117546D01*
X157003796Y-72002331D01*
X157054091Y-71867483D01*
X157060500Y-71807873D01*
X157060499Y-70012128D01*
X157054091Y-69952517D01*
X157029910Y-69887685D01*
X157003797Y-69817671D01*
X157003793Y-69817664D01*
X156917547Y-69702455D01*
X156917544Y-69702452D01*
X156802335Y-69616206D01*
X156802328Y-69616202D01*
X156667482Y-69565908D01*
X156667483Y-69565908D01*
X156607883Y-69559501D01*
X156607881Y-69559500D01*
X156607873Y-69559500D01*
X156607864Y-69559500D01*
X154812129Y-69559500D01*
X154812123Y-69559501D01*
X154752516Y-69565908D01*
X154617671Y-69616202D01*
X154617664Y-69616206D01*
X154502457Y-69702451D01*
X154502451Y-69702457D01*
X154459515Y-69759812D01*
X154403581Y-69801682D01*
X154360249Y-69809500D01*
X151621405Y-69809500D01*
X151554366Y-69789815D01*
X151509207Y-69738297D01*
X151445539Y-69602996D01*
X151445535Y-69602990D01*
X151276948Y-69337338D01*
X151276945Y-69337334D01*
X151076393Y-69094909D01*
X151076391Y-69094907D01*
X151075168Y-69093758D01*
X150847030Y-68879522D01*
X150847027Y-68879520D01*
X150847021Y-68879515D01*
X150592495Y-68694591D01*
X150592488Y-68694586D01*
X150592484Y-68694584D01*
X150316766Y-68543006D01*
X150316763Y-68543004D01*
X150316758Y-68543002D01*
X150316757Y-68543001D01*
X150024228Y-68427181D01*
X150024225Y-68427180D01*
X149719476Y-68348934D01*
X149719463Y-68348932D01*
X149407329Y-68309500D01*
X149407318Y-68309500D01*
X149092682Y-68309500D01*
X149092670Y-68309500D01*
X148780536Y-68348932D01*
X148780523Y-68348934D01*
X148475774Y-68427180D01*
X148475771Y-68427181D01*
X148183242Y-68543001D01*
X148183241Y-68543002D01*
X147907516Y-68694584D01*
X147907504Y-68694591D01*
X147652978Y-68879515D01*
X147652968Y-68879523D01*
X147423608Y-69094907D01*
X147423606Y-69094909D01*
X147223054Y-69337334D01*
X147223051Y-69337338D01*
X147054464Y-69602990D01*
X147054461Y-69602996D01*
X146920499Y-69887678D01*
X146920497Y-69887683D01*
X146823270Y-70186916D01*
X146764311Y-70495988D01*
X146764310Y-70495995D01*
X146744556Y-70809994D01*
X146210500Y-70809994D01*
X146210500Y-65882889D01*
X146230185Y-65815850D01*
X146246814Y-65795211D01*
X146313378Y-65728647D01*
X146374699Y-65695164D01*
X146416595Y-65693308D01*
X146532260Y-65707920D01*
X146552673Y-65710499D01*
X146552676Y-65710499D01*
X146552682Y-65710500D01*
X146552684Y-65710500D01*
X146867316Y-65710500D01*
X146867318Y-65710500D01*
X146867321Y-65710499D01*
X146867329Y-65710499D01*
X147053593Y-65686968D01*
X147179473Y-65671066D01*
X147484225Y-65592819D01*
X147484228Y-65592818D01*
X147776757Y-65476998D01*
X147776758Y-65476997D01*
X147776756Y-65476997D01*
X147776766Y-65476994D01*
X148052484Y-65325416D01*
X148307030Y-65140478D01*
X148536390Y-64925094D01*
X148736947Y-64682663D01*
X148905537Y-64417007D01*
X149039503Y-64132315D01*
X149136731Y-63833079D01*
X149195688Y-63524015D01*
X149196265Y-63514844D01*
X149215444Y-63210005D01*
X149215444Y-63209994D01*
X149195689Y-62895995D01*
X149195688Y-62895988D01*
X149195688Y-62895985D01*
X149136731Y-62586921D01*
X149039503Y-62287685D01*
X148997275Y-62197947D01*
X148977227Y-62155341D01*
X148905537Y-62002993D01*
X148776462Y-61799603D01*
X148736948Y-61737338D01*
X148736945Y-61737334D01*
X148536393Y-61494909D01*
X148536391Y-61494907D01*
X148498687Y-61459500D01*
X148307030Y-61279522D01*
X148307027Y-61279520D01*
X148307021Y-61279515D01*
X148052495Y-61094591D01*
X148052488Y-61094586D01*
X148052484Y-61094584D01*
X147776766Y-60943006D01*
X147776763Y-60943004D01*
X147776758Y-60943002D01*
X147776757Y-60943001D01*
X147484228Y-60827181D01*
X147484225Y-60827180D01*
X147179476Y-60748934D01*
X147179463Y-60748932D01*
X146867329Y-60709500D01*
X146867318Y-60709500D01*
X146552682Y-60709500D01*
X146552670Y-60709500D01*
X146416598Y-60726690D01*
X146347620Y-60715563D01*
X146313376Y-60691349D01*
X146236819Y-60614792D01*
X146203334Y-60553469D01*
X146200500Y-60527111D01*
X146200500Y-56249994D01*
X146734556Y-56249994D01*
X146734556Y-56250005D01*
X146754310Y-56564004D01*
X146754311Y-56564011D01*
X146765508Y-56622707D01*
X146806994Y-56840186D01*
X146813270Y-56873083D01*
X146910497Y-57172316D01*
X146910499Y-57172321D01*
X147044461Y-57457003D01*
X147044464Y-57457009D01*
X147213051Y-57722661D01*
X147213054Y-57722665D01*
X147413606Y-57965090D01*
X147413608Y-57965092D01*
X147642968Y-58180476D01*
X147642978Y-58180484D01*
X147897504Y-58365408D01*
X147897509Y-58365410D01*
X147897516Y-58365416D01*
X148173234Y-58516994D01*
X148173239Y-58516996D01*
X148173241Y-58516997D01*
X148173242Y-58516998D01*
X148465771Y-58632818D01*
X148465774Y-58632819D01*
X148770523Y-58711065D01*
X148770527Y-58711066D01*
X148836010Y-58719338D01*
X149082670Y-58750499D01*
X149082679Y-58750499D01*
X149082682Y-58750500D01*
X149082684Y-58750500D01*
X149397316Y-58750500D01*
X149397318Y-58750500D01*
X149397321Y-58750499D01*
X149397329Y-58750499D01*
X149583593Y-58726968D01*
X149709473Y-58711066D01*
X150014225Y-58632819D01*
X150014228Y-58632818D01*
X150306757Y-58516998D01*
X150306758Y-58516997D01*
X150306756Y-58516997D01*
X150306766Y-58516994D01*
X150582484Y-58365416D01*
X150837030Y-58180478D01*
X151066390Y-57965094D01*
X151266947Y-57722663D01*
X151435537Y-57457007D01*
X151489500Y-57342331D01*
X151499207Y-57321703D01*
X151545562Y-57269425D01*
X151611405Y-57250500D01*
X154285859Y-57250500D01*
X154352898Y-57270185D01*
X154398653Y-57322989D01*
X154402030Y-57331140D01*
X154406204Y-57342331D01*
X154406205Y-57342332D01*
X154406206Y-57342335D01*
X154492452Y-57457544D01*
X154492455Y-57457547D01*
X154607664Y-57543793D01*
X154607671Y-57543797D01*
X154742517Y-57594091D01*
X154742516Y-57594091D01*
X154749444Y-57594835D01*
X154802127Y-57600500D01*
X156597872Y-57600499D01*
X156657483Y-57594091D01*
X156792331Y-57543796D01*
X156907546Y-57457546D01*
X156993796Y-57342331D01*
X157044091Y-57207483D01*
X157050500Y-57147873D01*
X157050499Y-55352128D01*
X157044091Y-55292517D01*
X157043176Y-55290065D01*
X156993797Y-55157671D01*
X156993793Y-55157664D01*
X156907547Y-55042455D01*
X156907544Y-55042452D01*
X156792335Y-54956206D01*
X156792328Y-54956202D01*
X156657482Y-54905908D01*
X156657483Y-54905908D01*
X156597883Y-54899501D01*
X156597881Y-54899500D01*
X156597873Y-54899500D01*
X156597864Y-54899500D01*
X154802129Y-54899500D01*
X154802123Y-54899501D01*
X154742516Y-54905908D01*
X154607671Y-54956202D01*
X154607664Y-54956206D01*
X154492455Y-55042452D01*
X154492452Y-55042455D01*
X154406206Y-55157664D01*
X154406204Y-55157668D01*
X154406204Y-55157669D01*
X154402039Y-55168834D01*
X154360171Y-55224766D01*
X154294707Y-55249184D01*
X154285859Y-55249500D01*
X151611405Y-55249500D01*
X151544366Y-55229815D01*
X151499207Y-55178297D01*
X151435539Y-55042996D01*
X151435535Y-55042990D01*
X151435195Y-55042455D01*
X151348541Y-54905909D01*
X151266948Y-54777338D01*
X151266945Y-54777334D01*
X151066393Y-54534909D01*
X151066391Y-54534907D01*
X150837031Y-54319523D01*
X150837021Y-54319515D01*
X150582495Y-54134591D01*
X150582488Y-54134586D01*
X150582484Y-54134584D01*
X150306766Y-53983006D01*
X150306763Y-53983004D01*
X150306758Y-53983002D01*
X150306757Y-53983001D01*
X150014228Y-53867181D01*
X150014225Y-53867180D01*
X149709476Y-53788934D01*
X149709463Y-53788932D01*
X149397329Y-53749500D01*
X149397318Y-53749500D01*
X149082682Y-53749500D01*
X149082670Y-53749500D01*
X148770536Y-53788932D01*
X148770523Y-53788934D01*
X148465774Y-53867180D01*
X148465771Y-53867181D01*
X148173242Y-53983001D01*
X148173241Y-53983002D01*
X147897516Y-54134584D01*
X147897504Y-54134591D01*
X147642978Y-54319515D01*
X147642968Y-54319523D01*
X147413608Y-54534907D01*
X147413606Y-54534909D01*
X147213054Y-54777334D01*
X147213051Y-54777338D01*
X147044464Y-55042990D01*
X147044461Y-55042996D01*
X146910499Y-55327678D01*
X146910497Y-55327683D01*
X146813270Y-55626916D01*
X146754311Y-55935988D01*
X146754310Y-55935995D01*
X146734556Y-56249994D01*
X146200500Y-56249994D01*
X146200500Y-51322889D01*
X146220185Y-51255850D01*
X146236814Y-51235211D01*
X146303378Y-51168647D01*
X146364699Y-51135164D01*
X146406595Y-51133308D01*
X146510489Y-51146433D01*
X146542673Y-51150499D01*
X146542676Y-51150499D01*
X146542682Y-51150500D01*
X146542684Y-51150500D01*
X146857316Y-51150500D01*
X146857318Y-51150500D01*
X146857321Y-51150499D01*
X146857329Y-51150499D01*
X147043593Y-51126968D01*
X147169473Y-51111066D01*
X147474225Y-51032819D01*
X147611632Y-50978416D01*
X147766757Y-50916998D01*
X147766758Y-50916997D01*
X147766756Y-50916997D01*
X147766766Y-50916994D01*
X148042484Y-50765416D01*
X148297030Y-50580478D01*
X148526390Y-50365094D01*
X148726947Y-50122663D01*
X148895537Y-49857007D01*
X149029503Y-49572315D01*
X149126731Y-49273079D01*
X149185688Y-48964015D01*
X149186408Y-48952569D01*
X149205444Y-48650005D01*
X149205444Y-48649994D01*
X149185689Y-48335995D01*
X149185688Y-48335988D01*
X149185688Y-48335985D01*
X149126731Y-48026921D01*
X149029503Y-47727685D01*
X149005892Y-47677510D01*
X148938509Y-47534313D01*
X148895537Y-47442993D01*
X148756878Y-47224501D01*
X148726948Y-47177338D01*
X148726945Y-47177334D01*
X148526393Y-46934909D01*
X148526391Y-46934907D01*
X148489228Y-46900008D01*
X148297030Y-46719522D01*
X148297027Y-46719520D01*
X148297021Y-46719515D01*
X148042495Y-46534591D01*
X148042488Y-46534586D01*
X148042484Y-46534584D01*
X147766766Y-46383006D01*
X147766763Y-46383004D01*
X147766758Y-46383002D01*
X147766757Y-46383001D01*
X147474228Y-46267181D01*
X147474225Y-46267180D01*
X147169476Y-46188934D01*
X147169463Y-46188932D01*
X146857329Y-46149500D01*
X146857318Y-46149500D01*
X146542682Y-46149500D01*
X146542670Y-46149500D01*
X146406598Y-46166690D01*
X146337620Y-46155563D01*
X146303376Y-46131349D01*
X146286819Y-46114792D01*
X146253334Y-46053469D01*
X146250500Y-46027111D01*
X146250500Y-41749994D01*
X146734556Y-41749994D01*
X146734556Y-41750005D01*
X146754310Y-42064004D01*
X146754311Y-42064011D01*
X146813270Y-42373083D01*
X146910497Y-42672316D01*
X146910499Y-42672321D01*
X147044461Y-42957003D01*
X147044464Y-42957009D01*
X147213051Y-43222661D01*
X147213054Y-43222665D01*
X147413606Y-43465090D01*
X147413608Y-43465092D01*
X147642968Y-43680476D01*
X147642978Y-43680484D01*
X147897504Y-43865408D01*
X147897509Y-43865410D01*
X147897516Y-43865416D01*
X148173234Y-44016994D01*
X148173239Y-44016996D01*
X148173241Y-44016997D01*
X148173242Y-44016998D01*
X148465771Y-44132818D01*
X148465774Y-44132819D01*
X148748849Y-44205500D01*
X148770527Y-44211066D01*
X148836010Y-44219338D01*
X149082670Y-44250499D01*
X149082679Y-44250499D01*
X149082682Y-44250500D01*
X149082684Y-44250500D01*
X149397316Y-44250500D01*
X149397318Y-44250500D01*
X149397321Y-44250499D01*
X149397329Y-44250499D01*
X149583593Y-44226968D01*
X149709473Y-44211066D01*
X150014225Y-44132819D01*
X150014228Y-44132818D01*
X150306757Y-44016998D01*
X150306758Y-44016997D01*
X150306756Y-44016997D01*
X150306766Y-44016994D01*
X150582484Y-43865416D01*
X150837030Y-43680478D01*
X151066390Y-43465094D01*
X151266947Y-43222663D01*
X151435537Y-42957007D01*
X151489500Y-42842331D01*
X151499207Y-42821703D01*
X151545562Y-42769425D01*
X151611405Y-42750500D01*
X154485859Y-42750500D01*
X154552898Y-42770185D01*
X154598653Y-42822989D01*
X154602030Y-42831140D01*
X154606204Y-42842331D01*
X154606205Y-42842332D01*
X154606206Y-42842335D01*
X154692452Y-42957544D01*
X154692455Y-42957547D01*
X154807664Y-43043793D01*
X154807671Y-43043797D01*
X154942517Y-43094091D01*
X154942516Y-43094091D01*
X154949444Y-43094835D01*
X155002127Y-43100500D01*
X156797872Y-43100499D01*
X156857483Y-43094091D01*
X156992331Y-43043796D01*
X157107546Y-42957546D01*
X157193796Y-42842331D01*
X157244091Y-42707483D01*
X157250500Y-42647873D01*
X157250499Y-40852128D01*
X157244091Y-40792517D01*
X157231832Y-40759650D01*
X157193797Y-40657671D01*
X157193793Y-40657664D01*
X157107547Y-40542455D01*
X157107544Y-40542452D01*
X156992335Y-40456206D01*
X156992328Y-40456202D01*
X156857482Y-40405908D01*
X156857483Y-40405908D01*
X156797883Y-40399501D01*
X156797881Y-40399500D01*
X156797873Y-40399500D01*
X156797864Y-40399500D01*
X155002129Y-40399500D01*
X155002123Y-40399501D01*
X154942516Y-40405908D01*
X154807671Y-40456202D01*
X154807664Y-40456206D01*
X154692455Y-40542452D01*
X154692452Y-40542455D01*
X154606206Y-40657664D01*
X154606204Y-40657668D01*
X154606204Y-40657669D01*
X154602039Y-40668834D01*
X154560171Y-40724766D01*
X154494707Y-40749184D01*
X154485859Y-40749500D01*
X151611405Y-40749500D01*
X151544366Y-40729815D01*
X151499207Y-40678297D01*
X151435539Y-40542996D01*
X151435535Y-40542990D01*
X151435195Y-40542455D01*
X151348541Y-40405909D01*
X151266948Y-40277338D01*
X151266945Y-40277334D01*
X151066393Y-40034909D01*
X151066391Y-40034907D01*
X150854944Y-39836344D01*
X150837030Y-39819522D01*
X150837027Y-39819520D01*
X150837021Y-39819515D01*
X150582495Y-39634591D01*
X150582488Y-39634586D01*
X150582484Y-39634584D01*
X150306766Y-39483006D01*
X150306763Y-39483004D01*
X150306758Y-39483002D01*
X150306757Y-39483001D01*
X150014228Y-39367181D01*
X150014225Y-39367180D01*
X149709476Y-39288934D01*
X149709463Y-39288932D01*
X149397329Y-39249500D01*
X149397318Y-39249500D01*
X149082682Y-39249500D01*
X149082670Y-39249500D01*
X148770536Y-39288932D01*
X148770523Y-39288934D01*
X148465774Y-39367180D01*
X148465771Y-39367181D01*
X148173242Y-39483001D01*
X148173241Y-39483002D01*
X147897516Y-39634584D01*
X147897504Y-39634591D01*
X147642978Y-39819515D01*
X147642968Y-39819523D01*
X147413608Y-40034907D01*
X147413606Y-40034909D01*
X147213054Y-40277334D01*
X147213051Y-40277338D01*
X147044464Y-40542990D01*
X147044461Y-40542996D01*
X146910499Y-40827678D01*
X146910497Y-40827683D01*
X146813270Y-41126916D01*
X146754311Y-41435988D01*
X146754310Y-41435995D01*
X146734556Y-41749994D01*
X146250500Y-41749994D01*
X146250500Y-39881902D01*
X146216963Y-39670165D01*
X146213553Y-39648632D01*
X146208991Y-39634591D01*
X146204310Y-39620185D01*
X146140569Y-39424010D01*
X146128590Y-39400500D01*
X146033343Y-39213566D01*
X145894517Y-39022490D01*
X144959707Y-38087680D01*
X144926222Y-38026357D01*
X144931206Y-37956665D01*
X144959703Y-37912323D01*
X146214594Y-36657431D01*
X146275915Y-36623948D01*
X146317811Y-36622092D01*
X146476716Y-36642166D01*
X146542672Y-36650499D01*
X146542678Y-36650499D01*
X146542682Y-36650500D01*
X146542684Y-36650500D01*
X146857316Y-36650500D01*
X146857318Y-36650500D01*
X146857321Y-36650499D01*
X146857329Y-36650499D01*
X147043593Y-36626968D01*
X147169473Y-36611066D01*
X147474225Y-36532819D01*
X147474228Y-36532818D01*
X147766757Y-36416998D01*
X147766758Y-36416997D01*
X147766756Y-36416997D01*
X147766766Y-36416994D01*
X148042484Y-36265416D01*
X148297030Y-36080478D01*
X148526390Y-35865094D01*
X148726947Y-35622663D01*
X148895537Y-35357007D01*
X149029503Y-35072315D01*
X149126731Y-34773079D01*
X149185688Y-34464015D01*
X149187897Y-34428907D01*
X149205444Y-34150005D01*
X149205444Y-34149994D01*
X149185689Y-33835995D01*
X149185688Y-33835988D01*
X149185688Y-33835985D01*
X149126731Y-33526921D01*
X149029503Y-33227685D01*
X149001121Y-33167371D01*
X148895538Y-32942996D01*
X148895537Y-32942993D01*
X148834892Y-32847431D01*
X148726948Y-32677338D01*
X148726945Y-32677334D01*
X148526393Y-32434909D01*
X148526391Y-32434907D01*
X148389285Y-32306155D01*
X148297030Y-32219522D01*
X148297027Y-32219520D01*
X148297021Y-32219515D01*
X148042495Y-32034591D01*
X148042488Y-32034586D01*
X148042484Y-32034584D01*
X147766766Y-31883006D01*
X147766763Y-31883004D01*
X147766758Y-31883002D01*
X147766757Y-31883001D01*
X147474228Y-31767181D01*
X147474225Y-31767180D01*
X147169476Y-31688934D01*
X147169463Y-31688932D01*
X146857329Y-31649500D01*
X146857318Y-31649500D01*
X146542682Y-31649500D01*
X146542670Y-31649500D01*
X146230536Y-31688932D01*
X146230523Y-31688934D01*
X145925774Y-31767180D01*
X145925771Y-31767181D01*
X145633242Y-31883001D01*
X145633241Y-31883002D01*
X145357516Y-32034584D01*
X145357504Y-32034591D01*
X145102978Y-32219515D01*
X145102968Y-32219523D01*
X144873608Y-32434907D01*
X144873606Y-32434909D01*
X144673054Y-32677334D01*
X144673051Y-32677338D01*
X144504464Y-32942990D01*
X144504461Y-32942996D01*
X144370499Y-33227678D01*
X144370497Y-33227683D01*
X144273270Y-33526916D01*
X144214311Y-33835988D01*
X144214310Y-33835995D01*
X144194556Y-34149994D01*
X144194556Y-34150005D01*
X144207815Y-34360763D01*
X144192379Y-34428907D01*
X144171741Y-34456230D01*
X142164792Y-36463181D01*
X142103469Y-36496666D01*
X142077111Y-36499500D01*
X136125664Y-36499500D01*
X136009571Y-36518871D01*
X136008562Y-36519035D01*
X135898633Y-36536446D01*
X135893893Y-36537584D01*
X135893846Y-36537388D01*
X135883599Y-36539892D01*
X135880388Y-36540428D01*
X135775443Y-36576454D01*
X135773503Y-36577102D01*
X135674005Y-36609432D01*
X135673997Y-36609436D01*
X135670652Y-36611140D01*
X135654662Y-36617918D01*
X135645197Y-36621168D01*
X135645194Y-36621170D01*
X135645190Y-36621171D01*
X135645190Y-36621172D01*
X135627268Y-36630870D01*
X135553525Y-36670777D01*
X135550806Y-36672205D01*
X135463563Y-36716659D01*
X135463557Y-36716662D01*
X135455072Y-36722827D01*
X135441222Y-36731553D01*
X135426492Y-36739525D01*
X135426485Y-36739530D01*
X135349547Y-36799411D01*
X135346275Y-36801872D01*
X135272491Y-36855482D01*
X135260297Y-36867674D01*
X135248792Y-36877833D01*
X135230259Y-36892258D01*
X135230255Y-36892262D01*
X135215727Y-36908044D01*
X135155839Y-36944032D01*
X135086001Y-36941930D01*
X135028386Y-36902404D01*
X135001287Y-36838004D01*
X135000500Y-36824058D01*
X135000500Y-36526757D01*
X135020185Y-36459718D01*
X135064762Y-36418095D01*
X135066761Y-36416995D01*
X135066766Y-36416994D01*
X135342484Y-36265416D01*
X135597030Y-36080478D01*
X135826390Y-35865094D01*
X136026947Y-35622663D01*
X136195537Y-35357007D01*
X136329503Y-35072315D01*
X136426731Y-34773079D01*
X136485688Y-34464015D01*
X136487897Y-34428907D01*
X136505444Y-34150005D01*
X136505444Y-34149994D01*
X136485689Y-33835995D01*
X136485688Y-33835988D01*
X136485688Y-33835985D01*
X136426731Y-33526921D01*
X136329503Y-33227685D01*
X136301121Y-33167371D01*
X136195538Y-32942996D01*
X136195537Y-32942993D01*
X136134892Y-32847431D01*
X136026948Y-32677338D01*
X136026945Y-32677334D01*
X135826393Y-32434909D01*
X135826391Y-32434907D01*
X135689285Y-32306155D01*
X135597030Y-32219522D01*
X135597027Y-32219520D01*
X135597021Y-32219515D01*
X135342495Y-32034591D01*
X135342488Y-32034586D01*
X135342484Y-32034584D01*
X135066766Y-31883006D01*
X135066763Y-31883004D01*
X135066758Y-31883002D01*
X135066757Y-31883001D01*
X134774228Y-31767181D01*
X134774225Y-31767180D01*
X134469476Y-31688934D01*
X134469463Y-31688932D01*
X134157329Y-31649500D01*
X134157318Y-31649500D01*
X133842682Y-31649500D01*
X133842670Y-31649500D01*
X133530536Y-31688932D01*
X133530523Y-31688934D01*
X133225774Y-31767180D01*
X133225771Y-31767181D01*
X132933242Y-31883001D01*
X132933241Y-31883002D01*
X132657516Y-32034584D01*
X132657504Y-32034591D01*
X132402978Y-32219515D01*
X132402968Y-32219523D01*
X132173608Y-32434907D01*
X132173606Y-32434909D01*
X131973054Y-32677334D01*
X131973051Y-32677338D01*
X131804464Y-32942990D01*
X131804461Y-32942996D01*
X131670499Y-33227678D01*
X131670497Y-33227683D01*
X131573270Y-33526916D01*
X131514311Y-33835988D01*
X131514310Y-33835995D01*
X131494556Y-34149994D01*
X131494556Y-34150005D01*
X131514310Y-34464004D01*
X131514311Y-34464011D01*
X131514312Y-34464015D01*
X131570451Y-34758308D01*
X131573270Y-34773083D01*
X131670497Y-35072316D01*
X131670499Y-35072321D01*
X131804461Y-35357003D01*
X131804464Y-35357009D01*
X131973051Y-35622661D01*
X131973054Y-35622665D01*
X132173606Y-35865090D01*
X132173608Y-35865092D01*
X132173610Y-35865094D01*
X132277336Y-35962499D01*
X132402968Y-36080476D01*
X132402978Y-36080484D01*
X132657504Y-36265408D01*
X132657509Y-36265410D01*
X132657516Y-36265416D01*
X132933234Y-36416994D01*
X132933238Y-36416995D01*
X132935238Y-36418095D01*
X132984502Y-36467641D01*
X132999500Y-36526757D01*
X132999500Y-36596717D01*
X132979815Y-36663756D01*
X132963181Y-36684398D01*
X132284399Y-37363181D01*
X132223076Y-37396666D01*
X132196718Y-37399500D01*
X130574500Y-37399500D01*
X130507461Y-37379815D01*
X130461706Y-37327011D01*
X130450500Y-37275500D01*
X130450500Y-34758308D01*
X130470185Y-34691269D01*
X130486814Y-34670631D01*
X130555581Y-34601865D01*
X130639244Y-34460398D01*
X130685098Y-34302569D01*
X130688000Y-34265694D01*
X130688000Y-33834306D01*
X130685098Y-33797431D01*
X130639244Y-33639602D01*
X130555581Y-33498135D01*
X130555579Y-33498133D01*
X130555576Y-33498129D01*
X130439370Y-33381923D01*
X130439362Y-33381917D01*
X130297896Y-33298255D01*
X130297893Y-33298254D01*
X130140073Y-33252402D01*
X130140067Y-33252401D01*
X130103201Y-33249500D01*
X130103194Y-33249500D01*
X130090435Y-33249500D01*
X130023396Y-33229815D01*
X130021544Y-33228602D01*
X129923911Y-33163366D01*
X129741839Y-33087950D01*
X129741829Y-33087947D01*
X129548543Y-33049500D01*
X129548541Y-33049500D01*
X129351459Y-33049500D01*
X129351457Y-33049500D01*
X129158170Y-33087947D01*
X129158160Y-33087950D01*
X128984452Y-33159902D01*
X128914983Y-33167371D01*
X128852504Y-33136095D01*
X128816852Y-33076006D01*
X128813000Y-33045341D01*
X128813000Y-32884313D01*
X128812999Y-32884298D01*
X128810098Y-32847432D01*
X128810097Y-32847426D01*
X128764245Y-32689606D01*
X128764244Y-32689603D01*
X128764244Y-32689602D01*
X128680581Y-32548135D01*
X128680579Y-32548133D01*
X128680576Y-32548129D01*
X128564370Y-32431923D01*
X128564362Y-32431917D01*
X128422896Y-32348255D01*
X128422893Y-32348254D01*
X128265073Y-32302402D01*
X128265067Y-32302401D01*
X128228201Y-32299500D01*
X128228194Y-32299500D01*
X126921806Y-32299500D01*
X126921798Y-32299500D01*
X126884932Y-32302401D01*
X126884926Y-32302402D01*
X126739767Y-32344576D01*
X126705172Y-32349500D01*
X126249730Y-32349500D01*
X126182691Y-32329815D01*
X126162049Y-32313181D01*
X126118657Y-32269789D01*
X126118656Y-32269788D01*
X126009402Y-32202400D01*
X125962679Y-32150453D01*
X125950500Y-32096862D01*
X125950500Y-31499972D01*
X125957458Y-31459017D01*
X125985368Y-31379254D01*
X125985369Y-31379249D01*
X126005565Y-31200003D01*
X126005565Y-31199996D01*
X125985369Y-31020750D01*
X125985368Y-31020745D01*
X125925788Y-30850476D01*
X125829815Y-30697737D01*
X125702262Y-30570184D01*
X125549523Y-30474211D01*
X125379254Y-30414631D01*
X125379249Y-30414630D01*
X125200004Y-30394435D01*
X125199996Y-30394435D01*
X125020750Y-30414630D01*
X125020745Y-30414631D01*
X124850476Y-30474211D01*
X124697737Y-30570184D01*
X124570184Y-30697737D01*
X124554994Y-30721913D01*
X124502659Y-30768204D01*
X124433605Y-30778852D01*
X124369757Y-30750477D01*
X124345006Y-30721913D01*
X124329815Y-30697737D01*
X124202262Y-30570184D01*
X124049523Y-30474211D01*
X123879254Y-30414631D01*
X123879249Y-30414630D01*
X123700004Y-30394435D01*
X123699996Y-30394435D01*
X123637883Y-30401433D01*
X123569061Y-30389378D01*
X123517682Y-30342029D01*
X123500000Y-30278213D01*
X123500000Y-28624500D01*
X123519685Y-28557461D01*
X123572489Y-28511706D01*
X123624000Y-28500500D01*
X159375500Y-28500500D01*
X159442539Y-28520185D01*
G37*
G04 #@! TD.AperFunction*
G04 #@! TA.AperFunction,Conductor*
G36*
X106205203Y-81883311D02*
G01*
X106211681Y-81889343D01*
X107599473Y-83277137D01*
X107599477Y-83277140D01*
X107703137Y-83346404D01*
X107747942Y-83400016D01*
X107756649Y-83469341D01*
X107726494Y-83532369D01*
X107689341Y-83560594D01*
X107518204Y-83645469D01*
X107369778Y-83764777D01*
X107369777Y-83764778D01*
X107250469Y-83913204D01*
X107250467Y-83913207D01*
X107165860Y-84083802D01*
X107119900Y-84268607D01*
X107117000Y-84311379D01*
X107117000Y-85213622D01*
X107117001Y-85213625D01*
X107119899Y-85256386D01*
X107119899Y-85256387D01*
X107165860Y-85441196D01*
X107250467Y-85611792D01*
X107250469Y-85611795D01*
X107369777Y-85760221D01*
X107369778Y-85760222D01*
X107438986Y-85815853D01*
X107478905Y-85873196D01*
X107481485Y-85943018D01*
X107445906Y-86003151D01*
X107438997Y-86009137D01*
X107407261Y-86034648D01*
X107342680Y-86061306D01*
X107329576Y-86062000D01*
X106124000Y-86062000D01*
X106056961Y-86042315D01*
X106011206Y-85989511D01*
X106000000Y-85938000D01*
X106000000Y-81977024D01*
X106019685Y-81909985D01*
X106072489Y-81864230D01*
X106141647Y-81854286D01*
X106205203Y-81883311D01*
G37*
G04 #@! TD.AperFunction*
G04 #@! TA.AperFunction,Conductor*
G36*
X119479859Y-72672836D02*
G01*
X119512085Y-72702838D01*
X119592454Y-72810197D01*
X119617160Y-72828692D01*
X119707664Y-72896444D01*
X119707671Y-72896448D01*
X119842517Y-72946742D01*
X119842516Y-72946742D01*
X119849444Y-72947486D01*
X119902127Y-72953151D01*
X121086119Y-72953150D01*
X121153158Y-72972835D01*
X121198913Y-73025638D01*
X121208857Y-73094797D01*
X121179832Y-73158353D01*
X121173800Y-73164831D01*
X118011500Y-76327130D01*
X117950177Y-76360615D01*
X117913012Y-76362977D01*
X117700002Y-76344341D01*
X117699999Y-76344341D01*
X117464596Y-76364936D01*
X117464586Y-76364938D01*
X117236344Y-76426094D01*
X117236335Y-76426098D01*
X117022171Y-76525964D01*
X117022169Y-76525965D01*
X116828597Y-76661505D01*
X116661505Y-76828597D01*
X116531575Y-77014158D01*
X116476998Y-77057783D01*
X116407500Y-77064977D01*
X116345145Y-77033454D01*
X116328425Y-77014158D01*
X116198494Y-76828597D01*
X116031402Y-76661506D01*
X116031395Y-76661501D01*
X115837834Y-76525967D01*
X115837830Y-76525965D01*
X115837828Y-76525964D01*
X115623663Y-76426097D01*
X115623659Y-76426096D01*
X115623655Y-76426094D01*
X115395413Y-76364938D01*
X115395403Y-76364936D01*
X115160001Y-76344341D01*
X115159999Y-76344341D01*
X114924596Y-76364936D01*
X114924586Y-76364938D01*
X114696344Y-76426094D01*
X114696335Y-76426098D01*
X114482171Y-76525964D01*
X114482169Y-76525965D01*
X114288597Y-76661505D01*
X114121508Y-76828594D01*
X113991269Y-77014595D01*
X113936692Y-77058219D01*
X113867193Y-77065412D01*
X113804839Y-77033890D01*
X113788119Y-77014594D01*
X113658113Y-76828926D01*
X113658108Y-76828920D01*
X113491082Y-76661894D01*
X113297578Y-76526399D01*
X113083492Y-76426570D01*
X113083486Y-76426567D01*
X112870000Y-76369364D01*
X112870000Y-77266988D01*
X112812993Y-77234075D01*
X112685826Y-77200000D01*
X112554174Y-77200000D01*
X112427007Y-77234075D01*
X112370000Y-77266988D01*
X112370000Y-76369364D01*
X112369999Y-76369364D01*
X112156513Y-76426567D01*
X112156507Y-76426570D01*
X111942422Y-76526399D01*
X111942420Y-76526400D01*
X111748926Y-76661886D01*
X111748920Y-76661891D01*
X111581891Y-76828920D01*
X111581886Y-76828926D01*
X111446400Y-77022420D01*
X111446399Y-77022422D01*
X111346570Y-77236507D01*
X111346567Y-77236513D01*
X111289364Y-77449999D01*
X111289364Y-77450000D01*
X112186988Y-77450000D01*
X112154075Y-77507007D01*
X112120000Y-77634174D01*
X112120000Y-77765826D01*
X112154075Y-77892993D01*
X112186988Y-77950000D01*
X111289364Y-77950000D01*
X111346567Y-78163486D01*
X111346570Y-78163492D01*
X111446399Y-78377578D01*
X111581894Y-78571082D01*
X111748917Y-78738105D01*
X111934595Y-78868119D01*
X111978219Y-78922696D01*
X111985412Y-78992195D01*
X111953890Y-79054549D01*
X111934595Y-79071269D01*
X111748594Y-79201508D01*
X111581505Y-79368597D01*
X111445965Y-79562169D01*
X111445964Y-79562171D01*
X111346098Y-79776335D01*
X111346094Y-79776344D01*
X111284938Y-80004586D01*
X111284936Y-80004596D01*
X111273955Y-80130097D01*
X111248501Y-80195166D01*
X111238108Y-80206969D01*
X109981899Y-81463181D01*
X109920576Y-81496666D01*
X109894218Y-81499500D01*
X108703041Y-81499500D01*
X108636002Y-81479815D01*
X108615360Y-81463181D01*
X108600363Y-81448184D01*
X108566878Y-81386861D01*
X108571862Y-81317169D01*
X108613734Y-81261236D01*
X108629027Y-81251448D01*
X108768353Y-81176048D01*
X108798797Y-81152351D01*
X108798798Y-81152351D01*
X108211059Y-80564612D01*
X108231591Y-80559111D01*
X108368408Y-80480119D01*
X108480119Y-80368408D01*
X108559111Y-80231591D01*
X108564612Y-80211059D01*
X109151186Y-80797633D01*
X109235482Y-80668611D01*
X109328682Y-80456135D01*
X109385638Y-80231218D01*
X109404798Y-80000005D01*
X109404798Y-79999994D01*
X109385638Y-79768781D01*
X109328682Y-79543864D01*
X109235484Y-79331393D01*
X109151186Y-79202365D01*
X108564612Y-79788939D01*
X108559111Y-79768409D01*
X108480119Y-79631592D01*
X108368408Y-79519881D01*
X108231591Y-79440889D01*
X108211058Y-79435387D01*
X108798797Y-78847647D01*
X108798797Y-78847645D01*
X108768360Y-78823955D01*
X108768354Y-78823951D01*
X108564302Y-78713523D01*
X108564293Y-78713520D01*
X108344860Y-78638188D01*
X108116007Y-78600000D01*
X107883993Y-78600000D01*
X107655139Y-78638188D01*
X107435706Y-78713520D01*
X107435697Y-78713523D01*
X107231650Y-78823949D01*
X107200662Y-78848068D01*
X107135668Y-78873710D01*
X107067128Y-78860143D01*
X107016803Y-78811675D01*
X107000500Y-78750214D01*
X107000500Y-77715782D01*
X107020185Y-77648743D01*
X107036819Y-77628101D01*
X111915602Y-72749319D01*
X111976925Y-72715834D01*
X112003283Y-72713000D01*
X112354741Y-72713000D01*
X112370433Y-72714660D01*
X112370469Y-72714311D01*
X112377202Y-72714998D01*
X112377203Y-72714999D01*
X112479991Y-72725500D01*
X113480008Y-72725499D01*
X113480016Y-72725498D01*
X113480019Y-72725498D01*
X113539381Y-72719434D01*
X113582797Y-72714999D01*
X113607558Y-72706793D01*
X113646562Y-72700500D01*
X115362975Y-72700500D01*
X115362983Y-72700499D01*
X115775002Y-72700499D01*
X115775008Y-72700499D01*
X115877797Y-72689999D01*
X115970003Y-72659445D01*
X116009007Y-72653151D01*
X119412820Y-72653151D01*
X119479859Y-72672836D01*
G37*
G04 #@! TD.AperFunction*
G04 #@! TA.AperFunction,Conductor*
G36*
X121692539Y-66519685D02*
G01*
X121738294Y-66572489D01*
X121749500Y-66624000D01*
X121749500Y-67027299D01*
X121729815Y-67094338D01*
X121677011Y-67140093D01*
X121607853Y-67150037D01*
X121554377Y-67128874D01*
X121402487Y-67022519D01*
X121402483Y-67022517D01*
X121196326Y-66926385D01*
X121196317Y-66926381D01*
X120976610Y-66867511D01*
X120976599Y-66867509D01*
X120750002Y-66847685D01*
X120749998Y-66847685D01*
X120523400Y-66867509D01*
X120523389Y-66867511D01*
X120303682Y-66926381D01*
X120303673Y-66926385D01*
X120097516Y-67022517D01*
X120097512Y-67022519D01*
X120024526Y-67073624D01*
X120024526Y-67073625D01*
X120703553Y-67752651D01*
X120697339Y-67752651D01*
X120595606Y-67779910D01*
X120504394Y-67832571D01*
X120429920Y-67907045D01*
X120377259Y-67998257D01*
X120350000Y-68099990D01*
X120350000Y-68106203D01*
X119670974Y-67427177D01*
X119670973Y-67427177D01*
X119619868Y-67500163D01*
X119619866Y-67500167D01*
X119523734Y-67706324D01*
X119523730Y-67706333D01*
X119464860Y-67926040D01*
X119464858Y-67926051D01*
X119445034Y-68152648D01*
X119445034Y-68152653D01*
X119464858Y-68379250D01*
X119464860Y-68379261D01*
X119523730Y-68598968D01*
X119523735Y-68598982D01*
X119619863Y-68805129D01*
X119670974Y-68878123D01*
X120350000Y-68199097D01*
X120350000Y-68205312D01*
X120377259Y-68307045D01*
X120429920Y-68398257D01*
X120504394Y-68472731D01*
X120595606Y-68525392D01*
X120697339Y-68552651D01*
X120703551Y-68552651D01*
X120024526Y-69231676D01*
X120097513Y-69282783D01*
X120097521Y-69282787D01*
X120303668Y-69378915D01*
X120303682Y-69378920D01*
X120523389Y-69437790D01*
X120523400Y-69437792D01*
X120749998Y-69457617D01*
X120750002Y-69457617D01*
X120976599Y-69437792D01*
X120976610Y-69437790D01*
X121196317Y-69378920D01*
X121196326Y-69378916D01*
X121402482Y-69282785D01*
X121554376Y-69176427D01*
X121620582Y-69154100D01*
X121688350Y-69171110D01*
X121736163Y-69222058D01*
X121749500Y-69278002D01*
X121749500Y-70230407D01*
X121729815Y-70297446D01*
X121677011Y-70343201D01*
X121612247Y-70353696D01*
X121597873Y-70352151D01*
X121597864Y-70352151D01*
X119902129Y-70352151D01*
X119902123Y-70352152D01*
X119842516Y-70358559D01*
X119707671Y-70408853D01*
X119707664Y-70408857D01*
X119592456Y-70495103D01*
X119592455Y-70495104D01*
X119592454Y-70495105D01*
X119529155Y-70579662D01*
X119512087Y-70602462D01*
X119456153Y-70644333D01*
X119412820Y-70652151D01*
X116456959Y-70652151D01*
X116389920Y-70632466D01*
X116344165Y-70579662D01*
X116334221Y-70510504D01*
X116351420Y-70463054D01*
X116409356Y-70369124D01*
X116409358Y-70369119D01*
X116464505Y-70202697D01*
X116464506Y-70202690D01*
X116474999Y-70099986D01*
X116475000Y-70099973D01*
X116475000Y-70050000D01*
X114223000Y-70050000D01*
X114207826Y-70065173D01*
X114203315Y-70080539D01*
X114150511Y-70126294D01*
X114099000Y-70137500D01*
X111780001Y-70137500D01*
X111780001Y-70199986D01*
X111790494Y-70302697D01*
X111845641Y-70469119D01*
X111845643Y-70469124D01*
X111878815Y-70522903D01*
X111897255Y-70590295D01*
X111876333Y-70656959D01*
X111822691Y-70701729D01*
X111773276Y-70712000D01*
X111642175Y-70712000D01*
X111642155Y-70711999D01*
X111636041Y-70711999D01*
X111438960Y-70711999D01*
X111438957Y-70711999D01*
X111245672Y-70750446D01*
X111245664Y-70750448D01*
X111063588Y-70825866D01*
X111063579Y-70825871D01*
X110899719Y-70935359D01*
X110899715Y-70935362D01*
X109144517Y-72690560D01*
X109130757Y-72698073D01*
X109128608Y-72704185D01*
X109115643Y-72719434D01*
X106211681Y-75623397D01*
X106150358Y-75656882D01*
X106080666Y-75651898D01*
X106024733Y-75610026D01*
X106000316Y-75544562D01*
X106000000Y-75535716D01*
X106000000Y-72895731D01*
X106019685Y-72828692D01*
X106064983Y-72786676D01*
X106268626Y-72676470D01*
X106298587Y-72653151D01*
X106330129Y-72628600D01*
X106451784Y-72533913D01*
X106608979Y-72363153D01*
X106646191Y-72306196D01*
X106699337Y-72260839D01*
X106768569Y-72251415D01*
X106831904Y-72280917D01*
X106853809Y-72306196D01*
X106891016Y-72363147D01*
X106891019Y-72363151D01*
X106891021Y-72363153D01*
X107048216Y-72533913D01*
X107048219Y-72533915D01*
X107048222Y-72533918D01*
X107231365Y-72676464D01*
X107231371Y-72676468D01*
X107231374Y-72676470D01*
X107365987Y-72749319D01*
X107435016Y-72786676D01*
X107435497Y-72786936D01*
X107503254Y-72810197D01*
X107655015Y-72862297D01*
X107655017Y-72862297D01*
X107655019Y-72862298D01*
X107883951Y-72900500D01*
X107883952Y-72900500D01*
X108116048Y-72900500D01*
X108116049Y-72900500D01*
X108344981Y-72862298D01*
X108564503Y-72786936D01*
X108768626Y-72676470D01*
X108951784Y-72533913D01*
X108951788Y-72533908D01*
X108951799Y-72533900D01*
X108956054Y-72532221D01*
X108965598Y-72518906D01*
X109108979Y-72363153D01*
X109235924Y-72168849D01*
X109329157Y-71956300D01*
X109386134Y-71731305D01*
X109392842Y-71650349D01*
X109405300Y-71500006D01*
X109405300Y-71499993D01*
X109386135Y-71268702D01*
X109386133Y-71268691D01*
X109329157Y-71043699D01*
X109235924Y-70831151D01*
X109108983Y-70636852D01*
X109108980Y-70636849D01*
X109108979Y-70636847D01*
X108951784Y-70466087D01*
X108878252Y-70408855D01*
X108798337Y-70346654D01*
X108757524Y-70289944D01*
X108750500Y-70248801D01*
X108750500Y-69575013D01*
X111780000Y-69575013D01*
X111780000Y-69637500D01*
X112730000Y-69637500D01*
X112730000Y-68875000D01*
X113230000Y-68875000D01*
X113230000Y-69637500D01*
X113982000Y-69637500D01*
X113997173Y-69622326D01*
X114001685Y-69606961D01*
X114054489Y-69561206D01*
X114106000Y-69550000D01*
X115000000Y-69550000D01*
X115500000Y-69550000D01*
X116474999Y-69550000D01*
X116474999Y-69500028D01*
X116474998Y-69500013D01*
X116464505Y-69397302D01*
X116409358Y-69230880D01*
X116409356Y-69230875D01*
X116317315Y-69081654D01*
X116193345Y-68957684D01*
X116044124Y-68865643D01*
X116044119Y-68865641D01*
X115877697Y-68810494D01*
X115877690Y-68810493D01*
X115774986Y-68800000D01*
X115500000Y-68800000D01*
X115500000Y-69550000D01*
X115000000Y-69550000D01*
X115000000Y-68800000D01*
X114725029Y-68800000D01*
X114725012Y-68800001D01*
X114622302Y-68810494D01*
X114455880Y-68865641D01*
X114455875Y-68865643D01*
X114306654Y-68957684D01*
X114182683Y-69081655D01*
X114175218Y-69093758D01*
X114123268Y-69140481D01*
X114054305Y-69151701D01*
X113990224Y-69123856D01*
X113982000Y-69116339D01*
X113898345Y-69032684D01*
X113749124Y-68940643D01*
X113749119Y-68940641D01*
X113582697Y-68885494D01*
X113582690Y-68885493D01*
X113479986Y-68875000D01*
X113230000Y-68875000D01*
X112730000Y-68875000D01*
X112480029Y-68875000D01*
X112480012Y-68875001D01*
X112377302Y-68885494D01*
X112210880Y-68940641D01*
X112210875Y-68940643D01*
X112061654Y-69032684D01*
X111937684Y-69156654D01*
X111845643Y-69305875D01*
X111845641Y-69305880D01*
X111790494Y-69472302D01*
X111790493Y-69472309D01*
X111780000Y-69575013D01*
X108750500Y-69575013D01*
X108750500Y-67112229D01*
X108770185Y-67045190D01*
X108786819Y-67024548D01*
X109024548Y-66786819D01*
X109085871Y-66753334D01*
X109112229Y-66750500D01*
X119573920Y-66750500D01*
X119671462Y-66731096D01*
X119718913Y-66721658D01*
X119855495Y-66665084D01*
X119904729Y-66632186D01*
X119978416Y-66582952D01*
X120025049Y-66536319D01*
X120086372Y-66502834D01*
X120112730Y-66500000D01*
X121625500Y-66500000D01*
X121692539Y-66519685D01*
G37*
G04 #@! TD.AperFunction*
M02*
