M48
; DRILL file {KiCad 8.0.2-8.0.2-0~ubuntu22.04.1} date 2024-05-20T14:30:32+0700
; FORMAT={-:-/ absolute / metric / decimal}
; #@! TF.CreationDate,2024-05-20T14:30:32+07:00
; #@! TF.GenerationSoftware,Kicad,Pcbnew,8.0.2-8.0.2-0~ubuntu22.04.1
; #@! TF.FileFunction,Plated,1,2,PTH
FMAT,2
METRIC
; #@! TA.AperFunction,Plated,PTH,ViaDrill
T1C0.300
; #@! TA.AperFunction,Plated,PTH,ViaDrill
T2C0.500
; #@! TA.AperFunction,Plated,PTH,ComponentDrill
T3C0.650
; #@! TA.AperFunction,Plated,PTH,ComponentDrill
T4C0.800
; #@! TA.AperFunction,Plated,PTH,ComponentDrill
T5C0.950
; #@! TA.AperFunction,Plated,PTH,ViaDrill
T6C1.000
; #@! TA.AperFunction,Plated,PTH,ComponentDrill
T7C1.000
; #@! TA.AperFunction,Plated,PTH,ComponentDrill
T8C1.200
; #@! TA.AperFunction,Plated,PTH,ComponentDrill
T9C1.300
; #@! TA.AperFunction,Plated,PTH,ComponentDrill
T10C1.400
%
G90
G05
T1
X95.5Y-43.0
X96.0Y-60.0
X96.5Y-82.5
X98.5Y-93.0
X99.5Y-82.5
X102.0Y-43.0
X102.5Y-57.5
X103.0Y-73.5
X104.0Y-52.0
X104.0Y-80.5
X104.0Y-91.0
X104.2Y-67.9
X104.5Y-85.0
X106.0Y-49.5
X107.0Y-60.0
X107.0Y-83.5
X109.0Y-68.5
X111.0Y-46.0
X112.0Y-68.5
X115.5Y-46.0
X116.0Y-67.5
X117.0Y-83.0
X117.0Y-86.5
X117.5Y-62.0
X118.5Y-49.0
X118.5Y-59.0
X119.0Y-90.0
X119.5Y-53.5
X121.0Y-92.5
X123.7Y-31.2
X124.5Y-66.0
X124.5Y-83.5
X125.0Y-46.0
X125.0Y-51.5
X125.2Y-31.2
X125.5Y-60.5
X126.4Y-36.3
X126.5Y-81.5
X127.0Y-88.0
X127.0Y-90.5
X128.5Y-54.5
X128.5Y-59.0
X129.0Y-44.5
X130.6Y-32.6
X131.5Y-46.5
X136.0Y-29.0
X136.7Y-32.5
X138.0Y-44.0
X138.0Y-58.5
X138.0Y-72.5
X138.0Y-83.5
X141.1Y-44.0
X141.2Y-40.2
X141.3Y-58.6
X141.3Y-72.5
X141.5Y-83.5
X143.5Y-35.3
X144.5Y-48.6
X144.6Y-63.2
X145.1Y-78.1
X148.6Y-38.7
X148.7Y-66.6
X148.7Y-74.4
X148.8Y-52.3
X149.1Y-45.2
X149.2Y-59.4
X150.1Y-81.7
X152.3Y-88.1
T2
X105.5Y-47.75
T3
X100.5Y-40.25
X100.5Y-50.25
T4
X114.487Y-84.763
X114.487Y-88.263
X114.65Y-32.753
X114.65Y-36.253
X120.75Y-68.153
X120.75Y-71.653
T5
X100.5Y-64.25
X105.5Y-64.25
T6
X136.25Y-38.0
T7
X100.5Y-53.695
X100.5Y-56.235
X100.5Y-58.775
X112.62Y-77.7
X112.62Y-80.24
X115.16Y-77.7
X115.16Y-80.24
X117.7Y-77.7
X117.7Y-80.24
X120.24Y-77.7
X120.24Y-80.24
X155.7Y-56.25
X155.71Y-70.91
X155.71Y-85.41
X155.9Y-41.75
T8
X98.0Y-71.5
X98.0Y-80.0
X100.5Y-71.5
X105.5Y-71.5
X108.0Y-71.5
X108.0Y-80.0
T9
X105.68Y-42.47
X109.18Y-42.47
T10
X133.925Y-34.15
X133.925Y-41.75
X133.975Y-77.95
X133.975Y-85.55
X134.06Y-48.6
X134.06Y-56.2
X134.075Y-63.25
X134.075Y-70.85
X146.625Y-41.75
X146.675Y-85.55
X146.76Y-56.2
X146.775Y-70.85
X149.165Y-34.15
X149.215Y-77.95
X149.3Y-48.6
X149.315Y-63.25
M30
